<?xml version="1.0" encoding="UTF-8"?><svg xmlns="http://www.w3.org/2000/svg" version="1.1" viewBox="0 0 992.13 992.13"><title>Satuit DW-101S Women’s Essential Tee</title><desc>Gold+ semantic SVG. Geometry unchanged.</desc><defs><style> .outline { fill: #fff; } .seam { stroke-width: 2.95px; } .seam, .stitching, .dimension, .annotation { stroke-miterlimit: 10; } .seam, .stitching, .dimension, .annotation, .grid, .st6 { fill: none; stroke: #000; } .stitching { stroke-width: 2px; } .st7 { fill: #27aae1; } .dimension { stroke-width: 4px; } .annotation { stroke-width: 3.98px; } .st8 { opacity: .38; } .grid { stroke-dasharray: 4.58; stroke-width: 1.82px; } .grid, .st6 { stroke-linecap: round; stroke-linejoin: round; } .st6 { stroke-dasharray: 3.7; stroke-width: 1.47px; } </style></defs><g id="_x31_.GRID_x5F_BG"><g class="st8"><rect class="st7" x="77.84" y="959.57" width="836.45" height="1.02"/><rect class="st7" x="77.84" y="912.83" width="836.45" height="1.02"/><rect class="st7" x="77.84" y="866.1" width="836.45" height="1.02"/><rect class="st7" x="77.84" y="819.36" width="836.45" height="1.02"/><rect class="st7" x="77.84" y="772.62" width="836.45" height="1.02"/><rect class="st7" x="77.84" y="725.88" width="836.45" height="1.02"/><rect class="st7" x="77.84" y="679.15" width="836.45" height="1.02"/><rect class="st7" x="77.84" y="632.41" width="836.45" height="1.02"/><rect class="st7" x="77.84" y="585.67" width="836.45" height="1.02"/><rect class="st7" x="77.84" y="538.94" width="836.45" height="1.02"/><rect class="st7" x="77.84" y="492.2" width="836.45" height="1.02"/><rect class="st7" x="77.84" y="445.46" width="836.45" height="1.02"/><rect class="st7" x="77.84" y="398.72" width="836.45" height="1.02"/><rect class="st7" x="77.84" y="351.99" width="836.45" height="1.02"/><rect class="st7" x="77.84" y="305.25" width="836.45" height="1.02"/><rect class="st7" x="77.84" y="258.51" width="836.45" height="1.02"/><rect class="st7" x="77.84" y="211.78" width="836.45" height="1.02"/><rect class="st7" x="77.84" y="165.04" width="836.45" height="1.02"/><rect class="st7" x="77.84" y="118.3" width="836.45" height="1.02"/><rect class="st7" x="77.84" y="71.56" width="836.45" height="1.02"/><rect class="st7" x="909.76" y="31.87" width=".8" height="927.7"/><rect class="st7" x="860.8" y="31.53" width="1.02" height="928.04"/><rect class="st7" x="811.83" y="31.53" width="1.02" height="928.04"/><rect class="st7" x="762.86" y="31.53" width="1.02" height="928.04"/><rect class="st7" x="713.9" y="31.53" width="1.02" height="928.04"/><rect class="st7" x="664.93" y="31.53" width="1.02" height="928.04"/><rect class="st7" x="615.96" y="31.53" width="1.02" height="928.04"/><rect class="st7" x="566.99" y="31.53" width="1.02" height="928.04"/><rect class="st7" x="518.03" y="31.53" width="1.02" height="928.04"/><rect class="st7" x="469.06" y="31.53" width="1.02" height="928.04"/><rect class="st7" x="420.09" y="31.53" width="1.02" height="928.04"/><rect class="st7" x="371.13" y="31.53" width="1.02" height="928.04"/><rect class="st7" x="322.16" y="31.53" width="1.02" height="928.04"/><rect class="st7" x="273.19" y="31.53" width="1.02" height="928.04"/><rect class="st7" x="224.23" y="31.53" width="1.02" height="928.04"/><rect class="st7" x="175.26" y="31.53" width="1.02" height="928.04"/><rect class="st7" x="126.29" y="31.53" width="1.02" height="928.04"/></g><rect class="annotation" x="77.58" y="30.35" width="836.97" height="931.42"/></g><g id="_x32_.MASK_x5F_FILL"><path class="outline" d="M584.67,87.01c-101.99,42.68-204.99,0-204.99,0l-22.17,10.5-107.95,43.76-127.79,117.87,83.44,116.12,58.93-24.51s31,75.36,24.9,180.51c-4.46,76.95-27.43,125.73-34.91,252.23,0,0,77.59,24.47,235.67,24.73,155.84.26,218.16-24.73,218.16-24.73-7.48-126.5-30.45-175.28-34.91-252.23-6.1-105.15,24.9-180.51,24.9-180.51l58.93,24.51,83.44-116.12-127.79-117.87-107.95-43.76-22.17-10.5"/></g><g id="_x33_.SEAMS_x5F_INT"><path class="seam" d="M600.23,95.44s-9.35,114.46-118.85,111.87c-109.51,2.59-120.5-110.93-120.5-110.93l18.81-9.36s8.21,101.75,101.38,99.55c93.17,2.19,101.38-97.89,101.38-97.89l17.79,6.77Z"/><path class="stitching" d="M249.56,141.28s51.42,104.74,14.59,209.48"/><path class="stitching" d="M711.4,141.28s-51.42,104.74-14.59,209.48"/><path class="seam" d="M385.75,114.57s90.6,31.21,191.01,0"/></g><g id="_x34_.OUTLINE_MAIN"><path class="dimension" d="M584.67,87.01c-101.99,42.68-204.99,0-204.99,0l-22.17,10.5-107.95,43.76-127.79,117.87,83.44,116.12,58.93-24.51s31,75.36,24.9,180.51c-4.46,76.95-27.43,125.73-34.91,252.23,0,0,77.59,24.47,235.67,24.73,155.84.26,218.16-24.73,218.16-24.73-7.48-126.5-30.45-175.28-34.91-252.23-6.1-105.15,24.9-180.51,24.9-180.51l58.93,24.51,83.44-116.12-127.79-117.87-107.95-43.76-22.17-10.5"/></g><g id="_x35_.STITCHING"><path class="grid" d="M356.76,98.34c7.16,65.44,56.04,115.05,120.95,114.46,63.3,6.56,119.64-41.94,127-111.22"/><line class="st6" x1="146.17" y1="239.87" x2="234.6" y2="366.45"/><line class="st6" x1="137.95" y1="244.75" x2="224.01" y2="366.45"/><line class="st6" x1="816.71" y1="239.87" x2="728.28" y2="366.45"/><line class="st6" x1="824.93" y1="244.75" x2="738.87" y2="366.45"/><path class="grid" d="M254.15,760.5s77.59,24.47,235.67,24.73c155.84.26,218.16-24.73,218.16-24.73"/><path class="grid" d="M254.15,750.5s77.59,24.47,235.67,24.73c155.84.26,218.16-24.73,218.16-24.73"/></g><g id="_x39_.ANNOTATIONS"><g><path d="M85.38,943.27v-16.1h7.94c1.79,0,3.37.33,4.74.98,1.36.65,2.43,1.58,3.2,2.77.77,1.2,1.15,2.63,1.15,4.3s-.38,3.09-1.15,4.29c-.77,1.2-1.83,2.13-3.2,2.78-1.36.65-2.94.98-4.74.98h-7.94ZM90.81,939.04h2.28c.77,0,1.44-.15,2.01-.44.58-.29,1.02-.72,1.35-1.3.32-.58.48-1.27.48-2.08s-.16-1.53-.48-2.09c-.32-.57-.77-1-1.35-1.29-.57-.29-1.25-.44-2.01-.44h-2.28v7.64Z"/><path d="M107.87,943.27l-5.15-16.1h5.59l4.16,13.59h-2.81l4.42-13.59h4.99l4.12,13.59h-2.69l4.35-13.59h5.15l-5.15,16.1h-5.82l-3.36-11.13h1.56l-3.54,11.13h-5.82Z"/><path d="M130.58,938.58v-3.91h6.9v3.91h-6.9Z"/><path d="M140.81,943.27v-14.21l2.32,2.21h-5.08v-4.09h8.19v16.1h-5.43Z"/><path d="M155.51,943.64c-1.43,0-2.69-.33-3.78-.99s-1.95-1.62-2.58-2.88c-.62-1.26-.93-2.78-.93-4.55s.31-3.3.93-4.55c.62-1.26,1.48-2.22,2.58-2.88s2.36-.99,3.78-.99,2.69.33,3.78.99c1.1.66,1.95,1.62,2.58,2.88.62,1.26.93,2.78.93,4.55s-.31,3.3-.93,4.55c-.62,1.26-1.48,2.22-2.58,2.88-1.1.66-2.36.99-3.78.99ZM155.51,939.29c.35,0,.67-.12.94-.37s.49-.67.66-1.27c.16-.6.24-1.41.24-2.44s-.08-1.86-.24-2.45c-.16-.59-.38-1.01-.66-1.25s-.59-.37-.94-.37-.67.12-.94.37c-.28.25-.49.66-.66,1.25-.16.59-.24,1.41-.24,2.45s.08,1.84.24,2.44c.16.6.38,1.02.66,1.27.28.25.59.37.94.37Z"/><path d="M166.11,943.27v-14.21l2.32,2.21h-5.08v-4.09h8.19v16.1h-5.43Z"/><path d="M180.16,943.64c-1.35,0-2.65-.15-3.91-.46s-2.29-.71-3.1-1.2l1.75-3.96c.77.45,1.62.8,2.56,1.07.94.27,1.86.4,2.75.4.52,0,.93-.03,1.23-.1.3-.07.52-.17.66-.3.14-.13.21-.29.21-.47,0-.29-.16-.52-.48-.69-.32-.17-.75-.31-1.28-.43-.53-.12-1.11-.24-1.74-.37-.63-.13-1.26-.3-1.9-.52-.64-.21-1.22-.5-1.75-.85s-.95-.82-1.28-1.39c-.32-.58-.48-1.29-.48-2.15,0-1,.28-1.91.84-2.73.56-.82,1.4-1.48,2.51-1.97,1.11-.49,2.5-.74,4.15-.74,1.09,0,2.16.12,3.22.34,1.06.23,2.01.58,2.85,1.06l-1.63,3.93c-.8-.4-1.57-.7-2.31-.9-.74-.2-1.47-.3-2.17-.3-.52,0-.94.05-1.24.14-.31.09-.53.22-.66.37-.13.15-.2.32-.2.51,0,.28.16.5.48.66.32.16.75.29,1.28.4.53.11,1.11.22,1.75.34.64.12,1.27.29,1.9.51.63.21,1.21.5,1.74.85.53.35.95.81,1.28,1.38.32.57.48,1.27.48,2.12,0,.98-.28,1.88-.84,2.7-.56.82-1.39,1.48-2.5,1.98s-2.49.75-4.16.75Z"/><path d="M189.23,938.58v-3.91h6.9v3.91h-6.9Z"/><path d="M209.44,943.27l-5.15-16.1h5.59l4.16,13.59h-2.81l4.42-13.59h4.99l4.12,13.59h-2.69l4.35-13.59h5.15l-5.15,16.1h-5.82l-3.36-11.13h1.56l-3.54,11.13h-5.82Z"/><path d="M240.97,943.64c-1.3,0-2.51-.21-3.62-.62s-2.07-1-2.89-1.76c-.81-.76-1.45-1.65-1.9-2.68-.45-1.03-.68-2.15-.68-3.36s.23-2.35.68-3.37c.45-1.02,1.08-1.91,1.9-2.67.81-.76,1.77-1.34,2.89-1.76s2.32-.62,3.62-.62,2.53.21,3.63.62,2.06,1,2.88,1.76c.81.76,1.44,1.65,1.9,2.67.45,1.02.68,2.14.68,3.37s-.23,2.33-.68,3.36c-.45,1.03-1.08,1.92-1.9,2.68-.81.76-1.77,1.35-2.88,1.76s-2.32.62-3.63.62ZM240.97,939.25c.51,0,.98-.09,1.41-.28.44-.18.82-.45,1.15-.79.33-.34.59-.77.77-1.26s.28-1.06.28-1.69-.09-1.19-.28-1.69-.44-.92-.77-1.27c-.33-.34-.71-.61-1.15-.79-.44-.18-.91-.28-1.41-.28s-.98.09-1.41.28c-.44.18-.82.45-1.15.79-.33.35-.59.77-.77,1.27s-.28,1.06-.28,1.69.09,1.19.28,1.69.44.92.77,1.26c.33.35.71.61,1.15.79.44.18.91.28,1.41.28Z"/><path d="M252.04,943.27v-16.1h4.46l6.44,10.51h-2.35l6.26-10.51h4.46l.05,16.1h-4.94l-.05-8.65h.78l-4.28,7.2h-2.39l-4.46-7.2h.97v8.65h-4.94Z"/><path d="M273.98,943.27v-16.1h13.09v4.09h-7.75v7.91h8.05v4.09h-13.39ZM278.95,937.06v-3.91h7.18v3.91h-7.18Z"/><path d="M289.46,943.27v-16.1h4.46l8.19,9.8h-2.07v-9.8h5.29v16.1h-4.46l-8.19-9.8h2.07v9.8h-5.29Z"/><path d="M307.44,935.36l1.93-6.46.76,2.9c-.89,0-1.62-.26-2.19-.77-.57-.51-.85-1.22-.85-2.1s.29-1.62.86-2.15c.58-.53,1.3-.79,2.17-.79s1.6.26,2.17.79c.58.53.86,1.25.86,2.15,0,.25-.02.49-.06.74-.04.25-.12.54-.24.89-.12.34-.32.81-.6,1.39l-1.61,3.43h-3.22Z"/><path d="M321.17,943.64c-1.35,0-2.65-.15-3.91-.46s-2.29-.71-3.1-1.2l1.75-3.96c.77.45,1.62.8,2.56,1.07.94.27,1.86.4,2.75.4.52,0,.93-.03,1.23-.1.3-.07.52-.17.66-.3.14-.13.21-.29.21-.47,0-.29-.16-.52-.48-.69-.32-.17-.75-.31-1.28-.43-.53-.12-1.11-.24-1.74-.37-.63-.13-1.26-.3-1.9-.52-.64-.21-1.22-.5-1.75-.85s-.95-.82-1.28-1.39c-.32-.58-.48-1.29-.48-2.15,0-1,.28-1.91.84-2.73.56-.82,1.4-1.48,2.51-1.97,1.11-.49,2.5-.74,4.15-.74,1.09,0,2.16.12,3.22.34,1.06.23,2.01.58,2.85,1.06l-1.63,3.93c-.8-.4-1.57-.7-2.31-.9-.74-.2-1.47-.3-2.17-.3-.52,0-.94.05-1.24.14-.31.09-.53.22-.66.37-.13.15-.2.32-.2.51,0,.28.16.5.48.66.32.16.75.29,1.28.4.53.11,1.11.22,1.75.34.64.12,1.27.29,1.9.51.63.21,1.21.5,1.74.85.53.35.95.81,1.28,1.38.32.57.48,1.27.48,2.12,0,.98-.28,1.88-.84,2.7-.56.82-1.39,1.48-2.5,1.98s-2.49.75-4.16.75Z"/><path d="M337.18,943.27v-16.1h13.09v4.09h-7.75v7.91h8.05v4.09h-13.39ZM342.15,937.06v-3.91h7.18v3.91h-7.18Z"/><path d="M358.66,943.64c-1.35,0-2.65-.15-3.91-.46s-2.29-.71-3.1-1.2l1.75-3.96c.77.45,1.62.8,2.56,1.07.94.27,1.86.4,2.75.4.52,0,.93-.03,1.23-.1.3-.07.52-.17.66-.3.14-.13.21-.29.21-.47,0-.29-.16-.52-.48-.69-.32-.17-.75-.31-1.28-.43-.53-.12-1.11-.24-1.74-.37-.63-.13-1.26-.3-1.9-.52-.64-.21-1.22-.5-1.75-.85s-.95-.82-1.28-1.39c-.32-.58-.48-1.29-.48-2.15,0-1,.28-1.91.84-2.73.56-.82,1.4-1.48,2.51-1.97,1.11-.49,2.5-.74,4.15-.74,1.09,0,2.16.12,3.22.34,1.06.23,2.01.58,2.85,1.06l-1.63,3.93c-.8-.4-1.57-.7-2.31-.9-.74-.2-1.47-.3-2.17-.3-.52,0-.94.05-1.24.14-.31.09-.53.22-.66.37-.13.15-.2.32-.2.51,0,.28.16.5.48.66.32.16.75.29,1.28.4.53.11,1.11.22,1.75.34.64.12,1.27.29,1.9.51.63.21,1.21.5,1.74.85.53.35.95.81,1.28,1.38.32.57.48,1.27.48,2.12,0,.98-.28,1.88-.84,2.7-.56.82-1.39,1.48-2.5,1.98s-2.49.75-4.16.75Z"/><path d="M373.77,943.64c-1.35,0-2.65-.15-3.91-.46s-2.29-.71-3.1-1.2l1.75-3.96c.77.45,1.62.8,2.56,1.07.94.27,1.86.4,2.75.4.52,0,.93-.03,1.23-.1.3-.07.52-.17.66-.3.14-.13.21-.29.21-.47,0-.29-.16-.52-.48-.69-.32-.17-.75-.31-1.28-.43-.53-.12-1.11-.24-1.74-.37-.63-.13-1.26-.3-1.9-.52-.64-.21-1.22-.5-1.75-.85s-.95-.82-1.28-1.39c-.32-.58-.48-1.29-.48-2.15,0-1,.28-1.91.84-2.73.56-.82,1.4-1.48,2.51-1.97,1.11-.49,2.5-.74,4.15-.74,1.09,0,2.16.12,3.22.34,1.06.23,2.01.58,2.85,1.06l-1.63,3.93c-.8-.4-1.57-.7-2.31-.9-.74-.2-1.47-.3-2.17-.3-.52,0-.94.05-1.24.14-.31.09-.53.22-.66.37-.13.15-.2.32-.2.51,0,.28.16.5.48.66.32.16.75.29,1.28.4.53.11,1.11.22,1.75.34.64.12,1.27.29,1.9.51.63.21,1.21.5,1.74.85.53.35.95.81,1.28,1.38.32.57.48,1.27.48,2.12,0,.98-.28,1.88-.84,2.7-.56.82-1.39,1.48-2.5,1.98s-2.49.75-4.16.75Z"/><path d="M382.88,943.27v-16.1h13.09v4.09h-7.75v7.91h8.05v4.09h-13.39ZM387.85,937.06v-3.91h7.18v3.91h-7.18Z"/><path d="M398.36,943.27v-16.1h4.46l8.19,9.8h-2.07v-9.8h5.29v16.1h-4.46l-8.19-9.8h2.07v9.8h-5.29Z"/><path d="M420.35,943.27v-11.89h-4.72v-4.21h14.86v4.21h-4.72v11.89h-5.43Z"/><path d="M431.89,943.27v-16.1h5.43v16.1h-5.43Z"/><path d="M438.2,943.27l7.04-16.1h5.34l7.04,16.1h-5.61l-5.2-13.52h2.12l-5.2,13.52h-5.52ZM442.38,940.47l1.38-3.91h7.41l1.38,3.91h-10.17Z"/><path d="M458.48,943.27v-16.1h5.43v11.89h7.27v4.21h-12.7Z"/><path d="M483.07,943.27v-11.89h-4.71v-4.21h14.86v4.21h-4.71v11.89h-5.43Z"/><path d="M494.61,943.27v-16.1h13.09v4.09h-7.75v7.91h8.05v4.09h-13.39ZM499.58,937.06v-3.91h7.18v3.91h-7.18Z"/><path d="M510.09,943.27v-16.1h13.09v4.09h-7.75v7.91h8.05v4.09h-13.39ZM515.06,937.06v-3.91h7.18v3.91h-7.18Z"/><path d="M532.47,943.27v-16.1h13.09v4.09h-7.66v12.01h-5.43ZM537.53,938.12v-4.09h7.08v4.09h-7.08Z"/><path d="M547.28,943.27v-16.1h7.52c2.47,0,4.35.54,5.63,1.63s1.93,2.57,1.93,4.44c0,1.24-.3,2.31-.9,3.21-.6.9-1.45,1.58-2.54,2.06-1.1.48-2.4.71-3.9.71h-4.74l2.42-2.23v6.28h-5.43ZM552.71,937.59l-2.42-2.46h4.39c.75,0,1.31-.17,1.67-.51.36-.34.54-.8.54-1.38s-.18-1.04-.54-1.38c-.36-.34-.92-.51-1.67-.51h-4.39l2.42-2.46v8.69ZM556.92,943.27l-3.96-5.87h5.75l4,5.87h-5.8Z"/><path d="M572.86,943.64c-1.3,0-2.51-.21-3.62-.62-1.11-.41-2.07-1-2.89-1.76-.81-.76-1.45-1.65-1.9-2.68-.45-1.03-.68-2.15-.68-3.36s.23-2.35.68-3.37c.45-1.02,1.08-1.91,1.9-2.67.81-.76,1.77-1.34,2.89-1.76,1.11-.41,2.32-.62,3.62-.62s2.53.21,3.63.62c1.1.41,2.06,1,2.88,1.76.81.76,1.45,1.65,1.9,2.67.45,1.02.68,2.14.68,3.37s-.23,2.33-.68,3.36c-.45,1.03-1.08,1.92-1.9,2.68s-1.77,1.35-2.88,1.76c-1.1.41-2.32.62-3.63.62ZM572.86,939.25c.51,0,.98-.09,1.41-.28.44-.18.82-.45,1.15-.79.33-.34.59-.77.77-1.26.18-.5.28-1.06.28-1.69s-.09-1.19-.28-1.69c-.18-.5-.44-.92-.77-1.27-.33-.34-.71-.61-1.15-.79-.44-.18-.91-.28-1.41-.28s-.98.09-1.41.28c-.44.18-.82.45-1.15.79-.33.35-.59.77-.77,1.27s-.28,1.06-.28,1.69.09,1.19.28,1.69.44.92.77,1.26c.33.35.71.61,1.15.79.44.18.91.28,1.41.28Z"/><path d="M583.92,943.27v-16.1h4.46l8.19,9.8h-2.07v-9.8h5.29v16.1h-4.46l-8.19-9.8h2.07v9.8h-5.29Z"/><path d="M605.91,943.27v-11.89h-4.71v-4.21h14.86v4.21h-4.71v11.89h-5.43Z"/></g></g></svg>