<?xml version="1.0" encoding="UTF-8"?><svg xmlns="http://www.w3.org/2000/svg" version="1.1" viewBox="0 0 992.13 992.13"><title>Satuit DWG-302 Women’s Coastal Short</title><desc>Gold+ semantic SVG. Geometry unchanged.</desc><defs><style> .outline { stroke-dasharray: 6.29; stroke-linecap: round; stroke-width: 1.57px; } .outline, .seam, .stitching, .dimension, .annotation { fill: none; } .outline, .seam, .stitching, .dimension, .annotation, .grid { stroke: #000; stroke-miterlimit: 10; } .st6, .grid { fill: #fff; } .seam { stroke-width: 2px; } .st7 { fill: #27aae1; } .stitching { stroke-width: 4px; } .dimension { stroke-width: 3.91px; } .annotation { stroke-width: 3.98px; } .st8 { opacity: .38; } .grid { stroke-width: 3.88px; }  .seam,.stitching{fill:none!important;}g[id*="SEAMS"] path,g[id*="SEAMS"] rect,g[id*="SEAMS"] circle,g[id*="SEAMS"] ellipse,g[id*="SEAMS"] polygon,g[id*="SEAMS"] polyline,g[id*="STITCHING"] path,g[id*="STITCHING"] rect,g[id*="STITCHING"] circle,g[id*="STITCHING"] ellipse,g[id*="STITCHING"] polygon,g[id*="STITCHING"] polyline{fill:none!important;}</style></defs><g id="_x31_.GRID_x5F_BG"><g class="st8"><rect class="st7" x="77.84" y="959.57" width="836.45" height="1.02"/><rect class="st7" x="77.84" y="912.83" width="836.45" height="1.02"/><rect class="st7" x="77.84" y="866.1" width="836.45" height="1.02"/><rect class="st7" x="77.84" y="819.36" width="836.45" height="1.02"/><rect class="st7" x="77.84" y="772.62" width="836.45" height="1.02"/><rect class="st7" x="77.84" y="725.88" width="836.45" height="1.02"/><rect class="st7" x="77.84" y="679.15" width="836.45" height="1.02"/><rect class="st7" x="77.84" y="632.41" width="836.45" height="1.02"/><rect class="st7" x="77.84" y="585.67" width="836.45" height="1.02"/><rect class="st7" x="77.84" y="538.94" width="836.45" height="1.02"/><rect class="st7" x="77.84" y="492.2" width="836.45" height="1.02"/><rect class="st7" x="77.84" y="445.46" width="836.45" height="1.02"/><rect class="st7" x="77.84" y="398.72" width="836.45" height="1.02"/><rect class="st7" x="77.84" y="351.99" width="836.45" height="1.02"/><rect class="st7" x="77.84" y="305.25" width="836.45" height="1.02"/><rect class="st7" x="77.84" y="258.51" width="836.45" height="1.02"/><rect class="st7" x="77.84" y="211.78" width="836.45" height="1.02"/><rect class="st7" x="77.84" y="165.04" width="836.45" height="1.02"/><rect class="st7" x="77.84" y="118.3" width="836.45" height="1.02"/><rect class="st7" x="77.84" y="71.56" width="836.45" height="1.02"/><rect class="st7" x="909.76" y="31.87" width=".8" height="927.7"/><rect class="st7" x="860.8" y="31.53" width="1.02" height="928.04"/><rect class="st7" x="811.83" y="31.53" width="1.02" height="928.04"/><rect class="st7" x="762.86" y="31.53" width="1.02" height="928.04"/><rect class="st7" x="713.9" y="31.53" width="1.02" height="928.04"/><rect class="st7" x="664.93" y="31.53" width="1.02" height="928.04"/><rect class="st7" x="615.96" y="31.53" width="1.02" height="928.04"/><rect class="st7" x="566.99" y="31.53" width="1.02" height="928.04"/><rect class="st7" x="518.03" y="31.53" width="1.02" height="928.04"/><rect class="st7" x="469.06" y="31.53" width="1.02" height="928.04"/><rect class="st7" x="420.09" y="31.53" width="1.02" height="928.04"/><rect class="st7" x="371.13" y="31.53" width="1.02" height="928.04"/><rect class="st7" x="322.16" y="31.53" width="1.02" height="928.04"/><rect class="st7" x="273.19" y="31.53" width="1.02" height="928.04"/><rect class="st7" x="224.23" y="31.53" width="1.02" height="928.04"/><rect class="st7" x="175.26" y="31.53" width="1.02" height="928.04"/><rect class="st7" x="126.29" y="31.53" width="1.02" height="928.04"/></g><g><rect class="annotation" x="77.58" y="30.35" width="836.97" height="931.42"/><rect class="grid" x="640.91" y="822.57" width="273.64" height="139.21"/><line class="dimension" x1="640.91" y1="887.71" x2="914.55" y2="887.71"/></g></g><g id="_x32_.MASK_x5F_FILL"><path class="st6" d="M494.16,597.88l-21.45,114.06c-31.08,3.98-88.38-8.35-157.87-22.79-81.12-16.85-199.34-53.52-199.34-53.52,46.85-287.76,95.18-393.31,95.18-393.31l17.85-60.23h535.06s17.85,60.23,17.85,60.23c0,0,48.33,105.55,95.18,393.31,0,0-118.22,36.68-199.34,53.52-69.49,14.43-126.79,26.77-157.87,22.79l-21.45-114.06c-.4-2.11-3.41-2.11-3.81,0Z"/></g><g id="_x33_.SEAMS_x5F_INT"><path class="seam" d="M227.36,186.06s274.01,61.11,536.24-3.96"/><path class="seam" d="M210.69,242.33s302.16,80.74,570.75,0"/><path class="seam" d="M758.95,248.69s40.94,100.21,84.22,306.89c5.43,25.93,16.41,50.46,32.15,71.98"/><path class="seam" d="M519.41,711.95s32.4-32.77,108.63-47.78c151.99-29.93,173.87-19.9,187.67-36.61,15.85-19.19,19.02-35.67,28.19-68.66"/><path class="seam" d="M235,248.69s-40.94,100.21-84.22,306.89c-5.43,25.93-16.41,50.46-32.15,71.98"/><path class="seam" d="M474.53,711.95s-32.4-32.77-108.63-47.78c-151.99-29.93-173.87-19.9-187.67-36.61-15.85-19.19-19.02-35.67-28.19-68.66"/><line class="seam" x1="496.06" y1="597.88" x2="496.06" y2="279.96"/><path d="M507.5,279.56c3,11.91,5.1,24.05,6.26,36.28,1.16,12.19,1.42,24.48.75,36.71-.38,6.94-1.06,13.87-2.03,20.76-.09.63.87.9.96.27,1.73-12.25,2.55-24.63,2.42-37.01s-1.19-24.66-3.17-36.83c-1.12-6.87-2.53-13.69-4.22-20.44-.16-.62-1.12-.36-.96.27h0Z"/><path d="M580.63,274.54c3.58,10.36,6.64,20.89,9.18,31.56s4.54,21.45,6.01,32.31c.83,6.17,1.49,12.37,1.97,18.58.05.64,1.05.64,1,0-.85-10.97-2.25-21.9-4.18-32.73-1.94-10.87-4.42-21.64-7.44-32.26-1.69-5.96-3.55-11.87-5.57-17.73-.21-.6-1.18-.34-.96.27h0Z"/><path d="M675.93,267.46c2.23,3.52,4.13,7.25,5.64,11.13,1.36,3.49,2.35,7.1,3.26,10.73,1.86,7.44,3.31,14.98,4.62,22.53.85,4.9,1.62,9.81,2.36,14.72.1.63,1.06.36.96-.27-1.27-8.45-2.64-16.88-4.31-25.26-.73-3.68-1.53-7.35-2.42-10.99s-1.8-7.12-3.07-10.57c-1.61-4.38-3.68-8.59-6.18-12.53-.34-.54-1.21-.04-.86.5h0Z"/><path d="M539.38,279.08c3.16,7.18,5.52,14.71,7.02,22.41.43,2.21.79,4.43,1.08,6.66.06.44.68.74.93.25,1.22-2.34,2.06-4.86,2.45-7.48.19-1.31.28-2.63.26-3.95-.02-1.04-.17-2.05-.25-3.09-.27-3.53.14-7.25.97-10.69.38-1.57.84-3.43,1.99-4.63.44-.47-.26-1.17-.71-.71-1.01,1.06-1.53,2.54-1.94,3.92-.54,1.84-.85,3.75-1.07,5.66-.2,1.77-.32,3.56-.28,5.35.04,2.06.39,4.08.26,6.15-.2,3.12-1.07,6.18-2.52,8.96l.93.25c-1.03-7.95-2.92-15.77-5.69-23.29-.78-2.12-1.63-4.21-2.54-6.28-.26-.59-1.12-.08-.86.5h0Z"/><path d="M619.92,272.86c3.86,7.97,7.35,16.11,10.52,24.38s6.28,17.42,8.92,26.29c1.53,5.14,2.96,10.32,4.29,15.52.15.58.93.4.98-.13.83-8.41.65-16.93-.51-25.3-.56-4.06-1.4-8.07-2.45-12.03s-2.22-7.89-2.98-11.92c-.85-4.48-1.19-9.14.02-13.59.17-.62-.8-.89-.96-.27-2.15,7.93.29,16.23,2.38,23.9,1.07,3.94,2.04,7.89,2.69,11.92s1.09,8.47,1.25,12.73c.18,4.86.04,9.72-.44,14.56l.98-.13c-2.36-9.25-5.04-18.42-8.07-27.48s-6.09-17.11-9.64-25.46c-1.93-4.54-3.97-9.04-6.12-13.49-.28-.58-1.14-.07-.86.5h0Z"/><path d="M493.17,270.67c2.36-11.05,2.8-22.48,1.3-33.69-.42-3.16-1-6.29-1.73-9.39l-.73.56c5.5,2.38,8.54,7.87,10.68,13.17,1.23,3.04,2.29,6.16,3.28,9.28,1.12,3.53,2.1,7.15,2.52,10.84.46,4.05.23,8.14-1.16,12-.22.61.75.87.96.27,2.59-7.18,1.21-14.94-.94-22.04-1.02-3.37-2.17-6.73-3.46-10.01-1.1-2.8-2.36-5.58-4.08-8.06-1.86-2.69-4.27-5-7.3-6.31-.39-.17-.84.11-.73.56,2.54,10.81,3.21,22.04,1.98,33.08-.35,3.18-.87,6.33-1.54,9.46-.13.63.83.9.96.27h0Z"/><path d="M530.75,266.47c-.43-4.94,1.43-9.7,1.47-14.62s-1.35-9.36-3.17-13.7c-1.04-2.49-2.23-4.91-3.43-7.33-.29-.58-1.15-.07-.86.5,2.09,4.22,4.19,8.49,5.43,13.06.61,2.25,1,4.57,1.04,6.91s-.38,4.82-.8,7.21c-.46,2.63-.9,5.29-.67,7.97.06.64,1.06.64,1,0h0Z"/><path d="M586.14,262.77c-.31-5.4-.99-10.77-2.06-16.07-.55-2.71-1.19-5.39-1.93-8.05s-1.6-5.04-2.41-7.57c-.25-.78-.37-1.7-.13-2.5.37-1.24,1.41-.56,2.1.06,1.76,1.57,3.17,3.48,4.35,5.52,2.54,4.41,4.22,9.4,5.34,14.35,1.32,5.86,1.74,11.9,1.27,17.88-.03.43.57.67.85.35,3.47-3.89,4.93-9.01,5.18-14.13.3-5.92-1.06-11.71-2.29-17.46-.77-3.59-1.48-7.19-1.72-10.86-.04-.64-1.04-.64-1,0,.76,11.39,6.26,22.75,3.1,34.21-.76,2.77-2.06,5.37-3.98,7.53l.85.35c.44-5.62.09-11.28-1.02-16.8-1.07-5.28-2.78-10.57-5.37-15.31-1.2-2.19-2.66-4.28-4.48-6-.75-.71-1.67-1.65-2.81-1.39-.73.16-1.18.8-1.36,1.49-.23.87-.16,1.84.07,2.7.33,1.27.86,2.51,1.26,3.76.89,2.78,1.67,5.59,2.35,8.43,1.52,6.4,2.46,12.93,2.83,19.51.04.64,1.04.64,1,0h0Z"/><path d="M622.34,264.22c.75-6.28.35-12.69-1.21-18.82s-4.42-11.57-4.72-17.75c-.15-3.11.37-6.27,2.04-8.94h-.86c7.03,9.83,11.41,21.49,12.6,33.52.34,3.4.41,6.82.24,10.23-.02.49.7.68.93.25,5.77-10.88,3.13-23.5,1.86-35.11-.4-3.64-.66-7.3-.51-10.97l-.93.25c6.31,10.82,9.61,23.31,9.54,35.83-.02,3.55-.31,7.1-.87,10.61-.1.63.86.9.96.27,2.03-12.61.6-25.71-4.1-37.59-1.31-3.32-2.87-6.54-4.67-9.62-.26-.44-.91-.23-.93.25-.5,12.24,3.71,24.37,1.71,36.6-.51,3.12-1.44,6.17-2.93,8.97l.93.25c.61-12.17-2.05-24.45-7.56-35.32-1.58-3.11-3.39-6.09-5.42-8.93-.22-.3-.65-.34-.86,0-3.08,4.94-2.45,11.08-.9,16.42.89,3.07,2.05,6.04,2.96,9.1s1.55,6.36,1.86,9.61c.34,3.62.28,7.27-.15,10.87-.08.64.92.63,1,0h0Z"/><path d="M655.32,259.87c1.16-7.07,1.46-14.27.86-21.42-.3-3.59-.82-7.17-1.56-10.69-.37-1.74-.78-3.47-1.26-5.19-.23-.82-.46-1.64-.71-2.45-.22-.71-.5-1.42-.63-2.16s-.26-2.66.92-2.65c.77,0,1.4.87,1.89,1.37.54.55,1.06,1.12,1.57,1.7,1.97,2.24,3.73,4.66,5.26,7.22,3.09,5.16,5.26,10.85,6.42,16.75,1.31,6.67,1.3,13.6-.15,20.25-.14.63.83.9.96.27,2.68-12.31.54-25.47-5.6-36.44-1.53-2.73-3.31-5.32-5.31-7.73-.99-1.19-2.02-2.36-3.14-3.42-.87-.82-2.23-1.45-3.21-.43-.78.82-.76,2.18-.6,3.22.11.72.37,1.4.58,2.09.28.89.54,1.78.78,2.67,1.01,3.65,1.77,7.38,2.29,11.13,1.17,8.49,1.05,17.17-.33,25.63-.1.63.86.9.96.27h0Z"/><path d="M687.95,253.93c2.72-10.82,2.67-22.29-.1-33.1-.79-3.09-1.81-6.12-3.04-9.07l-.73.56c5.56,3.32,9.04,9.35,11.96,14.93,3.18,6.08,5.6,12.55,7.21,19.21.91,3.78,1.56,7.62,1.94,11.49.06.63.99.66,1,0,.08-3.97,1.26-7.78,2.45-11.54s2.2-7.26,2.77-11.04c1.1-7.31.79-14.81-.92-21.99-.96-4.03-2.36-7.95-4.17-11.68l-.79.61c5.24,4.27,9.25,9.81,12.09,15.92s4.62,13,5.48,19.8c.24,1.88.41,3.76.52,5.65.09,1.47.41,3.91-1.26,4.63-.59.25-.08,1.11.5.86,1.41-.6,1.78-2.23,1.82-3.62.06-1.73-.16-3.5-.33-5.22-.35-3.57-.92-7.13-1.75-10.62-1.64-6.89-4.32-13.61-8.38-19.44-2.26-3.24-4.93-6.18-7.99-8.67-.44-.36-1.04.08-.79.61,3.21,6.62,5.07,13.87,5.5,21.21.22,3.68.08,7.4-.42,11.05s-1.46,7.26-2.58,10.8c-1.31,4.14-2.68,8.31-2.77,12.69h1c-.68-6.99-2.21-13.89-4.59-20.5s-5.37-12.83-9.34-18.46c-2.08-2.96-4.55-5.67-7.68-7.54-.34-.2-.91.15-.73.56,4.26,10.18,5.9,21.38,4.78,32.35-.32,3.13-.87,6.24-1.64,9.29-.16.62.81.89.96.27h0Z"/><path d="M747.52,243.11c2.47-5.1,1.47-10.97.28-16.27-1.29-5.73-3.19-11.31-5.66-16.64-.61-1.31-1.25-2.61-1.93-3.89-.29-.55-.86-1.26-.89-1.89s.65-.72,1.12-.68c1.14.1,2.27.94,3.1,1.67.95.83,1.74,1.82,2.44,2.87,1.5,2.26,2.69,4.75,3.85,7.2,1.27,2.69,2.42,5.43,3.46,8.22,2.32,6.23,4.05,12.67,5.17,19.22.11.63,1.07.36.96-.27-1.05-6.1-2.62-12.1-4.7-17.93-1.02-2.84-2.15-5.65-3.41-8.4s-2.5-5.39-4.05-7.9c-1.3-2.09-2.95-4.11-5.2-5.21-.86-.42-1.94-.71-2.85-.27-1.16.56-.96,1.82-.45,2.77,2.89,5.47,5.3,11.1,6.98,17.06.92,3.26,1.72,6.61,2.11,9.98s.28,6.79-1.2,9.85c-.28.58.58,1.08.86.5h0Z"/><path d="M544.81,267.2c-.29-2.51.79-4.79,1.89-6.98s2.11-4.32,2.64-6.71c1.11-4.99.59-10.14.17-15.18-.11-1.31-.21-2.62-.28-3.93-.03-.63-.07-1.26-.08-1.9,0-.28-.04-.67.32-.69.26-.01.62.37.78.53,1.62,1.71,2.99,3.8,4.27,5.77,2.66,4.07,4.84,8.45,6.49,13.02,1.86,5.17,3.05,10.57,3.5,16.04.05.64,1.05.64,1,0-.85-10.26-4.21-20.27-9.73-28.95-1.38-2.16-2.89-4.24-4.52-6.22-.55-.67-1.55-1.61-2.49-1.04s-.62,2.18-.57,3.1c.28,5.49,1.2,11.01.61,16.52-.33,3.06-1.3,5.83-2.69,8.56-1.27,2.5-2.65,5.15-2.31,8.05.07.63,1.07.64,1,0h0Z"/><path d="M471.7,266.47c.42-4.83-1.36-9.48-1.47-14.28-.11-4.7,1.25-9.27,3.04-13.56,1.03-2.48,2.22-4.9,3.42-7.3.29-.57-.58-1.08-.86-.5-2.12,4.26-4.23,8.58-5.5,13.19-.61,2.23-1.01,4.52-1.09,6.84-.08,2.44.29,4.84.71,7.23.49,2.78,1,5.56.75,8.39-.06.64.94.64,1,0h0Z"/><path d="M401.17,262.77c.33-5.86,1.12-11.69,2.36-17.43.62-2.85,1.35-5.68,2.19-8.47.41-1.36.84-2.71,1.3-4.05.35-1.03.75-2.01.79-3.11.03-.78-.08-1.7-.62-2.3-.6-.67-1.54-.69-2.3-.25-1.04.6-1.94,1.64-2.72,2.54s-1.5,1.89-2.15,2.9c-2.87,4.51-4.69,9.8-5.92,14.98-1.46,6.15-1.96,12.52-1.47,18.82l.85-.35c-3.47-3.88-4.78-9.11-4.92-14.21-.16-5.84,1.26-11.54,2.46-17.22.72-3.41,1.36-6.83,1.59-10.31.04-.64-.96-.64-1,0-.77,11.65-6.41,23.23-2.94,34.94.82,2.77,2.18,5.35,4.11,7.51.28.31.89.08.85-.35-.81-10.38,1.01-21.27,5.73-30.6,1.09-2.16,2.4-4.23,4.06-6.01.37-.4.76-.78,1.17-1.15s.99-.97,1.57-.76c.67.24.67,1.33.64,1.9-.05,1.08-.52,2.1-.87,3.11-.44,1.31-.86,2.62-1.25,3.94-.77,2.57-1.44,5.17-2.02,7.78-1.32,5.97-2.15,12.05-2.5,18.16-.04.64.96.64,1,0h0Z"/><path d="M364.97,264.22c-.77-6.47-.32-13.06,1.38-19.35,1.6-5.92,4.44-11.6,4.57-17.84.06-3.08-.55-6.19-2.19-8.83-.21-.34-.65-.3-.86,0-7.1,9.92-11.48,21.68-12.72,33.81-.35,3.47-.44,6.96-.26,10.44l.93-.25c-5.71-10.76-2.94-23.38-1.7-34.84.38-3.56.63-7.14.48-10.73-.02-.49-.67-.69-.93-.25-6.43,11.03-9.78,23.79-9.68,36.55.03,3.57.34,7.14.91,10.66.1.63,1.07.36.96-.27-1.99-12.36-.55-25.21,4.02-36.86,1.3-3.31,2.86-6.51,4.65-9.59l-.93-.25c.51,12.41-3.75,24.68-1.64,37.08.53,3.14,1.5,6.19,2.99,9,.23.43.96.24.93-.25-.61-12.07,2.02-24.24,7.52-35.01,1.55-3.04,3.34-5.96,5.32-8.74h-.86c3.15,5.05,2.16,11.29.5,16.66-.92,2.98-2.05,5.89-2.88,8.89s-1.41,6.17-1.69,9.33c-.31,3.54-.25,7.11.18,10.64.08.63,1.08.64,1,0h0Z"/><path d="M331.96,259.6c-1.23-7.52-1.45-15.19-.68-22.77.39-3.8,1.04-7.58,1.93-11.3.43-1.81.93-3.6,1.48-5.37.41-1.3.83-2.57.59-3.96-.17-1-.82-1.89-1.91-1.89-.76,0-1.38.48-1.91.97-.61.58-1.18,1.2-1.75,1.82-2.06,2.27-3.92,4.73-5.53,7.33-3.31,5.34-5.65,11.3-6.89,17.46-1.39,6.91-1.39,14.08.11,20.97.14.63,1.1.36.96-.27-2.57-11.79-.59-24.4,5.13-34.99,1.45-2.68,3.13-5.24,5.04-7.61.93-1.15,1.91-2.26,2.94-3.32.48-.5,1.12-1.36,1.89-1.37.53,0,.78.44.9.89.34,1.33-.22,2.66-.61,3.91-.52,1.7-.99,3.42-1.41,5.15-.83,3.43-1.44,6.91-1.84,10.41-.93,8.04-.73,16.2.59,24.19.1.63,1.07.36.96-.27h0Z"/><path d="M299.32,253.67c-2.7-10.72-2.63-22.09.15-32.79.78-3.02,1.79-5.98,2.99-8.85.17-.42-.39-.77-.73-.56-5.65,3.38-9.23,9.42-12.22,15.09-3.27,6.21-5.77,12.83-7.41,19.65-.93,3.87-1.59,7.8-1.97,11.76h1c-.08-3.87-1.15-7.59-2.31-11.25s-2.21-7.13-2.83-10.84c-1.2-7.25-.93-14.74.72-21.9.94-4.06,2.32-8.01,4.14-11.76.25-.52-.34-.97-.79-.61-5.48,4.46-9.64,10.31-12.53,16.73s-4.64,13.56-5.45,20.66c-.22,1.96-.4,3.93-.47,5.91-.05,1.56.19,3.58,1.82,4.28.59.25,1.1-.61.5-.86-1.44-.62-1.37-2.54-1.31-3.86.09-1.7.22-3.39.4-5.08.38-3.45.98-6.87,1.82-10.24,1.65-6.57,4.27-12.95,8.18-18.51,2.18-3.11,4.78-5.91,7.73-8.31l-.79-.61c-3.21,6.62-5.1,13.83-5.6,21.17s.57,14.93,2.83,22.11c1.33,4.23,2.82,8.49,2.91,12.97.01.65.94.63,1,0,.66-6.83,2.18-13.56,4.48-20.02s5.25-12.55,9.07-18.09c2.03-2.95,4.46-5.67,7.56-7.52l-.73-.56c-4.31,10.32-5.96,21.72-4.8,32.84.33,3.15.88,6.26,1.65,9.33.16.62,1.12.36.96-.27h0Z"/><path d="M239.65,242.61c-2.64-5.44-1.09-12.05.32-17.61,1.52-6.01,3.72-11.85,6.56-17.36.31-.61.64-1.21.96-1.82s.62-1.24.42-1.91c-.28-.96-1.33-1.24-2.21-1.14-2.32.26-4.32,2.39-5.64,4.15-1.67,2.24-2.9,4.83-4.11,7.34-1.31,2.72-2.51,5.5-3.58,8.32-2.48,6.49-4.32,13.22-5.5,20.07-.11.63.86.9.96.27,1-5.83,2.48-11.58,4.43-17.17s4.22-10.94,7.13-15.98c1.21-2.1,2.69-4.19,4.84-5.42.53-.3,2.57-1.25,2.72-.05.08.63-.59,1.48-.88,2.02-.36.67-.7,1.35-1.04,2.03-2.58,5.23-4.62,10.73-6.04,16.38s-2.99,12.67-.22,18.39c.28.58,1.14.07.86-.5h0Z"/><path d="M452.88,267.2c.29-2.53-.73-4.89-1.83-7.1-1.22-2.43-2.34-4.79-2.86-7.49-1.05-5.41-.23-10.98.17-16.41.1-1.32.29-2.73.19-4.05-.08-1.04-.96-1.61-1.93-1.16-1.02.48-1.71,1.66-2.38,2.52-.77,1-1.51,2.02-2.22,3.06-2.91,4.26-5.28,8.88-7.07,13.72-2.02,5.43-3.28,11.13-3.75,16.9-.05.64.95.64,1,0,.8-9.7,3.91-19.17,8.98-27.47,1.29-2.12,2.71-4.16,4.24-6.1.34-.43.67-.87,1.04-1.27.16-.17.37-.38.59-.47.49-.18.51.23.5.62,0,1.27-.11,2.54-.2,3.8-.37,5.07-1.06,10.2-.34,15.28.4,2.8,1.33,5.36,2.6,7.88s2.6,4.93,2.27,7.73c-.07.64.93.63,1,0h0Z"/><path d="M726.82,259.84c12.31,14.65,19.09,45.12,22.7,63.98,0,0,1.66,9.61,1.66,9.61l-1.78-9.59c-3.37-16.68-7.54-33.34-14.51-48.91-2.41-5.02-4.96-10.24-8.74-14.36,0,0,.68-.73.68-.73h0Z"/><path d="M469.13,279.3c-3.6,10.44-6.69,21.05-9.23,31.79s-4.54,21.54-6,32.45c-.82,6.14-1.48,12.3-1.96,18.48-.05.64.95.64,1,0,.85-10.96,2.25-21.88,4.19-32.7,1.93-10.79,4.4-21.48,7.39-32.02,1.69-5.96,3.55-11.87,5.57-17.73.21-.61-.76-.87-.96-.27h0Z"/><path d="M310.24,266.95c-2.21,3.5-4.09,7.2-5.61,11.06-1.38,3.5-2.4,7.12-3.32,10.77-1.9,7.52-3.36,15.16-4.69,22.8-.85,4.9-1.62,9.81-2.36,14.72-.09.63.87.9.96.27,1.26-8.41,2.63-16.81,4.29-25.15.72-3.62,1.5-7.23,2.37-10.82s1.76-7.02,2.98-10.42c1.6-4.45,3.7-8.72,6.23-12.72.34-.55-.52-1.05-.86-.5h0Z"/><path d="M393.27,278.34c-3.86,7.98-7.36,16.13-10.54,24.41s-6.31,17.48-8.97,26.39c-1.55,5.18-2.99,10.39-4.32,15.63l.98.13c-.84-8.55-.67-17.22.57-25.71.59-4.05,1.46-8.04,2.53-11.99s2.23-7.98,2.95-12.06c.77-4.41,1.02-8.98-.16-13.34-.17-.62-1.13-.36-.96.27,2.16,7.96-.47,16.32-2.56,24.01-2.17,7.99-3.5,16.11-3.81,24.39-.18,4.82-.03,9.64.44,14.44.05.53.83.72.98.13,2.34-9.18,5-18.28,8-27.26,2.89-8.63,6.09-17.17,9.66-25.54,1.92-4.51,3.95-8.97,6.08-13.39.28-.58-.58-1.08-.86-.5h0Z"/><path d="M260.89,260.57c-12.33,14.49-19.42,44.55-23.25,63.27,0,0-1.78,9.59-1.78,9.59l1.66-9.61c3.7-19.1,8.1-38.44,17.16-55.8,1.61-2.9,3.24-5.7,5.54-8.18,0,0,.68.73.68.73h0Z"/></g><g id="_x34_.OUTLINE_MAIN"><path class="stitching" d="M494.16,597.88l-21.45,114.06c-31.08,3.98-88.38-8.35-157.87-22.79-81.12-16.85-199.34-53.52-199.34-53.52,46.85-287.76,95.18-393.31,95.18-393.31l17.85-60.23h535.06s17.85,60.23,17.85,60.23c0,0,48.33,105.55,95.18,393.31,0,0-118.22,36.68-199.34,53.52-69.49,14.43-126.79,26.77-157.87,22.79l-21.45-114.06c-.4-2.11-3.41-2.11-3.81,0Z"/></g><g id="_x35_.STITCHING"><path class="outline" d="M216.74,225.91s289.7,81.1,558.3.36"/><path class="outline" d="M225.67,198.65s273.61,81.57,542.21.83"/><path class="outline" d="M513.58,682.23s31.47-33.26,105.49-48.5c147.6-30.38,168.85-20.2,182.25-37.15,15.39-19.47,22.29-56.61,31.19-90.09"/><path class="outline" d="M480.37,682.23s-31.47-33.26-105.49-48.5c-147.6-30.38-168.85-20.2-182.25-37.15-15.39-19.47-22.42-51.36-31.33-84.84"/></g><g id="_x39_.ANNOTATIONS"><g><path d="M653.53,868.82c-1.55,0-3.04-.18-4.48-.53s-2.63-.81-3.56-1.37l2-4.53c.88.51,1.86.92,2.94,1.23s2.13.46,3.15.46c.6,0,1.07-.04,1.41-.12.34-.08.59-.19.75-.34s.24-.33.24-.54c0-.33-.18-.6-.55-.79s-.86-.36-1.46-.49c-.61-.13-1.27-.27-1.99-.42-.72-.15-1.44-.35-2.17-.59-.73-.25-1.4-.57-2-.97-.61-.4-1.09-.94-1.46-1.59-.37-.66-.55-1.48-.55-2.46,0-1.14.32-2.18.96-3.12.64-.94,1.6-1.69,2.87-2.25,1.27-.56,2.86-.84,4.76-.84,1.25,0,2.48.13,3.69.4,1.21.26,2.3.67,3.27,1.21l-1.87,4.51c-.91-.46-1.8-.8-2.65-1.03-.85-.23-1.68-.34-2.49-.34-.6,0-1.07.05-1.42.16-.35.11-.6.25-.75.42-.15.18-.22.37-.22.58,0,.32.18.57.55.75s.86.34,1.46.46c.61.12,1.27.25,2,.4.73.14,1.45.33,2.17.58.72.25,1.38.57,1.99.98.61.4,1.09.93,1.46,1.58.37.65.55,1.46.55,2.42,0,1.12-.32,2.16-.96,3.1-.64.94-1.59,1.7-2.86,2.27-1.26.57-2.85.86-4.77.86Z"/><path d="M661.96,868.39l8.06-18.44h6.11l8.06,18.44h-6.43l-5.96-15.49h2.42l-5.96,15.49h-6.32ZM666.76,865.18l1.58-4.48h8.48l1.58,4.48h-11.65Z"/><path d="M688.28,868.39v-13.62h-5.4v-4.82h17.02v4.82h-5.4v13.62h-6.22Z"/><path d="M709.94,868.82c-2.83,0-5.03-.76-6.61-2.29-1.58-1.53-2.37-3.67-2.37-6.43v-10.14h6.22v9.96c0,1.41.25,2.4.76,2.99.51.59,1.19.88,2.06.88s1.57-.29,2.07-.88c.5-.59.75-1.58.75-2.99v-9.96h6.11v10.14c0,2.76-.79,4.9-2.37,6.43s-3.79,2.29-6.61,2.29Z"/><path d="M725.38,868.39v-13.62h-5.4v-4.82h17.02v4.82h-5.4v13.62h-6.22Z"/><path d="M753.39,868.82c-1.55,0-3.04-.18-4.48-.53s-2.63-.81-3.56-1.37l2-4.53c.88.51,1.86.92,2.94,1.23s2.13.46,3.15.46c.6,0,1.07-.04,1.41-.12.34-.08.59-.19.75-.34s.24-.33.24-.54c0-.33-.18-.6-.55-.79s-.86-.36-1.46-.49c-.61-.13-1.27-.27-1.99-.42-.72-.15-1.44-.35-2.17-.59-.73-.25-1.4-.57-2-.97-.61-.4-1.09-.94-1.46-1.59-.37-.66-.55-1.48-.55-2.46,0-1.14.32-2.18.96-3.12.64-.94,1.6-1.69,2.87-2.25,1.27-.56,2.86-.84,4.76-.84,1.25,0,2.48.13,3.69.4,1.21.26,2.3.67,3.27,1.21l-1.87,4.51c-.91-.46-1.8-.8-2.65-1.03-.85-.23-1.68-.34-2.49-.34-.6,0-1.07.05-1.42.16-.35.11-.6.25-.75.42-.15.18-.22.37-.22.58,0,.32.18.57.55.75s.86.34,1.46.46c.61.12,1.27.25,2,.4.73.14,1.45.33,2.17.58.72.25,1.38.57,1.99.98.61.4,1.09.93,1.46,1.58.37.65.55,1.46.55,2.42,0,1.12-.32,2.16-.96,3.1-.64.94-1.59,1.7-2.86,2.27-1.26.57-2.85.86-4.77.86Z"/><path d="M772.65,868.82c-2.83,0-5.03-.76-6.61-2.29-1.58-1.53-2.37-3.67-2.37-6.43v-10.14h6.22v9.96c0,1.41.25,2.4.76,2.99.51.59,1.19.88,2.06.88s1.57-.29,2.07-.88c.5-.59.75-1.58.75-2.99v-9.96h6.11v10.14c0,2.76-.79,4.9-2.37,6.43s-3.79,2.29-6.61,2.29Z"/><path d="M784.49,868.39v-18.44h8.88c1.72,0,3.21.28,4.47.84,1.26.56,2.23,1.37,2.91,2.41.68,1.04,1.03,2.28,1.03,3.7s-.34,2.65-1.03,3.69c-.69,1.04-1.66,1.84-2.91,2.41-1.26.57-2.74.86-4.47.86h-5.43l2.77-2.66v7.19h-6.22ZM790.7,861.89l-2.77-2.82h5.03c.86,0,1.5-.19,1.91-.58s.62-.91.62-1.58-.21-1.19-.62-1.58c-.41-.39-1.05-.58-1.91-.58h-5.03l2.77-2.82v9.96Z"/><path d="M803.8,868.39v-18.44h8.88c1.72,0,3.21.28,4.47.84,1.26.56,2.23,1.37,2.91,2.41.68,1.04,1.03,2.28,1.03,3.7s-.34,2.65-1.03,3.69c-.69,1.04-1.66,1.84-2.91,2.41-1.26.57-2.74.86-4.47.86h-5.43l2.77-2.66v7.19h-6.22ZM810.02,861.89l-2.77-2.82h5.03c.86,0,1.5-.19,1.91-.58s.62-.91.62-1.58-.21-1.19-.62-1.58c-.41-.39-1.05-.58-1.91-.58h-5.03l2.77-2.82v9.96Z"/><path d="M823.11,868.39v-18.44h6.22v13.62h8.33v4.82h-14.54Z"/><path d="M842.27,868.39v-8.09l1.42,3.71-8.38-14.07h6.56l5.67,9.62h-3.82l5.72-9.62h6.01l-8.33,14.07,1.37-3.71v8.09h-6.22Z"/><path d="M873.68,868.82c-1.48,0-2.84-.23-4.1-.7-1.26-.47-2.35-1.13-3.27-1.99-.92-.86-1.64-1.88-2.15-3.06-.51-1.18-.76-2.48-.76-3.9s.25-2.72.76-3.9c.51-1.18,1.23-2.2,2.15-3.06.92-.86,2.01-1.52,3.27-1.99,1.26-.46,2.62-.7,4.1-.7,1.81,0,3.41.32,4.81.95,1.4.63,2.55,1.55,3.46,2.74l-3.93,3.5c-.54-.69-1.15-1.22-1.8-1.59-.66-.38-1.4-.57-2.23-.57-.65,0-1.24.11-1.77.32-.53.21-.98.52-1.36.92-.38.4-.67.89-.88,1.46-.21.57-.32,1.21-.32,1.91s.11,1.34.32,1.91c.21.57.5,1.06.88,1.46.38.4.83.71,1.36.92.53.21,1.12.32,1.77.32.83,0,1.57-.19,2.23-.57.66-.38,1.26-.91,1.8-1.59l3.93,3.5c-.91,1.18-2.07,2.09-3.46,2.73-1.4.64-3,.96-4.81.96Z"/><path d="M892.57,868.82c-1.49,0-2.88-.24-4.15-.71-1.27-.47-2.38-1.15-3.31-2.02-.93-.87-1.66-1.89-2.17-3.07-.52-1.18-.78-2.46-.78-3.85s.26-2.69.78-3.86c.52-1.17,1.24-2.19,2.17-3.06.93-.87,2.03-1.54,3.31-2.02,1.27-.47,2.66-.71,4.15-.71s2.9.24,4.16.71c1.27.47,2.36,1.15,3.29,2.02.93.87,1.66,1.89,2.17,3.06.52,1.17.78,2.46.78,3.86s-.26,2.67-.78,3.85-1.24,2.2-2.17,3.07-2.03,1.54-3.29,2.02c-1.26.47-2.65.71-4.16.71ZM892.57,863.78c.58,0,1.12-.11,1.62-.32.5-.21.94-.51,1.32-.91.38-.4.67-.88.88-1.45.21-.57.32-1.22.32-1.94s-.11-1.37-.32-1.94c-.21-.57-.51-1.05-.88-1.45-.38-.4-.82-.7-1.32-.91-.5-.21-1.04-.32-1.62-.32s-1.12.11-1.62.32-.94.51-1.32.91c-.38.4-.67.88-.88,1.45-.21.57-.32,1.22-.32,1.94s.11,1.37.32,1.94c.21.57.5,1.05.88,1.45.38.39.82.7,1.32.91.5.21,1.04.32,1.62.32Z"/><path d="M907.22,868.66c-.98,0-1.81-.32-2.48-.96-.67-.64-1-1.46-1-2.46s.33-1.83,1-2.45c.67-.62,1.49-.92,2.48-.92s1.81.31,2.48.92c.67.62,1,1.43,1,2.45s-.33,1.82-1,2.46c-.67.64-1.49.96-2.48.96Z"/></g><g><path d="M687.49,938.52v-18.44h9.86c2.55,0,4.43.45,5.64,1.36,1.21.91,1.82,2.06,1.82,3.46,0,.93-.26,1.76-.78,2.49-.52.73-1.27,1.3-2.25,1.73-.98.42-2.2.63-3.63.63l.53-1.42c1.44,0,2.68.2,3.73.61s1.85.99,2.43,1.75c.57.76.86,1.68.86,2.75,0,1.6-.66,2.85-1.99,3.74s-3.26,1.34-5.81,1.34h-10.38ZM693.6,934.17h3.74c.69,0,1.2-.12,1.54-.37.34-.25.51-.61.51-1.08s-.17-.83-.51-1.08-.86-.37-1.54-.37h-4.16v-4.11h3.32c.7,0,1.22-.12,1.54-.36.33-.24.49-.58.49-1.01s-.16-.8-.49-1.03c-.32-.23-.84-.34-1.54-.34h-2.9v9.75Z"/><path d="M705.85,938.52l8.06-18.44h6.11l8.06,18.44h-6.43l-5.96-15.49h2.42l-5.96,15.49h-6.32ZM710.65,935.31l1.58-4.48h8.48l1.58,4.48h-11.65Z"/><path d="M738.37,938.94c-1.47,0-2.84-.23-4.1-.7-1.26-.47-2.35-1.13-3.27-1.99-.92-.86-1.64-1.88-2.15-3.06s-.76-2.48-.76-3.9.25-2.72.76-3.9,1.23-2.2,2.15-3.06c.92-.86,2.01-1.52,3.27-1.99,1.26-.46,2.62-.7,4.1-.7,1.81,0,3.41.32,4.81.95,1.4.63,2.55,1.55,3.46,2.74l-3.93,3.5c-.54-.69-1.14-1.22-1.8-1.59-.66-.38-1.4-.57-2.23-.57-.65,0-1.24.11-1.77.32-.53.21-.98.52-1.36.92-.38.4-.67.89-.88,1.46-.21.57-.32,1.21-.32,1.91s.11,1.34.32,1.91c.21.57.5,1.06.88,1.46.38.4.83.71,1.36.92.53.21,1.12.32,1.77.32.83,0,1.57-.19,2.23-.57.66-.38,1.26-.91,1.8-1.59l3.93,3.5c-.91,1.18-2.07,2.09-3.46,2.73-1.4.64-3,.96-4.81.96Z"/><path d="M748.25,938.52v-18.44h6.11v18.44h-6.11ZM753.81,934.57l-.34-6.83,6.96-7.67h6.77l-7.8,8.59-3.45,3.53-2.13,2.37ZM760.37,938.52l-5.43-7.17,4.03-4.27,8.59,11.44h-7.19Z"/><path d="M782.11,938.52l-7.8-18.44h6.69l6.35,15.57h-3.98l6.54-15.57h6.11l-7.8,18.44h-6.11Z"/><path d="M796.63,938.52v-18.44h6.22v18.44h-6.22Z"/><path d="M805.85,938.52v-18.44h14.99v4.69h-8.88v9.06h9.22v4.69h-15.34ZM811.54,931.41v-4.48h8.22v4.48h-8.22Z"/><path d="M827.98,938.52l-5.9-18.44h6.4l4.77,15.57h-3.21l5.06-15.57h5.72l4.72,15.57h-3.08l4.98-15.57h5.9l-5.9,18.44h-6.67l-3.85-12.75h1.79l-4.06,12.75h-6.67Z"/></g><g><path d="M85.44,938.72v-16.83h8.3c1.88,0,3.53.34,4.96,1.02,1.43.68,2.54,1.65,3.34,2.9.8,1.25,1.2,2.75,1.2,4.5s-.4,3.23-1.2,4.49c-.8,1.26-1.92,2.23-3.34,2.91-1.43.68-3.08,1.02-4.96,1.02h-8.3ZM91.12,934.3h2.38c.8,0,1.5-.15,2.11-.46.6-.3,1.07-.76,1.41-1.36.34-.6.5-1.33.5-2.18s-.17-1.59-.5-2.19c-.34-.59-.81-1.04-1.41-1.35-.6-.3-1.3-.46-2.11-.46h-2.38v7.99Z"/><path d="M108.96,938.72l-5.39-16.83h5.84l4.35,14.21h-2.93l4.62-14.21h5.22l4.3,14.21h-2.81l4.54-14.21h5.39l-5.39,16.83h-6.08l-3.51-11.64h1.64l-3.7,11.64h-6.08Z"/><path d="M141.84,939.11c-1.36,0-2.62-.21-3.76-.64-1.15-.42-2.14-1.03-2.98-1.82-.84-.79-1.5-1.72-1.96-2.79-.46-1.07-.7-2.26-.7-3.56s.23-2.48.7-3.56,1.12-2,1.97-2.79c.85-.79,1.86-1.39,3.02-1.82,1.16-.42,2.44-.64,3.84-.64,1.67,0,3.15.28,4.46.84s2.38,1.36,3.24,2.41l-3.63,3.2c-.53-.61-1.1-1.07-1.72-1.38-.62-.31-1.3-.47-2.06-.47-.62,0-1.19.1-1.7.29-.51.19-.93.47-1.29.84-.35.37-.62.81-.82,1.32-.19.51-.29,1.1-.29,1.75s.1,1.2.29,1.72c.19.52.46.97.82,1.33.35.37.77.65,1.26.85.49.2,1.04.3,1.65.3.64,0,1.27-.11,1.88-.32.61-.22,1.26-.59,1.95-1.12l3.17,3.9c-1.03.69-2.2,1.22-3.51,1.59-1.31.37-2.59.55-3.82.55ZM149.17,936.97l-4.93-.72v-6.4h4.93v7.12Z"/><path d="M153.89,931.53c-.9,0-1.65-.29-2.26-.88-.61-.59-.91-1.33-.91-2.25s.3-1.68.91-2.24c.61-.56,1.36-.84,2.26-.84s1.65.28,2.26.84c.61.56.91,1.31.91,2.24s-.3,1.66-.91,2.25c-.61.58-1.36.88-2.26.88ZM153.89,938.96c-.9,0-1.65-.29-2.26-.88-.61-.58-.91-1.33-.91-2.25s.3-1.68.91-2.24c.61-.56,1.36-.84,2.26-.84s1.65.28,2.26.84c.61.56.91,1.31.91,2.24s-.3,1.66-.91,2.25c-.61.59-1.36.88-2.26.88Z"/><path d="M171.25,939.11c-1.15,0-2.33-.13-3.51-.38-1.19-.26-2.23-.63-3.13-1.13l1.92-4.19c.72.42,1.48.73,2.27.93.79.2,1.54.3,2.25.3.64,0,1.17-.11,1.58-.32.41-.22.61-.54.61-.97,0-.37-.15-.65-.46-.85-.3-.2-.82-.3-1.54-.3h-2.24v-3.49l4.35-4.42.51,1.9h-8.39v-4.28h12.55v3.49l-4.35,4.42-2.72-1.54h1.49c2.12,0,3.73.47,4.83,1.42,1.11.95,1.66,2.17,1.66,3.66,0,.96-.27,1.88-.81,2.77s-1.37,1.6-2.5,2.16c-1.13.56-2.59.84-4.39.84Z"/><path d="M187.84,939.11c-1.49,0-2.81-.34-3.96-1.03-1.15-.69-2.04-1.69-2.69-3.01-.65-1.31-.97-2.9-.97-4.76s.33-3.45.97-4.76c.65-1.31,1.55-2.32,2.69-3.01,1.15-.69,2.46-1.03,3.96-1.03s2.81.34,3.96,1.03,2.04,1.69,2.69,3.01c.65,1.32.97,2.9.97,4.76s-.33,3.45-.97,4.76c-.65,1.31-1.55,2.32-2.69,3.01s-2.46,1.03-3.96,1.03ZM187.84,934.56c.37,0,.7-.13.99-.38.29-.26.52-.7.69-1.32.17-.62.25-1.47.25-2.55s-.08-1.94-.25-2.56c-.17-.62-.4-1.05-.69-1.31-.29-.26-.62-.38-.99-.38s-.7.13-.99.38c-.29.26-.52.69-.69,1.31-.17.62-.25,1.47-.25,2.56s.08,1.92.25,2.55c.17.62.4,1.07.69,1.32.29.26.62.38.99.38Z"/><path d="M196.6,938.72v-3.49l6.09-5.63c.38-.37.67-.69.85-.96.18-.27.31-.52.37-.73.06-.22.1-.42.1-.61,0-.42-.14-.74-.41-.97s-.68-.35-1.23-.35c-.5,0-.97.13-1.42.4s-.8.65-1.06,1.17l-4.28-2.14c.61-1.15,1.52-2.09,2.74-2.81s2.73-1.08,4.55-1.08c1.33,0,2.51.22,3.54.65s1.83,1.04,2.41,1.83c.58.79.87,1.72.87,2.79,0,.55-.07,1.09-.2,1.64s-.41,1.12-.83,1.72c-.42.6-1.04,1.27-1.85,2.01l-4.57,4.16-.89-1.97h8.73v4.4h-13.49Z"/><path d="M211.63,933.82v-4.09h7.21v4.09h-7.21Z"/><path d="M227.34,939.11c-1.41,0-2.77-.16-4.09-.48-1.32-.32-2.4-.74-3.25-1.25l1.83-4.14c.8.46,1.7.84,2.68,1.12.99.28,1.94.42,2.87.42.54,0,.97-.04,1.29-.11.31-.07.54-.18.68-.31.14-.14.22-.3.22-.49,0-.3-.17-.54-.5-.72-.34-.18-.78-.32-1.33-.44-.55-.12-1.16-.25-1.82-.38-.66-.14-1.32-.32-1.98-.54s-1.27-.52-1.83-.89c-.55-.37-1-.85-1.34-1.46-.34-.6-.5-1.35-.5-2.25,0-1.04.29-1.99.88-2.85.59-.86,1.46-1.54,2.62-2.06,1.16-.51,2.61-.77,4.34-.77,1.14,0,2.26.12,3.37.36,1.11.24,2.1.61,2.98,1.11l-1.71,4.11c-.83-.42-1.64-.73-2.42-.94s-1.54-.31-2.27-.31c-.55,0-.98.05-1.3.14-.32.1-.55.22-.69.38s-.2.34-.2.53c0,.29.17.52.5.69.34.17.78.31,1.33.42.55.11,1.16.23,1.83.36.66.13,1.33.3,1.98.53.66.23,1.26.52,1.82.89.55.37,1,.85,1.34,1.44.34.59.5,1.33.5,2.21,0,1.03-.29,1.97-.88,2.83-.59.86-1.46,1.55-2.61,2.07-1.15.52-2.61.78-4.35.78Z"/><path d="M236.81,933.82v-4.09h7.22v4.09h-7.22Z"/><path d="M257.95,938.72l-5.39-16.83h5.84l4.35,14.21h-2.93l4.62-14.21h5.22l4.3,14.21h-2.81l4.54-14.21h5.39l-5.39,16.83h-6.08l-3.51-11.64h1.64l-3.7,11.64h-6.08Z"/><path d="M290.92,939.11c-1.36,0-2.62-.22-3.79-.65s-2.17-1.05-3.02-1.84-1.51-1.73-1.98-2.8c-.47-1.07-.71-2.24-.71-3.51s.24-2.46.71-3.52c.47-1.07,1.13-2,1.98-2.79.85-.79,1.86-1.41,3.02-1.84s2.42-.65,3.79-.65,2.65.22,3.8.65,2.16,1.05,3.01,1.84c.85.79,1.51,1.72,1.98,2.79.47,1.07.71,2.24.71,3.52s-.24,2.44-.71,3.51c-.47,1.07-1.13,2.01-1.98,2.8-.85.79-1.85,1.41-3.01,1.84s-2.42.65-3.8.65ZM290.92,934.51c.53,0,1.02-.1,1.48-.29s.86-.47,1.2-.83c.34-.36.61-.8.81-1.32.19-.52.29-1.11.29-1.77s-.1-1.25-.29-1.77c-.19-.52-.46-.96-.81-1.32-.35-.36-.75-.64-1.2-.83s-.95-.29-1.48-.29-1.02.1-1.48.29-.86.47-1.2.83c-.34.36-.61.8-.81,1.32-.19.52-.29,1.11-.29,1.77s.1,1.25.29,1.77c.19.52.46.96.81,1.32s.75.64,1.2.83.95.29,1.48.29Z"/><path d="M302.49,938.72v-16.83h4.67l6.73,10.99h-2.45l6.54-10.99h4.67l.05,16.83h-5.17l-.05-9.04h.82l-4.47,7.53h-2.5l-4.67-7.53h1.01v9.04h-5.17Z"/><path d="M325.43,938.72v-16.83h13.68v4.28h-8.1v8.27h8.42v4.28h-14ZM330.63,932.23v-4.09h7.5v4.09h-7.5Z"/><path d="M341.62,938.72v-16.83h4.67l8.56,10.25h-2.17v-10.25h5.53v16.83h-4.67l-8.56-10.25h2.16v10.25h-5.53Z"/><path d="M360.43,930.45l2.02-6.76.79,3.03c-.93,0-1.69-.27-2.29-.81-.59-.54-.89-1.27-.89-2.2s.3-1.7.9-2.25c.6-.55,1.36-.83,2.27-.83s1.67.28,2.27.83c.6.55.9,1.3.9,2.25,0,.26-.02.51-.06.77-.04.26-.12.56-.25.93-.13.36-.34.85-.62,1.46l-1.68,3.58h-3.37Z"/><path d="M374.78,939.11c-1.41,0-2.77-.16-4.09-.48-1.32-.32-2.4-.74-3.25-1.25l1.83-4.14c.8.46,1.7.84,2.68,1.12.99.28,1.94.42,2.87.42.54,0,.97-.04,1.29-.11s.54-.18.69-.31c.14-.14.22-.3.22-.49,0-.3-.17-.54-.51-.72-.34-.18-.78-.32-1.33-.44s-1.16-.25-1.82-.38c-.66-.14-1.32-.32-1.98-.54-.67-.22-1.27-.52-1.83-.89-.55-.37-1-.85-1.33-1.46-.34-.6-.5-1.35-.5-2.25,0-1.04.29-1.99.88-2.85.58-.86,1.46-1.54,2.62-2.06,1.16-.51,2.61-.77,4.34-.77,1.14,0,2.26.12,3.37.36,1.11.24,2.1.61,2.98,1.11l-1.71,4.11c-.83-.42-1.64-.73-2.42-.94-.78-.21-1.54-.31-2.27-.31-.54,0-.98.05-1.3.14-.32.1-.55.22-.69.38-.14.16-.2.34-.2.53,0,.29.17.52.5.69.34.17.78.31,1.33.42.55.11,1.16.23,1.83.36.67.13,1.33.3,1.98.53.66.23,1.26.52,1.82.89s1,.85,1.33,1.44c.34.59.5,1.33.5,2.21,0,1.03-.29,1.97-.88,2.83s-1.46,1.55-2.61,2.07c-1.15.52-2.61.78-4.35.78Z"/><path d="M400.23,939.11c-1.35,0-2.59-.21-3.74-.64-1.15-.42-2.14-1.03-2.98-1.82-.84-.79-1.5-1.72-1.96-2.79-.46-1.07-.7-2.26-.7-3.56s.23-2.48.7-3.56,1.12-2,1.96-2.79,1.84-1.39,2.98-1.82c1.15-.42,2.39-.64,3.74-.64,1.65,0,3.11.29,4.39.87,1.27.58,2.33,1.41,3.16,2.5l-3.58,3.2c-.5-.62-1.05-1.11-1.65-1.46-.6-.34-1.28-.52-2.03-.52-.59,0-1.13.1-1.61.29-.48.19-.89.47-1.24.84-.34.37-.61.81-.81,1.33-.19.52-.29,1.1-.29,1.74s.1,1.22.29,1.74c.19.52.46.97.81,1.33s.76.65,1.24.84c.48.19,1.02.29,1.61.29.75,0,1.43-.17,2.03-.52.6-.34,1.15-.83,1.65-1.46l3.58,3.2c-.83,1.07-1.89,1.9-3.16,2.49-1.28.58-2.74.88-4.39.88Z"/><path d="M417.47,939.11c-1.36,0-2.63-.22-3.79-.65s-2.17-1.05-3.02-1.84c-.85-.79-1.51-1.73-1.98-2.8-.47-1.07-.71-2.24-.71-3.51s.24-2.46.71-3.52c.47-1.07,1.13-2,1.98-2.79.85-.79,1.86-1.41,3.02-1.84s2.43-.65,3.79-.65,2.65.22,3.8.65,2.16,1.05,3.01,1.84c.85.79,1.51,1.72,1.98,2.79s.71,2.24.71,3.52-.24,2.44-.71,3.51-1.13,2.01-1.98,2.8-1.85,1.41-3.01,1.84-2.42.65-3.8.65ZM417.47,934.51c.53,0,1.02-.1,1.48-.29s.86-.47,1.2-.83.61-.8.81-1.32c.19-.52.29-1.11.29-1.77s-.1-1.25-.29-1.77c-.19-.52-.46-.96-.81-1.32-.34-.36-.75-.64-1.2-.83s-.95-.29-1.48-.29-1.02.1-1.48.29-.86.47-1.2.83c-.34.36-.61.8-.81,1.32-.19.52-.29,1.11-.29,1.77s.1,1.25.29,1.77c.19.52.46.96.81,1.32s.75.64,1.2.83.95.29,1.48.29Z"/><path d="M426.97,938.72l7.36-16.83h5.58l7.36,16.83h-5.87l-5.44-14.14h2.21l-5.44,14.14h-5.77ZM431.35,935.79l1.44-4.09h7.74l1.44,4.09h-10.63Z"/><path d="M454.46,939.11c-1.41,0-2.77-.16-4.09-.48-1.32-.32-2.4-.74-3.25-1.25l1.83-4.14c.8.46,1.7.84,2.68,1.12.99.28,1.94.42,2.87.42.54,0,.97-.04,1.29-.11s.54-.18.69-.31c.14-.14.22-.3.22-.49,0-.3-.17-.54-.51-.72-.34-.18-.78-.32-1.33-.44s-1.16-.25-1.82-.38c-.66-.14-1.32-.32-1.98-.54-.67-.22-1.27-.52-1.83-.89-.55-.37-1-.85-1.33-1.46-.34-.6-.5-1.35-.5-2.25,0-1.04.29-1.99.88-2.85.58-.86,1.46-1.54,2.62-2.06,1.16-.51,2.61-.77,4.34-.77,1.14,0,2.26.12,3.37.36,1.11.24,2.1.61,2.98,1.11l-1.71,4.11c-.83-.42-1.64-.73-2.42-.94-.78-.21-1.54-.31-2.27-.31-.54,0-.98.05-1.3.14-.32.1-.55.22-.69.38-.14.16-.2.34-.2.53,0,.29.17.52.5.69.34.17.78.31,1.33.42.55.11,1.16.23,1.83.36.67.13,1.33.3,1.98.53.66.23,1.26.52,1.82.89s1,.85,1.33,1.44c.34.59.5,1.33.5,2.21,0,1.03-.29,1.97-.88,2.83s-1.46,1.55-2.61,2.07c-1.15.52-2.61.78-4.35.78Z"/><path d="M467.4,938.72v-12.43h-4.93v-4.4h15.54v4.4h-4.93v12.43h-5.68Z"/><path d="M476.8,938.72l7.36-16.83h5.58l7.36,16.83h-5.87l-5.44-14.14h2.21l-5.44,14.14h-5.77ZM481.18,935.79l1.44-4.09h7.74l1.44,4.09h-10.63Z"/><path d="M498.02,938.72v-16.83h5.68v12.43h7.6v4.4h-13.28Z"/><path d="M526.35,939.11c-1.41,0-2.77-.16-4.09-.48-1.32-.32-2.4-.74-3.25-1.25l1.83-4.14c.8.46,1.7.84,2.68,1.12.99.28,1.94.42,2.87.42.54,0,.97-.04,1.29-.11s.54-.18.69-.31c.14-.14.22-.3.22-.49,0-.3-.17-.54-.5-.72-.34-.18-.78-.32-1.33-.44-.55-.12-1.16-.25-1.82-.38-.66-.14-1.32-.32-1.98-.54-.67-.22-1.28-.52-1.83-.89-.55-.37-1-.85-1.33-1.46-.34-.6-.5-1.35-.5-2.25,0-1.04.29-1.99.88-2.85.58-.86,1.46-1.54,2.62-2.06,1.16-.51,2.61-.77,4.34-.77,1.14,0,2.26.12,3.37.36,1.11.24,2.1.61,2.98,1.11l-1.71,4.11c-.83-.42-1.64-.73-2.42-.94-.78-.21-1.54-.31-2.27-.31-.54,0-.98.05-1.3.14-.32.1-.55.22-.68.38-.14.16-.21.34-.21.53,0,.29.17.52.5.69.34.17.78.31,1.33.42.55.11,1.16.23,1.83.36.67.13,1.33.3,1.98.53.66.23,1.26.52,1.82.89s1,.85,1.33,1.44c.34.59.5,1.33.5,2.21,0,1.03-.29,1.97-.88,2.83s-1.46,1.55-2.61,2.07c-1.15.52-2.61.78-4.35.78Z"/><path d="M535.87,938.72v-16.83h5.68v16.83h-5.68ZM541.16,932.52v-4.67h6.01v4.67h-6.01ZM546.79,938.72v-16.83h5.68v16.83h-5.68Z"/><path d="M564.03,939.11c-1.36,0-2.63-.22-3.79-.65s-2.17-1.05-3.02-1.84-1.51-1.73-1.98-2.8c-.47-1.07-.71-2.24-.71-3.51s.24-2.46.71-3.52c.47-1.07,1.13-2,1.98-2.79.85-.79,1.86-1.41,3.02-1.84s2.42-.65,3.79-.65,2.65.22,3.8.65,2.16,1.05,3.01,1.84c.85.79,1.51,1.72,1.98,2.79s.71,2.24.71,3.52-.24,2.44-.71,3.51-1.13,2.01-1.98,2.8c-.85.79-1.85,1.41-3.01,1.84s-2.42.65-3.8.65ZM564.03,934.51c.53,0,1.02-.1,1.48-.29.46-.19.86-.47,1.2-.83s.61-.8.81-1.32c.19-.52.29-1.11.29-1.77s-.1-1.25-.29-1.77c-.19-.52-.46-.96-.81-1.32-.34-.36-.75-.64-1.2-.83-.46-.19-.95-.29-1.48-.29s-1.02.1-1.48.29-.86.47-1.2.83c-.34.36-.61.8-.81,1.32-.19.52-.29,1.11-.29,1.77s.1,1.25.29,1.77c.19.52.46.96.81,1.32s.75.64,1.2.83.95.29,1.48.29Z"/><path d="M575.6,938.72v-16.83h7.86c2.58,0,4.54.57,5.89,1.71,1.35,1.14,2.02,2.69,2.02,4.64,0,1.3-.31,2.42-.94,3.35-.63.94-1.51,1.66-2.66,2.15s-2.5.75-4.08.75h-4.95l2.53-2.33v6.57h-5.68ZM581.28,932.78l-2.53-2.57h4.59c.79,0,1.37-.18,1.74-.53s.57-.83.57-1.44-.19-1.09-.57-1.44-.96-.53-1.74-.53h-4.59l2.53-2.57v9.09ZM585.68,938.72l-4.14-6.13h6.01l4.18,6.13h-6.06Z"/><path d="M596.93,938.72v-12.43h-4.93v-4.4h15.54v4.4h-4.93v12.43h-5.68Z"/></g></g></svg>