<?xml version="1.0" encoding="UTF-8"?><svg xmlns="http://www.w3.org/2000/svg" version="1.1" viewBox="0 0 992.13 992.13"><title>Satuit DW-102 Origin Graphic Tee</title><desc>Gold+ semantic SVG. Geometry unchanged.</desc><defs><style> .outline, .seam, .stitching, .dimension, .annotation, .grid, .st6, .st7 { stroke: #000; } .outline, .seam, .stitching, .grid { stroke-linecap: round; } .outline, .seam, .dimension, .grid { stroke-width: 1.5px; } .outline, .st8, .st7 { fill: #fff; } .outline, .stitching, .dimension, .grid { stroke-linejoin: round; } .seam, .stitching, .dimension, .annotation, .grid, .st6 { fill: none; } .seam, .annotation, .st6, .st7 { stroke-miterlimit: 10; } .st9 { fill: #27aae1; } .stitching { stroke-width: 4px; } .annotation { stroke-width: 3.91px; } .grid { stroke-dasharray: 3.77; } .st6 { stroke-width: 3.98px; } .st10 { opacity: .38; } .st7 { stroke-width: 3.88px; } </style></defs><g id="_x31_.GRID_x5F_BG"><g class="st10"><rect class="st9" x="77.84" y="959.57" width="836.45" height="1.02"/><rect class="st9" x="77.84" y="912.83" width="836.45" height="1.02"/><rect class="st9" x="77.84" y="866.1" width="836.45" height="1.02"/><rect class="st9" x="77.84" y="819.36" width="836.45" height="1.02"/><rect class="st9" x="77.84" y="772.62" width="836.45" height="1.02"/><rect class="st9" x="77.84" y="725.88" width="836.45" height="1.02"/><rect class="st9" x="77.84" y="679.15" width="836.45" height="1.02"/><rect class="st9" x="77.84" y="632.41" width="836.45" height="1.02"/><rect class="st9" x="77.84" y="585.67" width="836.45" height="1.02"/><rect class="st9" x="77.84" y="538.94" width="836.45" height="1.02"/><rect class="st9" x="77.84" y="492.2" width="836.45" height="1.02"/><rect class="st9" x="77.84" y="445.46" width="836.45" height="1.02"/><rect class="st9" x="77.84" y="398.72" width="836.45" height="1.02"/><rect class="st9" x="77.84" y="351.99" width="836.45" height="1.02"/><rect class="st9" x="77.84" y="305.25" width="836.45" height="1.02"/><rect class="st9" x="77.84" y="258.51" width="836.45" height="1.02"/><rect class="st9" x="77.84" y="211.78" width="836.45" height="1.02"/><rect class="st9" x="77.84" y="165.04" width="836.45" height="1.02"/><rect class="st9" x="77.84" y="118.3" width="836.45" height="1.02"/><rect class="st9" x="77.84" y="71.56" width="836.45" height="1.02"/><rect class="st9" x="909.76" y="31.87" width=".8" height="927.7"/><rect class="st9" x="860.8" y="31.53" width="1.02" height="928.04"/><rect class="st9" x="811.83" y="31.53" width="1.02" height="928.04"/><rect class="st9" x="762.86" y="31.53" width="1.02" height="928.04"/><rect class="st9" x="713.9" y="31.53" width="1.02" height="928.04"/><rect class="st9" x="664.93" y="31.53" width="1.02" height="928.04"/><rect class="st9" x="615.96" y="31.53" width="1.02" height="928.04"/><rect class="st9" x="566.99" y="31.53" width="1.02" height="928.04"/><rect class="st9" x="518.03" y="31.53" width="1.02" height="928.04"/><rect class="st9" x="469.06" y="31.53" width="1.02" height="928.04"/><rect class="st9" x="420.09" y="31.53" width="1.02" height="928.04"/><rect class="st9" x="371.13" y="31.53" width="1.02" height="928.04"/><rect class="st9" x="322.16" y="31.53" width="1.02" height="928.04"/><rect class="st9" x="273.19" y="31.53" width="1.02" height="928.04"/><rect class="st9" x="224.23" y="31.53" width="1.02" height="928.04"/><rect class="st9" x="175.26" y="31.53" width="1.02" height="928.04"/><rect class="st9" x="126.29" y="31.53" width="1.02" height="928.04"/></g><g><rect class="st6" x="77.58" y="30.35" width="836.97" height="931.42"/><rect class="st7" x="640.91" y="822.57" width="273.64" height="139.21"/><line class="annotation" x1="640.91" y1="887.71" x2="914.55" y2="887.71"/></g></g><g id="_x32_.MASK_x5F_FILL"><path class="st8" d="M387.96,83.27l-127.31,50.15-157.4,129.55,84.5,120.72,67.88-25.55v431.85h439.16s0-431.85,0-431.85l67.23,25.55,84.5-120.72-156.75-129.55-129.34-53.98s-78.83,26.75-172.46,3.83Z"/></g><g id="_x33_.SEAMS_x5F_INT"><path class="outline" d="M574.94,84.93c-5.91,55.94-48.97,98.81-100.65,98.81s-93.97-42.4-100.67-95.13l14.46-5.16c4.53,46.92,40.75,86.81,87.48,84.93,45.16-1.81,78.79-38.56,83.41-89.83l15.97,6.38Z"/><path class="seam" d="M260.64,133.6s41.06,129.97-5.02,224.71"/><path class="seam" d="M689.76,133.6s-41.06,129.97,5.02,224.71"/><path class="dimension" d="M554.76,105.06c-33.52,6.24-63.02,8.37-87.7,8.37-33.81,0-58.57-4.01-72.26-6.97"/><path class="dimension" d="M390.86,95.85c17.7,4.33,77.04,16.83,165.49-.66"/></g><g id="_x34_.OUTLINE_MAIN"><path class="stitching" d="M387.96,83.27l-127.31,50.15-157.4,129.55,84.5,120.72,67.88-25.55v431.85h439.16s0-431.85,0-431.85l67.23,25.55,84.5-120.72-156.75-129.55-129.34-53.98s-78.83,26.75-172.46,3.83Z"/></g><g id="_x35_.STITCHING"><path class="grid" d="M370.38,91.3c5.93,53.4,51.27,96.14,103.9,96.14s97.77-43.33,103.88-99.86"/><path class="grid" d="M393.79,104.33s64.47,16.5,160.97-1.42"/><path class="grid" d="M393.79,99.52s64.47,16.5,160.97-1.42"/><line class="grid" x1="117.97" y1="254.02" x2="204.37" y2="377.45"/><line class="grid" x1="124.43" y1="247.79" x2="211.71" y2="372.48"/><line class="grid" x1="831.78" y1="254.02" x2="745.38" y2="377.45"/><line class="grid" x1="825.32" y1="247.79" x2="738.05" y2="372.48"/><line class="grid" x1="255.62" y1="770.27" x2="694.78" y2="770.27"/><line class="grid" x1="255.62" y1="761.27" x2="694.78" y2="761.27"/></g><g id="_x39_.ANNOTATIONS"><g><path d="M653.53,868.82c-1.55,0-3.04-.18-4.48-.53s-2.63-.81-3.56-1.37l2-4.53c.88.51,1.86.92,2.94,1.23s2.13.46,3.15.46c.6,0,1.07-.04,1.41-.12.34-.08.59-.19.75-.34s.24-.33.24-.54c0-.33-.18-.6-.55-.79s-.86-.36-1.46-.49c-.61-.13-1.27-.27-1.99-.42-.72-.15-1.44-.35-2.17-.59-.73-.25-1.4-.57-2-.97-.61-.4-1.09-.94-1.46-1.59-.37-.66-.55-1.48-.55-2.46,0-1.14.32-2.18.96-3.12.64-.94,1.6-1.69,2.87-2.25,1.27-.56,2.86-.84,4.76-.84,1.25,0,2.48.13,3.69.4,1.21.26,2.3.67,3.27,1.21l-1.87,4.51c-.91-.46-1.8-.8-2.65-1.03-.85-.23-1.68-.34-2.49-.34-.6,0-1.07.05-1.42.16-.35.11-.6.25-.75.42-.15.18-.22.37-.22.58,0,.32.18.57.55.75s.86.34,1.46.46c.61.12,1.27.25,2,.4.73.14,1.45.33,2.17.58.72.25,1.38.57,1.99.98.61.4,1.09.93,1.46,1.58.37.65.55,1.46.55,2.42,0,1.12-.32,2.16-.96,3.1-.64.94-1.59,1.7-2.86,2.27-1.26.57-2.85.86-4.77.86Z"/><path d="M661.96,868.39l8.06-18.44h6.11l8.06,18.44h-6.43l-5.96-15.49h2.42l-5.96,15.49h-6.32ZM666.76,865.18l1.58-4.48h8.48l1.58,4.48h-11.65Z"/><path d="M688.28,868.39v-13.62h-5.4v-4.82h17.02v4.82h-5.4v13.62h-6.22Z"/><path d="M709.94,868.82c-2.83,0-5.03-.76-6.61-2.29-1.58-1.53-2.37-3.67-2.37-6.43v-10.14h6.22v9.96c0,1.41.25,2.4.76,2.99.51.59,1.19.88,2.06.88s1.57-.29,2.07-.88c.5-.59.75-1.58.75-2.99v-9.96h6.11v10.14c0,2.76-.79,4.9-2.37,6.43s-3.79,2.29-6.61,2.29Z"/><path d="M725.38,868.39v-13.62h-5.4v-4.82h17.02v4.82h-5.4v13.62h-6.22Z"/><path d="M753.39,868.82c-1.55,0-3.04-.18-4.48-.53s-2.63-.81-3.56-1.37l2-4.53c.88.51,1.86.92,2.94,1.23s2.13.46,3.15.46c.6,0,1.07-.04,1.41-.12.34-.08.59-.19.75-.34s.24-.33.24-.54c0-.33-.18-.6-.55-.79s-.86-.36-1.46-.49c-.61-.13-1.27-.27-1.99-.42-.72-.15-1.44-.35-2.17-.59-.73-.25-1.4-.57-2-.97-.61-.4-1.09-.94-1.46-1.59-.37-.66-.55-1.48-.55-2.46,0-1.14.32-2.18.96-3.12.64-.94,1.6-1.69,2.87-2.25,1.27-.56,2.86-.84,4.76-.84,1.25,0,2.48.13,3.69.4,1.21.26,2.3.67,3.27,1.21l-1.87,4.51c-.91-.46-1.8-.8-2.65-1.03-.85-.23-1.68-.34-2.49-.34-.6,0-1.07.05-1.42.16-.35.11-.6.25-.75.42-.15.18-.22.37-.22.58,0,.32.18.57.55.75s.86.34,1.46.46c.61.12,1.27.25,2,.4.73.14,1.45.33,2.17.58.72.25,1.38.57,1.99.98.61.4,1.09.93,1.46,1.58.37.65.55,1.46.55,2.42,0,1.12-.32,2.16-.96,3.1-.64.94-1.59,1.7-2.86,2.27-1.26.57-2.85.86-4.77.86Z"/><path d="M772.65,868.82c-2.83,0-5.03-.76-6.61-2.29-1.58-1.53-2.37-3.67-2.37-6.43v-10.14h6.22v9.96c0,1.41.25,2.4.76,2.99.51.59,1.19.88,2.06.88s1.57-.29,2.07-.88c.5-.59.75-1.58.75-2.99v-9.96h6.11v10.14c0,2.76-.79,4.9-2.37,6.43s-3.79,2.29-6.61,2.29Z"/><path d="M784.49,868.39v-18.44h8.88c1.72,0,3.21.28,4.47.84,1.26.56,2.23,1.37,2.91,2.41.68,1.04,1.03,2.28,1.03,3.7s-.34,2.65-1.03,3.69c-.69,1.04-1.66,1.84-2.91,2.41-1.26.57-2.74.86-4.47.86h-5.43l2.77-2.66v7.19h-6.22ZM790.7,861.89l-2.77-2.82h5.03c.86,0,1.5-.19,1.91-.58s.62-.91.62-1.58-.21-1.19-.62-1.58c-.41-.39-1.05-.58-1.91-.58h-5.03l2.77-2.82v9.96Z"/><path d="M803.8,868.39v-18.44h8.88c1.72,0,3.21.28,4.47.84,1.26.56,2.23,1.37,2.91,2.41.68,1.04,1.03,2.28,1.03,3.7s-.34,2.65-1.03,3.69c-.69,1.04-1.66,1.84-2.91,2.41-1.26.57-2.74.86-4.47.86h-5.43l2.77-2.66v7.19h-6.22ZM810.02,861.89l-2.77-2.82h5.03c.86,0,1.5-.19,1.91-.58s.62-.91.62-1.58-.21-1.19-.62-1.58c-.41-.39-1.05-.58-1.91-.58h-5.03l2.77-2.82v9.96Z"/><path d="M823.11,868.39v-18.44h6.22v13.62h8.33v4.82h-14.54Z"/><path d="M842.27,868.39v-8.09l1.42,3.71-8.38-14.07h6.56l5.67,9.62h-3.82l5.72-9.62h6.01l-8.33,14.07,1.37-3.71v8.09h-6.22Z"/><path d="M873.68,868.82c-1.48,0-2.84-.23-4.1-.7-1.26-.47-2.35-1.13-3.27-1.99-.92-.86-1.64-1.88-2.15-3.06-.51-1.18-.76-2.48-.76-3.9s.25-2.72.76-3.9c.51-1.18,1.23-2.2,2.15-3.06.92-.86,2.01-1.52,3.27-1.99,1.26-.46,2.62-.7,4.1-.7,1.81,0,3.41.32,4.81.95,1.4.63,2.55,1.55,3.46,2.74l-3.93,3.5c-.54-.69-1.15-1.22-1.8-1.59-.66-.38-1.4-.57-2.23-.57-.65,0-1.24.11-1.77.32-.53.21-.98.52-1.36.92-.38.4-.67.89-.88,1.46-.21.57-.32,1.21-.32,1.91s.11,1.34.32,1.91c.21.57.5,1.06.88,1.46.38.4.83.71,1.36.92.53.21,1.12.32,1.77.32.83,0,1.57-.19,2.23-.57.66-.38,1.26-.91,1.8-1.59l3.93,3.5c-.91,1.18-2.07,2.09-3.46,2.73-1.4.64-3,.96-4.81.96Z"/><path d="M892.57,868.82c-1.49,0-2.88-.24-4.15-.71-1.27-.47-2.38-1.15-3.31-2.02-.93-.87-1.66-1.89-2.17-3.07-.52-1.18-.78-2.46-.78-3.85s.26-2.69.78-3.86c.52-1.17,1.24-2.19,2.17-3.06.93-.87,2.03-1.54,3.31-2.02,1.27-.47,2.66-.71,4.15-.71s2.9.24,4.16.71c1.27.47,2.36,1.15,3.29,2.02.93.87,1.66,1.89,2.17,3.06.52,1.17.78,2.46.78,3.86s-.26,2.67-.78,3.85-1.24,2.2-2.17,3.07-2.03,1.54-3.29,2.02c-1.26.47-2.65.71-4.16.71ZM892.57,863.78c.58,0,1.12-.11,1.62-.32.5-.21.94-.51,1.32-.91.38-.4.67-.88.88-1.45.21-.57.32-1.22.32-1.94s-.11-1.37-.32-1.94c-.21-.57-.51-1.05-.88-1.45-.38-.4-.82-.7-1.32-.91-.5-.21-1.04-.32-1.62-.32s-1.12.11-1.62.32-.94.51-1.32.91c-.38.4-.67.88-.88,1.45-.21.57-.32,1.22-.32,1.94s.11,1.37.32,1.94c.21.57.5,1.05.88,1.45.38.39.82.7,1.32.91.5.21,1.04.32,1.62.32Z"/><path d="M907.22,868.66c-.98,0-1.81-.32-2.48-.96-.67-.64-1-1.46-1-2.46s.33-1.83,1-2.45c.67-.62,1.49-.92,2.48-.92s1.81.31,2.48.92c.67.62,1,1.43,1,2.45s-.33,1.82-1,2.46c-.67.64-1.49.96-2.48.96Z"/></g><g><path d="M85.66,943.27v-19.51h9.62c2.17,0,4.09.39,5.74,1.18,1.65.79,2.94,1.91,3.87,3.36.93,1.45,1.39,3.19,1.39,5.21s-.46,3.74-1.39,5.2c-.93,1.46-2.22,2.58-3.87,3.37-1.65.79-3.57,1.18-5.74,1.18h-9.62ZM92.24,938.15h2.76c.93,0,1.74-.18,2.44-.53.7-.35,1.24-.88,1.63-1.58.39-.7.58-1.54.58-2.52s-.19-1.85-.58-2.54c-.39-.69-.93-1.21-1.63-1.56-.7-.35-1.51-.53-2.44-.53h-2.76v9.25Z"/><path d="M112.91,943.27l-6.24-19.51h6.77l5.04,16.47h-3.4l5.35-16.47h6.05l4.99,16.47h-3.26l5.27-16.47h6.24l-6.24,19.51h-7.05l-4.07-13.49h1.9l-4.29,13.49h-7.05Z"/><path d="M140.42,937.59v-4.74h8.36v4.74h-8.36Z"/><path d="M152.82,943.27v-17.22l2.81,2.68h-6.16v-4.96h9.92v19.51h-6.58Z"/><path d="M170.63,943.72c-1.73,0-3.26-.4-4.58-1.2-1.33-.8-2.37-1.96-3.12-3.48s-1.13-3.36-1.13-5.52.38-3.99,1.13-5.52,1.79-2.68,3.12-3.48c1.33-.8,2.86-1.2,4.58-1.2s3.26.4,4.58,1.2c1.33.8,2.37,1.96,3.12,3.48s1.13,3.36,1.13,5.52-.38,4-1.13,5.52-1.79,2.69-3.12,3.48c-1.33.8-2.86,1.2-4.58,1.2ZM170.63,938.45c.43,0,.81-.15,1.14-.45.33-.3.6-.81.79-1.53.19-.72.29-1.71.29-2.96s-.1-2.25-.29-2.97c-.2-.71-.46-1.22-.79-1.52s-.72-.45-1.14-.45-.81.15-1.14.45-.6.8-.79,1.52c-.2.72-.29,1.71-.29,2.97s.1,2.23.29,2.96c.19.72.46,1.24.79,1.53.33.3.71.45,1.14.45Z"/><path d="M180.78,943.27v-4.04l7.05-6.52c.45-.43.78-.8.99-1.12.21-.32.36-.6.43-.85.07-.25.11-.49.11-.71,0-.48-.16-.86-.47-1.13-.32-.27-.79-.4-1.42-.4-.58,0-1.12.15-1.64.46-.52.31-.93.76-1.23,1.35l-4.96-2.48c.71-1.34,1.77-2.42,3.18-3.26,1.41-.84,3.17-1.25,5.27-1.25,1.54,0,2.91.25,4.1.75,1.19.5,2.12,1.21,2.79,2.12s1,1.99,1,3.23c0,.63-.08,1.26-.24,1.9s-.48,1.3-.96,1.99c-.48.7-1.2,1.47-2.15,2.33l-5.3,4.82-1.03-2.29h10.12v5.1h-15.64Z"/><path d="M198.2,937.59v-4.74h8.36v4.74h-8.36Z"/><path d="M216.4,943.72c-1.64,0-3.21-.19-4.74-.56-1.52-.37-2.78-.85-3.76-1.45l2.12-4.79c.93.54,1.96.97,3.11,1.3,1.14.33,2.25.49,3.33.49.63,0,1.13-.04,1.49-.13.36-.08.63-.2.79-.36.17-.16.25-.35.25-.57,0-.35-.2-.63-.59-.84-.39-.2-.91-.38-1.55-.52-.64-.14-1.34-.29-2.1-.45-.76-.16-1.53-.37-2.3-.63-.77-.26-1.48-.6-2.12-1.03-.64-.43-1.16-.99-1.55-1.69-.39-.7-.58-1.57-.58-2.61,0-1.21.34-2.31,1.02-3.3s1.69-1.79,3.04-2.38c1.35-.59,3.02-.89,5.03-.89,1.32,0,2.62.14,3.9.42,1.28.28,2.43.71,3.46,1.28l-1.98,4.77c-.97-.48-1.9-.84-2.8-1.09-.9-.24-1.78-.36-2.63-.36-.63,0-1.13.06-1.5.17-.37.11-.64.26-.79.45-.16.19-.24.39-.24.61,0,.33.19.6.59.79.39.2.91.36,1.55.49.64.13,1.35.27,2.12.42s1.54.35,2.3.61c.76.26,1.46.6,2.1,1.03.64.43,1.16.98,1.55,1.67s.59,1.54.59,2.56c0,1.19-.34,2.28-1.02,3.28-.68.99-1.69,1.79-3.02,2.4-1.34.6-3.02.91-5.04.91Z"/><path d="M227.38,937.59v-4.74h8.36v4.74h-8.36Z"/><path d="M248.81,943.72c-1.58,0-3.04-.25-4.39-.75s-2.51-1.21-3.5-2.13c-.98-.92-1.75-2-2.3-3.25-.55-1.24-.82-2.6-.82-4.07s.27-2.85.82-4.08c.55-1.24,1.31-2.31,2.3-3.23.98-.92,2.15-1.63,3.5-2.13,1.35-.5,2.81-.75,4.39-.75s3.07.25,4.4.75c1.34.5,2.5,1.21,3.48,2.13.98.92,1.75,2,2.3,3.23.55,1.24.82,2.6.82,4.08s-.27,2.83-.82,4.07c-.55,1.25-1.31,2.33-2.3,3.25-.98.92-2.15,1.63-3.48,2.13s-2.81.75-4.4.75ZM248.81,938.4c.61,0,1.18-.11,1.71-.33.53-.22.99-.54,1.39-.96.4-.42.71-.93.93-1.53.22-.6.33-1.29.33-2.05s-.11-1.44-.33-2.05c-.22-.6-.53-1.12-.93-1.53-.4-.42-.86-.74-1.39-.96-.53-.22-1.1-.33-1.71-.33s-1.18.11-1.71.33c-.53.22-.99.54-1.39.96-.4.42-.71.93-.93,1.53-.22.6-.33,1.29-.33,2.05s.11,1.45.33,2.05c.22.6.53,1.12.93,1.53.4.42.86.74,1.39.96.53.22,1.1.33,1.71.33Z"/><path d="M262.21,943.27v-19.51h9.11c2.99,0,5.27.66,6.83,1.98,1.56,1.32,2.34,3.11,2.34,5.38,0,1.5-.36,2.8-1.09,3.89s-1.75,1.92-3.08,2.49c-1.33.58-2.9.86-4.72.86h-5.74l2.93-2.7v7.61h-6.58ZM268.79,936.39l-2.93-2.98h5.32c.91,0,1.58-.2,2.02-.61.44-.41.65-.97.65-1.67s-.22-1.26-.65-1.67c-.44-.41-1.11-.61-2.02-.61h-5.32l2.93-2.98v10.54ZM273.89,943.27l-4.79-7.11h6.97l4.85,7.11h-7.02Z"/><path d="M282.98,943.27v-19.51h6.58v19.51h-6.58Z"/><path d="M302.85,943.72c-1.58,0-3.03-.25-4.36-.74-1.33-.49-2.48-1.19-3.46-2.1-.98-.91-1.73-1.99-2.27-3.23-.54-1.24-.81-2.62-.81-4.12s.27-2.88.81-4.12c.54-1.25,1.3-2.32,2.29-3.23.98-.91,2.15-1.61,3.5-2.1,1.35-.49,2.83-.74,4.45-.74,1.93,0,3.66.33,5.17.98,1.51.65,2.76,1.58,3.75,2.79l-4.21,3.71c-.61-.71-1.28-1.24-1.99-1.6-.72-.36-1.51-.54-2.38-.54-.72,0-1.38.11-1.96.33-.59.22-1.08.55-1.49.97-.41.43-.72.94-.95,1.53-.22.59-.33,1.27-.33,2.03s.11,1.39.33,1.99c.22.6.54,1.12.95,1.55s.9.76,1.46.99c.57.23,1.2.35,1.91.35.74,0,1.47-.13,2.17-.38.71-.25,1.46-.68,2.26-1.3l3.68,4.52c-1.19.8-2.55,1.41-4.07,1.84-1.52.43-3,.64-4.43.64ZM311.35,941.24l-5.71-.84v-7.41h5.71v8.25Z"/><path d="M314.16,943.27v-19.51h6.58v19.51h-6.58Z"/><path d="M323.92,943.27v-19.51h5.41l9.92,11.87h-2.51v-11.87h6.41v19.51h-5.41l-9.92-11.87h2.51v11.87h-6.41Z"/><path d="M364.8,943.72c-1.58,0-3.03-.25-4.36-.74-1.33-.49-2.48-1.19-3.46-2.1-.98-.91-1.73-1.99-2.27-3.23-.54-1.24-.81-2.62-.81-4.12s.27-2.88.81-4.12c.54-1.25,1.3-2.32,2.29-3.23.98-.91,2.15-1.61,3.5-2.1,1.35-.49,2.83-.74,4.45-.74,1.93,0,3.66.33,5.17.98,1.51.65,2.76,1.58,3.75,2.79l-4.21,3.71c-.61-.71-1.28-1.24-1.99-1.6-.72-.36-1.51-.54-2.38-.54-.72,0-1.38.11-1.96.33-.59.22-1.08.55-1.49.97-.41.43-.72.94-.95,1.53-.22.59-.33,1.27-.33,2.03s.11,1.39.33,1.99c.22.6.54,1.12.95,1.55s.9.76,1.46.99c.57.23,1.2.35,1.91.35.74,0,1.47-.13,2.17-.38.71-.25,1.46-.68,2.26-1.3l3.68,4.52c-1.19.8-2.55,1.41-4.07,1.84-1.52.43-3,.64-4.43.64ZM373.3,941.24l-5.71-.84v-7.41h5.71v8.25Z"/><path d="M376.12,943.27v-19.51h9.11c2.99,0,5.27.66,6.83,1.98,1.56,1.32,2.34,3.11,2.34,5.38,0,1.5-.36,2.8-1.09,3.89s-1.75,1.92-3.08,2.49c-1.33.58-2.9.86-4.72.86h-5.74l2.93-2.7v7.61h-6.58ZM382.69,936.39l-2.93-2.98h5.32c.91,0,1.58-.2,2.02-.61.44-.41.65-.97.65-1.67s-.22-1.26-.65-1.67c-.44-.41-1.11-.61-2.02-.61h-5.32l2.93-2.98v10.54ZM387.79,943.27l-4.79-7.11h6.97l4.85,7.11h-7.02Z"/><path d="M394.76,943.27l8.53-19.51h6.47l8.53,19.51h-6.8l-6.3-16.39h2.56l-6.3,16.39h-6.69ZM399.83,939.87l1.67-4.74h8.97l1.67,4.74h-12.32Z"/><path d="M419.34,943.27v-19.51h9.39c1.82,0,3.4.3,4.72.89,1.33.59,2.35,1.45,3.08,2.55.72,1.11,1.09,2.41,1.09,3.92s-.36,2.81-1.09,3.9c-.72,1.1-1.75,1.95-3.08,2.55-1.33.6-2.9.91-4.72.91h-5.74l2.93-2.81v7.61h-6.58ZM425.92,936.39l-2.93-2.98h5.32c.91,0,1.58-.2,2.02-.61.44-.41.65-.97.65-1.67s-.22-1.26-.65-1.67c-.44-.41-1.11-.61-2.02-.61h-5.32l2.93-2.98v10.54Z"/><path d="M439.77,943.27v-19.51h6.58v19.51h-6.58ZM445.9,936.08v-5.41h6.97v5.41h-6.97ZM452.42,943.27v-19.51h6.58v19.51h-6.58Z"/><path d="M462.18,943.27v-19.51h6.58v19.51h-6.58Z"/><path d="M482.02,943.72c-1.56,0-3.01-.25-4.33-.74-1.33-.49-2.48-1.19-3.46-2.1s-1.73-1.99-2.27-3.23c-.54-1.24-.81-2.62-.81-4.12s.27-2.88.81-4.12,1.3-2.32,2.27-3.23c.98-.91,2.13-1.61,3.46-2.1,1.33-.49,2.77-.74,4.33-.74,1.91,0,3.61.33,5.09,1,1.48.67,2.7,1.63,3.67,2.9l-4.15,3.71c-.58-.72-1.21-1.29-1.91-1.69-.7-.4-1.48-.6-2.36-.6-.69,0-1.31.11-1.87.33-.56.22-1.04.55-1.44.97-.4.43-.71.94-.93,1.55-.22.6-.33,1.28-.33,2.02s.11,1.42.33,2.02c.22.6.53,1.12.93,1.55.4.43.88.75,1.44.98.56.22,1.18.33,1.87.33.87,0,1.66-.2,2.36-.6.7-.4,1.33-.96,1.91-1.69l4.15,3.71c-.97,1.25-2.19,2.21-3.67,2.88-1.48.68-3.17,1.02-5.09,1.02Z"/><path d="M505.07,943.27v-14.41h-5.71v-5.1h18v5.1h-5.71v14.41h-6.58Z"/><path d="M519.06,943.27v-19.51h15.86v4.96h-9.39v9.59h9.75v4.96h-16.22ZM525.08,935.75v-4.74h8.7v4.74h-8.7Z"/><path d="M537.81,943.27v-19.51h15.86v4.96h-9.39v9.59h9.75v4.96h-16.22ZM543.83,935.75v-4.74h8.7v4.74h-8.7Z"/></g><g><path d="M687.49,938.52v-18.44h14.99v4.69h-8.77v13.75h-6.22ZM693.28,932.62v-4.69h8.12v4.69h-8.12Z"/><path d="M704.45,938.52v-18.44h8.62c2.83,0,4.98.62,6.46,1.87,1.48,1.25,2.21,2.94,2.21,5.09,0,1.42-.34,2.65-1.03,3.68-.69,1.03-1.66,1.81-2.91,2.36s-2.74.82-4.47.82h-5.43l2.77-2.56v7.19h-6.22ZM710.67,932.01l-2.77-2.82h5.03c.86,0,1.5-.19,1.91-.58s.62-.91.62-1.58-.21-1.19-.62-1.58c-.41-.39-1.05-.58-1.91-.58h-5.03l2.77-2.82v9.96ZM715.49,938.52l-4.53-6.72h6.59l4.58,6.72h-6.64Z"/><path d="M733.75,938.94c-1.49,0-2.88-.24-4.15-.71-1.27-.47-2.38-1.15-3.31-2.02-.93-.87-1.66-1.89-2.17-3.07-.52-1.18-.78-2.46-.78-3.85s.26-2.69.78-3.86c.52-1.17,1.24-2.19,2.17-3.06.93-.87,2.03-1.54,3.31-2.02,1.27-.47,2.66-.71,4.15-.71s2.9.24,4.16.71c1.27.47,2.36,1.15,3.29,2.02.93.87,1.66,1.89,2.17,3.06.52,1.17.78,2.46.78,3.86s-.26,2.67-.78,3.85-1.24,2.2-2.17,3.07-2.03,1.54-3.29,2.02c-1.26.47-2.65.71-4.16.71ZM733.75,933.91c.58,0,1.12-.11,1.62-.32.5-.21.94-.51,1.32-.91.38-.4.67-.88.88-1.45.21-.57.32-1.22.32-1.94s-.11-1.37-.32-1.94c-.21-.57-.51-1.05-.88-1.45-.38-.4-.82-.7-1.32-.91-.5-.21-1.04-.32-1.62-.32s-1.12.11-1.62.32-.94.51-1.32.91c-.38.4-.67.88-.88,1.45-.21.57-.32,1.22-.32,1.94s.11,1.37.32,1.94c.21.57.5,1.05.88,1.45.38.39.82.7,1.32.91.5.21,1.04.32,1.62.32Z"/><path d="M746.43,938.52v-18.44h5.11l9.38,11.22h-2.37v-11.22h6.06v18.44h-5.11l-9.38-11.22h2.37v11.22h-6.06Z"/><path d="M771.62,938.52v-13.62h-5.4v-4.82h17.02v4.82h-5.4v13.62h-6.22Z"/><path d="M798.55,938.52l-7.8-18.44h6.69l6.35,15.57h-3.98l6.54-15.57h6.11l-7.8,18.44h-6.11Z"/><path d="M813.07,938.52v-18.44h6.22v18.44h-6.22Z"/><path d="M822.29,938.52v-18.44h14.99v4.69h-8.88v9.06h9.22v4.69h-15.33ZM827.98,931.41v-4.48h8.22v4.48h-8.22Z"/><path d="M844.42,938.52l-5.9-18.44h6.4l4.77,15.57h-3.21l5.06-15.57h5.72l4.72,15.57h-3.08l4.98-15.57h5.9l-5.9,18.44h-6.67l-3.85-12.75h1.79l-4.06,12.75h-6.67Z"/></g></g></svg>