<?xml version="1.0" encoding="UTF-8"?><svg xmlns="http://www.w3.org/2000/svg" version="1.1" viewBox="0 0 992.13 992.13"><title>Satuit DW-102 Origin Graphic Tee</title><desc>Gold+ semantic SVG. Geometry unchanged.</desc><defs><style> .outline, .seam, .stitching, .dimension, .annotation, .grid, .st6 { fill: none; } .outline, .seam, .stitching, .dimension, .annotation, .grid, .st6, .st7 { stroke: #000; } .outline, .stitching, .annotation, .st6, .st7 { stroke-miterlimit: 10; } .outline, .dimension, .grid { stroke-linecap: round; } .outline, .grid { stroke-width: 1.5px; } .st8, .st7 { fill: #fff; } .seam { stroke-width: 2.24px; } .seam, .dimension, .grid { stroke-linejoin: round; } .stitching { stroke-width: 2px; } .st9 { fill: #27aae1; } .dimension { stroke-width: 4px; } .annotation { stroke-width: 3.91px; } .grid { stroke-dasharray: 3.77; } .st6 { stroke-width: 3.98px; } .st10 { opacity: .38; } .st7 { stroke-width: 3.88px; } </style></defs><g id="_x31_.GRID_x5F_BG"><g class="st10"><rect class="st9" x="77.84" y="959.57" width="836.45" height="1.02"/><rect class="st9" x="77.84" y="912.83" width="836.45" height="1.02"/><rect class="st9" x="77.84" y="866.1" width="836.45" height="1.02"/><rect class="st9" x="77.84" y="819.36" width="836.45" height="1.02"/><rect class="st9" x="77.84" y="772.62" width="836.45" height="1.02"/><rect class="st9" x="77.84" y="725.88" width="836.45" height="1.02"/><rect class="st9" x="77.84" y="679.15" width="836.45" height="1.02"/><rect class="st9" x="77.84" y="632.41" width="836.45" height="1.02"/><rect class="st9" x="77.84" y="585.67" width="836.45" height="1.02"/><rect class="st9" x="77.84" y="538.94" width="836.45" height="1.02"/><rect class="st9" x="77.84" y="492.2" width="836.45" height="1.02"/><rect class="st9" x="77.84" y="445.46" width="836.45" height="1.02"/><rect class="st9" x="77.84" y="398.72" width="836.45" height="1.02"/><rect class="st9" x="77.84" y="351.99" width="836.45" height="1.02"/><rect class="st9" x="77.84" y="305.25" width="836.45" height="1.02"/><rect class="st9" x="77.84" y="258.51" width="836.45" height="1.02"/><rect class="st9" x="77.84" y="211.78" width="836.45" height="1.02"/><rect class="st9" x="77.84" y="165.04" width="836.45" height="1.02"/><rect class="st9" x="77.84" y="118.3" width="836.45" height="1.02"/><rect class="st9" x="77.84" y="71.56" width="836.45" height="1.02"/><rect class="st9" x="909.76" y="31.87" width=".8" height="927.7"/><rect class="st9" x="860.8" y="31.53" width="1.02" height="928.04"/><rect class="st9" x="811.83" y="31.53" width="1.02" height="928.04"/><rect class="st9" x="762.86" y="31.53" width="1.02" height="928.04"/><rect class="st9" x="713.9" y="31.53" width="1.02" height="928.04"/><rect class="st9" x="664.93" y="31.53" width="1.02" height="928.04"/><rect class="st9" x="615.96" y="31.53" width="1.02" height="928.04"/><rect class="st9" x="566.99" y="31.53" width="1.02" height="928.04"/><rect class="st9" x="518.03" y="31.53" width="1.02" height="928.04"/><rect class="st9" x="469.06" y="31.53" width="1.02" height="928.04"/><rect class="st9" x="420.09" y="31.53" width="1.02" height="928.04"/><rect class="st9" x="371.13" y="31.53" width="1.02" height="928.04"/><rect class="st9" x="322.16" y="31.53" width="1.02" height="928.04"/><rect class="st9" x="273.19" y="31.53" width="1.02" height="928.04"/><rect class="st9" x="224.23" y="31.53" width="1.02" height="928.04"/><rect class="st9" x="175.26" y="31.53" width="1.02" height="928.04"/><rect class="st9" x="126.29" y="31.53" width="1.02" height="928.04"/></g><g><rect class="st6" x="77.58" y="30.35" width="836.97" height="931.42"/><rect class="st7" x="640.91" y="822.57" width="273.64" height="139.21"/><line class="annotation" x1="640.91" y1="887.71" x2="914.55" y2="887.71"/></g></g><g id="_x32_.MASK_x5F_FILL"><path class="st8" d="M417.02,83.27l-127.31,50.15-157.4,129.55,84.5,120.72,67.88-25.55v431.85h439.16s0-431.85,0-431.85l67.23,25.55,84.5-120.72-156.75-129.55-129.34-53.98s-73.86,36.81-172.46,3.83Z"/></g><g id="_x33_.SEAMS_x5F_INT"><path class="seam" d="M612.04,88.86c-111.64,55.37-217.65,3.33-217.65,3.33"/><path class="outline" d="M289.7,133.6s41.06,129.97-5.02,224.71"/><path class="outline" d="M718.82,133.6s-41.06,129.97,5.02,224.71"/></g><g id="_x34_.OUTLINE_MAIN"><path class="dimension" d="M417.02,83.27l-127.31,50.15-157.4,129.55,84.5,120.72,67.88-25.55v431.85h439.16s0-431.85,0-431.85l67.23,25.55,84.5-120.72-156.75-129.55-129.34-53.98s-74.59,30.25-172.46,3.83Z"/></g><g id="_x35_.STITCHING"><line class="grid" x1="284.68" y1="770.27" x2="723.84" y2="770.27"/><line class="grid" x1="284.68" y1="761.27" x2="723.84" y2="761.27"/><path class="grid" d="M616.89,92.41c-115.75,59.68-227.7,2.91-227.7,2.91"/></g><g id="_x39_.ANNOTATIONS"><g><path d="M653.53,868.82c-1.55,0-3.04-.18-4.48-.53s-2.63-.81-3.56-1.37l2-4.53c.88.51,1.86.92,2.94,1.23s2.13.46,3.15.46c.6,0,1.07-.04,1.41-.12.34-.08.59-.19.75-.34s.24-.33.24-.54c0-.33-.18-.6-.55-.79s-.86-.36-1.46-.49c-.61-.13-1.27-.27-1.99-.42-.72-.15-1.44-.35-2.17-.59-.73-.25-1.4-.57-2-.97-.61-.4-1.09-.94-1.46-1.59-.37-.66-.55-1.48-.55-2.46,0-1.14.32-2.18.96-3.12.64-.94,1.6-1.69,2.87-2.25,1.27-.56,2.86-.84,4.76-.84,1.25,0,2.48.13,3.69.4,1.21.26,2.3.67,3.27,1.21l-1.87,4.51c-.91-.46-1.8-.8-2.65-1.03-.85-.23-1.68-.34-2.49-.34-.6,0-1.07.05-1.42.16-.35.11-.6.25-.75.42-.15.18-.22.37-.22.58,0,.32.18.57.55.75s.86.34,1.46.46c.61.12,1.27.25,2,.4.73.14,1.45.33,2.17.58.72.25,1.38.57,1.99.98.61.4,1.09.93,1.46,1.58.37.65.55,1.46.55,2.42,0,1.12-.32,2.16-.96,3.1-.64.94-1.59,1.7-2.86,2.27-1.26.57-2.85.86-4.77.86Z"/><path d="M661.96,868.39l8.06-18.44h6.11l8.06,18.44h-6.43l-5.96-15.49h2.42l-5.96,15.49h-6.32ZM666.76,865.18l1.58-4.48h8.48l1.58,4.48h-11.65Z"/><path d="M688.28,868.39v-13.62h-5.4v-4.82h17.02v4.82h-5.4v13.62h-6.22Z"/><path d="M709.94,868.82c-2.83,0-5.03-.76-6.61-2.29-1.58-1.53-2.37-3.67-2.37-6.43v-10.14h6.22v9.96c0,1.41.25,2.4.76,2.99.51.59,1.19.88,2.06.88s1.57-.29,2.07-.88c.5-.59.75-1.58.75-2.99v-9.96h6.11v10.14c0,2.76-.79,4.9-2.37,6.43s-3.79,2.29-6.61,2.29Z"/><path d="M725.38,868.39v-13.62h-5.4v-4.82h17.02v4.82h-5.4v13.62h-6.22Z"/><path d="M753.39,868.82c-1.55,0-3.04-.18-4.48-.53s-2.63-.81-3.56-1.37l2-4.53c.88.51,1.86.92,2.94,1.23s2.13.46,3.15.46c.6,0,1.07-.04,1.41-.12.34-.08.59-.19.75-.34s.24-.33.24-.54c0-.33-.18-.6-.55-.79s-.86-.36-1.46-.49c-.61-.13-1.27-.27-1.99-.42-.72-.15-1.44-.35-2.17-.59-.73-.25-1.4-.57-2-.97-.61-.4-1.09-.94-1.46-1.59-.37-.66-.55-1.48-.55-2.46,0-1.14.32-2.18.96-3.12.64-.94,1.6-1.69,2.87-2.25,1.27-.56,2.86-.84,4.76-.84,1.25,0,2.48.13,3.69.4,1.21.26,2.3.67,3.27,1.21l-1.87,4.51c-.91-.46-1.8-.8-2.65-1.03-.85-.23-1.68-.34-2.49-.34-.6,0-1.07.05-1.42.16-.35.11-.6.25-.75.42-.15.18-.22.37-.22.58,0,.32.18.57.55.75s.86.34,1.46.46c.61.12,1.27.25,2,.4.73.14,1.45.33,2.17.58.72.25,1.38.57,1.99.98.61.4,1.09.93,1.46,1.58.37.65.55,1.46.55,2.42,0,1.12-.32,2.16-.96,3.1-.64.94-1.59,1.7-2.86,2.27-1.26.57-2.85.86-4.77.86Z"/><path d="M772.65,868.82c-2.83,0-5.03-.76-6.61-2.29-1.58-1.53-2.37-3.67-2.37-6.43v-10.14h6.22v9.96c0,1.41.25,2.4.76,2.99.51.59,1.19.88,2.06.88s1.57-.29,2.07-.88c.5-.59.75-1.58.75-2.99v-9.96h6.11v10.14c0,2.76-.79,4.9-2.37,6.43s-3.79,2.29-6.61,2.29Z"/><path d="M784.49,868.39v-18.44h8.88c1.72,0,3.21.28,4.47.84,1.26.56,2.23,1.37,2.91,2.41.68,1.04,1.03,2.28,1.03,3.7s-.34,2.65-1.03,3.69c-.69,1.04-1.66,1.84-2.91,2.41-1.26.57-2.74.86-4.47.86h-5.43l2.77-2.66v7.19h-6.22ZM790.7,861.89l-2.77-2.82h5.03c.86,0,1.5-.19,1.91-.58s.62-.91.62-1.58-.21-1.19-.62-1.58c-.41-.39-1.05-.58-1.91-.58h-5.03l2.77-2.82v9.96Z"/><path d="M803.8,868.39v-18.44h8.88c1.72,0,3.21.28,4.47.84,1.26.56,2.23,1.37,2.91,2.41.68,1.04,1.03,2.28,1.03,3.7s-.34,2.65-1.03,3.69c-.69,1.04-1.66,1.84-2.91,2.41-1.26.57-2.74.86-4.47.86h-5.43l2.77-2.66v7.19h-6.22ZM810.02,861.89l-2.77-2.82h5.03c.86,0,1.5-.19,1.91-.58s.62-.91.62-1.58-.21-1.19-.62-1.58c-.41-.39-1.05-.58-1.91-.58h-5.03l2.77-2.82v9.96Z"/><path d="M823.11,868.39v-18.44h6.22v13.62h8.33v4.82h-14.54Z"/><path d="M842.27,868.39v-8.09l1.42,3.71-8.38-14.07h6.56l5.67,9.62h-3.82l5.72-9.62h6.01l-8.33,14.07,1.37-3.71v8.09h-6.22Z"/><path d="M873.68,868.82c-1.48,0-2.84-.23-4.1-.7-1.26-.47-2.35-1.13-3.27-1.99-.92-.86-1.64-1.88-2.15-3.06-.51-1.18-.76-2.48-.76-3.9s.25-2.72.76-3.9c.51-1.18,1.23-2.2,2.15-3.06.92-.86,2.01-1.52,3.27-1.99,1.26-.46,2.62-.7,4.1-.7,1.81,0,3.41.32,4.81.95,1.4.63,2.55,1.55,3.46,2.74l-3.93,3.5c-.54-.69-1.15-1.22-1.8-1.59-.66-.38-1.4-.57-2.23-.57-.65,0-1.24.11-1.77.32-.53.21-.98.52-1.36.92-.38.4-.67.89-.88,1.46-.21.57-.32,1.21-.32,1.91s.11,1.34.32,1.91c.21.57.5,1.06.88,1.46.38.4.83.71,1.36.92.53.21,1.12.32,1.77.32.83,0,1.57-.19,2.23-.57.66-.38,1.26-.91,1.8-1.59l3.93,3.5c-.91,1.18-2.07,2.09-3.46,2.73-1.4.64-3,.96-4.81.96Z"/><path d="M892.57,868.82c-1.49,0-2.88-.24-4.15-.71-1.27-.47-2.38-1.15-3.31-2.02-.93-.87-1.66-1.89-2.17-3.07-.52-1.18-.78-2.46-.78-3.85s.26-2.69.78-3.86c.52-1.17,1.24-2.19,2.17-3.06.93-.87,2.03-1.54,3.31-2.02,1.27-.47,2.66-.71,4.15-.71s2.9.24,4.16.71c1.27.47,2.36,1.15,3.29,2.02.93.87,1.66,1.89,2.17,3.06.52,1.17.78,2.46.78,3.86s-.26,2.67-.78,3.85-1.24,2.2-2.17,3.07-2.03,1.54-3.29,2.02c-1.26.47-2.65.71-4.16.71ZM892.57,863.78c.58,0,1.12-.11,1.62-.32.5-.21.94-.51,1.32-.91.38-.4.67-.88.88-1.45.21-.57.32-1.22.32-1.94s-.11-1.37-.32-1.94c-.21-.57-.51-1.05-.88-1.45-.38-.4-.82-.7-1.32-.91-.5-.21-1.04-.32-1.62-.32s-1.12.11-1.62.32-.94.51-1.32.91c-.38.4-.67.88-.88,1.45-.21.57-.32,1.22-.32,1.94s.11,1.37.32,1.94c.21.57.5,1.05.88,1.45.38.39.82.7,1.32.91.5.21,1.04.32,1.62.32Z"/><path d="M907.22,868.66c-.98,0-1.81-.32-2.48-.96-.67-.64-1-1.46-1-2.46s.33-1.83,1-2.45c.67-.62,1.49-.92,2.48-.92s1.81.31,2.48.92c.67.62,1,1.43,1,2.45s-.33,1.82-1,2.46c-.67.64-1.49.96-2.48.96Z"/></g><g><path d="M85.57,943.27v-18.44h9.09c2.06,0,3.87.37,5.43,1.12,1.56.75,2.78,1.81,3.66,3.18.88,1.37,1.32,3.01,1.32,4.93s-.44,3.54-1.32,4.91c-.88,1.38-2.1,2.44-3.66,3.19-1.56.75-3.37,1.12-5.43,1.12h-9.09ZM91.79,938.42h2.61c.88,0,1.65-.17,2.31-.5s1.17-.83,1.54-1.49c.37-.66.55-1.45.55-2.38s-.18-1.75-.55-2.4c-.37-.65-.88-1.14-1.54-1.48s-1.43-.5-2.31-.5h-2.61v8.75Z"/><path d="M111.34,943.27l-5.9-18.44h6.4l4.77,15.57h-3.21l5.06-15.57h5.72l4.72,15.57h-3.08l4.98-15.57h5.9l-5.9,18.44h-6.67l-3.85-12.75h1.79l-4.06,12.75h-6.67Z"/><path d="M137.35,937.9v-4.48h7.91v4.48h-7.91Z"/><path d="M149.07,943.27v-16.28l2.66,2.53h-5.82v-4.69h9.38v18.44h-6.22Z"/><path d="M165.91,943.7c-1.63,0-3.08-.38-4.33-1.13-1.26-.75-2.24-1.85-2.95-3.29s-1.07-3.18-1.07-5.22.36-3.78,1.07-5.22,1.7-2.54,2.95-3.29c1.26-.75,2.7-1.13,4.33-1.13s3.08.38,4.33,1.13c1.26.76,2.24,1.85,2.95,3.29.71,1.44,1.07,3.18,1.07,5.22s-.36,3.78-1.07,5.22c-.71,1.44-1.7,2.54-2.95,3.29-1.26.76-2.7,1.13-4.33,1.13ZM165.91,938.71c.4,0,.76-.14,1.08-.42.32-.28.57-.76.75-1.45.18-.68.28-1.62.28-2.79s-.09-2.13-.28-2.81c-.18-.68-.43-1.16-.75-1.44-.32-.28-.68-.42-1.08-.42s-.76.14-1.08.42c-.32.28-.57.76-.75,1.44-.18.68-.28,1.61-.28,2.81s.09,2.11.28,2.79c.19.69.44,1.17.75,1.45.32.28.68.42,1.08.42Z"/><path d="M175.5,943.27v-3.82l6.67-6.17c.42-.4.73-.75.94-1.05.2-.3.34-.57.41-.8.07-.24.11-.46.11-.67,0-.46-.15-.81-.45-1.07s-.75-.38-1.34-.38c-.54,0-1.06.14-1.55.43-.49.29-.88.72-1.16,1.28l-4.69-2.34c.67-1.26,1.67-2.29,3-3.08,1.34-.79,3-1.19,4.98-1.19,1.46,0,2.75.24,3.87.71,1.12.47,2,1.14,2.64,2,.63.86.95,1.88.95,3.06,0,.6-.07,1.19-.22,1.79-.15.6-.45,1.22-.91,1.88s-1.13,1.39-2.03,2.2l-5.01,4.56-.97-2.16h9.56v4.82h-14.78Z"/><path d="M191.97,937.9v-4.48h7.91v4.48h-7.91Z"/><path d="M209.18,943.7c-1.55,0-3.04-.18-4.48-.53s-2.63-.81-3.56-1.37l2-4.53c.88.51,1.86.92,2.94,1.23,1.08.31,2.13.46,3.15.46.6,0,1.07-.04,1.41-.12.34-.08.59-.19.75-.34s.24-.33.24-.54c0-.33-.18-.6-.55-.79s-.86-.36-1.46-.49-1.27-.27-1.99-.42c-.72-.15-1.45-.35-2.17-.59-.73-.25-1.4-.57-2-.97s-1.09-.94-1.46-1.59c-.37-.66-.55-1.48-.55-2.46,0-1.14.32-2.18.96-3.12.64-.94,1.6-1.69,2.87-2.25,1.27-.56,2.86-.84,4.76-.84,1.25,0,2.48.13,3.69.4,1.21.26,2.3.67,3.27,1.21l-1.87,4.51c-.91-.46-1.79-.8-2.65-1.03-.85-.23-1.68-.34-2.49-.34-.6,0-1.07.05-1.42.16s-.6.25-.75.42c-.15.18-.22.37-.22.58,0,.32.18.57.55.75s.86.34,1.46.46,1.27.25,2,.4c.73.14,1.45.33,2.17.58.72.25,1.38.57,1.99.98.61.4,1.09.93,1.46,1.58.37.65.55,1.46.55,2.42,0,1.12-.32,2.16-.96,3.1-.64.94-1.59,1.7-2.86,2.27-1.27.57-2.86.86-4.77.86Z"/><path d="M219.56,937.9v-4.48h7.91v4.48h-7.91Z"/><path d="M239.82,943.7c-1.49,0-2.88-.24-4.15-.71-1.27-.47-2.38-1.15-3.31-2.02-.93-.87-1.66-1.89-2.17-3.07-.52-1.18-.78-2.46-.78-3.85s.26-2.69.78-3.86c.52-1.17,1.24-2.19,2.17-3.06.93-.87,2.03-1.54,3.31-2.02,1.27-.47,2.66-.71,4.15-.71s2.9.24,4.16.71c1.27.47,2.36,1.15,3.29,2.02.93.87,1.66,1.89,2.17,3.06.52,1.17.78,2.46.78,3.86s-.26,2.67-.78,3.85-1.24,2.2-2.17,3.07-2.03,1.54-3.29,2.02c-1.26.47-2.65.71-4.16.71ZM239.82,938.66c.58,0,1.12-.11,1.62-.32.5-.21.94-.51,1.32-.91.38-.4.67-.88.88-1.45.21-.57.32-1.22.32-1.94s-.11-1.37-.32-1.94c-.21-.57-.51-1.05-.88-1.45-.38-.4-.82-.7-1.32-.91-.5-.21-1.04-.32-1.62-.32s-1.12.11-1.62.32-.94.51-1.32.91-.67.88-.88,1.45c-.21.57-.32,1.22-.32,1.94s.11,1.37.32,1.94c.21.57.5,1.05.88,1.45.38.39.82.7,1.32.91.5.21,1.04.32,1.62.32Z"/><path d="M252.5,943.27v-18.44h8.62c2.83,0,4.98.62,6.46,1.87,1.48,1.25,2.21,2.94,2.21,5.09,0,1.42-.34,2.65-1.03,3.68-.69,1.03-1.66,1.81-2.91,2.36s-2.75.82-4.47.82h-5.43l2.77-2.56v7.19h-6.22ZM258.71,936.76l-2.77-2.82h5.03c.86,0,1.5-.19,1.91-.58.41-.39.62-.91.62-1.58s-.21-1.19-.62-1.58c-.41-.39-1.05-.58-1.91-.58h-5.03l2.77-2.82v9.96ZM263.54,943.27l-4.53-6.72h6.59l4.58,6.72h-6.64Z"/><path d="M272.13,943.27v-18.44h6.22v18.44h-6.22Z"/><path d="M290.91,943.7c-1.49,0-2.87-.23-4.12-.7-1.26-.47-2.34-1.13-3.27-1.99-.92-.86-1.64-1.88-2.15-3.06-.51-1.18-.76-2.48-.76-3.9s.25-2.72.76-3.9c.51-1.18,1.23-2.2,2.16-3.06.93-.86,2.03-1.52,3.31-1.99,1.27-.46,2.67-.7,4.2-.7,1.83,0,3.46.31,4.89.92,1.43.62,2.61,1.49,3.54,2.63l-3.98,3.5c-.58-.67-1.21-1.17-1.88-1.51-.68-.34-1.43-.51-2.25-.51-.69,0-1.3.11-1.86.32-.55.21-1.02.52-1.41.92s-.69.89-.9,1.45-.32,1.2-.32,1.92.11,1.31.32,1.88c.21.57.51,1.06.9,1.46s.85.72,1.38.94c.54.22,1.14.33,1.8.33.7,0,1.39-.12,2.06-.36s1.38-.65,2.13-1.23l3.48,4.27c-1.12.76-2.41,1.34-3.85,1.74-1.44.4-2.84.61-4.19.61ZM298.95,941.35l-5.4-.79v-7.01h5.4v7.8Z"/><path d="M301.61,943.27v-18.44h6.22v18.44h-6.22Z"/><path d="M310.83,943.27v-18.44h5.11l9.38,11.22h-2.37v-11.22h6.06v18.44h-5.11l-9.38-11.22h2.37v11.22h-6.06Z"/><path d="M349.49,943.7c-1.49,0-2.87-.23-4.12-.7-1.26-.47-2.35-1.13-3.27-1.99-.92-.86-1.64-1.88-2.15-3.06-.51-1.18-.76-2.48-.76-3.9s.25-2.72.76-3.9c.51-1.18,1.23-2.2,2.16-3.06.93-.86,2.03-1.52,3.31-1.99,1.27-.46,2.67-.7,4.2-.7,1.83,0,3.46.31,4.89.92,1.43.62,2.61,1.49,3.54,2.63l-3.98,3.5c-.58-.67-1.21-1.17-1.88-1.51-.68-.34-1.43-.51-2.25-.51-.68,0-1.3.11-1.86.32s-1.02.52-1.41.92c-.39.4-.69.89-.9,1.45s-.32,1.2-.32,1.92.11,1.31.32,1.88c.21.57.51,1.06.9,1.46.39.4.85.72,1.38.94.54.22,1.14.33,1.8.33.7,0,1.39-.12,2.05-.36.67-.24,1.38-.65,2.13-1.23l3.48,4.27c-1.12.76-2.41,1.34-3.85,1.74-1.44.4-2.84.61-4.19.61ZM357.52,941.35l-5.4-.79v-7.01h5.4v7.8Z"/><path d="M360.18,943.27v-18.44h8.62c2.83,0,4.98.62,6.46,1.87,1.48,1.25,2.21,2.94,2.21,5.09,0,1.42-.34,2.65-1.03,3.68s-1.66,1.81-2.91,2.36c-1.26.54-2.75.82-4.47.82h-5.43l2.77-2.56v7.19h-6.22ZM366.4,936.76l-2.77-2.82h5.03c.86,0,1.5-.19,1.91-.58.41-.39.62-.91.62-1.58s-.21-1.19-.62-1.58c-.41-.39-1.05-.58-1.91-.58h-5.03l2.77-2.82v9.96ZM371.22,943.27l-4.53-6.72h6.59l4.58,6.72h-6.64Z"/><path d="M377.81,943.27l8.06-18.44h6.11l8.06,18.44h-6.43l-5.96-15.49h2.42l-5.96,15.49h-6.32ZM382.61,940.06l1.58-4.48h8.48l1.58,4.48h-11.65Z"/><path d="M401.05,943.27v-18.44h8.88c1.72,0,3.21.28,4.47.84,1.26.56,2.23,1.37,2.91,2.41s1.03,2.28,1.03,3.7-.34,2.65-1.03,3.69c-.69,1.04-1.66,1.84-2.91,2.41-1.26.57-2.74.86-4.47.86h-5.43l2.77-2.66v7.19h-6.22ZM407.27,936.76l-2.77-2.82h5.03c.86,0,1.5-.19,1.91-.58.41-.39.62-.91.62-1.58s-.21-1.19-.62-1.58c-.41-.39-1.05-.58-1.91-.58h-5.03l2.77-2.82v9.96Z"/><path d="M420.37,943.27v-18.44h6.22v18.44h-6.22ZM426.16,936.48v-5.11h6.59v5.11h-6.59ZM432.33,943.27v-18.44h6.22v18.44h-6.22Z"/><path d="M441.55,943.27v-18.44h6.22v18.44h-6.22Z"/><path d="M460.31,943.7c-1.48,0-2.84-.23-4.1-.7-1.26-.47-2.35-1.13-3.27-1.99-.92-.86-1.64-1.88-2.15-3.06-.51-1.18-.77-2.48-.77-3.9s.26-2.72.77-3.9c.51-1.18,1.22-2.2,2.15-3.06.92-.86,2.01-1.52,3.27-1.99,1.26-.46,2.62-.7,4.1-.7,1.81,0,3.41.32,4.81.95,1.4.63,2.55,1.55,3.46,2.74l-3.93,3.5c-.54-.69-1.15-1.22-1.8-1.59s-1.4-.57-2.23-.57c-.65,0-1.24.11-1.77.32s-.98.52-1.36.92-.67.89-.88,1.46c-.21.57-.32,1.21-.32,1.91s.11,1.34.32,1.91c.21.57.51,1.06.88,1.46s.83.71,1.36.92c.53.21,1.12.32,1.77.32.83,0,1.57-.19,2.23-.57s1.26-.91,1.8-1.59l3.93,3.5c-.91,1.18-2.07,2.09-3.46,2.73-1.4.64-3,.96-4.81.96Z"/><path d="M482.1,943.27v-13.62h-5.4v-4.82h17.02v4.82h-5.4v13.62h-6.22Z"/><path d="M495.33,943.27v-18.44h14.99v4.69h-8.88v9.06h9.22v4.69h-15.34ZM501.02,936.16v-4.48h8.22v4.48h-8.22Z"/><path d="M513.06,943.27v-18.44h14.99v4.69h-8.88v9.06h9.22v4.69h-15.34ZM518.75,936.16v-4.48h8.22v4.48h-8.22Z"/></g><g><path d="M387.58,507.9l8.06-18.44h6.11l8.06,18.44h-6.43l-5.96-15.49h2.42l-5.96,15.49h-6.32ZM392.38,504.68l1.58-4.48h8.48l1.58,4.48h-11.65Z"/><path d="M410.82,507.9v-18.44h8.62c2.83,0,4.98.62,6.46,1.87,1.48,1.25,2.21,2.94,2.21,5.09,0,1.42-.34,2.65-1.03,3.68-.68,1.03-1.66,1.81-2.91,2.36-1.26.54-2.75.82-4.47.82h-5.43l2.77-2.56v7.19h-6.22ZM417.04,501.39l-2.77-2.82h5.03c.86,0,1.5-.19,1.91-.58.41-.39.62-.91.62-1.58s-.21-1.19-.62-1.58c-.41-.39-1.05-.58-1.91-.58h-5.03l2.77-2.82v9.96ZM421.87,507.9l-4.53-6.72h6.59l4.58,6.72h-6.64Z"/><path d="M434.2,507.9v-13.62h-5.4v-4.82h17.02v4.82h-5.4v13.62h-6.22Z"/><path d="M447.42,507.9v-18.44h6.22v18.44h-6.22Z"/><path d="M466.21,508.32c-1.49,0-2.87-.23-4.12-.7-1.26-.47-2.34-1.13-3.27-1.99-.92-.86-1.64-1.88-2.15-3.06s-.76-2.48-.76-3.9.25-2.72.76-3.9,1.23-2.2,2.16-3.06c.93-.86,2.03-1.52,3.31-1.99,1.27-.46,2.67-.7,4.2-.7,1.83,0,3.46.31,4.89.92,1.43.62,2.61,1.49,3.54,2.63l-3.98,3.5c-.58-.67-1.21-1.17-1.88-1.51-.68-.34-1.43-.51-2.25-.51-.68,0-1.3.11-1.86.32-.55.21-1.02.52-1.41.92-.39.4-.69.89-.9,1.45s-.32,1.2-.32,1.92.11,1.31.32,1.88c.21.57.51,1.06.9,1.46.39.4.85.72,1.38.94s1.14.33,1.8.33c.7,0,1.39-.12,2.06-.36.67-.24,1.38-.65,2.13-1.23l3.48,4.27c-1.12.76-2.41,1.34-3.85,1.74-1.44.4-2.84.61-4.19.61ZM474.25,505.97l-5.4-.79v-7.01h5.4v7.8Z"/><path d="M485.74,508.32c-2.83,0-5.03-.76-6.61-2.29s-2.37-3.67-2.37-6.43v-10.14h6.22v9.96c0,1.41.25,2.4.76,2.99.51.59,1.19.88,2.05.88s1.57-.29,2.07-.88c.5-.59.75-1.58.75-2.99v-9.96h6.11v10.14c0,2.76-.79,4.9-2.37,6.43s-3.79,2.29-6.61,2.29Z"/><path d="M497.57,507.9v-18.44h6.22v13.62h8.33v4.82h-14.54Z"/><path d="M512.09,507.9l8.06-18.44h6.11l8.06,18.44h-6.43l-5.96-15.49h2.42l-5.96,15.49h-6.32ZM516.88,504.68l1.58-4.48h8.48l1.58,4.48h-11.65Z"/><path d="M538.41,507.9v-13.62h-5.4v-4.82h17.02v4.82h-5.4v13.62h-6.22Z"/><path d="M551.64,507.9v-18.44h14.99v4.69h-8.88v9.06h9.22v4.69h-15.33ZM557.33,500.78v-4.48h8.22v4.48h-8.22Z"/><path d="M569.37,507.9v-18.44h9.09c2.06,0,3.86.37,5.43,1.12,1.56.75,2.78,1.81,3.66,3.18.88,1.37,1.32,3.01,1.32,4.93s-.44,3.54-1.32,4.91c-.88,1.38-2.1,2.44-3.66,3.19-1.56.75-3.37,1.12-5.43,1.12h-9.09ZM575.59,503.05h2.61c.88,0,1.65-.17,2.31-.5.66-.33,1.17-.83,1.54-1.49.37-.66.55-1.45.55-2.38s-.18-1.75-.55-2.4c-.37-.65-.88-1.14-1.54-1.48-.66-.33-1.43-.5-2.31-.5h-2.61v8.75Z"/><path d="M396.46,539.94c-1.55,0-3.04-.18-4.48-.53s-2.63-.81-3.56-1.37l2-4.53c.88.51,1.86.92,2.94,1.23,1.08.31,2.13.46,3.15.46.6,0,1.07-.04,1.41-.12.34-.08.59-.19.75-.34.16-.15.24-.33.24-.54,0-.33-.18-.6-.55-.79-.37-.19-.86-.36-1.46-.49-.61-.13-1.27-.27-1.99-.42-.72-.15-1.45-.35-2.17-.59-.73-.25-1.4-.57-2-.97-.61-.4-1.09-.94-1.46-1.59-.37-.66-.55-1.48-.55-2.46,0-1.14.32-2.18.96-3.12.64-.94,1.6-1.69,2.87-2.25,1.27-.56,2.86-.84,4.76-.84,1.25,0,2.48.13,3.69.4,1.21.26,2.3.67,3.27,1.21l-1.87,4.51c-.91-.46-1.8-.8-2.65-1.03-.85-.23-1.68-.34-2.49-.34-.6,0-1.07.05-1.42.16s-.6.25-.75.42c-.15.18-.22.37-.22.58,0,.32.18.57.55.75.37.18.86.34,1.46.46.61.12,1.27.25,2,.4.73.14,1.45.33,2.17.58.72.25,1.38.57,1.99.98s1.09.93,1.46,1.58c.37.65.55,1.46.55,2.42,0,1.12-.32,2.16-.96,3.1-.64.94-1.59,1.7-2.86,2.27-1.26.57-2.86.86-4.77.86Z"/><path d="M406.9,539.52v-18.44h14.99v4.69h-8.88v9.06h9.22v4.69h-15.33ZM412.59,532.4v-4.48h8.22v4.48h-8.22Z"/><path d="M422.63,539.52l8.06-18.44h6.11l8.06,18.44h-6.43l-5.96-15.49h2.42l-5.96,15.49h-6.32ZM427.42,536.3l1.58-4.48h8.48l1.58,4.48h-11.65Z"/><path d="M445.87,539.52v-18.44h5.11l7.38,12.04h-2.69l7.17-12.04h5.11l.05,18.44h-5.67l-.05-9.91h.9l-4.9,8.25h-2.74l-5.11-8.25h1.11v9.91h-5.67Z"/><path d="M477.88,539.94c-1.55,0-3.04-.18-4.48-.53-1.44-.35-2.63-.81-3.56-1.37l2-4.53c.88.51,1.86.92,2.94,1.23s2.13.46,3.15.46c.6,0,1.07-.04,1.41-.12.34-.08.59-.19.75-.34s.24-.33.24-.54c0-.33-.18-.6-.55-.79s-.86-.36-1.46-.49c-.61-.13-1.27-.27-1.99-.42-.72-.15-1.45-.35-2.17-.59-.73-.25-1.4-.57-2-.97s-1.09-.94-1.46-1.59c-.37-.66-.55-1.48-.55-2.46,0-1.14.32-2.18.96-3.12.64-.94,1.6-1.69,2.87-2.25,1.27-.56,2.86-.84,4.76-.84,1.25,0,2.48.13,3.69.4,1.21.26,2.3.67,3.27,1.21l-1.87,4.51c-.91-.46-1.8-.8-2.65-1.03-.85-.23-1.68-.34-2.49-.34-.6,0-1.07.05-1.42.16s-.6.25-.75.42c-.15.18-.22.37-.22.58,0,.32.18.57.55.75s.86.34,1.46.46c.61.12,1.27.25,2,.4.73.14,1.45.33,2.17.58.72.25,1.38.57,1.99.98.61.4,1.09.93,1.46,1.58.37.65.55,1.46.55,2.42,0,1.12-.32,2.16-.96,3.1-.64.94-1.59,1.7-2.86,2.27-1.26.57-2.85.86-4.77.86Z"/><path d="M499.46,544.63c-1.12-1.58-1.99-3.43-2.59-5.55-.61-2.12-.91-4.38-.91-6.79s.3-4.67.91-6.79c.61-2.12,1.47-3.97,2.59-5.55h5.69c-1.18,2.11-2.03,4.16-2.57,6.15-.54,1.99-.8,4.05-.8,6.18s.27,4.19.8,6.18c.54,1.99,1.39,4.04,2.57,6.15h-5.69Z"/><path d="M514.17,539.52v-18.44h9.85c2.55,0,4.43.45,5.64,1.36,1.21.91,1.82,2.06,1.82,3.46,0,.93-.26,1.76-.78,2.49-.52.73-1.27,1.3-2.25,1.73-.98.42-2.2.63-3.64.63l.53-1.42c1.44,0,2.68.2,3.73.61s1.85.99,2.42,1.75c.57.76.86,1.68.86,2.75,0,1.6-.66,2.85-1.99,3.74s-3.26,1.34-5.81,1.34h-10.38ZM520.28,535.17h3.74c.68,0,1.2-.12,1.54-.37.34-.25.51-.61.51-1.08s-.17-.83-.51-1.08c-.34-.25-.86-.37-1.54-.37h-4.16v-4.11h3.32c.7,0,1.22-.12,1.54-.36.33-.24.49-.58.49-1.01s-.16-.8-.49-1.03c-.33-.23-.84-.34-1.54-.34h-2.9v9.75Z"/><path d="M532.53,539.52l8.06-18.44h6.11l8.06,18.44h-6.43l-5.96-15.49h2.42l-5.96,15.49h-6.32ZM537.33,536.3l1.58-4.48h8.48l1.58,4.48h-11.65Z"/><path d="M565.05,539.94c-1.48,0-2.84-.23-4.1-.7-1.26-.47-2.34-1.13-3.27-1.99-.92-.86-1.64-1.88-2.15-3.06-.51-1.18-.76-2.48-.76-3.9s.25-2.72.76-3.9c.51-1.18,1.22-2.2,2.15-3.06.92-.86,2.01-1.52,3.27-1.99,1.26-.46,2.62-.7,4.1-.7,1.81,0,3.41.32,4.81.95,1.4.63,2.55,1.55,3.47,2.74l-3.93,3.5c-.54-.69-1.15-1.22-1.8-1.59-.66-.38-1.4-.57-2.23-.57-.65,0-1.24.11-1.77.32-.53.21-.98.52-1.36.92-.38.4-.67.89-.88,1.46-.21.57-.32,1.21-.32,1.91s.11,1.34.32,1.91c.21.57.5,1.06.88,1.46.38.4.83.71,1.36.92.53.21,1.12.32,1.77.32.83,0,1.57-.19,2.23-.57.66-.38,1.26-.91,1.8-1.59l3.93,3.5c-.91,1.18-2.07,2.09-3.47,2.73-1.4.64-3,.96-4.81.96Z"/><path d="M574.93,539.52v-18.44h6.11v18.44h-6.11ZM580.49,535.56l-.34-6.83,6.96-7.67h6.77l-7.8,8.59-3.45,3.53-2.13,2.37ZM587.05,539.52l-5.43-7.17,4.03-4.27,8.59,11.44h-7.19Z"/><path d="M601.09,544.63c1.19-2.11,2.06-4.16,2.58-6.15.53-1.99.79-4.05.79-6.18s-.26-4.19-.79-6.18c-.53-1.99-1.39-4.04-2.58-6.15h5.69c1.14,1.58,2.01,3.43,2.61,5.55.6,2.12.9,4.38.9,6.79s-.3,4.67-.9,6.79c-.6,2.12-1.47,3.97-2.61,5.55h-5.69Z"/></g><g><path d="M687.49,938.52v-18.44h9.86c2.55,0,4.43.45,5.64,1.36,1.21.91,1.82,2.06,1.82,3.46,0,.93-.26,1.76-.78,2.49-.52.73-1.27,1.3-2.25,1.73-.98.42-2.2.63-3.63.63l.53-1.42c1.44,0,2.68.2,3.73.61s1.85.99,2.43,1.75c.57.76.86,1.68.86,2.75,0,1.6-.66,2.85-1.99,3.74s-3.26,1.34-5.81,1.34h-10.38ZM693.6,934.17h3.74c.69,0,1.2-.12,1.54-.37.34-.25.51-.61.51-1.08s-.17-.83-.51-1.08-.86-.37-1.54-.37h-4.16v-4.11h3.32c.7,0,1.22-.12,1.54-.36.33-.24.49-.58.49-1.01s-.16-.8-.49-1.03c-.32-.23-.84-.34-1.54-.34h-2.9v9.75Z"/><path d="M705.85,938.52l8.06-18.44h6.11l8.06,18.44h-6.43l-5.96-15.49h2.42l-5.96,15.49h-6.32ZM710.65,935.31l1.58-4.48h8.48l1.58,4.48h-11.65Z"/><path d="M738.37,938.94c-1.47,0-2.84-.23-4.1-.7-1.26-.47-2.35-1.13-3.27-1.99-.92-.86-1.64-1.88-2.15-3.06s-.76-2.48-.76-3.9.25-2.72.76-3.9,1.23-2.2,2.15-3.06c.92-.86,2.01-1.52,3.27-1.99,1.26-.46,2.62-.7,4.1-.7,1.81,0,3.41.32,4.81.95,1.4.63,2.55,1.55,3.46,2.74l-3.93,3.5c-.54-.69-1.14-1.22-1.8-1.59-.66-.38-1.4-.57-2.23-.57-.65,0-1.24.11-1.77.32-.53.21-.98.52-1.36.92-.38.4-.67.89-.88,1.46-.21.57-.32,1.21-.32,1.91s.11,1.34.32,1.91c.21.57.5,1.06.88,1.46.38.4.83.71,1.36.92.53.21,1.12.32,1.77.32.83,0,1.57-.19,2.23-.57.66-.38,1.26-.91,1.8-1.59l3.93,3.5c-.91,1.18-2.07,2.09-3.46,2.73-1.4.64-3,.96-4.81.96Z"/><path d="M748.25,938.52v-18.44h6.11v18.44h-6.11ZM753.81,934.57l-.34-6.83,6.96-7.67h6.77l-7.8,8.59-3.45,3.53-2.13,2.37ZM760.37,938.52l-5.43-7.17,4.03-4.27,8.59,11.44h-7.19Z"/><path d="M782.11,938.52l-7.8-18.44h6.69l6.35,15.57h-3.98l6.54-15.57h6.11l-7.8,18.44h-6.11Z"/><path d="M796.63,938.52v-18.44h6.22v18.44h-6.22Z"/><path d="M805.85,938.52v-18.44h14.99v4.69h-8.88v9.06h9.22v4.69h-15.34ZM811.54,931.41v-4.48h8.22v4.48h-8.22Z"/><path d="M827.98,938.52l-5.9-18.44h6.4l4.77,15.57h-3.21l5.06-15.57h5.72l4.72,15.57h-3.08l4.98-15.57h5.9l-5.9,18.44h-6.67l-3.85-12.75h1.79l-4.06,12.75h-6.67Z"/></g><polyline class="stitching" points="616.98 538.94 687.49 538.94 723.84 619.96"/></g></svg>