<?xml version="1.0" encoding="UTF-8"?><svg xmlns="http://www.w3.org/2000/svg" version="1.1" xmlns:i="http://ns.adobe.com/AdobeIllustrator/10.0/" viewBox="0 0 992.13 992.13"><title>Satuit A-601 6-Panel Hat</title><desc>Gold+ semantic SVG. Geometry unchanged.</desc><defs><style> .outline { stroke-width: 4.43px; } .outline, .seam, .stitching, .dimension, .annotation, .grid, .st6, .st7 { fill: none; } .outline, .seam, .stitching, .dimension, .annotation, .grid, .st6, .st7, .st8 { stroke: #000; } .outline, .seam, .annotation, .grid, .st6, .st7, .st8 { stroke-miterlimit: 10; } .st9, .st8 { fill: #fff; } .seam, .stitching, .annotation { stroke-width: 2px; } .stitching, .dimension { stroke-linecap: round; stroke-linejoin: round; } .st10 { fill: #27aae1; } .dimension, .grid { stroke-width: 4px; } .annotation { stroke-dasharray: 9.92; } .st6 { stroke-width: 3.91px; } .st7 { stroke-width: 3.98px; } .st11 { opacity: .38; } .st8 { stroke-width: 3.88px; } </style></defs><g id="_x31_.GRID_x5F_BG"><g class="st11"><rect class="st10" x="77.84" y="959.57" width="836.45" height="1.02"/><rect class="st10" x="77.84" y="912.83" width="836.45" height="1.02"/><rect class="st10" x="77.84" y="866.1" width="836.45" height="1.02"/><rect class="st10" x="77.84" y="819.36" width="836.45" height="1.02"/><rect class="st10" x="77.84" y="772.62" width="836.45" height="1.02"/><rect class="st10" x="77.84" y="725.88" width="836.45" height="1.02"/><rect class="st10" x="77.84" y="679.15" width="836.45" height="1.02"/><rect class="st10" x="77.84" y="632.41" width="836.45" height="1.02"/><rect class="st10" x="77.84" y="585.67" width="836.45" height="1.02"/><rect class="st10" x="77.84" y="538.94" width="836.45" height="1.02"/><rect class="st10" x="77.84" y="492.2" width="836.45" height="1.02"/><rect class="st10" x="77.84" y="445.46" width="836.45" height="1.02"/><rect class="st10" x="77.84" y="398.72" width="836.45" height="1.02"/><rect class="st10" x="77.84" y="351.99" width="836.45" height="1.02"/><rect class="st10" x="77.84" y="305.25" width="836.45" height="1.02"/><rect class="st10" x="77.84" y="258.51" width="836.45" height="1.02"/><rect class="st10" x="77.84" y="211.78" width="836.45" height="1.02"/><rect class="st10" x="77.84" y="165.04" width="836.45" height="1.02"/><rect class="st10" x="77.84" y="118.3" width="836.45" height="1.02"/><rect class="st10" x="77.84" y="71.56" width="836.45" height="1.02"/><rect class="st10" x="909.76" y="31.87" width=".8" height="927.7"/><rect class="st10" x="860.8" y="31.53" width="1.02" height="928.04"/><rect class="st10" x="811.83" y="31.53" width="1.02" height="928.04"/><rect class="st10" x="762.86" y="31.53" width="1.02" height="928.04"/><rect class="st10" x="713.9" y="31.53" width="1.02" height="928.04"/><rect class="st10" x="664.93" y="31.53" width="1.02" height="928.04"/><rect class="st10" x="615.96" y="31.53" width="1.02" height="928.04"/><rect class="st10" x="566.99" y="31.53" width="1.02" height="928.04"/><rect class="st10" x="518.03" y="31.53" width="1.02" height="928.04"/><rect class="st10" x="469.06" y="31.53" width="1.02" height="928.04"/><rect class="st10" x="420.09" y="31.53" width="1.02" height="928.04"/><rect class="st10" x="371.13" y="31.53" width="1.02" height="928.04"/><rect class="st10" x="322.16" y="31.53" width="1.02" height="928.04"/><rect class="st10" x="273.19" y="31.53" width="1.02" height="928.04"/><rect class="st10" x="224.23" y="31.53" width="1.02" height="928.04"/><rect class="st10" x="175.26" y="31.53" width="1.02" height="928.04"/><rect class="st10" x="126.29" y="31.53" width="1.02" height="928.04"/></g><g><rect class="st7" x="77.58" y="30.35" width="836.97" height="931.42"/><rect class="st8" x="640.91" y="822.57" width="273.64" height="139.21"/><line class="st6" x1="640.91" y1="887.71" x2="914.55" y2="887.71"/></g></g><g id="_x32_.MASK_x5F_FILL"><path class="st9" d="M530.84,173.59s273.86-15.64,264.24,373.67c0,0-29.54,50.99-164.75,58.2l-2.61-4.59s-93.99,14.66-265.44,1.45l-2,5.05c-135.21-7.22-163.25-60.11-163.25-60.11-9.62-389.3,264.24-373.67,264.24-373.67,0,0,2.78-23.5,34.78-23.52,35.43-.02,34.78,23.52,34.78,23.52Z"/></g><g id="_x33_.SEAMS_x5F_INT"><path class="stitching" d="M620.89,540.74s-84.03,14.66-255.49,1.45"/><path class="stitching" d="M628.88,602.33s16.01-169.43-131.57-169.43h-3.44c-147.58,0-131.57,169.43-131.57,169.43"/><line class="stitching" x1="496.18" y1="178.38" x2="496.18" y2="429.16"/><path class="seam" d="M222.53,571.03s-4.34-169.25,27.18-242.63c15.05-35.03,55.71-133.95,211.57-153.11"/><path class="seam" d="M765.28,571.03s4.34-169.25-27.18-242.63c-15.05-35.03-55.71-133.95-211.57-153.11"/><path class="stitching" d="M626.85,542l44.81-3.33s35.6-3.03,48.12-15.99c1.83-1.89,5.02-1.15,5.83,1.35,3.12,9.59,6.5,34.64,2.27,42.5-5.94,11.04-44.57,16.21-98.49,25.49"/><polygon class="stitching" points="639.33 590.7 633.38 541.52 678.36 537.86 683.76 582.59 639.33 590.7"/><path class="stitching" d="M712.28,526.56c-.48-5.55,3.67-10.48,9.21-10.96h0c5.55-.48,10.48,3.67,10.96,9.21l3.36,38.77c.48,5.55-3.67,10.48-9.21,10.96h0"/><path class="stitching" d="M726.6,574.54s-4.72,1.15-6.32-1.89"/><line class="grid" x1="461.28" y1="173.59" x2="530.84" y2="173.59"/><circle class="outline" cx="376.57" cy="286.25" r="11.17"/><circle class="outline" cx="615.68" cy="286.25" r="11.17"/></g><g id="_x34_.OUTLINE_MAIN"><path class="dimension" d="M530.84,173.59s273.86-15.64,264.24,373.67c0,0-29.54,50.99-164.75,58.2l-2.61-4.59s-93.99,14.66-265.44,1.45l-2,5.05c-135.21-7.22-163.25-60.11-163.25-60.11-9.62-389.3,264.24-373.67,264.24-373.67,0,0,2.78-23.5,34.78-23.52,35.43-.02,34.78,23.52,34.78,23.52Z"/></g><g id="_x35_.STITCHING"><path class="annotation" d="M620.89,551.79s-84.03,14.66-255.49,1.45"/><path class="annotation" d="M620.89,588.54s-84.03,14.66-255.49,1.45"/><path class="annotation" d="M649.98,541.21c-10.11-58.01-44.01-134.33-152.36-134.33h-4.08c-174.78,0-155.82,198.59-155.82,198.59"/><path class="annotation" d="M636.63,546.33c-9.2-53.56-40.12-124.13-139.18-124.13h-3.72c-159.63,0-142.31,183.26-142.31,183.26"/><line class="annotation" x1="506.64" y1="178.38" x2="506.64" y2="429.16"/><line class="annotation" x1="485.73" y1="178.38" x2="485.73" y2="429.16"/><path class="annotation" d="M235.47,571.03s-4.34-169.25,27.18-242.63c15.05-35.03,55.25-132.31,211.11-151.48"/><path class="annotation" d="M752.34,571.03s4.34-169.25-27.18-242.63c-15.05-35.03-55.25-132.31-211.11-151.48"/></g><g id="_x39_.ANNOTATIONS"><g><path d="M653.53,868.82c-1.55,0-3.04-.18-4.48-.53s-2.63-.81-3.56-1.37l2-4.53c.88.51,1.86.92,2.94,1.23s2.13.46,3.15.46c.6,0,1.07-.04,1.41-.12.34-.08.59-.19.75-.34s.24-.33.24-.54c0-.33-.18-.6-.55-.79s-.86-.36-1.46-.49c-.61-.13-1.27-.27-1.99-.42-.72-.15-1.44-.35-2.17-.59-.73-.25-1.4-.57-2-.97-.61-.4-1.09-.94-1.46-1.59-.37-.66-.55-1.48-.55-2.46,0-1.14.32-2.18.96-3.12.64-.94,1.6-1.69,2.87-2.25,1.27-.56,2.86-.84,4.76-.84,1.25,0,2.48.13,3.69.4,1.21.26,2.3.67,3.27,1.21l-1.87,4.51c-.91-.46-1.8-.8-2.65-1.03-.85-.23-1.68-.34-2.49-.34-.6,0-1.07.05-1.42.16-.35.11-.6.25-.75.42-.15.18-.22.37-.22.58,0,.32.18.57.55.75s.86.34,1.46.46c.61.12,1.27.25,2,.4.73.14,1.45.33,2.17.58.72.25,1.38.57,1.99.98.61.4,1.09.93,1.46,1.58.37.65.55,1.46.55,2.42,0,1.12-.32,2.16-.96,3.1-.64.94-1.59,1.7-2.86,2.27-1.26.57-2.85.86-4.77.86Z"/><path d="M661.96,868.39l8.06-18.44h6.11l8.06,18.44h-6.43l-5.96-15.49h2.42l-5.96,15.49h-6.32ZM666.76,865.18l1.58-4.48h8.48l1.58,4.48h-11.65Z"/><path d="M688.28,868.39v-13.62h-5.4v-4.82h17.02v4.82h-5.4v13.62h-6.22Z"/><path d="M709.94,868.82c-2.83,0-5.03-.76-6.61-2.29-1.58-1.53-2.37-3.67-2.37-6.43v-10.14h6.22v9.96c0,1.41.25,2.4.76,2.99.51.59,1.19.88,2.06.88s1.57-.29,2.07-.88c.5-.59.75-1.58.75-2.99v-9.96h6.11v10.14c0,2.76-.79,4.9-2.37,6.43s-3.79,2.29-6.61,2.29Z"/><path d="M725.38,868.39v-13.62h-5.4v-4.82h17.02v4.82h-5.4v13.62h-6.22Z"/><path d="M753.39,868.82c-1.55,0-3.04-.18-4.48-.53s-2.63-.81-3.56-1.37l2-4.53c.88.51,1.86.92,2.94,1.23s2.13.46,3.15.46c.6,0,1.07-.04,1.41-.12.34-.08.59-.19.75-.34s.24-.33.24-.54c0-.33-.18-.6-.55-.79s-.86-.36-1.46-.49c-.61-.13-1.27-.27-1.99-.42-.72-.15-1.44-.35-2.17-.59-.73-.25-1.4-.57-2-.97-.61-.4-1.09-.94-1.46-1.59-.37-.66-.55-1.48-.55-2.46,0-1.14.32-2.18.96-3.12.64-.94,1.6-1.69,2.87-2.25,1.27-.56,2.86-.84,4.76-.84,1.25,0,2.48.13,3.69.4,1.21.26,2.3.67,3.27,1.21l-1.87,4.51c-.91-.46-1.8-.8-2.65-1.03-.85-.23-1.68-.34-2.49-.34-.6,0-1.07.05-1.42.16-.35.11-.6.25-.75.42-.15.18-.22.37-.22.58,0,.32.18.57.55.75s.86.34,1.46.46c.61.12,1.27.25,2,.4.73.14,1.45.33,2.17.58.72.25,1.38.57,1.99.98.61.4,1.09.93,1.46,1.58.37.65.55,1.46.55,2.42,0,1.12-.32,2.16-.96,3.1-.64.94-1.59,1.7-2.86,2.27-1.26.57-2.85.86-4.77.86Z"/><path d="M772.65,868.82c-2.83,0-5.03-.76-6.61-2.29-1.58-1.53-2.37-3.67-2.37-6.43v-10.14h6.22v9.96c0,1.41.25,2.4.76,2.99.51.59,1.19.88,2.06.88s1.57-.29,2.07-.88c.5-.59.75-1.58.75-2.99v-9.96h6.11v10.14c0,2.76-.79,4.9-2.37,6.43s-3.79,2.29-6.61,2.29Z"/><path d="M784.49,868.39v-18.44h8.88c1.72,0,3.21.28,4.47.84,1.26.56,2.23,1.37,2.91,2.41.68,1.04,1.03,2.28,1.03,3.7s-.34,2.65-1.03,3.69c-.69,1.04-1.66,1.84-2.91,2.41-1.26.57-2.74.86-4.47.86h-5.43l2.77-2.66v7.19h-6.22ZM790.7,861.89l-2.77-2.82h5.03c.86,0,1.5-.19,1.91-.58s.62-.91.62-1.58-.21-1.19-.62-1.58c-.41-.39-1.05-.58-1.91-.58h-5.03l2.77-2.82v9.96Z"/><path d="M803.8,868.39v-18.44h8.88c1.72,0,3.21.28,4.47.84,1.26.56,2.23,1.37,2.91,2.41.68,1.04,1.03,2.28,1.03,3.7s-.34,2.65-1.03,3.69c-.69,1.04-1.66,1.84-2.91,2.41-1.26.57-2.74.86-4.47.86h-5.43l2.77-2.66v7.19h-6.22ZM810.02,861.89l-2.77-2.82h5.03c.86,0,1.5-.19,1.91-.58s.62-.91.62-1.58-.21-1.19-.62-1.58c-.41-.39-1.05-.58-1.91-.58h-5.03l2.77-2.82v9.96Z"/><path d="M823.11,868.39v-18.44h6.22v13.62h8.33v4.82h-14.54Z"/><path d="M842.27,868.39v-8.09l1.42,3.71-8.38-14.07h6.56l5.67,9.62h-3.82l5.72-9.62h6.01l-8.33,14.07,1.37-3.71v8.09h-6.22Z"/><path d="M873.68,868.82c-1.48,0-2.84-.23-4.1-.7-1.26-.47-2.35-1.13-3.27-1.99-.92-.86-1.64-1.88-2.15-3.06-.51-1.18-.76-2.48-.76-3.9s.25-2.72.76-3.9c.51-1.18,1.23-2.2,2.15-3.06.92-.86,2.01-1.52,3.27-1.99,1.26-.46,2.62-.7,4.1-.7,1.81,0,3.41.32,4.81.95,1.4.63,2.55,1.55,3.46,2.74l-3.93,3.5c-.54-.69-1.15-1.22-1.8-1.59-.66-.38-1.4-.57-2.23-.57-.65,0-1.24.11-1.77.32-.53.21-.98.52-1.36.92-.38.4-.67.89-.88,1.46-.21.57-.32,1.21-.32,1.91s.11,1.34.32,1.91c.21.57.5,1.06.88,1.46.38.4.83.71,1.36.92.53.21,1.12.32,1.77.32.83,0,1.57-.19,2.23-.57.66-.38,1.26-.91,1.8-1.59l3.93,3.5c-.91,1.18-2.07,2.09-3.46,2.73-1.4.64-3,.96-4.81.96Z"/><path d="M892.57,868.82c-1.49,0-2.88-.24-4.15-.71-1.27-.47-2.38-1.15-3.31-2.02-.93-.87-1.66-1.89-2.17-3.07-.52-1.18-.78-2.46-.78-3.85s.26-2.69.78-3.86c.52-1.17,1.24-2.19,2.17-3.06.93-.87,2.03-1.54,3.31-2.02,1.27-.47,2.66-.71,4.15-.71s2.9.24,4.16.71c1.27.47,2.36,1.15,3.29,2.02.93.87,1.66,1.89,2.17,3.06.52,1.17.78,2.46.78,3.86s-.26,2.67-.78,3.85-1.24,2.2-2.17,3.07-2.03,1.54-3.29,2.02c-1.26.47-2.65.71-4.16.71ZM892.57,863.78c.58,0,1.12-.11,1.62-.32.5-.21.94-.51,1.32-.91.38-.4.67-.88.88-1.45.21-.57.32-1.22.32-1.94s-.11-1.37-.32-1.94c-.21-.57-.51-1.05-.88-1.45-.38-.4-.82-.7-1.32-.91-.5-.21-1.04-.32-1.62-.32s-1.12.11-1.62.32-.94.51-1.32.91c-.38.4-.67.88-.88,1.45-.21.57-.32,1.22-.32,1.94s.11,1.37.32,1.94c.21.57.5,1.05.88,1.45.38.39.82.7,1.32.91.5.21,1.04.32,1.62.32Z"/><path d="M907.22,868.66c-.98,0-1.81-.32-2.48-.96-.67-.64-1-1.46-1-2.46s.33-1.83,1-2.45c.67-.62,1.49-.92,2.48-.92s1.81.31,2.48.92c.67.62,1,1.43,1,2.45s-.33,1.82-1,2.46c-.67.64-1.49.96-2.48.96Z"/></g><g><path d="M687.49,938.52v-18.44h9.86c2.55,0,4.43.45,5.64,1.36,1.21.91,1.82,2.06,1.82,3.46,0,.93-.26,1.76-.78,2.49-.52.73-1.27,1.3-2.25,1.73-.98.42-2.2.63-3.63.63l.53-1.42c1.44,0,2.68.2,3.73.61s1.85.99,2.43,1.75c.57.76.86,1.68.86,2.75,0,1.6-.66,2.85-1.99,3.74s-3.26,1.34-5.81,1.34h-10.38ZM693.6,934.17h3.74c.69,0,1.2-.12,1.54-.37.34-.25.51-.61.51-1.08s-.17-.83-.51-1.08-.86-.37-1.54-.37h-4.16v-4.11h3.32c.7,0,1.22-.12,1.54-.36.33-.24.49-.58.49-1.01s-.16-.8-.49-1.03c-.32-.23-.84-.34-1.54-.34h-2.9v9.75Z"/><path d="M705.85,938.52l8.06-18.44h6.11l8.06,18.44h-6.43l-5.96-15.49h2.42l-5.96,15.49h-6.32ZM710.65,935.31l1.58-4.48h8.48l1.58,4.48h-11.65Z"/><path d="M738.37,938.94c-1.47,0-2.84-.23-4.1-.7-1.26-.47-2.35-1.13-3.27-1.99-.92-.86-1.64-1.88-2.15-3.06s-.76-2.48-.76-3.9.25-2.72.76-3.9,1.23-2.2,2.15-3.06c.92-.86,2.01-1.52,3.27-1.99,1.26-.46,2.62-.7,4.1-.7,1.81,0,3.41.32,4.81.95,1.4.63,2.55,1.55,3.46,2.74l-3.93,3.5c-.54-.69-1.14-1.22-1.8-1.59-.66-.38-1.4-.57-2.23-.57-.65,0-1.24.11-1.77.32-.53.21-.98.52-1.36.92-.38.4-.67.89-.88,1.46-.21.57-.32,1.21-.32,1.91s.11,1.34.32,1.91c.21.57.5,1.06.88,1.46.38.4.83.71,1.36.92.53.21,1.12.32,1.77.32.83,0,1.57-.19,2.23-.57.66-.38,1.26-.91,1.8-1.59l3.93,3.5c-.91,1.18-2.07,2.09-3.46,2.73-1.4.64-3,.96-4.81.96Z"/><path d="M748.25,938.52v-18.44h6.11v18.44h-6.11ZM753.81,934.57l-.34-6.83,6.96-7.67h6.77l-7.8,8.59-3.45,3.53-2.13,2.37ZM760.37,938.52l-5.43-7.17,4.03-4.27,8.59,11.44h-7.19Z"/><path d="M782.11,938.52l-7.8-18.44h6.69l6.35,15.57h-3.98l6.54-15.57h6.11l-7.8,18.44h-6.11Z"/><path d="M796.63,938.52v-18.44h6.22v18.44h-6.22Z"/><path d="M805.85,938.52v-18.44h14.99v4.69h-8.88v9.06h9.22v4.69h-15.34ZM811.54,931.41v-4.48h8.22v4.48h-8.22Z"/><path d="M827.98,938.52l-5.9-18.44h6.4l4.77,15.57h-3.21l5.06-15.57h5.72l4.72,15.57h-3.08l4.98-15.57h5.9l-5.9,18.44h-6.67l-3.85-12.75h1.79l-4.06,12.75h-6.67Z"/></g><g><path d="M118.01,939.11l9.89-22.62h7.5l9.89,22.62h-7.89l-7.3-19h2.97l-7.3,19h-7.76ZM123.89,935.16l1.94-5.49h10.41l1.94,5.49h-14.29Z"/><path d="M145.16,932.51v-5.49h9.7v5.49h-9.7Z"/><path d="M168.1,939.62c-2.16,0-4.05-.42-5.67-1.24-1.63-.83-2.9-2.07-3.81-3.72-.92-1.65-1.37-3.7-1.37-6.16,0-2.65.53-4.91,1.58-6.77,1.06-1.86,2.53-3.29,4.41-4.28,1.88-.99,4.07-1.49,6.54-1.49,1.33,0,2.62.16,3.86.47,1.24.31,2.29.75,3.15,1.31l-2.75,5.33c-.67-.47-1.34-.79-2.02-.95-.68-.16-1.37-.24-2.08-.24-1.53,0-2.75.46-3.67,1.37-.92.92-1.37,2.25-1.37,3.99v1.91l-1.75-1.26c.43-.73.94-1.35,1.52-1.86s1.27-.89,2.07-1.16c.8-.27,1.72-.4,2.78-.4,1.38,0,2.66.3,3.83.89,1.17.59,2.12,1.43,2.84,2.5.72,1.08,1.08,2.36,1.08,3.85,0,1.62-.41,3.02-1.23,4.2-.82,1.18-1.92,2.1-3.31,2.75s-2.94.97-4.64.97ZM167.59,934.36c.45,0,.86-.09,1.21-.27.36-.18.63-.45.82-.79.19-.34.29-.75.29-1.23,0-.71-.22-1.28-.65-1.7-.43-.42-.99-.63-1.68-.63-.45,0-.85.1-1.2.29-.34.19-.62.46-.82.81-.21.34-.31.75-.31,1.23s.1.88.31,1.23c.2.34.48.61.82.79.34.18.74.27,1.2.27Z"/><path d="M188.85,939.62c-2,0-3.78-.46-5.32-1.39-1.54-.93-2.75-2.27-3.62-4.04-.87-1.77-1.31-3.9-1.31-6.4s.44-4.63,1.31-6.4c.87-1.77,2.08-3.11,3.62-4.04,1.54-.93,3.31-1.39,5.32-1.39s3.78.46,5.32,1.39c1.54.93,2.75,2.27,3.62,4.04.87,1.77,1.31,3.9,1.31,6.4s-.44,4.63-1.31,6.4c-.87,1.77-2.08,3.11-3.62,4.04-1.54.93-3.31,1.39-5.32,1.39ZM188.85,933.52c.5,0,.94-.17,1.33-.52.39-.34.7-.94.92-1.78.23-.84.34-1.98.34-3.43s-.11-2.61-.34-3.44c-.23-.83-.53-1.42-.92-1.76-.39-.34-.83-.52-1.33-.52s-.94.17-1.32.52c-.39.35-.7.93-.92,1.76-.23.83-.34,1.98-.34,3.44s.11,2.59.34,3.43c.23.84.53,1.43.92,1.78.39.35.83.52,1.32.52Z"/><path d="M203.75,939.11v-19.97l3.26,3.1h-7.14v-5.75h11.5v22.62h-7.63Z"/><path d="M214.67,932.51v-5.49h9.7v5.49h-9.7Z"/><path d="M235.78,939.62c-1.9,0-3.73-.21-5.49-.65-1.77-.43-3.22-.99-4.36-1.68l2.46-5.56c1.08.62,2.28,1.13,3.6,1.5s2.61.57,3.86.57c.73,0,1.31-.05,1.73-.15s.73-.24.92-.42c.19-.18.29-.4.29-.66,0-.41-.23-.73-.68-.97-.45-.24-1.05-.44-1.79-.6-.74-.16-1.56-.33-2.44-.52-.88-.18-1.77-.43-2.67-.73-.89-.3-1.71-.7-2.46-1.2-.74-.5-1.34-1.15-1.79-1.96-.45-.81-.68-1.82-.68-3.02,0-1.4.39-2.68,1.18-3.83.79-1.15,1.96-2.07,3.52-2.76,1.56-.69,3.51-1.03,5.83-1.03,1.53,0,3.04.16,4.52.49,1.49.32,2.82.82,4.01,1.49l-2.29,5.53c-1.12-.56-2.2-.98-3.25-1.26-1.04-.28-2.06-.42-3.05-.42-.73,0-1.31.06-1.75.19-.43.13-.74.3-.92.52-.18.22-.27.45-.27.71,0,.39.23.7.68.92.45.23,1.05.42,1.79.57.74.15,1.56.31,2.46.49.89.17,1.78.41,2.67.71.88.3,1.7.7,2.44,1.2.74.5,1.34,1.14,1.79,1.94.45.8.68,1.79.68,2.97,0,1.38-.39,2.64-1.18,3.8-.79,1.15-1.96,2.08-3.51,2.78-1.55.7-3.5,1.05-5.85,1.05Z"/><path d="M248.51,932.51v-5.49h9.7v5.49h-9.7Z"/><path d="M281.15,939.62c-2.16,0-4.05-.42-5.67-1.24-1.63-.83-2.9-2.07-3.81-3.72-.92-1.65-1.37-3.7-1.37-6.16,0-2.65.53-4.91,1.58-6.77,1.06-1.86,2.53-3.29,4.41-4.28,1.88-.99,4.07-1.49,6.54-1.49,1.33,0,2.62.16,3.86.47,1.24.31,2.29.75,3.15,1.31l-2.75,5.33c-.67-.47-1.34-.79-2.02-.95-.68-.16-1.37-.24-2.08-.24-1.53,0-2.75.46-3.67,1.37-.92.92-1.37,2.25-1.37,3.99v1.91l-1.75-1.26c.43-.73.94-1.35,1.52-1.86s1.27-.89,2.07-1.16c.8-.27,1.72-.4,2.78-.4,1.38,0,2.66.3,3.83.89,1.17.59,2.12,1.43,2.84,2.5.72,1.08,1.08,2.36,1.08,3.85,0,1.62-.41,3.02-1.23,4.2-.82,1.18-1.92,2.1-3.31,2.75s-2.94.97-4.64.97ZM280.63,934.36c.45,0,.86-.09,1.21-.27.36-.18.63-.45.82-.79.19-.34.29-.75.29-1.23,0-.71-.22-1.28-.65-1.7-.43-.42-.99-.63-1.68-.63-.45,0-.85.1-1.2.29-.34.19-.62.46-.82.81-.21.34-.31.75-.31,1.23s.1.88.31,1.23c.2.34.48.61.82.79.34.18.74.27,1.2.27Z"/><path d="M301.86,932.51v-5.49h9.7v5.49h-9.7Z"/><path d="M314.86,939.11v-22.62h10.89c2.11,0,3.94.34,5.48,1.03,1.54.69,2.73,1.67,3.57,2.96.84,1.28,1.26,2.79,1.26,4.54s-.42,3.25-1.26,4.52c-.84,1.27-2.03,2.26-3.57,2.96-1.54.7-3.37,1.05-5.48,1.05h-6.66l3.39-3.26v8.82h-7.63ZM322.48,931.12l-3.39-3.46h6.17c1.06,0,1.84-.24,2.34-.71.51-.47.76-1.12.76-1.94s-.25-1.46-.76-1.94-1.29-.71-2.34-.71h-6.17l3.39-3.46v12.22Z"/><path d="M334.96,939.11l9.89-22.62h7.5l9.89,22.62h-7.89l-7.3-19h2.97l-7.3,19h-7.76ZM340.84,935.16l1.94-5.49h10.41l1.94,5.49h-14.28Z"/><path d="M363.46,939.11v-22.62h6.27l11.5,13.77h-2.91v-13.77h7.43v22.62h-6.27l-11.5-13.77h2.91v13.77h-7.43Z"/><path d="M389.44,939.11v-22.62h18.39v5.75h-10.89v11.12h11.31v5.75h-18.81ZM396.42,930.38v-5.49h10.08v5.49h-10.08Z"/><path d="M411.19,939.11v-22.62h7.63v16.71h10.21v5.91h-17.84Z"/><path d="M440.83,939.11v-22.62h7.63v22.62h-7.63ZM447.94,930.77v-6.27h8.08v6.27h-8.08ZM455.5,939.11v-22.62h7.63v22.62h-7.63Z"/><path d="M464.35,939.11l9.89-22.62h7.5l9.89,22.62h-7.89l-7.3-19h2.97l-7.3,19h-7.76ZM470.24,935.16l1.94-5.49h10.41l1.94,5.49h-14.28Z"/><path d="M496.64,939.11v-16.71h-6.62v-5.91h20.88v5.91h-6.62v16.71h-7.63Z"/></g></g></svg>