<?xml version='1.0' encoding='UTF-8'?>
<svg xmlns="http://www.w3.org/2000/svg" version="1.1" viewBox="0 0 992.13 992.13"><title>Satuit A-601 6-Panel Hat</title><desc>Gold+ semantic SVG. Geometry unchanged.</desc><defs><style> .outline, .seam { fill: #fff; } .stitching, .dimension, .annotation, .grid, .st6, .st7, .st8, .seam, .st9 { stroke: #000; } .stitching, .dimension, .annotation, .grid, .st6, .st7, .st8, .st9 { fill: none; } .stitching, .annotation, .grid, .st6, .st7, .st8, .seam, .st9 { stroke-miterlimit: 10; } .stitching, .annotation, .st9 { stroke-width: 2px; } .st10 { fill: #27aae1; } .dimension { stroke-linecap: round; stroke-linejoin: round; } .dimension, .grid { stroke-width: 4px; } .annotation { stroke-dasharray: 9.92; } .st6 { stroke-width: 4.88px; } .st7 { stroke-width: 3.91px; } .st8 { stroke-width: 3.98px; } .st11 { opacity: .38; } .seam { stroke-width: 3.88px; } .st9 { stroke-dasharray: 9.94; }  .seam,.stitching{fill:none!important;}g[id*="SEAMS"] path,g[id*="SEAMS"] rect,g[id*="SEAMS"] circle,g[id*="SEAMS"] ellipse,g[id*="SEAMS"] polygon,g[id*="SEAMS"] polyline,g[id*="STITCHING"] path,g[id*="STITCHING"] rect,g[id*="STITCHING"] circle,g[id*="STITCHING"] ellipse,g[id*="STITCHING"] polygon,g[id*="STITCHING"] polyline{fill:none!important;}</style></defs><g id="_x31_.GRID_x5F_BG"><g class="st11"><rect class="st10" x="77.84" y="959.57" width="836.45" height="1.02" /><rect class="st10" x="77.84" y="912.83" width="836.45" height="1.02" /><rect class="st10" x="77.84" y="866.1" width="836.45" height="1.02" /><rect class="st10" x="77.84" y="819.36" width="836.45" height="1.02" /><rect class="st10" x="77.84" y="772.62" width="836.45" height="1.02" /><rect class="st10" x="77.84" y="725.88" width="836.45" height="1.02" /><rect class="st10" x="77.84" y="679.15" width="836.45" height="1.02" /><rect class="st10" x="77.84" y="632.41" width="836.45" height="1.02" /><rect class="st10" x="77.84" y="585.67" width="836.45" height="1.02" /><rect class="st10" x="77.84" y="538.94" width="836.45" height="1.02" /><rect class="st10" x="77.84" y="492.2" width="836.45" height="1.02" /><rect class="st10" x="77.84" y="445.46" width="836.45" height="1.02" /><rect class="st10" x="77.84" y="398.72" width="836.45" height="1.02" /><rect class="st10" x="77.84" y="351.99" width="836.45" height="1.02" /><rect class="st10" x="77.84" y="305.25" width="836.45" height="1.02" /><rect class="st10" x="77.84" y="258.51" width="836.45" height="1.02" /><rect class="st10" x="77.84" y="211.78" width="836.45" height="1.02" /><rect class="st10" x="77.84" y="165.04" width="836.45" height="1.02" /><rect class="st10" x="77.84" y="118.3" width="836.45" height="1.02" /><rect class="st10" x="77.84" y="71.56" width="836.45" height="1.02" /><rect class="st10" x="909.76" y="31.87" width=".8" height="927.7" /><rect class="st10" x="860.8" y="31.53" width="1.02" height="928.04" /><rect class="st10" x="811.83" y="31.53" width="1.02" height="928.04" /><rect class="st10" x="762.86" y="31.53" width="1.02" height="928.04" /><rect class="st10" x="713.9" y="31.53" width="1.02" height="928.04" /><rect class="st10" x="664.93" y="31.53" width="1.02" height="928.04" /><rect class="st10" x="615.96" y="31.53" width="1.02" height="928.04" /><rect class="st10" x="566.99" y="31.53" width="1.02" height="928.04" /><rect class="st10" x="518.03" y="31.53" width="1.02" height="928.04" /><rect class="st10" x="469.06" y="31.53" width="1.02" height="928.04" /><rect class="st10" x="420.09" y="31.53" width="1.02" height="928.04" /><rect class="st10" x="371.13" y="31.53" width="1.02" height="928.04" /><rect class="st10" x="322.16" y="31.53" width="1.02" height="928.04" /><rect class="st10" x="273.19" y="31.53" width="1.02" height="928.04" /><rect class="st10" x="224.23" y="31.53" width="1.02" height="928.04" /><rect class="st10" x="175.26" y="31.53" width="1.02" height="928.04" /><rect class="st10" x="126.29" y="31.53" width="1.02" height="928.04" /></g><g><rect class="st8" x="77.58" y="30.35" width="836.97" height="931.42" /><rect class="seam" x="640.91" y="822.57" width="273.64" height="139.21" /><line class="st7" x1="640.91" y1="887.71" x2="914.55" y2="887.71" /></g></g><g id="_x32_.MASK_x5F_FILL"><path class="outline" d="M533.89,173.71c175.73,5.86,236.3,134.44,249.69,193.01,13.39,58.58,28.91,146.84,24.73,179.48-4.18,32.63-21.15,31.48-21.15,31.48,0,0,8.44,81.87.42,128.99-8.73,51.35-57.35,36.71-87.17,24.47-29.82-12.24-61.94-37.47-185.82-42.06h-25.13c-123.88,4.59-156,29.82-185.82,42.06-29.82,12.24-78.44,26.88-87.17-24.47-8.01-47.13.42-128.99.42-128.99,0,0-16.97,1.16-21.15-31.48-4.18-32.63,11.34-120.9,24.73-179.48,13.39-58.58,73.97-187.15,249.69-193.01l-.48-1.99c0-11.95,14.65-21.64,32.72-21.64s32.72,9.69,32.72,21.64l-1.23,1.99Z" /></g><g id="_x33_.SEAMS_x5F_INT"><line class="stitching" x1="504.24" y1="173.71" x2="504.24" y2="536.69" /><path class="stitching" d="M216.89,577.68s265.18-84.94,570.27,0" /><path class="stitching" d="M229.66,573.98s-4.03-170.66,25.23-244.63c13.97-35.32,51.34-131.95,195.99-151.27" /><path class="stitching" d="M770.87,573.98s4.03-170.66-25.23-244.63c-13.97-35.32-51.34-131.95-195.99-151.27" /></g><g id="_x34_.OUTLINE_MAIN"><path class="dimension" d="M533.89,173.71c175.73,5.86,236.3,134.44,249.69,193.01,13.39,58.58,28.91,146.84,24.73,179.48-4.18,32.63-21.15,31.48-21.15,31.48,0,0,8.44,81.87.42,128.99-8.73,51.35-57.35,36.71-87.17,24.47-29.82-12.24-61.94-37.47-185.82-42.06h-25.13c-123.88,4.59-156,29.82-185.82,42.06-29.82,12.24-78.44,26.88-87.17-24.47-8.01-47.13.42-128.99.42-128.99,0,0-16.97,1.16-21.15-31.48-4.18-32.63,11.34-120.9,24.73-179.48,13.39-58.58,73.97-187.15,249.69-193.01l-.48-1.99c0-11.95,14.65-21.64,32.72-21.64s32.72,9.69,32.72,21.64l-1.23,1.99Z" /></g><g id="_x35_.STITCHING"><path class="annotation" d="M233.13,578.06l5.41,89.54c1.52,25.25,22.22,45.44,47.52,45.47,13.08.01,54.53-14.61,75.5-24.09,0,0,134.51-70.58,280.96,0,20.73,9.99,62.42,24.11,75.5,24.09,25.29-.02,45.99-20.22,47.52-45.47l5.41-89.54" /><path class="annotation" d="M248.38,573.9l3.42,80.43c1.52,25.16,18.59,40.61,43.8,40.72,0,0,20.18-3.06,57.26-18.04,0,0,137.93-71.38,298.33,0,36.54,16.26,57.26,18.04,57.26,18.04,25.21-.1,42.28-15.56,43.8-40.72l3.42-80.43" /><path class="annotation" d="M260.79,570.03l4.29,71.03c1.52,25.25,12.23,36.46,37.53,36.49,0,0,26.68-3.56,61.99-18.29,0,0,132.08-54.18,274.86,0,35.78,13.58,61.99,18.29,61.99,18.29,25.29-.02,36-11.24,37.53-36.49l4.29-71.03" /><path class="annotation" d="M275.76,564.44l2.59,63.34c1.52,25.16,14.17,35.88,39.38,35.98" /><path class="annotation" d="M292.08,562.68l-.45,51.83c1.52,25.16,10.69,33.98,35.9,34.08l34.02-10s150.86-45.96,280.96,0l34.02,10c25.21-.1,34.38-8.92,35.68-37.98l-.45-51.83" /><path class="annotation" d="M319.63,663.76l44.97-13.42s148.71-51.71,274.86,0l44.97,13.42" /><path class="annotation" d="M728.29,564.44l-2.59,63.34c-1.52,25.16-14.17,35.88-39.38,35.98" /><line class="annotation" x1="493.45" y1="175.16" x2="493.45" y2="536.69" /><line class="annotation" x1="515.04" y1="175.16" x2="515.04" y2="536.69" /><path class="st9" d="M202.94,568.64l13.95-4.62s265.18-84.94,570.27,0l13.95,4.62" /><path class="st9" d="M241.48,570.87s-3.84-167.55,25.42-241.53c13.97-35.32,51.34-131.95,195.99-151.27" /><path class="st9" d="M758.86,573.98s4.03-170.66-25.23-244.63c-13.97-35.32-51.34-131.95-195.99-151.27" /></g><g id="_x38_.DIMENSIONS"><line class="grid" x1="470.16" y1="173.71" x2="533.89" y2="173.71" /></g><g id="_x39_.ANNOTATIONS"><g><path d="M653.53,868.82c-1.55,0-3.04-.18-4.48-.53s-2.63-.81-3.56-1.37l2-4.53c.88.51,1.86.92,2.94,1.23s2.13.46,3.15.46c.6,0,1.07-.04,1.41-.12.34-.08.59-.19.75-.34s.24-.33.24-.54c0-.33-.18-.6-.55-.79s-.86-.36-1.46-.49c-.61-.13-1.27-.27-1.99-.42-.72-.15-1.44-.35-2.17-.59-.73-.25-1.4-.57-2-.97-.61-.4-1.09-.94-1.46-1.59-.37-.66-.55-1.48-.55-2.46,0-1.14.32-2.18.96-3.12.64-.94,1.6-1.69,2.87-2.25,1.27-.56,2.86-.84,4.76-.84,1.25,0,2.48.13,3.69.4,1.21.26,2.3.67,3.27,1.21l-1.87,4.51c-.91-.46-1.8-.8-2.65-1.03-.85-.23-1.68-.34-2.49-.34-.6,0-1.07.05-1.42.16-.35.11-.6.25-.75.42-.15.18-.22.37-.22.58,0,.32.18.57.55.75s.86.34,1.46.46c.61.12,1.27.25,2,.4.73.14,1.45.33,2.17.58.72.25,1.38.57,1.99.98.61.4,1.09.93,1.46,1.58.37.65.55,1.46.55,2.42,0,1.12-.32,2.16-.96,3.1-.64.94-1.59,1.7-2.86,2.27-1.26.57-2.85.86-4.77.86Z" /><path d="M661.96,868.39l8.06-18.44h6.11l8.06,18.44h-6.43l-5.96-15.49h2.42l-5.96,15.49h-6.32ZM666.76,865.18l1.58-4.48h8.48l1.58,4.48h-11.65Z" /><path d="M688.28,868.39v-13.62h-5.4v-4.82h17.02v4.82h-5.4v13.62h-6.22Z" /><path d="M709.94,868.82c-2.83,0-5.03-.76-6.61-2.29-1.58-1.53-2.37-3.67-2.37-6.43v-10.14h6.22v9.96c0,1.41.25,2.4.76,2.99.51.59,1.19.88,2.06.88s1.57-.29,2.07-.88c.5-.59.75-1.58.75-2.99v-9.96h6.11v10.14c0,2.76-.79,4.9-2.37,6.43s-3.79,2.29-6.61,2.29Z" /><path d="M725.38,868.39v-13.62h-5.4v-4.82h17.02v4.82h-5.4v13.62h-6.22Z" /><path d="M753.39,868.82c-1.55,0-3.04-.18-4.48-.53s-2.63-.81-3.56-1.37l2-4.53c.88.51,1.86.92,2.94,1.23s2.13.46,3.15.46c.6,0,1.07-.04,1.41-.12.34-.08.59-.19.75-.34s.24-.33.24-.54c0-.33-.18-.6-.55-.79s-.86-.36-1.46-.49c-.61-.13-1.27-.27-1.99-.42-.72-.15-1.44-.35-2.17-.59-.73-.25-1.4-.57-2-.97-.61-.4-1.09-.94-1.46-1.59-.37-.66-.55-1.48-.55-2.46,0-1.14.32-2.18.96-3.12.64-.94,1.6-1.69,2.87-2.25,1.27-.56,2.86-.84,4.76-.84,1.25,0,2.48.13,3.69.4,1.21.26,2.3.67,3.27,1.21l-1.87,4.51c-.91-.46-1.8-.8-2.65-1.03-.85-.23-1.68-.34-2.49-.34-.6,0-1.07.05-1.42.16-.35.11-.6.25-.75.42-.15.18-.22.37-.22.58,0,.32.18.57.55.75s.86.34,1.46.46c.61.12,1.27.25,2,.4.73.14,1.45.33,2.17.58.72.25,1.38.57,1.99.98.61.4,1.09.93,1.46,1.58.37.65.55,1.46.55,2.42,0,1.12-.32,2.16-.96,3.1-.64.94-1.59,1.7-2.86,2.27-1.26.57-2.85.86-4.77.86Z" /><path d="M772.65,868.82c-2.83,0-5.03-.76-6.61-2.29-1.58-1.53-2.37-3.67-2.37-6.43v-10.14h6.22v9.96c0,1.41.25,2.4.76,2.99.51.59,1.19.88,2.06.88s1.57-.29,2.07-.88c.5-.59.75-1.58.75-2.99v-9.96h6.11v10.14c0,2.76-.79,4.9-2.37,6.43s-3.79,2.29-6.61,2.29Z" /><path d="M784.49,868.39v-18.44h8.88c1.72,0,3.21.28,4.47.84,1.26.56,2.23,1.37,2.91,2.41.68,1.04,1.03,2.28,1.03,3.7s-.34,2.65-1.03,3.69c-.69,1.04-1.66,1.84-2.91,2.41-1.26.57-2.74.86-4.47.86h-5.43l2.77-2.66v7.19h-6.22ZM790.7,861.89l-2.77-2.82h5.03c.86,0,1.5-.19,1.91-.58s.62-.91.62-1.58-.21-1.19-.62-1.58c-.41-.39-1.05-.58-1.91-.58h-5.03l2.77-2.82v9.96Z" /><path d="M803.8,868.39v-18.44h8.88c1.72,0,3.21.28,4.47.84,1.26.56,2.23,1.37,2.91,2.41.68,1.04,1.03,2.28,1.03,3.7s-.34,2.65-1.03,3.69c-.69,1.04-1.66,1.84-2.91,2.41-1.26.57-2.74.86-4.47.86h-5.43l2.77-2.66v7.19h-6.22ZM810.02,861.89l-2.77-2.82h5.03c.86,0,1.5-.19,1.91-.58s.62-.91.62-1.58-.21-1.19-.62-1.58c-.41-.39-1.05-.58-1.91-.58h-5.03l2.77-2.82v9.96Z" /><path d="M823.11,868.39v-18.44h6.22v13.62h8.33v4.82h-14.54Z" /><path d="M842.27,868.39v-8.09l1.42,3.71-8.38-14.07h6.56l5.67,9.62h-3.82l5.72-9.62h6.01l-8.33,14.07,1.37-3.71v8.09h-6.22Z" /><path d="M873.68,868.82c-1.48,0-2.84-.23-4.1-.7-1.26-.47-2.35-1.13-3.27-1.99-.92-.86-1.64-1.88-2.15-3.06-.51-1.18-.76-2.48-.76-3.9s.25-2.72.76-3.9c.51-1.18,1.23-2.2,2.15-3.06.92-.86,2.01-1.52,3.27-1.99,1.26-.46,2.62-.7,4.1-.7,1.81,0,3.41.32,4.81.95,1.4.63,2.55,1.55,3.46,2.74l-3.93,3.5c-.54-.69-1.15-1.22-1.8-1.59-.66-.38-1.4-.57-2.23-.57-.65,0-1.24.11-1.77.32-.53.21-.98.52-1.36.92-.38.4-.67.89-.88,1.46-.21.57-.32,1.21-.32,1.91s.11,1.34.32,1.91c.21.57.5,1.06.88,1.46.38.4.83.71,1.36.92.53.21,1.12.32,1.77.32.83,0,1.57-.19,2.23-.57.66-.38,1.26-.91,1.8-1.59l3.93,3.5c-.91,1.18-2.07,2.09-3.46,2.73-1.4.64-3,.96-4.81.96Z" /><path d="M892.57,868.82c-1.49,0-2.88-.24-4.15-.71-1.27-.47-2.38-1.15-3.31-2.02-.93-.87-1.66-1.89-2.17-3.07-.52-1.18-.78-2.46-.78-3.85s.26-2.69.78-3.86c.52-1.17,1.24-2.19,2.17-3.06.93-.87,2.03-1.54,3.31-2.02,1.27-.47,2.66-.71,4.15-.71s2.9.24,4.16.71c1.27.47,2.36,1.15,3.29,2.02.93.87,1.66,1.89,2.17,3.06.52,1.17.78,2.46.78,3.86s-.26,2.67-.78,3.85-1.24,2.2-2.17,3.07-2.03,1.54-3.29,2.02c-1.26.47-2.65.71-4.16.71ZM892.57,863.78c.58,0,1.12-.11,1.62-.32.5-.21.94-.51,1.32-.91.38-.4.67-.88.88-1.45.21-.57.32-1.22.32-1.94s-.11-1.37-.32-1.94c-.21-.57-.51-1.05-.88-1.45-.38-.4-.82-.7-1.32-.91-.5-.21-1.04-.32-1.62-.32s-1.12.11-1.62.32-.94.51-1.32.91c-.38.4-.67.88-.88,1.45-.21.57-.32,1.22-.32,1.94s.11,1.37.32,1.94c.21.57.5,1.05.88,1.45.38.39.82.7,1.32.91.5.21,1.04.32,1.62.32Z" /><path d="M907.22,868.66c-.98,0-1.81-.32-2.48-.96-.67-.64-1-1.46-1-2.46s.33-1.83,1-2.45c.67-.62,1.49-.92,2.48-.92s1.81.31,2.48.92c.67.62,1,1.43,1,2.45s-.33,1.82-1,2.46c-.67.64-1.49.96-2.48.96Z" /></g><g><path d="M118.01,939.11l9.89-22.62h7.5l9.89,22.62h-7.89l-7.3-19h2.97l-7.3,19h-7.76ZM123.89,935.16l1.94-5.49h10.41l1.94,5.49h-14.28Z" /><path d="M145.16,932.51v-5.49h9.7v5.49h-9.7Z" /><path d="M168.1,939.62c-2.15,0-4.05-.42-5.67-1.24-1.63-.83-2.9-2.07-3.81-3.72-.92-1.65-1.37-3.7-1.37-6.16,0-2.65.53-4.91,1.58-6.77,1.06-1.86,2.53-3.29,4.41-4.28,1.88-.99,4.07-1.49,6.54-1.49,1.34,0,2.62.16,3.86.47,1.24.31,2.29.75,3.15,1.31l-2.75,5.33c-.67-.47-1.34-.79-2.02-.95-.68-.16-1.37-.24-2.08-.24-1.53,0-2.75.46-3.67,1.37-.92.92-1.37,2.25-1.37,3.99v1.91l-1.75-1.26c.43-.73.94-1.35,1.52-1.86.58-.51,1.27-.89,2.07-1.16.8-.27,1.72-.4,2.78-.4,1.38,0,2.66.3,3.83.89s2.12,1.43,2.84,2.5c.72,1.08,1.08,2.36,1.08,3.85,0,1.62-.41,3.02-1.23,4.2-.82,1.18-1.92,2.1-3.31,2.75s-2.94.97-4.64.97ZM167.59,934.36c.45,0,.86-.09,1.21-.27.36-.18.63-.45.82-.79.19-.34.29-.75.29-1.23,0-.71-.22-1.28-.65-1.7-.43-.42-.99-.63-1.68-.63-.45,0-.85.1-1.2.29-.34.19-.62.46-.82.81-.21.34-.31.75-.31,1.23s.1.88.31,1.23c.2.34.48.61.82.79.34.18.74.27,1.2.27Z" /><path d="M188.85,939.62c-2,0-3.78-.46-5.32-1.39-1.54-.93-2.75-2.27-3.62-4.04s-1.31-3.9-1.31-6.4.44-4.63,1.31-6.4,2.08-3.11,3.62-4.04c1.54-.93,3.31-1.39,5.32-1.39s3.78.46,5.32,1.39c1.54.93,2.75,2.27,3.62,4.04s1.31,3.9,1.31,6.4-.44,4.63-1.31,6.4-2.08,3.11-3.62,4.04c-1.54.93-3.31,1.39-5.32,1.39ZM188.85,933.52c.5,0,.94-.17,1.33-.52.39-.34.69-.94.92-1.78.23-.84.34-1.98.34-3.43s-.11-2.61-.34-3.44c-.23-.83-.53-1.42-.92-1.76-.39-.34-.83-.52-1.33-.52s-.94.17-1.32.52c-.39.35-.69.93-.92,1.76-.23.83-.34,1.98-.34,3.44s.11,2.59.34,3.43c.23.84.53,1.43.92,1.78.39.35.83.52,1.32.52Z" /><path d="M203.75,939.11v-19.97l3.26,3.1h-7.14v-5.75h11.5v22.62h-7.63Z" /><path d="M214.67,932.51v-5.49h9.7v5.49h-9.7Z" /><path d="M235.78,939.62c-1.9,0-3.73-.21-5.49-.65-1.77-.43-3.22-.99-4.36-1.68l2.46-5.56c1.08.62,2.28,1.13,3.6,1.5,1.33.38,2.61.57,3.86.57.73,0,1.31-.05,1.73-.15.42-.1.73-.24.92-.42.19-.18.29-.4.29-.66,0-.41-.23-.73-.68-.97-.45-.24-1.05-.44-1.79-.6-.74-.16-1.56-.33-2.44-.52-.88-.18-1.77-.43-2.67-.73-.89-.3-1.71-.7-2.46-1.2-.74-.5-1.34-1.15-1.79-1.96-.45-.81-.68-1.82-.68-3.02,0-1.4.39-2.68,1.18-3.83.79-1.15,1.96-2.07,3.52-2.76,1.56-.69,3.51-1.03,5.83-1.03,1.53,0,3.04.16,4.52.49,1.49.32,2.82.82,4.01,1.49l-2.29,5.53c-1.12-.56-2.2-.98-3.25-1.26-1.04-.28-2.06-.42-3.05-.42-.73,0-1.31.06-1.75.19-.43.13-.74.3-.92.52-.18.22-.27.45-.27.71,0,.39.23.7.68.92.45.23,1.05.42,1.79.57.74.15,1.56.31,2.46.49.89.17,1.78.41,2.67.71.88.3,1.7.7,2.44,1.2.74.5,1.34,1.14,1.79,1.94s.68,1.79.68,2.97c0,1.38-.39,2.64-1.18,3.8-.79,1.15-1.96,2.08-3.51,2.78s-3.5,1.05-5.85,1.05Z" /><path d="M248.51,932.51v-5.49h9.7v5.49h-9.7Z" /><path d="M281.15,939.62c-2.15,0-4.05-.42-5.67-1.24-1.63-.83-2.9-2.07-3.81-3.72-.92-1.65-1.37-3.7-1.37-6.16,0-2.65.53-4.91,1.58-6.77,1.06-1.86,2.53-3.29,4.41-4.28,1.88-.99,4.07-1.49,6.54-1.49,1.34,0,2.62.16,3.86.47,1.24.31,2.29.75,3.15,1.31l-2.75,5.33c-.67-.47-1.34-.79-2.02-.95-.68-.16-1.37-.24-2.08-.24-1.53,0-2.75.46-3.67,1.37-.92.92-1.37,2.25-1.37,3.99v1.91l-1.75-1.26c.43-.73.94-1.35,1.52-1.86.58-.51,1.27-.89,2.07-1.16.8-.27,1.72-.4,2.78-.4,1.38,0,2.66.3,3.83.89s2.12,1.43,2.84,2.5c.72,1.08,1.08,2.36,1.08,3.85,0,1.62-.41,3.02-1.23,4.2-.82,1.18-1.92,2.1-3.31,2.75s-2.94.97-4.64.97ZM280.63,934.36c.45,0,.86-.09,1.21-.27.36-.18.63-.45.82-.79.19-.34.29-.75.29-1.23,0-.71-.22-1.28-.65-1.7-.43-.42-.99-.63-1.68-.63-.45,0-.85.1-1.2.29-.34.19-.62.46-.82.81-.21.34-.31.75-.31,1.23s.1.88.31,1.23c.2.34.48.61.82.79.34.18.74.27,1.2.27Z" /><path d="M301.86,932.51v-5.49h9.7v5.49h-9.7Z" /><path d="M314.86,939.11v-22.62h10.89c2.11,0,3.94.34,5.48,1.03,1.54.69,2.73,1.67,3.57,2.96.84,1.28,1.26,2.79,1.26,4.54s-.42,3.25-1.26,4.52c-.84,1.27-2.03,2.26-3.57,2.96-1.54.7-3.37,1.05-5.48,1.05h-6.66l3.39-3.26v8.82h-7.63ZM322.48,931.12l-3.39-3.46h6.17c1.06,0,1.84-.24,2.34-.71.51-.47.76-1.12.76-1.94s-.25-1.46-.76-1.94c-.51-.47-1.29-.71-2.34-.71h-6.17l3.39-3.46v12.22Z" /><path d="M334.96,939.11l9.89-22.62h7.5l9.89,22.62h-7.89l-7.3-19h2.97l-7.3,19h-7.76ZM340.84,935.16l1.94-5.49h10.41l1.94,5.49h-14.28Z" /><path d="M363.46,939.11v-22.62h6.27l11.5,13.77h-2.91v-13.77h7.43v22.62h-6.27l-11.5-13.77h2.91v13.77h-7.43Z" /><path d="M389.44,939.11v-22.62h18.39v5.75h-10.89v11.12h11.31v5.75h-18.81ZM396.42,930.38v-5.49h10.08v5.49h-10.08Z" /><path d="M411.19,939.11v-22.62h7.63v16.71h10.21v5.91h-17.84Z" /><path d="M440.83,939.11v-22.62h7.63v22.62h-7.63ZM447.94,930.77v-6.27h8.08v6.27h-8.08ZM455.5,939.11v-22.62h7.63v22.62h-7.63Z" /><path d="M464.35,939.11l9.89-22.62h7.5l9.89,22.62h-7.89l-7.3-19h2.97l-7.3,19h-7.76ZM470.24,935.16l1.94-5.49h10.41l1.94,5.49h-14.28Z" /><path d="M496.64,939.11v-16.71h-6.62v-5.91h20.88v5.91h-6.62v16.71h-7.63Z" /></g><g><path d="M687.49,938.52v-18.44h14.99v4.69h-8.77v13.75h-6.22ZM693.28,932.62v-4.69h8.12v4.69h-8.12Z" /><path d="M704.45,938.52v-18.44h8.62c2.83,0,4.98.62,6.46,1.87,1.48,1.25,2.21,2.94,2.21,5.09,0,1.42-.34,2.65-1.03,3.68-.69,1.03-1.66,1.81-2.91,2.36s-2.74.82-4.47.82h-5.43l2.77-2.56v7.19h-6.22ZM710.67,932.01l-2.77-2.82h5.03c.86,0,1.5-.19,1.91-.58s.62-.91.62-1.58-.21-1.19-.62-1.58c-.41-.39-1.05-.58-1.91-.58h-5.03l2.77-2.82v9.96ZM715.49,938.52l-4.53-6.72h6.59l4.58,6.72h-6.64Z" /><path d="M733.75,938.94c-1.49,0-2.88-.24-4.15-.71-1.27-.47-2.38-1.15-3.31-2.02-.93-.87-1.66-1.89-2.17-3.07-.52-1.18-.78-2.46-.78-3.85s.26-2.69.78-3.86c.52-1.17,1.24-2.19,2.17-3.06.93-.87,2.03-1.54,3.31-2.02,1.27-.47,2.66-.71,4.15-.71s2.9.24,4.16.71c1.27.47,2.36,1.15,3.29,2.02.93.87,1.66,1.89,2.17,3.06.52,1.17.78,2.46.78,3.86s-.26,2.67-.78,3.85-1.24,2.2-2.17,3.07-2.03,1.54-3.29,2.02c-1.26.47-2.65.71-4.16.71ZM733.75,933.91c.58,0,1.12-.11,1.62-.32.5-.21.94-.51,1.32-.91.38-.4.67-.88.88-1.45.21-.57.32-1.22.32-1.94s-.11-1.37-.32-1.94c-.21-.57-.51-1.05-.88-1.45-.38-.4-.82-.7-1.32-.91-.5-.21-1.04-.32-1.62-.32s-1.12.11-1.62.32-.94.51-1.32.91c-.38.4-.67.88-.88,1.45-.21.57-.32,1.22-.32,1.94s.11,1.37.32,1.94c.21.57.5,1.05.88,1.45.38.39.82.7,1.32.91.5.21,1.04.32,1.62.32Z" /><path d="M746.43,938.52v-18.44h5.11l9.38,11.22h-2.37v-11.22h6.06v18.44h-5.11l-9.38-11.22h2.37v11.22h-6.06Z" /><path d="M771.62,938.52v-13.62h-5.4v-4.82h17.02v4.82h-5.4v13.62h-6.22Z" /><path d="M798.55,938.52l-7.8-18.44h6.69l6.35,15.57h-3.98l6.54-15.57h6.11l-7.8,18.44h-6.11Z" /><path d="M813.07,938.52v-18.44h6.22v18.44h-6.22Z" /><path d="M822.29,938.52v-18.44h14.99v4.69h-8.88v9.06h9.22v4.69h-15.33ZM827.98,931.41v-4.48h8.22v4.48h-8.22Z" /><path d="M844.42,938.52l-5.9-18.44h6.4l4.77,15.57h-3.21l5.06-15.57h5.72l4.72,15.57h-3.08l4.98-15.57h5.9l-5.9,18.44h-6.67l-3.85-12.75h1.79l-4.06,12.75h-6.67Z" /></g></g></svg>