<?xml version='1.0' encoding='UTF-8'?>
<svg xmlns="http://www.w3.org/2000/svg" xmlns:xlink="http://www.w3.org/1999/xlink" version="1.1" viewBox="0 0 992.13 992.13"><title>Satuit C-201 Material Fleece Crew</title><desc>Gold+ semantic SVG. Geometry unchanged.</desc><defs><style> .outline, .seam, .stitching, .dimension, .annotation, .grid, .st6, .st7 { fill: none; } .outline, .stitching, .st8, .dimension { stroke-width: 2px; } .outline, .stitching, .st8, .dimension, .annotation, .grid, .st6, .st7, .st9 { stroke: #000; } .outline, .stitching, .grid, .st7, .st9 { stroke-miterlimit: 10; } .outline, .st8, .dimension, .annotation, .st6 { stroke-linecap: round; } .st10, .st8, .st9 { fill: #fff; } .st11 { fill: url(#New_Pattern_22); } .st8, .dimension, .annotation, .st6 { stroke-linejoin: round; } .st12 { fill: #27aae1; } .annotation { stroke-width: 4px; } .st13 { fill: url(#New_Pattern_21); } .st14 { fill: url(#New_Pattern_2); } .grid { stroke-width: 3.91px; } .st6 { stroke-dasharray: 3.77; stroke-width: 1.5px; } .st7 { stroke-width: 3.98px; } .st15 { opacity: .38; } .st9 { stroke-width: 3.88px; }  .seam,.stitching{fill:none!important;}g[id*="SEAMS"] path,g[id*="SEAMS"] rect,g[id*="SEAMS"] circle,g[id*="SEAMS"] ellipse,g[id*="SEAMS"] polygon,g[id*="SEAMS"] polyline,g[id*="STITCHING"] path,g[id*="STITCHING"] rect,g[id*="STITCHING"] circle,g[id*="STITCHING"] ellipse,g[id*="STITCHING"] polygon,g[id*="STITCHING"] polyline{fill:none!important;}</style><pattern id="New_Pattern_2" data-name="New Pattern 2" x="0" y="0" width="30" height="80.06" patternTransform="translate(37.07 -314.06)" patternUnits="userSpaceOnUse" viewBox="0 0 30 80.06"><g><rect class="seam" width="30" height="80.06" /><rect x="26.03" y="0" width="1.93" height="80.06" /><rect x="20.03" y="0" width="1.93" height="80.06" /><rect x="14.03" y="0" width="1.93" height="80.06" /><rect x="8.03" y="0" width="1.93" height="80.06" /><rect x="2.03" y="0" width="1.93" height="80.06" /></g></pattern><pattern id="New_Pattern_21" data-name="New Pattern 2" patternTransform="translate(13.74 -245.26)" href="#New_Pattern_2" xlink:href="#New_Pattern_2" /><pattern id="New_Pattern_22" data-name="New Pattern 2" patternTransform="translate(-17398.78 -246.28) rotate(-180) scale(1 -1)" href="#New_Pattern_2" xlink:href="#New_Pattern_2" /></defs><g id="_x31_.GRID_x5F_BG"><g class="st15"><rect class="st12" x="77.84" y="959.57" width="836.45" height="1.02" /><rect class="st12" x="77.84" y="912.83" width="836.45" height="1.02" /><rect class="st12" x="77.84" y="866.1" width="836.45" height="1.02" /><rect class="st12" x="77.84" y="819.36" width="836.45" height="1.02" /><rect class="st12" x="77.84" y="772.62" width="836.45" height="1.02" /><rect class="st12" x="77.84" y="725.88" width="836.45" height="1.02" /><rect class="st12" x="77.84" y="679.15" width="836.45" height="1.02" /><rect class="st12" x="77.84" y="632.41" width="836.45" height="1.02" /><rect class="st12" x="77.84" y="585.67" width="836.45" height="1.02" /><rect class="st12" x="77.84" y="538.94" width="836.45" height="1.02" /><rect class="st12" x="77.84" y="492.2" width="836.45" height="1.02" /><rect class="st12" x="77.84" y="445.46" width="836.45" height="1.02" /><rect class="st12" x="77.84" y="398.72" width="836.45" height="1.02" /><rect class="st12" x="77.84" y="351.99" width="836.45" height="1.02" /><rect class="st12" x="77.84" y="305.25" width="836.45" height="1.02" /><rect class="st12" x="77.84" y="258.51" width="836.45" height="1.02" /><rect class="st12" x="77.84" y="211.78" width="836.45" height="1.02" /><rect class="st12" x="77.84" y="165.04" width="836.45" height="1.02" /><rect class="st12" x="77.84" y="118.3" width="836.45" height="1.02" /><rect class="st12" x="77.84" y="71.56" width="836.45" height="1.02" /><rect class="st12" x="909.76" y="31.87" width=".8" height="927.7" /><rect class="st12" x="860.8" y="31.53" width="1.02" height="928.04" /><rect class="st12" x="811.83" y="31.53" width="1.02" height="928.04" /><rect class="st12" x="762.86" y="31.53" width="1.02" height="928.04" /><rect class="st12" x="713.9" y="31.53" width="1.02" height="928.04" /><rect class="st12" x="664.93" y="31.53" width="1.02" height="928.04" /><rect class="st12" x="615.96" y="31.53" width="1.02" height="928.04" /><rect class="st12" x="566.99" y="31.53" width="1.02" height="928.04" /><rect class="st12" x="518.03" y="31.53" width="1.02" height="928.04" /><rect class="st12" x="469.06" y="31.53" width="1.02" height="928.04" /><rect class="st12" x="420.09" y="31.53" width="1.02" height="928.04" /><rect class="st12" x="371.13" y="31.53" width="1.02" height="928.04" /><rect class="st12" x="322.16" y="31.53" width="1.02" height="928.04" /><rect class="st12" x="273.19" y="31.53" width="1.02" height="928.04" /><rect class="st12" x="224.23" y="31.53" width="1.02" height="928.04" /><rect class="st12" x="175.26" y="31.53" width="1.02" height="928.04" /><rect class="st12" x="126.29" y="31.53" width="1.02" height="928.04" /></g><g><rect class="st7" x="77.58" y="30.35" width="836.97" height="931.42" /><rect class="st9" x="640.91" y="822.57" width="273.64" height="139.21" /><line class="grid" x1="640.91" y1="887.71" x2="914.55" y2="887.71" /></g></g><g id="_x32_.MASK_x5F_FILL"><path class="st10" d="M689.36,749.85c-1.9-21.8,7.13-61.62,7.13-61.62,9.51-13.27,6.18-83.43,6.18-83.43,12.36,72.05,32.33,103.33,32.33,103.33,16.64,11.85,25.2,58.3,25.2,58.3l76.55-15.64c-4.28-19.91,2.75-59.14,2.75-59.14-6.6-332.27-130.35-528.01-130.35-528.01-18.15-16.45-122.1-59.22-122.1-59.22l-23.93-15.63c-77.04,32.11-151.31,0-151.31,0l-23.93,15.63s-103.95,42.77-122.1,59.22c0,0-123.75,195.74-130.35,528.01,0,0,7.03,39.23,2.75,59.14l76.55,15.64s8.56-46.45,25.2-58.3c0,0,19.97-31.28,32.33-103.33,0,0-3.33,70.15,6.18,83.43,0,0,9.03,39.82,7.13,61.62h403.76Z" /></g><g id="_x33_.SEAMS_x5F_INT"><line class="st8" x1="278.47" y1="688.23" x2="694.36" y2="688.23" /><path class="dimension" d="M736.06,708.95s40.51-21.85,102.59-18.86" /><path class="dimension" d="M238.04,708.95s-40.51-21.85-102.59-18.86" /><path class="stitching" d="M387.39,106.72s91.41,51.41,205.17,0" /><path class="outline" d="M266.74,162.84s37.77,87.9,13.18,200.16" /><path class="dimension" d="M272.41,633.43s-.54-159.22,7.51-270.44" /><path class="dimension" d="M701.87,633.43s.54-159.22-7.51-270.44" /><path class="st6" d="M703.28,162.84s-41.74,100.08-8.07,212.46" /></g><g id="_x34_.OUTLINE_MAIN"><path class="annotation" d="M689.36,749.85c-1.9-21.8,7.13-61.62,7.13-61.62,9.51-13.27,6.18-83.43,6.18-83.43,12.36,72.05,32.33,103.33,32.33,103.33,16.64,11.85,25.2,58.3,25.2,58.3l76.55-15.64c-4.28-19.91,2.75-59.14,2.75-59.14-6.6-332.27-130.35-528.01-130.35-528.01-18.15-16.45-122.1-59.22-122.1-59.22l-23.93-15.63c-77.04,32.11-151.31,0-151.31,0l-23.93,15.63s-103.95,42.77-122.1,59.22c0,0-123.75,195.74-130.35,528.01,0,0,7.03,39.23,2.75,59.14l76.55,15.64s8.56-46.45,25.2-58.3c0,0,19.97-31.28,32.33-103.33,0,0-3.33,70.15,6.18,83.43,0,0,9.03,39.82,7.13,61.62h403.76Z" /></g><g id="_x35_.STITCHING"><path class="outline" d="M707.54,162.84s-37.77,87.9-13.18,200.16" /><path class="st6" d="M271.16,161.04s42,107.34,8.76,214.26" /><path class="st6" d="M380.68,107.44s91.96,57.6,214.91,2.83" /></g><g id="_x39_.ANNOTATIONS"><g><path d="M653.53,868.82c-1.55,0-3.04-.18-4.48-.53s-2.63-.81-3.56-1.37l2-4.53c.88.51,1.86.92,2.94,1.23s2.13.46,3.15.46c.6,0,1.07-.04,1.41-.12.34-.08.59-.19.75-.34s.24-.33.24-.54c0-.33-.18-.6-.55-.79s-.86-.36-1.46-.49c-.61-.13-1.27-.27-1.99-.42-.72-.15-1.44-.35-2.17-.59-.73-.25-1.4-.57-2-.97-.61-.4-1.09-.94-1.46-1.59-.37-.66-.55-1.48-.55-2.46,0-1.14.32-2.18.96-3.12.64-.94,1.6-1.69,2.87-2.25,1.27-.56,2.86-.84,4.76-.84,1.25,0,2.48.13,3.69.4,1.21.26,2.3.67,3.27,1.21l-1.87,4.51c-.91-.46-1.8-.8-2.65-1.03-.85-.23-1.68-.34-2.49-.34-.6,0-1.07.05-1.42.16-.35.11-.6.25-.75.42-.15.18-.22.37-.22.58,0,.32.18.57.55.75s.86.34,1.46.46c.61.12,1.27.25,2,.4.73.14,1.45.33,2.17.58.72.25,1.38.57,1.99.98.61.4,1.09.93,1.46,1.58.37.65.55,1.46.55,2.42,0,1.12-.32,2.16-.96,3.1-.64.94-1.59,1.7-2.86,2.27-1.26.57-2.85.86-4.77.86Z" /><path d="M661.96,868.39l8.06-18.44h6.11l8.06,18.44h-6.43l-5.96-15.49h2.42l-5.96,15.49h-6.32ZM666.76,865.18l1.58-4.48h8.48l1.58,4.48h-11.65Z" /><path d="M688.28,868.39v-13.62h-5.4v-4.82h17.02v4.82h-5.4v13.62h-6.22Z" /><path d="M709.94,868.82c-2.83,0-5.03-.76-6.61-2.29-1.58-1.53-2.37-3.67-2.37-6.43v-10.14h6.22v9.96c0,1.41.25,2.4.76,2.99.51.59,1.19.88,2.06.88s1.57-.29,2.07-.88c.5-.59.75-1.58.75-2.99v-9.96h6.11v10.14c0,2.76-.79,4.9-2.37,6.43s-3.79,2.29-6.61,2.29Z" /><path d="M725.38,868.39v-13.62h-5.4v-4.82h17.02v4.82h-5.4v13.62h-6.22Z" /><path d="M753.39,868.82c-1.55,0-3.04-.18-4.48-.53s-2.63-.81-3.56-1.37l2-4.53c.88.51,1.86.92,2.94,1.23s2.13.46,3.15.46c.6,0,1.07-.04,1.41-.12.34-.08.59-.19.75-.34s.24-.33.24-.54c0-.33-.18-.6-.55-.79s-.86-.36-1.46-.49c-.61-.13-1.27-.27-1.99-.42-.72-.15-1.44-.35-2.17-.59-.73-.25-1.4-.57-2-.97-.61-.4-1.09-.94-1.46-1.59-.37-.66-.55-1.48-.55-2.46,0-1.14.32-2.18.96-3.12.64-.94,1.6-1.69,2.87-2.25,1.27-.56,2.86-.84,4.76-.84,1.25,0,2.48.13,3.69.4,1.21.26,2.3.67,3.27,1.21l-1.87,4.51c-.91-.46-1.8-.8-2.65-1.03-.85-.23-1.68-.34-2.49-.34-.6,0-1.07.05-1.42.16-.35.11-.6.25-.75.42-.15.18-.22.37-.22.58,0,.32.18.57.55.75s.86.34,1.46.46c.61.12,1.27.25,2,.4.73.14,1.45.33,2.17.58.72.25,1.38.57,1.99.98.61.4,1.09.93,1.46,1.58.37.65.55,1.46.55,2.42,0,1.12-.32,2.16-.96,3.1-.64.94-1.59,1.7-2.86,2.27-1.26.57-2.85.86-4.77.86Z" /><path d="M772.65,868.82c-2.83,0-5.03-.76-6.61-2.29-1.58-1.53-2.37-3.67-2.37-6.43v-10.14h6.22v9.96c0,1.41.25,2.4.76,2.99.51.59,1.19.88,2.06.88s1.57-.29,2.07-.88c.5-.59.75-1.58.75-2.99v-9.96h6.11v10.14c0,2.76-.79,4.9-2.37,6.43s-3.79,2.29-6.61,2.29Z" /><path d="M784.49,868.39v-18.44h8.88c1.72,0,3.21.28,4.47.84,1.26.56,2.23,1.37,2.91,2.41.68,1.04,1.03,2.28,1.03,3.7s-.34,2.65-1.03,3.69c-.69,1.04-1.66,1.84-2.91,2.41-1.26.57-2.74.86-4.47.86h-5.43l2.77-2.66v7.19h-6.22ZM790.7,861.89l-2.77-2.82h5.03c.86,0,1.5-.19,1.91-.58s.62-.91.62-1.58-.21-1.19-.62-1.58c-.41-.39-1.05-.58-1.91-.58h-5.03l2.77-2.82v9.96Z" /><path d="M803.8,868.39v-18.44h8.88c1.72,0,3.21.28,4.47.84,1.26.56,2.23,1.37,2.91,2.41.68,1.04,1.03,2.28,1.03,3.7s-.34,2.65-1.03,3.69c-.69,1.04-1.66,1.84-2.91,2.41-1.26.57-2.74.86-4.47.86h-5.43l2.77-2.66v7.19h-6.22ZM810.02,861.89l-2.77-2.82h5.03c.86,0,1.5-.19,1.91-.58s.62-.91.62-1.58-.21-1.19-.62-1.58c-.41-.39-1.05-.58-1.91-.58h-5.03l2.77-2.82v9.96Z" /><path d="M823.11,868.39v-18.44h6.22v13.62h8.33v4.82h-14.54Z" /><path d="M842.27,868.39v-8.09l1.42,3.71-8.38-14.07h6.56l5.67,9.62h-3.82l5.72-9.62h6.01l-8.33,14.07,1.37-3.71v8.09h-6.22Z" /><path d="M873.68,868.82c-1.48,0-2.84-.23-4.1-.7-1.26-.47-2.35-1.13-3.27-1.99-.92-.86-1.64-1.88-2.15-3.06-.51-1.18-.76-2.48-.76-3.9s.25-2.72.76-3.9c.51-1.18,1.23-2.2,2.15-3.06.92-.86,2.01-1.52,3.27-1.99,1.26-.46,2.62-.7,4.1-.7,1.81,0,3.41.32,4.81.95,1.4.63,2.55,1.55,3.46,2.74l-3.93,3.5c-.54-.69-1.15-1.22-1.8-1.59-.66-.38-1.4-.57-2.23-.57-.65,0-1.24.11-1.77.32-.53.21-.98.52-1.36.92-.38.4-.67.89-.88,1.46-.21.57-.32,1.21-.32,1.91s.11,1.34.32,1.91c.21.57.5,1.06.88,1.46.38.4.83.71,1.36.92.53.21,1.12.32,1.77.32.83,0,1.57-.19,2.23-.57.66-.38,1.26-.91,1.8-1.59l3.93,3.5c-.91,1.18-2.07,2.09-3.46,2.73-1.4.64-3,.96-4.81.96Z" /><path d="M892.57,868.82c-1.49,0-2.88-.24-4.15-.71-1.27-.47-2.38-1.15-3.31-2.02-.93-.87-1.66-1.89-2.17-3.07-.52-1.18-.78-2.46-.78-3.85s.26-2.69.78-3.86c.52-1.17,1.24-2.19,2.17-3.06.93-.87,2.03-1.54,3.31-2.02,1.27-.47,2.66-.71,4.15-.71s2.9.24,4.16.71c1.27.47,2.36,1.15,3.29,2.02.93.87,1.66,1.89,2.17,3.06.52,1.17.78,2.46.78,3.86s-.26,2.67-.78,3.85-1.24,2.2-2.17,3.07-2.03,1.54-3.29,2.02c-1.26.47-2.65.71-4.16.71ZM892.57,863.78c.58,0,1.12-.11,1.62-.32.5-.21.94-.51,1.32-.91.38-.4.67-.88.88-1.45.21-.57.32-1.22.32-1.94s-.11-1.37-.32-1.94c-.21-.57-.51-1.05-.88-1.45-.38-.4-.82-.7-1.32-.91-.5-.21-1.04-.32-1.62-.32s-1.12.11-1.62.32-.94.51-1.32.91c-.38.4-.67.88-.88,1.45-.21.57-.32,1.22-.32,1.94s.11,1.37.32,1.94c.21.57.5,1.05.88,1.45.38.39.82.7,1.32.91.5.21,1.04.32,1.62.32Z" /><path d="M907.22,868.66c-.98,0-1.81-.32-2.48-.96-.67-.64-1-1.46-1-2.46s.33-1.83,1-2.45c.67-.62,1.49-.92,2.48-.92s1.81.31,2.48.92c.67.62,1,1.43,1,2.45s-.33,1.82-1,2.46c-.67.64-1.49.96-2.48.96Z" /></g><g><path d="M85.38,943.27v-16.1h7.94c1.79,0,3.37.33,4.74.98,1.36.65,2.43,1.58,3.2,2.77.77,1.2,1.15,2.63,1.15,4.3s-.38,3.09-1.15,4.29c-.77,1.2-1.83,2.13-3.2,2.78-1.37.65-2.94.98-4.74.98h-7.94ZM90.81,939.04h2.28c.77,0,1.44-.15,2.01-.44s1.02-.72,1.35-1.3c.32-.58.48-1.27.48-2.08s-.16-1.53-.48-2.09c-.32-.57-.77-1-1.35-1.29s-1.25-.44-2.01-.44h-2.28v7.64Z" /><path d="M107.87,943.27l-5.15-16.1h5.59l4.16,13.59h-2.81l4.42-13.59h4.99l4.12,13.59h-2.69l4.35-13.59h5.15l-5.15,16.1h-5.82l-3.36-11.13h1.56l-3.54,11.13h-5.82Z" /><path d="M139.32,943.64c-1.3,0-2.5-.2-3.6-.61-1.1-.41-2.05-.99-2.85-1.74-.81-.75-1.43-1.64-1.88-2.67-.45-1.03-.67-2.16-.67-3.4s.22-2.38.67-3.4c.44-1.03,1.07-1.92,1.89-2.67.81-.75,1.77-1.33,2.89-1.74s2.33-.61,3.67-.61c1.59,0,3.02.27,4.27.8,1.25.54,2.28,1.3,3.09,2.3l-3.47,3.06c-.51-.58-1.05-1.02-1.64-1.32-.59-.3-1.25-.45-1.97-.45-.6,0-1.14.09-1.62.28-.48.18-.89.45-1.23.8-.34.35-.6.77-.78,1.27-.18.49-.28,1.05-.28,1.68s.09,1.15.28,1.64.44.92.78,1.28c.34.35.74.62,1.21.82.47.19.99.29,1.58.29.61,0,1.21-.1,1.79-.31.58-.21,1.2-.56,1.86-1.07l3.04,3.73c-.98.66-2.1,1.17-3.36,1.52-1.26.35-2.48.53-3.66.53ZM146.33,941.59l-4.71-.69v-6.12h4.71v6.81Z" /><path d="M155.55,943.27v-16.1h4.46l8.19,9.8h-2.07v-9.8h5.29v16.1h-4.46l-8.19-9.8h2.07v9.8h-5.29Z" /><path d="M182.49,943.64c-1.3,0-2.51-.21-3.62-.62-1.11-.41-2.07-1-2.89-1.76-.81-.76-1.45-1.65-1.9-2.68-.45-1.03-.68-2.15-.68-3.36s.23-2.35.68-3.37c.45-1.02,1.08-1.91,1.9-2.67.81-.76,1.77-1.34,2.89-1.76,1.11-.41,2.32-.62,3.62-.62s2.53.21,3.63.62c1.1.41,2.06,1,2.88,1.76.81.76,1.44,1.65,1.9,2.67.45,1.02.68,2.14.68,3.37s-.23,2.33-.68,3.36c-.45,1.03-1.08,1.92-1.9,2.68-.81.76-1.77,1.35-2.88,1.76-1.1.41-2.32.62-3.63.62ZM182.49,939.25c.51,0,.98-.09,1.41-.28.44-.18.82-.45,1.15-.79.33-.34.59-.77.77-1.26s.28-1.06.28-1.69-.09-1.19-.28-1.69-.44-.92-.77-1.27c-.33-.34-.71-.61-1.15-.79-.44-.18-.91-.28-1.41-.28s-.98.09-1.41.28c-.44.18-.82.45-1.15.79-.33.35-.59.77-.77,1.27s-.28,1.06-.28,1.69.09,1.19.28,1.69.44.92.77,1.26c.33.35.71.61,1.15.79.44.18.91.28,1.41.28Z" /><path d="M195.73,936.4c-.86,0-1.58-.28-2.16-.84-.58-.56-.87-1.28-.87-2.15s.29-1.6.87-2.14c.58-.54,1.3-.8,2.16-.8s1.58.27,2.16.8c.58.54.87,1.25.87,2.14s-.29,1.59-.87,2.15c-.58.56-1.3.84-2.16.84ZM195.73,943.5c-.86,0-1.58-.28-2.16-.84-.58-.56-.87-1.28-.87-2.15s.29-1.6.87-2.14c.58-.54,1.3-.8,2.16-.8s1.58.27,2.16.8c.58.54.87,1.25.87,2.14s-.29,1.59-.87,2.15c-.58.56-1.3.84-2.16.84Z" /><path d="M215.77,943.64c-1.29,0-2.48-.2-3.58-.61s-2.05-.99-2.85-1.74c-.8-.75-1.43-1.64-1.87-2.67-.44-1.03-.67-2.16-.67-3.4s.22-2.38.67-3.4,1.07-1.92,1.87-2.67c.81-.75,1.76-1.33,2.85-1.74s2.29-.61,3.58-.61c1.58,0,2.98.28,4.2.83,1.22.55,2.23,1.35,3.02,2.39l-3.43,3.06c-.48-.6-1-1.06-1.58-1.39-.57-.33-1.22-.5-1.94-.5-.57,0-1.08.09-1.54.28-.46.18-.86.45-1.18.8-.33.35-.59.78-.77,1.28-.18.5-.28,1.05-.28,1.67s.09,1.17.28,1.67c.18.5.44.92.77,1.28.33.35.72.62,1.18.81.46.18.97.28,1.54.28.72,0,1.37-.16,1.94-.49.58-.33,1.1-.79,1.58-1.39l3.43,3.06c-.8,1.03-1.8,1.82-3.02,2.38s-2.62.84-4.2.84Z" /><path d="M223.89,938.58v-3.91h6.9v3.91h-6.9Z" /><path d="M232,943.27v-3.33l5.82-5.38c.37-.35.64-.66.82-.92.18-.26.29-.5.36-.7s.09-.4.09-.59c0-.4-.13-.71-.39-.93-.26-.22-.65-.33-1.17-.33-.48,0-.93.13-1.36.38s-.77.62-1.01,1.12l-4.09-2.05c.58-1.1,1.46-2,2.62-2.69,1.17-.69,2.61-1.04,4.35-1.04,1.27,0,2.4.21,3.38.62.98.41,1.75,1,2.3,1.75s.83,1.64.83,2.67c0,.52-.07,1.04-.2,1.56-.13.52-.39,1.07-.79,1.64s-.99,1.22-1.77,1.92l-4.37,3.98-.85-1.89h8.35v4.21h-12.9Z" /><path d="M253.3,943.64c-1.43,0-2.69-.33-3.78-.99-1.1-.66-1.96-1.62-2.58-2.88-.62-1.26-.93-2.78-.93-4.55s.31-3.3.93-4.55c.62-1.26,1.48-2.22,2.58-2.88,1.1-.66,2.36-.99,3.78-.99s2.69.33,3.78.99,1.96,1.62,2.58,2.88c.62,1.26.93,2.78.93,4.55s-.31,3.3-.93,4.55c-.62,1.26-1.48,2.22-2.58,2.88s-2.36.99-3.78.99ZM253.3,939.29c.35,0,.67-.12.94-.37.28-.25.49-.67.66-1.27.16-.6.24-1.41.24-2.44s-.08-1.86-.24-2.45c-.16-.59-.38-1.01-.66-1.25-.28-.25-.59-.37-.94-.37s-.67.12-.94.37c-.28.25-.49.66-.66,1.25-.16.59-.24,1.41-.24,2.45s.08,1.84.24,2.44c.16.6.38,1.02.66,1.27.28.25.59.37.94.37Z" /><path d="M263.91,943.27v-14.21l2.32,2.21h-5.08v-4.09h8.19v16.1h-5.43Z" /><path d="M271.68,938.58v-3.91h6.9v3.91h-6.9Z" /><path d="M286.7,943.64c-1.35,0-2.65-.15-3.91-.46-1.26-.31-2.29-.71-3.11-1.2l1.75-3.96c.77.45,1.62.8,2.56,1.07.94.27,1.86.4,2.75.4.52,0,.93-.03,1.23-.1.3-.07.52-.17.66-.3.14-.13.21-.29.21-.47,0-.29-.16-.52-.48-.69-.32-.17-.75-.31-1.28-.43s-1.11-.24-1.74-.37c-.63-.13-1.26-.3-1.9-.52-.64-.21-1.22-.5-1.75-.85s-.95-.82-1.28-1.39-.48-1.29-.48-2.15c0-1,.28-1.91.84-2.73s1.4-1.48,2.51-1.97c1.11-.49,2.5-.74,4.15-.74,1.09,0,2.16.12,3.22.34,1.06.23,2.01.58,2.85,1.06l-1.63,3.93c-.8-.4-1.57-.7-2.31-.9-.74-.2-1.47-.3-2.17-.3-.52,0-.94.05-1.24.14-.31.09-.53.22-.66.37-.13.15-.2.32-.2.51,0,.28.16.5.48.66.32.16.75.29,1.28.4.53.11,1.11.22,1.75.34.64.12,1.27.29,1.9.51.63.21,1.21.5,1.74.85s.95.81,1.28,1.38c.32.57.48,1.27.48,2.12,0,.98-.28,1.88-.84,2.7-.56.82-1.39,1.48-2.5,1.98-1.1.5-2.49.75-4.16.75Z" /><path d="M295.76,938.58v-3.91h6.9v3.91h-6.9Z" /><path d="M311.91,943.27v-16.1h4.46l6.44,10.51h-2.35l6.26-10.51h4.46l.05,16.1h-4.95l-.05-8.65h.78l-4.28,7.2h-2.39l-4.46-7.2h.97v8.65h-4.95Z" /><path d="M332.1,943.27l7.04-16.1h5.34l7.04,16.1h-5.61l-5.2-13.52h2.12l-5.2,13.52h-5.52ZM336.29,940.47l1.38-3.91h7.41l1.38,3.91h-10.17Z" /><path d="M355.08,943.27v-11.89h-4.72v-4.21h14.86v4.21h-4.71v11.89h-5.43Z" /><path d="M366.62,943.27v-16.1h13.09v4.09h-7.75v7.91h8.05v4.09h-13.39ZM371.59,937.06v-3.91h7.18v3.91h-7.18Z" /><path d="M382.1,943.27v-16.1h7.52c2.47,0,4.35.54,5.63,1.63,1.29,1.09,1.93,2.57,1.93,4.44,0,1.24-.3,2.31-.9,3.21-.6.9-1.45,1.58-2.54,2.06-1.1.48-2.4.71-3.9.71h-4.74l2.41-2.23v6.28h-5.43ZM387.53,937.59l-2.41-2.46h4.39c.75,0,1.31-.17,1.67-.51.36-.34.54-.8.54-1.38s-.18-1.04-.54-1.38c-.36-.34-.92-.51-1.67-.51h-4.39l2.41-2.46v8.69ZM391.74,943.27l-3.96-5.87h5.75l4,5.87h-5.8Z" /><path d="M399.24,943.27v-16.1h5.43v16.1h-5.43Z" /><path d="M405.54,943.27l7.04-16.1h5.34l7.04,16.1h-5.61l-5.2-13.52h2.12l-5.2,13.52h-5.52ZM409.72,940.47l1.38-3.91h7.41l1.38,3.91h-10.17Z" /><path d="M425.82,943.27v-16.1h5.43v11.89h7.27v4.21h-12.7Z" /><path d="M446.91,943.27v-16.1h13.09v4.09h-7.66v12.01h-5.43ZM451.97,938.12v-4.09h7.08v4.09h-7.08Z" /><path d="M461.73,943.27v-16.1h5.43v11.89h7.27v4.21h-12.7Z" /><path d="M475.92,943.27v-16.1h13.09v4.09h-7.75v7.91h8.05v4.09h-13.39ZM480.89,937.06v-3.91h7.18v3.91h-7.18Z" /><path d="M491.4,943.27v-16.1h13.09v4.09h-7.75v7.91h8.05v4.09h-13.39ZM496.36,937.06v-3.91h7.18v3.91h-7.18Z" /><path d="M515.2,943.64c-1.29,0-2.48-.2-3.58-.61-1.1-.41-2.05-.99-2.85-1.74-.81-.75-1.43-1.64-1.88-2.67-.45-1.03-.67-2.16-.67-3.4s.22-2.38.67-3.4c.44-1.03,1.07-1.92,1.88-2.67.8-.75,1.75-1.33,2.85-1.74,1.1-.41,2.29-.61,3.58-.61,1.58,0,2.98.28,4.2.83,1.22.55,2.23,1.35,3.03,2.39l-3.43,3.06c-.47-.6-1-1.06-1.58-1.39-.57-.33-1.22-.5-1.94-.5-.57,0-1.08.09-1.54.28-.46.18-.86.45-1.18.8-.33.35-.59.78-.77,1.28-.18.5-.28,1.05-.28,1.67s.09,1.17.28,1.67c.18.5.44.92.77,1.28.33.35.72.62,1.18.81.46.18.97.28,1.54.28.72,0,1.37-.16,1.94-.49.58-.33,1.1-.79,1.58-1.39l3.43,3.06c-.8,1.03-1.81,1.82-3.03,2.38s-2.62.84-4.2.84Z" /><path d="M523.83,943.27v-16.1h13.09v4.09h-7.75v7.91h8.05v4.09h-13.39ZM528.79,937.06v-3.91h7.18v3.91h-7.18Z" /><path d="M554.53,943.64c-1.29,0-2.48-.2-3.58-.61-1.1-.41-2.05-.99-2.85-1.74-.81-.75-1.43-1.64-1.88-2.67-.45-1.03-.67-2.16-.67-3.4s.22-2.38.67-3.4c.44-1.03,1.07-1.92,1.88-2.67.8-.75,1.75-1.33,2.85-1.74,1.1-.41,2.29-.61,3.58-.61,1.58,0,2.98.28,4.2.83,1.22.55,2.23,1.35,3.03,2.39l-3.43,3.06c-.47-.6-1-1.06-1.58-1.39-.57-.33-1.22-.5-1.94-.5-.57,0-1.08.09-1.54.28-.46.18-.86.45-1.18.8-.33.35-.59.78-.77,1.28-.18.5-.28,1.05-.28,1.67s.09,1.17.28,1.67c.18.5.44.92.77,1.28.33.35.72.62,1.18.81.46.18.97.28,1.54.28.72,0,1.37-.16,1.94-.49.58-.33,1.1-.79,1.58-1.39l3.43,3.06c-.8,1.03-1.81,1.82-3.03,2.38s-2.62.84-4.2.84Z" /><path d="M563.15,943.27v-16.1h7.52c2.47,0,4.35.54,5.63,1.63,1.29,1.09,1.93,2.57,1.93,4.44,0,1.24-.3,2.31-.9,3.21-.6.9-1.45,1.58-2.54,2.06s-2.4.71-3.9.71h-4.74l2.42-2.23v6.28h-5.43ZM568.58,937.59l-2.42-2.46h4.39c.75,0,1.31-.17,1.67-.51.36-.34.54-.8.54-1.38s-.18-1.04-.54-1.38c-.36-.34-.92-.51-1.67-.51h-4.39l2.42-2.46v8.69ZM572.79,943.27l-3.96-5.87h5.75l4,5.87h-5.79Z" /><path d="M580.29,943.27v-16.1h13.09v4.09h-7.75v7.91h8.05v4.09h-13.39ZM585.26,937.06v-3.91h7.18v3.91h-7.18Z" /><path d="M599.61,943.27l-5.15-16.1h5.59l4.16,13.59h-2.81l4.42-13.59h4.99l4.12,13.59h-2.69l4.35-13.59h5.15l-5.15,16.1h-5.82l-3.36-11.13h1.56l-3.54,11.13h-5.82Z" /></g><g><path d="M687.49,938.52v-18.44h9.86c2.55,0,4.43.45,5.64,1.36,1.21.91,1.82,2.06,1.82,3.46,0,.93-.26,1.76-.78,2.49-.52.73-1.27,1.3-2.25,1.73-.98.42-2.2.63-3.63.63l.53-1.42c1.44,0,2.68.2,3.73.61s1.85.99,2.43,1.75c.57.76.86,1.68.86,2.75,0,1.6-.66,2.85-1.99,3.74s-3.26,1.34-5.81,1.34h-10.38ZM693.6,934.17h3.74c.69,0,1.2-.12,1.54-.37.34-.25.51-.61.51-1.08s-.17-.83-.51-1.08-.86-.37-1.54-.37h-4.16v-4.11h3.32c.7,0,1.22-.12,1.54-.36.33-.24.49-.58.49-1.01s-.16-.8-.49-1.03c-.32-.23-.84-.34-1.54-.34h-2.9v9.75Z" /><path d="M705.85,938.52l8.06-18.44h6.11l8.06,18.44h-6.43l-5.96-15.49h2.42l-5.96,15.49h-6.32ZM710.65,935.31l1.58-4.48h8.48l1.58,4.48h-11.65Z" /><path d="M738.37,938.94c-1.47,0-2.84-.23-4.1-.7-1.26-.47-2.35-1.13-3.27-1.99-.92-.86-1.64-1.88-2.15-3.06s-.76-2.48-.76-3.9.25-2.72.76-3.9,1.23-2.2,2.15-3.06c.92-.86,2.01-1.52,3.27-1.99,1.26-.46,2.62-.7,4.1-.7,1.81,0,3.41.32,4.81.95,1.4.63,2.55,1.55,3.46,2.74l-3.93,3.5c-.54-.69-1.14-1.22-1.8-1.59-.66-.38-1.4-.57-2.23-.57-.65,0-1.24.11-1.77.32-.53.21-.98.52-1.36.92-.38.4-.67.89-.88,1.46-.21.57-.32,1.21-.32,1.91s.11,1.34.32,1.91c.21.57.5,1.06.88,1.46.38.4.83.71,1.36.92.53.21,1.12.32,1.77.32.83,0,1.57-.19,2.23-.57.66-.38,1.26-.91,1.8-1.59l3.93,3.5c-.91,1.18-2.07,2.09-3.46,2.73-1.4.64-3,.96-4.81.96Z" /><path d="M748.25,938.52v-18.44h6.11v18.44h-6.11ZM753.81,934.57l-.34-6.83,6.96-7.67h6.77l-7.8,8.59-3.45,3.53-2.13,2.37ZM760.37,938.52l-5.43-7.17,4.03-4.27,8.59,11.44h-7.19Z" /><path d="M782.11,938.52l-7.8-18.44h6.69l6.35,15.57h-3.98l6.54-15.57h6.11l-7.8,18.44h-6.11Z" /><path d="M796.63,938.52v-18.44h6.22v18.44h-6.22Z" /><path d="M805.85,938.52v-18.44h14.99v4.69h-8.88v9.06h9.22v4.69h-15.34ZM811.54,931.41v-4.48h8.22v4.48h-8.22Z" /><path d="M827.98,938.52l-5.9-18.44h6.4l4.77,15.57h-3.21l5.06-15.57h5.72l4.72,15.57h-3.08l4.98-15.57h5.9l-5.9,18.44h-6.67l-3.85-12.75h1.79l-4.06,12.75h-6.67Z" /></g></g></svg>