<?xml version="1.0" encoding="UTF-8"?><svg xmlns="http://www.w3.org/2000/svg" version="1.1" viewBox="0 0 992.13 992.13"><title>Satuit W-103 Women’s Long-Sleeve Tee</title><desc>Gold+ semantic SVG. Geometry unchanged.</desc><defs><style> .outline { fill: #fff; } .seam { stroke-width: 2px; } .seam, .stitching, .dimension { stroke-miterlimit: 10; } .seam, .stitching, .dimension, .annotation { fill: none; stroke: #000; } .grid { fill: #27aae1; } .stitching { stroke-width: 4px; } .dimension { stroke-width: 3.98px; } .st6 { opacity: .38; } .annotation { stroke-dasharray: 4.58; stroke-linecap: round; stroke-linejoin: round; stroke-width: 1.82px; } </style></defs><g id="_x31_.GRID_x5F_BG"><g class="st6"><rect class="grid" x="77.84" y="959.57" width="836.45" height="1.02"/><rect class="grid" x="77.84" y="912.83" width="836.45" height="1.02"/><rect class="grid" x="77.84" y="866.1" width="836.45" height="1.02"/><rect class="grid" x="77.84" y="819.36" width="836.45" height="1.02"/><rect class="grid" x="77.84" y="772.62" width="836.45" height="1.02"/><rect class="grid" x="77.84" y="725.88" width="836.45" height="1.02"/><rect class="grid" x="77.84" y="679.15" width="836.45" height="1.02"/><rect class="grid" x="77.84" y="632.41" width="836.45" height="1.02"/><rect class="grid" x="77.84" y="585.67" width="836.45" height="1.02"/><rect class="grid" x="77.84" y="538.94" width="836.45" height="1.02"/><rect class="grid" x="77.84" y="492.2" width="836.45" height="1.02"/><rect class="grid" x="77.84" y="445.46" width="836.45" height="1.02"/><rect class="grid" x="77.84" y="398.72" width="836.45" height="1.02"/><rect class="grid" x="77.84" y="351.99" width="836.45" height="1.02"/><rect class="grid" x="77.84" y="305.25" width="836.45" height="1.02"/><rect class="grid" x="77.84" y="258.51" width="836.45" height="1.02"/><rect class="grid" x="77.84" y="211.78" width="836.45" height="1.02"/><rect class="grid" x="77.84" y="165.04" width="836.45" height="1.02"/><rect class="grid" x="77.84" y="118.3" width="836.45" height="1.02"/><rect class="grid" x="77.84" y="71.56" width="836.45" height="1.02"/><rect class="grid" x="909.76" y="31.87" width=".8" height="927.7"/><rect class="grid" x="860.8" y="31.53" width="1.02" height="928.04"/><rect class="grid" x="811.83" y="31.53" width="1.02" height="928.04"/><rect class="grid" x="762.86" y="31.53" width="1.02" height="928.04"/><rect class="grid" x="713.9" y="31.53" width="1.02" height="928.04"/><rect class="grid" x="664.93" y="31.53" width="1.02" height="928.04"/><rect class="grid" x="615.96" y="31.53" width="1.02" height="928.04"/><rect class="grid" x="566.99" y="31.53" width="1.02" height="928.04"/><rect class="grid" x="518.03" y="31.53" width="1.02" height="928.04"/><rect class="grid" x="469.06" y="31.53" width="1.02" height="928.04"/><rect class="grid" x="420.09" y="31.53" width="1.02" height="928.04"/><rect class="grid" x="371.13" y="31.53" width="1.02" height="928.04"/><rect class="grid" x="322.16" y="31.53" width="1.02" height="928.04"/><rect class="grid" x="273.19" y="31.53" width="1.02" height="928.04"/><rect class="grid" x="224.23" y="31.53" width="1.02" height="928.04"/><rect class="grid" x="175.26" y="31.53" width="1.02" height="928.04"/><rect class="grid" x="126.29" y="31.53" width="1.02" height="928.04"/></g><rect class="dimension" x="77.58" y="30.35" width="836.97" height="931.42"/></g><g id="_x32_.MASK_x5F_FILL"><path class="outline" d="M687.72,777.8c-9.12-104.73-21.73-144.91-32.09-215.11-10.36-70.2,3.4-195.74,3.4-195.74,39.13,85.16,64.46,441.98,64.46,441.98h81.82c.36-184.07-3.45-276.91-36.72-472.06-33.27-195.15-78.74-202.51-78.74-202.51-59.73-22.73-103.78-41.92-103.78-41.92l-15.98-10.43c-97.92,35.17-187.94,0-187.94,0l-15.98,10.43s-44.05,19.19-103.78,41.92c0,0-45.47,7.36-78.74,202.51-33.27,195.15-37.08,287.99-36.72,472.06h81.82s25.33-356.81,64.46-441.98c0,0,13.76,125.54,3.4,195.74-10.36,70.2-22.97,110.39-32.09,215.11,0,0,62.25,26.17,219.92,23.12,157.67-3.05,203.26-23.12,203.26-23.12Z"/></g><g id="_x33_.SEAMS_x5F_INT"><path class="seam" d="M363.18,96.08s112.91,46.31,226.72-2.01"/><line class="annotation" x1="805.34" y1="776.01" x2="720.83" y2="776.01"/><line class="annotation" x1="805.34" y1="783.78" x2="720.83" y2="783.78"/><path class="seam" d="M262.4,134.35s32.78,46.93,31.26,236.76"/><path class="seam" d="M690.06,134.35s-32.78,46.93-31.26,236.76"/></g><g id="_x34_.OUTLINE_MAIN"><path class="stitching" d="M687.72,777.8c-9.12-104.73-21.73-144.91-32.09-215.11-10.36-70.2,3.4-195.74,3.4-195.74,39.13,85.16,64.46,441.98,64.46,441.98h81.82c.36-184.07-3.45-276.91-36.72-472.06-33.27-195.15-78.74-202.51-78.74-202.51-59.73-22.73-103.78-41.92-103.78-41.92l-15.98-10.43c-97.92,35.17-187.94,0-187.94,0l-15.98,10.43s-44.05,19.19-103.78,41.92c0,0-45.47,7.36-78.74,202.51-33.27,195.15-37.08,287.99-36.72,472.06h81.82s25.33-356.81,64.46-441.98c0,0,13.76,125.54,3.4,195.74-10.36,70.2-22.97,110.39-32.09,215.11,0,0,62.25,26.17,219.92,23.12,157.67-3.05,203.26-23.12,203.26-23.12Z"/></g><g id="_x35_.STITCHING"><path class="annotation" d="M266.78,752.84s61.74,25.95,218.13,22.93c156.38-3.02,201.6-22.93,201.6-22.93"/><path class="annotation" d="M266.78,743.44s61.74,25.95,218.13,22.93c156.38-3.02,201.6-22.93,201.6-22.93"/><line class="annotation" x1="146.8" y1="776.01" x2="231.31" y2="776.01"/><line class="annotation" x1="146.8" y1="783.78" x2="231.31" y2="783.78"/><path class="annotation" d="M354.5,100.36s128.49,51.15,239.5-1.94"/></g><g id="_x39_.ANNOTATIONS"><g><path d="M91.88,938.58l-7.47-23.35h8.11l6.04,19.72h-4.07l6.41-19.72h7.24l5.97,19.72h-3.9l6.31-19.72h7.47l-7.47,23.35h-8.44l-4.87-16.15h2.27l-5.14,16.15h-8.44Z"/><path d="M124.81,931.77v-5.67h10.01v5.67h-10.01Z"/><path d="M139.65,938.58v-20.62l3.37,3.2h-7.37v-5.94h11.88v23.35h-7.87Z"/><path d="M160.97,939.11c-2.07,0-3.9-.48-5.49-1.43-1.59-.96-2.84-2.35-3.74-4.17-.9-1.82-1.35-4.03-1.35-6.61s.45-4.78,1.35-6.61c.9-1.82,2.15-3.21,3.74-4.17,1.59-.96,3.42-1.43,5.49-1.43s3.9.48,5.49,1.43c1.59.96,2.84,2.35,3.74,4.17.9,1.82,1.35,4.03,1.35,6.61s-.45,4.78-1.35,6.61c-.9,1.82-2.15,3.21-3.74,4.17-1.59.96-3.42,1.43-5.49,1.43ZM160.97,932.81c.51,0,.97-.18,1.37-.53.4-.36.72-.97.95-1.83.23-.87.35-2.05.35-3.54s-.12-2.7-.35-3.55c-.23-.86-.55-1.46-.95-1.82-.4-.36-.86-.53-1.37-.53s-.97.18-1.37.53c-.4.36-.72.96-.95,1.82-.23.86-.35,2.04-.35,3.55s.12,2.67.35,3.54c.23.87.55,1.48.95,1.83.4.36.86.53,1.37.53Z"/><path d="M181.19,939.11c-1.6,0-3.23-.18-4.87-.53-1.65-.36-3.09-.88-4.34-1.57l2.67-5.8c1,.58,2.05,1.01,3.15,1.28,1.1.28,2.14.42,3.12.42.89,0,1.62-.15,2.18-.45.57-.3.85-.75.85-1.35,0-.51-.21-.91-.63-1.18-.42-.28-1.13-.42-2.14-.42h-3.1v-4.84l6.04-6.14.7,2.64h-11.64v-5.94h17.42v4.84l-6.04,6.14-3.77-2.13h2.07c2.94,0,5.17.66,6.71,1.97,1.54,1.31,2.3,3,2.3,5.07,0,1.33-.37,2.61-1.12,3.84-.75,1.22-1.9,2.22-3.47,3s-3.6,1.17-6.09,1.17Z"/><path d="M194.17,931.77v-5.67h10.01v5.67h-10.01Z"/><path d="M215.95,939.11c-1.96,0-3.85-.22-5.67-.67-1.82-.44-3.33-1.02-4.5-1.73l2.54-5.74c1.11.64,2.35,1.16,3.72,1.55,1.37.39,2.7.58,3.99.58.76,0,1.35-.05,1.79-.15.43-.1.75-.24.95-.43.2-.19.3-.42.3-.68,0-.42-.23-.76-.7-1-.47-.24-1.08-.45-1.85-.62-.77-.17-1.61-.34-2.52-.53-.91-.19-1.83-.44-2.75-.75-.92-.31-1.77-.72-2.54-1.23s-1.38-1.18-1.85-2.02c-.47-.83-.7-1.87-.7-3.12,0-1.45.4-2.76,1.22-3.95.81-1.19,2.02-2.14,3.64-2.85s3.62-1.07,6.02-1.07c1.58,0,3.14.17,4.67.5s2.91.85,4.14,1.54l-2.37,5.71c-1.16-.58-2.27-1.01-3.35-1.3s-2.13-.43-3.15-.43c-.76,0-1.36.07-1.8.2-.45.13-.76.31-.95.53s-.28.47-.28.73c0,.4.23.72.7.95.47.23,1.08.43,1.85.58.77.16,1.61.32,2.54.5.92.18,1.84.42,2.75.73s1.75.72,2.52,1.23,1.38,1.18,1.85,2,.7,1.85.7,3.07c0,1.42-.41,2.73-1.22,3.92-.81,1.19-2.02,2.15-3.62,2.87-1.6.72-3.62,1.08-6.04,1.08Z"/><path d="M229.1,931.77v-5.67h10.01v5.67h-10.01Z"/><path d="M247.42,938.58l-7.47-23.35h8.11l6.04,19.72h-4.07l6.41-19.72h7.24l5.97,19.72h-3.9l6.31-19.72h7.47l-7.47,23.35h-8.44l-4.87-16.15h2.27l-5.14,16.15h-8.44Z"/><path d="M293.16,939.11c-1.89,0-3.64-.3-5.25-.9s-3.01-1.45-4.19-2.55c-1.18-1.1-2.1-2.4-2.75-3.89s-.98-3.11-.98-4.87.33-3.41.98-4.89,1.57-2.77,2.75-3.87c1.18-1.1,2.57-1.95,4.19-2.55s3.36-.9,5.25-.9,3.67.3,5.27.9,2.99,1.45,4.17,2.55c1.18,1.1,2.1,2.39,2.75,3.87s.98,3.11.98,4.89-.33,3.38-.98,4.87-1.57,2.79-2.75,3.89c-1.18,1.1-2.57,1.95-4.17,2.55s-3.36.9-5.27.9ZM293.16,932.74c.73,0,1.42-.13,2.05-.4.63-.27,1.19-.65,1.67-1.15.48-.5.85-1.11,1.12-1.83s.4-1.54.4-2.45-.13-1.73-.4-2.45-.64-1.33-1.12-1.83c-.48-.5-1.03-.88-1.67-1.15s-1.32-.4-2.05-.4-1.42.13-2.05.4-1.19.65-1.67,1.15c-.48.5-.85,1.11-1.12,1.83-.27.72-.4,1.54-.4,2.45s.13,1.73.4,2.45c.27.72.64,1.33,1.12,1.83.48.5,1.03.88,1.67,1.15.63.27,1.32.4,2.05.4Z"/><path d="M309.2,938.58v-23.35h6.47l9.34,15.25h-3.4l9.08-15.25h6.47l.07,23.35h-7.17l-.07-12.54h1.13l-6.21,10.44h-3.47l-6.47-10.44h1.4v12.54h-7.17Z"/><path d="M341.03,938.58v-23.35h18.98v5.94h-11.24v11.48h11.68v5.94h-19.42ZM348.24,929.57v-5.67h10.41v5.67h-10.41Z"/><path d="M363.49,938.58v-23.35h6.47l11.88,14.21h-3v-14.21h7.67v23.35h-6.47l-11.88-14.21h3v14.21h-7.67Z"/><path d="M389.58,927.1l2.8-9.38,1.1,4.2c-1.29,0-2.35-.37-3.17-1.12-.82-.75-1.23-1.76-1.23-3.05s.42-2.35,1.25-3.12c.83-.77,1.88-1.15,3.15-1.15s2.32.38,3.15,1.15c.83.77,1.25,1.81,1.25,3.12,0,.36-.03.71-.08,1.07-.06.36-.17.78-.35,1.28-.18.5-.47,1.17-.87,2.02l-2.34,4.97h-4.67Z"/><path d="M409.49,939.11c-1.96,0-3.85-.22-5.67-.67-1.82-.44-3.33-1.02-4.5-1.73l2.54-5.74c1.11.64,2.35,1.16,3.72,1.55,1.37.39,2.7.58,3.99.58.76,0,1.35-.05,1.79-.15.43-.1.75-.24.95-.43.2-.19.3-.42.3-.68,0-.42-.23-.76-.7-1-.47-.24-1.08-.45-1.85-.62s-1.61-.34-2.52-.53c-.91-.19-1.83-.44-2.75-.75-.92-.31-1.77-.72-2.54-1.23s-1.38-1.18-1.85-2.02-.7-1.87-.7-3.12c0-1.45.41-2.76,1.22-3.95.81-1.19,2.02-2.14,3.64-2.85,1.61-.71,3.62-1.07,6.02-1.07,1.58,0,3.14.17,4.67.5s2.91.85,4.14,1.54l-2.37,5.71c-1.16-.58-2.28-1.01-3.35-1.3-1.08-.29-2.13-.43-3.15-.43-.76,0-1.36.07-1.8.2-.44.13-.76.31-.95.53s-.28.47-.28.73c0,.4.23.72.7.95s1.08.43,1.85.58,1.61.32,2.54.5c.92.18,1.84.42,2.75.73s1.75.72,2.52,1.23c.77.51,1.38,1.18,1.85,2,.47.82.7,1.85.7,3.07,0,1.42-.41,2.73-1.22,3.92-.81,1.19-2.02,2.15-3.62,2.87s-3.61,1.08-6.04,1.08Z"/><path d="M432.71,938.58v-23.35h7.87v17.25h10.54v6.11h-18.42Z"/><path d="M465.21,939.11c-1.89,0-3.64-.3-5.25-.9s-3.01-1.45-4.19-2.55c-1.18-1.1-2.1-2.4-2.75-3.89-.66-1.49-.98-3.11-.98-4.87s.33-3.41.98-4.89c.66-1.48,1.57-2.77,2.75-3.87,1.18-1.1,2.57-1.95,4.19-2.55s3.36-.9,5.25-.9,3.67.3,5.27.9,2.99,1.45,4.17,2.55c1.18,1.1,2.1,2.39,2.75,3.87.66,1.48.98,3.11.98,4.89s-.33,3.38-.98,4.87c-.66,1.49-1.57,2.79-2.75,3.89-1.18,1.1-2.57,1.95-4.17,2.55s-3.36.9-5.27.9ZM465.21,932.74c.73,0,1.42-.13,2.05-.4.63-.27,1.19-.65,1.67-1.15.48-.5.85-1.11,1.12-1.83.27-.72.4-1.54.4-2.45s-.13-1.73-.4-2.45c-.27-.72-.64-1.33-1.12-1.83-.48-.5-1.04-.88-1.67-1.15s-1.32-.4-2.05-.4-1.42.13-2.05.4-1.19.65-1.67,1.15c-.48.5-.85,1.11-1.12,1.83-.27.72-.4,1.54-.4,2.45s.13,1.73.4,2.45c.27.72.64,1.33,1.12,1.83.48.5,1.03.88,1.67,1.15.63.27,1.32.4,2.05.4Z"/><path d="M481.25,938.58v-23.35h6.47l11.88,14.21h-3v-14.21h7.67v23.35h-6.47l-11.88-14.21h3v14.21h-7.67Z"/><path d="M520.19,939.11c-1.89,0-3.63-.3-5.22-.88s-2.97-1.43-4.14-2.52-2.07-2.38-2.72-3.87c-.65-1.49-.97-3.14-.97-4.94s.32-3.45.97-4.94c.64-1.49,1.56-2.78,2.74-3.87,1.18-1.09,2.57-1.93,4.19-2.52,1.61-.59,3.39-.88,5.32-.88,2.31,0,4.38.39,6.19,1.17,1.81.78,3.31,1.89,4.49,3.34l-5.04,4.44c-.73-.85-1.53-1.49-2.38-1.92-.86-.43-1.81-.65-2.85-.65-.87,0-1.65.13-2.35.4-.7.27-1.3.66-1.79,1.17s-.87,1.12-1.13,1.83c-.27.71-.4,1.52-.4,2.44s.13,1.66.4,2.38c.27.72.64,1.34,1.13,1.85.49.51,1.07.91,1.75,1.18.68.28,1.44.42,2.29.42.89,0,1.76-.15,2.6-.45.84-.3,1.75-.82,2.7-1.55l4.4,5.41c-1.42.96-3.05,1.69-4.87,2.2-1.82.51-3.59.77-5.3.77ZM530.37,936.14l-6.84-1v-8.88h6.84v9.88Z"/><path d="M533.34,931.77v-5.67h10.01v5.67h-10.01Z"/><path d="M555.12,939.11c-1.96,0-3.85-.22-5.67-.67-1.82-.44-3.33-1.02-4.5-1.73l2.54-5.74c1.11.64,2.35,1.16,3.72,1.55,1.37.39,2.7.58,3.99.58.76,0,1.35-.05,1.79-.15.43-.1.75-.24.95-.43.2-.19.3-.42.3-.68,0-.42-.23-.76-.7-1-.47-.24-1.08-.45-1.85-.62s-1.61-.34-2.52-.53c-.91-.19-1.83-.44-2.75-.75s-1.77-.72-2.54-1.23c-.77-.51-1.38-1.18-1.85-2.02-.47-.83-.7-1.87-.7-3.12,0-1.45.41-2.76,1.22-3.95.81-1.19,2.02-2.14,3.64-2.85,1.61-.71,3.62-1.07,6.02-1.07,1.58,0,3.14.17,4.67.5,1.54.33,2.91.85,4.14,1.54l-2.37,5.71c-1.16-.58-2.27-1.01-3.35-1.3-1.08-.29-2.13-.43-3.15-.43-.76,0-1.36.07-1.8.2s-.76.31-.95.53c-.19.22-.28.47-.28.73,0,.4.23.72.7.95.47.23,1.08.43,1.85.58.77.16,1.61.32,2.54.5.92.18,1.84.42,2.75.73.91.31,1.75.72,2.52,1.23s1.38,1.18,1.85,2,.7,1.85.7,3.07c0,1.42-.41,2.73-1.22,3.92-.81,1.19-2.02,2.15-3.62,2.87s-3.62,1.08-6.04,1.08Z"/><path d="M568.33,938.58v-23.35h7.87v17.25h10.54v6.11h-18.42Z"/><path d="M588.92,938.58v-23.35h18.98v5.94h-11.24v11.48h11.68v5.94h-19.42ZM596.13,929.57v-5.67h10.41v5.67h-10.41Z"/><path d="M611.37,938.58v-23.35h18.98v5.94h-11.24v11.48h11.68v5.94h-19.42ZM618.58,929.57v-5.67h10.41v5.67h-10.41Z"/><path d="M640.83,938.58l-9.88-23.35h8.47l8.04,19.72h-5.04l8.27-19.72h7.74l-9.88,23.35h-7.74Z"/><path d="M659.21,938.58v-23.35h18.98v5.94h-11.24v11.48h11.68v5.94h-19.42ZM666.42,929.57v-5.67h10.41v5.67h-10.41Z"/><path d="M696.75,938.58v-17.25h-6.84v-6.11h21.55v6.11h-6.84v17.25h-7.87Z"/><path d="M713.49,938.58v-23.35h18.98v5.94h-11.24v11.48h11.68v5.94h-19.42ZM720.7,929.57v-5.67h10.41v5.67h-10.41Z"/><path d="M735.95,938.58v-23.35h18.98v5.94h-11.24v11.48h11.68v5.94h-19.42ZM743.15,929.57v-5.67h10.41v5.67h-10.41Z"/><path d="M768.41,938.58v-23.35h12.48c3.22,0,5.6.57,7.14,1.72,1.53,1.15,2.3,2.61,2.3,4.39,0,1.18-.33,2.23-.98,3.15s-1.61,1.65-2.85,2.18c-1.25.53-2.78.8-4.6.8l.67-1.8c1.82,0,3.4.26,4.72.77,1.32.51,2.35,1.25,3.07,2.22s1.08,2.13,1.08,3.49c0,2.02-.84,3.6-2.52,4.74-1.68,1.13-4.13,1.7-7.36,1.7h-13.15ZM776.15,933.07h4.74c.87,0,1.52-.16,1.95-.47s.65-.77.65-1.37-.22-1.06-.65-1.37c-.43-.31-1.08-.47-1.95-.47h-5.27v-5.21h4.2c.89,0,1.54-.15,1.95-.45.41-.3.62-.73.62-1.28s-.21-1.01-.62-1.3c-.41-.29-1.06-.43-1.95-.43h-3.67v12.34Z"/><path d="M791.66,938.58l10.21-23.35h7.74l10.21,23.35h-8.14l-7.54-19.62h3.07l-7.54,19.62h-8.01ZM797.74,934.51l2-5.67h10.74l2,5.67h-14.75Z"/><path d="M832.83,939.11c-1.87,0-3.6-.3-5.19-.88s-2.97-1.43-4.14-2.52-2.07-2.38-2.72-3.87c-.65-1.49-.97-3.14-.97-4.94s.32-3.45.97-4.94c.64-1.49,1.55-2.78,2.72-3.87,1.17-1.09,2.55-1.93,4.14-2.52,1.59-.59,3.32-.88,5.19-.88,2.29,0,4.32.4,6.09,1.2,1.77.8,3.23,1.96,4.39,3.47l-4.97,4.44c-.69-.87-1.45-1.54-2.29-2.02-.83-.48-1.77-.72-2.82-.72-.82,0-1.57.13-2.24.4-.67.27-1.24.66-1.72,1.17s-.85,1.13-1.12,1.85c-.27.72-.4,1.53-.4,2.42s.13,1.7.4,2.42c.27.72.64,1.34,1.12,1.85s1.05.9,1.72,1.17c.67.27,1.41.4,2.24.4,1.04,0,1.98-.24,2.82-.72.83-.48,1.6-1.15,2.29-2.02l4.97,4.44c-1.16,1.49-2.62,2.64-4.39,3.45-1.77.81-3.8,1.22-6.09,1.22Z"/><path d="M845.34,938.58v-23.35h7.74v23.35h-7.74ZM852.38,933.57l-.43-8.64,8.81-9.71h8.57l-9.88,10.88-4.37,4.47-2.7,3ZM860.69,938.58l-6.87-9.08,5.1-5.4,10.88,14.48h-9.11Z"/></g></g></svg>