<?xml version="1.0" encoding="UTF-8"?><svg xmlns="http://www.w3.org/2000/svg" version="1.1" xmlns:xlink="http://www.w3.org/1999/xlink" viewBox="0 0 992.13 992.13"><title>Satuit DWG-400 Core Pullover Hoodie</title><desc>Gold+ semantic SVG. Geometry unchanged.</desc><defs><style> .outline { stroke-dasharray: 4.03 4.03; } .outline, .seam, .stitching, .dimension, .annotation, .grid, .st6, .st7, .st8, .st9, .st10, .st11 { stroke: #000; } .outline, .seam, .stitching, .annotation, .grid, .st7, .st8, .st9, .st10, .st11 { stroke-miterlimit: 10; } .outline, .stitching, .dimension, .st12, .annotation, .grid, .st6, .st7, .st8, .st9, .st10 { fill: none; } .outline, .dimension, .grid, .st6, .st10 { stroke-linecap: round; } .st13, .seam, .st11 { fill: #fff; } .stitching { stroke-width: 1.89px; } .dimension { stroke-width: .56px; } .dimension, .st6 { stroke-linejoin: round; } .st14 { fill: url(#New_Pattern_22); } .annotation { stroke-width: 2px; } .st15 { fill: #27aae1; } .st16 { fill: url(#New_Pattern_21); } .st6 { stroke-width: 6.01px; } .st17 { fill: url(#New_Pattern_2); } .st7 { stroke-width: 4px; } .st8 { stroke-width: 3.91px; } .st9 { stroke-width: 3.98px; } .st10 { stroke-dasharray: 3.89 3.89; } .st18 { opacity: .38; } .st11 { stroke-width: 3.88px; } </style><pattern id="New_Pattern_2" data-name="New Pattern 2" x="0" y="0" width="30" height="80.06" patternTransform="translate(-1247.04 -1528.62) rotate(3.34) scale(.78)" patternUnits="userSpaceOnUse" viewBox="0 0 30 80.06"><g><rect class="st12" width="30" height="80.06"/><rect x="26.03" y="0" width="1.93" height="80.06"/><rect x="20.03" y="0" width="1.93" height="80.06"/><rect x="14.03" y="0" width="1.93" height="80.06"/><rect x="8.03" y="0" width="1.93" height="80.06"/><rect x="2.03" y="0" width="1.93" height="80.06"/></g></pattern><pattern id="New_Pattern_21" data-name="New Pattern 2" patternTransform="translate(-14115.62 -1441.34) rotate(176.66) scale(.78 -.78)" href="#New_Pattern_2" xlink:href="#New_Pattern_2"/><pattern id="New_Pattern_22" data-name="New Pattern 2" patternTransform="translate(-848.39 -1287.06) scale(.78 .85)" href="#New_Pattern_2" xlink:href="#New_Pattern_2"/></defs><g id="_x31_.GRID_x5F_BG"><g class="st18"><rect class="st15" x="77.84" y="959.57" width="836.45" height="1.02"/><rect class="st15" x="77.84" y="912.83" width="836.45" height="1.02"/><rect class="st15" x="77.84" y="866.1" width="836.45" height="1.02"/><rect class="st15" x="77.84" y="819.36" width="836.45" height="1.02"/><rect class="st15" x="77.84" y="772.62" width="836.45" height="1.02"/><rect class="st15" x="77.84" y="725.88" width="836.45" height="1.02"/><rect class="st15" x="77.84" y="679.15" width="836.45" height="1.02"/><rect class="st15" x="77.84" y="632.41" width="836.45" height="1.02"/><rect class="st15" x="77.84" y="585.67" width="836.45" height="1.02"/><rect class="st15" x="77.84" y="538.94" width="836.45" height="1.02"/><rect class="st15" x="77.84" y="492.2" width="836.45" height="1.02"/><rect class="st15" x="77.84" y="445.46" width="836.45" height="1.02"/><rect class="st15" x="77.84" y="398.72" width="836.45" height="1.02"/><rect class="st15" x="77.84" y="351.99" width="836.45" height="1.02"/><rect class="st15" x="77.84" y="305.25" width="836.45" height="1.02"/><rect class="st15" x="77.84" y="258.51" width="836.45" height="1.02"/><rect class="st15" x="77.84" y="211.78" width="836.45" height="1.02"/><rect class="st15" x="77.84" y="165.04" width="836.45" height="1.02"/><rect class="st15" x="77.84" y="118.3" width="836.45" height="1.02"/><rect class="st15" x="77.84" y="71.56" width="836.45" height="1.02"/><rect class="st15" x="909.76" y="31.87" width=".8" height="927.7"/><rect class="st15" x="860.8" y="31.53" width="1.02" height="928.04"/><rect class="st15" x="811.83" y="31.53" width="1.02" height="928.04"/><rect class="st15" x="762.86" y="31.53" width="1.02" height="928.04"/><rect class="st15" x="713.9" y="31.53" width="1.02" height="928.04"/><rect class="st15" x="664.93" y="31.53" width="1.02" height="928.04"/><rect class="st15" x="615.96" y="31.53" width="1.02" height="928.04"/><rect class="st15" x="566.99" y="31.53" width="1.02" height="928.04"/><rect class="st15" x="518.03" y="31.53" width="1.02" height="928.04"/><rect class="st15" x="469.06" y="31.53" width="1.02" height="928.04"/><rect class="st15" x="420.09" y="31.53" width="1.02" height="928.04"/><rect class="st15" x="371.13" y="31.53" width="1.02" height="928.04"/><rect class="st15" x="322.16" y="31.53" width="1.02" height="928.04"/><rect class="st15" x="273.19" y="31.53" width="1.02" height="928.04"/><rect class="st15" x="224.23" y="31.53" width="1.02" height="928.04"/><rect class="st15" x="175.26" y="31.53" width="1.02" height="928.04"/><rect class="st15" x="126.29" y="31.53" width="1.02" height="928.04"/></g><g><rect class="st9" x="77.58" y="30.35" width="836.97" height="931.42"/><rect class="st11" x="640.91" y="822.57" width="273.64" height="139.21"/><line class="st8" x1="640.91" y1="887.71" x2="914.55" y2="887.71"/></g></g><g id="_x32_.MASK_x5F_FILL"><path class="st13" d="M677.47,769.13c1.26-35.13,7.64-48.58,7.64-48.58,0,0,3.03-5.11,4.95-15.19,5.29-27.77-.6-67.35-.6-67.35,21.37,86.7,36.02,92.8,36.02,92.8,15.26,13.43,22.59,45.79,22.59,45.79l58-15.87c-4.27-10.38-3.05-47.62-3.05-47.62,3.05-10.38,3.05-25.03,3.05-25.03-4.88-98.3-78.76-342.52-100.74-377.93-21.98-35.41-94.02-54.34-94.02-54.34l-9.89-10.71c-2.39-2.59-2.07-6.66.7-8.84,10.17-8.02,29.65-29.81,14.59-71.72-17.26-48.03-40.41-83.1-79.44-94.7-11.91-3.54-24.52-3.54-36.43,0-39.03,11.6-62.18,46.67-79.44,94.7-15.06,41.92,4.42,63.71,14.59,71.72,2.77,2.18,3.09,6.25.7,8.84l-9.89,10.71s-72.04,18.93-94.02,54.34c-21.98,35.41-95.86,279.63-100.74,377.93,0,0,0,14.65,3.05,25.03,0,0,1.22,37.24-3.05,47.62l58,15.87s7.33-32.36,22.59-45.79c0,0,14.65-6.11,36.02-92.8,0,0-5.89,39.58-.6,67.35,1.92,10.07,4.95,15.19,4.95,15.19,0,0,6.38,13.45,7.64,48.58h316.83Z"/></g><g id="_x33_.SEAMS_x5F_INT"><line class="annotation" x1="347.67" y1="717.98" x2="683.57" y2="717.98"/><path class="annotation" d="M397.35,717.98s-3.43-24.27-13.8-55.62c-.19-.58-.48-1.12-.72-1.67,0,0,34.24-49.8,48.76-106.17h169.22c14.53,56.37,48.76,106.17,48.76,106.17-.24.54-.53,1.08-.72,1.67-10.37,31.35-13.8,55.62-13.8,55.62"/><polygon points="343.06 638.01 344.56 345.98 346.06 638.01 343.06 638.01 343.06 638.01"/><polygon points="684.05 638.01 685.55 345.98 687.05 638.01 684.05 638.01 684.05 638.01"/><path class="annotation" d="M344.56,442.97s17.16-39.61,34.23-77.39c23.98-53.08,66.76-82.99,66.76-82.99"/><path class="annotation" d="M685.55,442.97s-17.16-39.61-34.23-77.39c-23.98-53.08-66.76-82.99-66.76-82.99"/><path class="annotation" d="M231,713.11s44.31-1.29,75.26,19.92"/><path class="annotation" d="M798.23,713.11s-44.31-1.29-75.26,19.92"/><line class="annotation" x1="517.35" y1="67.18" x2="517.35" y2="268.67"/><path class="annotation" d="M517.35,133.43s-86.53-3.56-91.58,50.15c-4.81,51.11,53.1,55.42,84.1,108.49,2.81,4.8,4.85,10.02,6.05,15.45h0"/><path class="annotation" d="M517.35,133.43s86.53-3.56,91.58,50.15c4.78,50.8-52.39,55.37-83.53,107.52-3.04,5.09-5.43,10.53-7.29,16.16l-.08.25"/><path class="stitching" d="M425.48,148.69s24.83-32.46,92.47-32.94"/><path class="stitching" d="M604.59,147.62s-20.2-31.39-87.84-31.87"/><path class="annotation" d="M456.27,144.44s-2.62,41.55,4.61,61.52c11.21,30.92,17.34,49.86,17.34,49.86"/><path class="annotation" d="M577.13,144.44s2.62,41.55-4.61,61.52c-11.21,30.92-17.34,49.86-17.34,49.86"/><path class="annotation" d="M433.86,239.01s52.71,32.89,67.36,67.65"/><path class="annotation" d="M596.96,239.01s-50.63,31.3-65.28,66.06"/><line class="annotation" x1="491.39" y1="267.97" x2="543.3" y2="267.97"/><line class="annotation" x1="501.62" y1="279.78" x2="532.68" y2="279.78"/><path class="stitching" d="M422.71,255.81s.35,9.37,22.08,25.66c15.52,11.63,38.61,22.41,65.45,25.73,1.88.23,3.78.32,5.67.32h0c1.96,0,3.93-.09,5.87-.35,25.81-3.35,48.01-14.1,62.94-25.71,20.96-16.29,21.3-25.66,21.3-25.66"/><path class="st17" d="M309.18,733.05s-30.36-18.74-78.54-19.23c0,0,5.49,33.53-.62,47.1l57.05,15.17s8.72-36.35,22.11-43.04Z"/><path class="st16" d="M722.83,732.86s30.36-18.74,78.54-19.23c0,0-5.49,33.53.62,47.1l-57.05,15.17s-8.72-36.35-22.11-43.04Z"/><path class="st14" d="M680.24,718.78l-330.04-1.87s8.76,32.99,5.69,50.54l315.78,1.68s2.07-22.17,8.57-50.34Z"/></g><g id="_x34_.OUTLINE_MAIN"><path class="st7" d="M673.38,769.13c1.26-35.13,7.64-48.58,7.64-48.58,0,0,3.03-5.11,4.95-15.19,5.29-27.77-.6-67.35-.6-67.35,21.37,86.7,36.02,92.8,36.02,92.8,15.26,13.43,22.59,45.79,22.59,45.79l58-15.87c-4.27-10.38-3.05-47.62-3.05-47.62,3.05-10.38,3.05-25.03,3.05-25.03-4.88-98.3-78.76-342.52-100.74-377.93-21.98-35.41-94.02-54.34-94.02-54.34l-9.89-10.71c-2.39-2.59-2.07-6.66.7-8.84,10.17-8.02,29.65-29.81,14.59-71.72-17.26-48.03-40.41-83.1-79.44-94.7-11.91-3.54-24.52-3.54-36.43,0-39.03,11.6-62.18,46.67-79.44,94.7-15.06,41.92,4.42,63.71,14.59,71.72,2.77,2.18,3.09,6.25.7,8.84l-9.89,10.71s-72.04,18.93-94.02,54.34c-21.98,35.41-95.86,279.63-100.74,377.93,0,0,0,14.65,3.05,25.03,0,0,1.22,37.24-3.05,47.62l58,15.87s7.33-32.36,22.59-45.79c0,0,14.65-6.11,36.02-92.8,0,0-5.89,39.58-.6,67.35,1.92,10.07,4.95,15.19,4.95,15.19,0,0,6.38,13.45,7.64,48.58h316.83Z"/></g><g id="_x35_.STITCHING"><g><path class="grid" d="M393.06,680.57s.4-.56,1.14-1.64"/><path class="st10" d="M396.37,675.71c10.02-15.09,40.27-63.34,55.44-117.38"/><path class="grid" d="M452.33,556.45c.18-.64.35-1.29.52-1.93"/></g><g><path class="grid" d="M394.93,692.22s.39-.57,1.1-1.66"/><path class="outline" d="M398.23,687.18c10.85-16.91,45.66-73.67,61.23-128.79"/><path class="grid" d="M460,556.45c.18-.64.35-1.29.52-1.93"/></g><g><path class="grid" d="M639.74,680.57s-.4-.56-1.14-1.64"/><path class="st10" d="M636.44,675.71c-10.02-15.09-40.27-63.34-55.44-117.38"/><path class="grid" d="M580.47,556.45c-.18-.64-.35-1.29-.52-1.93"/></g><g><path class="grid" d="M637.87,692.22s-.39-.57-1.1-1.66"/><path class="outline" d="M634.58,687.18c-10.85-16.91-45.66-73.67-61.23-128.79"/><path class="grid" d="M572.8,556.45c-.18-.64-.35-1.29-.52-1.93"/></g></g><g id="_x36_.TRIMS__x26__LABELS"><g><path class="seam" d="M498.73,296.33c-3.78,0-6.86-3.08-6.86-6.86s3.08-6.86,6.86-6.86,6.86,3.08,6.86,6.86-3.08,6.86-6.86,6.86ZM498.73,286.61c-1.58,0-2.86,1.28-2.86,2.86s1.28,2.86,2.86,2.86,2.86-1.28,2.86-2.86-1.28-2.86-2.86-2.86Z"/><path class="st6" d="M498.73,290.89s8.08,16.4-7.56,44.66c-13.75,24.84,7.74,41.63,1.71,79.72"/><path class="dimension" d="M489.7,415.49h3.9v11.06c0,.99-.81,1.8-1.8,1.8h-.31c-.99,0-1.8-.81-1.8-1.8v-11.06h0Z" transform="translate(73.39 -72.85) rotate(9.15)"/></g><g><path class="seam" d="M528.85,289.46c0-3.78,3.08-6.86,6.86-6.86s6.86,3.08,6.86,6.86-3.08,6.86-6.86,6.86-6.86-3.08-6.86-6.86ZM532.85,289.46c0,1.57,1.28,2.86,2.86,2.86s2.86-1.28,2.86-2.86-1.28-2.86-2.86-2.86-2.86,1.28-2.86,2.86Z"/><path class="st6" d="M535.71,290.89s-8.08,16.4,7.56,44.66c13.75,24.84-7.74,41.63-1.71,79.72"/><path class="dimension" d="M542.63,415.49h.31c.99,0,1.8.81,1.8,1.8v11.06h-3.9v-11.06c0-.99.81-1.8,1.8-1.8Z" transform="translate(1145.79 752.12) rotate(170.85)"/></g></g><g id="_x39_.ANNOTATIONS"><g><path d="M85.38,933.81v-16.1h7.94c1.79,0,3.37.33,4.74.98,1.36.65,2.43,1.58,3.2,2.77.77,1.2,1.15,2.63,1.15,4.3s-.38,3.09-1.15,4.29c-.77,1.2-1.83,2.13-3.2,2.78-1.36.65-2.94.98-4.74.98h-7.94ZM90.81,929.57h2.28c.77,0,1.44-.15,2.01-.44.58-.29,1.02-.72,1.35-1.3.32-.58.48-1.27.48-2.08s-.16-1.53-.48-2.09c-.32-.57-.77-1-1.35-1.29-.57-.29-1.25-.44-2.01-.44h-2.28v7.64Z"/><path d="M107.87,933.81l-5.15-16.1h5.59l4.16,13.59h-2.81l4.42-13.59h4.99l4.12,13.59h-2.69l4.35-13.59h5.15l-5.15,16.1h-5.82l-3.36-11.13h1.56l-3.54,11.13h-5.82Z"/><path d="M139.32,934.17c-1.3,0-2.5-.2-3.6-.61-1.1-.41-2.05-.99-2.85-1.74-.81-.75-1.43-1.64-1.87-2.67-.44-1.03-.67-2.16-.67-3.4s.22-2.38.67-3.4c.44-1.03,1.07-1.92,1.89-2.67.81-.75,1.77-1.33,2.89-1.74s2.33-.61,3.67-.61c1.59,0,3.02.27,4.27.8,1.25.54,2.28,1.3,3.09,2.3l-3.47,3.06c-.51-.58-1.05-1.02-1.64-1.32-.59-.3-1.25-.45-1.97-.45-.6,0-1.14.09-1.62.28-.48.18-.89.45-1.23.8-.34.35-.6.77-.78,1.27-.18.49-.28,1.05-.28,1.68s.09,1.15.28,1.64.44.92.78,1.28c.34.35.74.62,1.21.82.47.19.99.29,1.58.29.61,0,1.21-.1,1.79-.31.58-.21,1.2-.56,1.86-1.07l3.04,3.73c-.98.66-2.1,1.17-3.36,1.52s-2.48.53-3.66.53ZM146.33,932.13l-4.71-.69v-6.12h4.71v6.81Z"/><path d="M155.55,933.81v-16.1h4.46l8.19,9.8h-2.07v-9.8h5.29v16.1h-4.46l-8.19-9.8h2.07v9.8h-5.29Z"/><path d="M182.49,934.17c-1.3,0-2.51-.21-3.62-.62s-2.07-1-2.89-1.76c-.81-.76-1.45-1.65-1.9-2.68-.45-1.03-.68-2.15-.68-3.36s.23-2.35.68-3.37c.45-1.02,1.08-1.91,1.9-2.67.81-.76,1.77-1.34,2.89-1.76s2.32-.62,3.62-.62,2.53.21,3.63.62,2.06,1,2.88,1.76c.81.76,1.44,1.65,1.9,2.67.45,1.02.68,2.14.68,3.37s-.23,2.33-.68,3.36c-.45,1.03-1.08,1.92-1.9,2.68-.81.76-1.77,1.35-2.88,1.76s-2.32.62-3.63.62ZM182.49,929.78c.51,0,.98-.09,1.41-.28.44-.18.82-.45,1.15-.79.33-.34.59-.77.77-1.26s.28-1.06.28-1.69-.09-1.19-.28-1.69-.44-.92-.77-1.27c-.33-.34-.71-.61-1.15-.79-.44-.18-.91-.28-1.41-.28s-.98.09-1.41.28c-.44.18-.82.45-1.15.79-.33.35-.59.77-.77,1.27s-.28,1.06-.28,1.69.09,1.19.28,1.69.44.92.77,1.26c.33.35.71.61,1.15.79.44.18.91.28,1.41.28Z"/><path d="M195.73,926.93c-.86,0-1.58-.28-2.16-.84-.58-.56-.87-1.28-.87-2.15s.29-1.6.87-2.14c.58-.54,1.3-.8,2.16-.8s1.58.27,2.16.8c.58.54.87,1.25.87,2.14s-.29,1.59-.87,2.15c-.58.56-1.3.84-2.16.84ZM195.73,934.04c-.86,0-1.58-.28-2.16-.84-.58-.56-.87-1.28-.87-2.15s.29-1.6.87-2.14c.58-.54,1.3-.8,2.16-.8s1.58.27,2.16.8c.58.54.87,1.25.87,2.14s-.29,1.59-.87,2.15c-.58.56-1.3.84-2.16.84Z"/><path d="M207.44,933.81v-16.1h5.43v16.1h-5.43ZM212.5,927.87v-4.46h5.75v4.46h-5.75ZM217.88,933.81v-16.1h5.43v16.1h-5.43Z"/><path d="M225.66,929.11v-3.91h6.9v3.91h-6.9Z"/><path d="M234.12,931.05v-3.45l6.83-9.89h5.57l-6.58,9.89-2.53-.76h12.47v4.21h-15.76ZM242.47,933.81v-2.76l.16-4.21v-2.46h5.11v9.43h-5.27Z"/><path d="M257.92,934.17c-1.43,0-2.69-.33-3.78-.99s-1.95-1.62-2.58-2.88c-.62-1.26-.93-2.78-.93-4.55s.31-3.3.93-4.55c.62-1.26,1.48-2.22,2.58-2.88s2.36-.99,3.78-.99,2.69.33,3.78.99c1.1.66,1.95,1.62,2.58,2.88.62,1.26.93,2.78.93,4.55s-.31,3.3-.93,4.55c-.62,1.26-1.48,2.22-2.58,2.88-1.1.66-2.36.99-3.78.99ZM257.92,929.83c.35,0,.67-.12.94-.37s.49-.67.66-1.27c.16-.6.24-1.41.24-2.44s-.08-1.86-.24-2.45c-.16-.59-.38-1.01-.66-1.25s-.59-.37-.94-.37-.67.12-.94.37c-.28.25-.49.66-.66,1.25-.16.59-.24,1.41-.24,2.45s.08,1.84.24,2.44c.16.6.38,1.02.66,1.27.28.25.59.37.94.37Z"/><path d="M273.84,934.17c-1.43,0-2.69-.33-3.78-.99s-1.95-1.62-2.58-2.88c-.62-1.26-.93-2.78-.93-4.55s.31-3.3.93-4.55c.62-1.26,1.48-2.22,2.58-2.88s2.36-.99,3.78-.99,2.69.33,3.78.99c1.1.66,1.95,1.62,2.58,2.88.62,1.26.93,2.78.93,4.55s-.31,3.3-.93,4.55c-.62,1.26-1.48,2.22-2.58,2.88-1.1.66-2.36.99-3.78.99ZM273.84,929.83c.35,0,.67-.12.94-.37s.49-.67.66-1.27c.16-.6.24-1.41.24-2.44s-.08-1.86-.24-2.45c-.16-.59-.38-1.01-.66-1.25s-.59-.37-.94-.37-.67.12-.94.37c-.28.25-.49.66-.66,1.25-.16.59-.24,1.41-.24,2.45s.08,1.84.24,2.44c.16.6.38,1.02.66,1.27.28.25.59.37.94.37Z"/><path d="M282.83,929.11v-3.91h6.9v3.91h-6.9Z"/><path d="M297.85,934.17c-1.35,0-2.65-.15-3.91-.46s-2.29-.71-3.1-1.2l1.75-3.96c.77.45,1.62.8,2.56,1.07.94.27,1.86.4,2.75.4.52,0,.93-.03,1.23-.1.3-.07.52-.17.66-.3.14-.13.21-.29.21-.47,0-.29-.16-.52-.48-.69-.32-.17-.75-.31-1.28-.43-.53-.12-1.11-.24-1.74-.37-.63-.13-1.26-.3-1.9-.52-.64-.21-1.22-.5-1.75-.85s-.95-.82-1.28-1.39c-.32-.58-.48-1.29-.48-2.15,0-1,.28-1.91.84-2.73.56-.82,1.4-1.48,2.51-1.97,1.11-.49,2.5-.74,4.15-.74,1.09,0,2.16.12,3.22.34,1.06.23,2.01.58,2.85,1.06l-1.63,3.93c-.8-.4-1.57-.7-2.31-.9-.74-.2-1.47-.3-2.17-.3-.52,0-.94.05-1.24.14-.31.09-.53.22-.66.37-.13.15-.2.32-.2.51,0,.28.16.5.48.66.32.16.75.29,1.28.4.53.11,1.11.22,1.75.34.64.12,1.27.29,1.9.51.63.21,1.21.5,1.74.85.53.35.95.81,1.28,1.38.32.57.48,1.27.48,2.12,0,.98-.28,1.88-.84,2.7-.56.82-1.39,1.48-2.5,1.98s-2.49.75-4.16.75Z"/><path d="M306.91,929.11v-3.91h6.9v3.91h-6.9Z"/><path d="M324.49,934.17c-1.29,0-2.48-.2-3.58-.61-1.1-.41-2.05-.99-2.85-1.74-.81-.75-1.43-1.64-1.87-2.67-.44-1.03-.67-2.16-.67-3.4s.22-2.38.67-3.4c.44-1.03,1.07-1.92,1.87-2.67.81-.75,1.76-1.33,2.85-1.74,1.1-.41,2.29-.61,3.58-.61,1.58,0,2.98.28,4.2.83,1.22.55,2.23,1.35,3.02,2.39l-3.43,3.06c-.48-.6-1-1.06-1.58-1.39-.57-.33-1.22-.5-1.94-.5-.57,0-1.08.09-1.54.28-.46.18-.85.45-1.18.8-.33.35-.59.78-.77,1.28-.18.5-.28,1.05-.28,1.67s.09,1.17.28,1.67c.18.5.44.92.77,1.28.33.35.72.62,1.18.81.46.18.97.28,1.54.28.72,0,1.37-.16,1.94-.49.58-.33,1.1-.79,1.58-1.39l3.43,3.06c-.8,1.03-1.81,1.82-3.02,2.38-1.22.56-2.62.84-4.2.84Z"/><path d="M340.98,934.17c-1.3,0-2.51-.21-3.62-.62s-2.07-1-2.89-1.76c-.81-.76-1.45-1.65-1.9-2.68-.45-1.03-.68-2.15-.68-3.36s.23-2.35.68-3.37c.45-1.02,1.08-1.91,1.9-2.67.81-.76,1.77-1.34,2.89-1.76s2.32-.62,3.62-.62,2.53.21,3.63.62,2.06,1,2.88,1.76c.81.76,1.44,1.65,1.9,2.67.45,1.02.68,2.14.68,3.37s-.23,2.33-.68,3.36c-.45,1.03-1.08,1.92-1.9,2.68-.81.76-1.77,1.35-2.88,1.76s-2.32.62-3.63.62ZM340.98,929.78c.51,0,.98-.09,1.41-.28.44-.18.82-.45,1.15-.79.33-.34.59-.77.77-1.26s.28-1.06.28-1.69-.09-1.19-.28-1.69-.44-.92-.77-1.27c-.33-.34-.71-.61-1.15-.79-.44-.18-.91-.28-1.41-.28s-.98.09-1.41.28c-.44.18-.82.45-1.15.79-.33.35-.59.77-.77,1.27s-.28,1.06-.28,1.69.09,1.19.28,1.69.44.92.77,1.26c.33.35.71.61,1.15.79.44.18.91.28,1.41.28Z"/><path d="M352.04,933.81v-16.1h7.52c2.47,0,4.35.54,5.63,1.63,1.29,1.09,1.93,2.57,1.93,4.44,0,1.24-.3,2.31-.9,3.21-.6.9-1.45,1.58-2.54,2.06s-2.4.71-3.9.71h-4.74l2.41-2.23v6.28h-5.43ZM357.47,928.12l-2.41-2.46h4.39c.75,0,1.31-.17,1.67-.51.36-.34.54-.8.54-1.38s-.18-1.04-.54-1.38c-.36-.34-.92-.51-1.67-.51h-4.39l2.41-2.46v8.69ZM361.68,933.81l-3.96-5.87h5.75l4,5.87h-5.8Z"/><path d="M369.17,933.81v-16.1h13.09v4.09h-7.75v7.91h8.05v4.09h-13.39ZM374.14,927.6v-3.91h7.18v3.91h-7.18Z"/><path d="M391.55,933.81v-16.1h7.75c1.5,0,2.8.25,3.9.74,1.1.49,1.94,1.19,2.54,2.1.6.91.9,1.99.9,3.23s-.3,2.32-.9,3.22c-.6.9-1.45,1.61-2.54,2.1s-2.4.75-3.9.75h-4.74l2.41-2.32v6.28h-5.43ZM396.98,928.12l-2.41-2.46h4.39c.75,0,1.31-.17,1.67-.51.36-.34.54-.8.54-1.38s-.18-1.04-.54-1.38c-.36-.34-.92-.51-1.67-.51h-4.39l2.41-2.46v8.69Z"/><path d="M415.89,934.17c-2.47,0-4.39-.67-5.77-2-1.38-1.33-2.07-3.21-2.07-5.61v-8.85h5.43v8.69c0,1.23.22,2.1.67,2.61.44.51,1.04.77,1.79.77s1.37-.26,1.81-.77c.44-.51.66-1.38.66-2.61v-8.69h5.34v8.85c0,2.41-.69,4.28-2.07,5.61s-3.3,2-5.77,2Z"/><path d="M426.21,933.81v-16.1h5.43v11.89h7.27v4.21h-12.7Z"/><path d="M440.4,933.81v-16.1h5.43v11.89h7.27v4.21h-12.7Z"/><path d="M462.81,934.17c-1.3,0-2.51-.21-3.62-.62s-2.07-1-2.89-1.76c-.81-.76-1.45-1.65-1.9-2.68-.45-1.03-.68-2.15-.68-3.36s.23-2.35.68-3.37c.45-1.02,1.08-1.91,1.9-2.67.81-.76,1.77-1.34,2.89-1.76s2.32-.62,3.62-.62,2.53.21,3.63.62,2.06,1,2.88,1.76c.81.76,1.44,1.65,1.9,2.67.45,1.02.68,2.14.68,3.37s-.23,2.33-.68,3.36c-.45,1.03-1.08,1.92-1.9,2.68-.81.76-1.77,1.35-2.88,1.76s-2.32.62-3.63.62ZM462.81,929.78c.51,0,.98-.09,1.41-.28.44-.18.82-.45,1.15-.79.33-.34.59-.77.77-1.26s.28-1.06.28-1.69-.09-1.19-.28-1.69-.44-.92-.77-1.27c-.33-.34-.71-.61-1.15-.79-.44-.18-.91-.28-1.41-.28s-.98.09-1.41.28c-.44.18-.82.45-1.15.79-.33.35-.59.77-.77,1.27s-.28,1.06-.28,1.69.09,1.19.28,1.69.44.92.77,1.26c.33.35.71.61,1.15.79.44.18.91.28,1.41.28Z"/><path d="M478.35,933.81l-6.81-16.1h5.84l5.54,13.59h-3.47l5.7-13.59h5.34l-6.81,16.1h-5.34Z"/><path d="M491.03,933.81v-16.1h13.09v4.09h-7.75v7.91h8.05v4.09h-13.39ZM496,927.6v-3.91h7.18v3.91h-7.18Z"/><path d="M506.51,933.81v-16.1h7.52c2.47,0,4.35.54,5.63,1.63s1.93,2.57,1.93,4.44c0,1.24-.3,2.31-.9,3.21-.6.9-1.45,1.58-2.54,2.06-1.1.48-2.4.71-3.9.71h-4.74l2.42-2.23v6.28h-5.43ZM511.93,928.12l-2.42-2.46h4.39c.75,0,1.31-.17,1.67-.51.36-.34.54-.8.54-1.38s-.18-1.04-.54-1.38c-.36-.34-.92-.51-1.67-.51h-4.39l2.42-2.46v8.69ZM516.14,933.81l-3.96-5.87h5.75l4,5.87h-5.8Z"/><path d="M530.54,933.81v-16.1h5.43v16.1h-5.43ZM535.6,927.87v-4.46h5.75v4.46h-5.75ZM540.98,933.81v-16.1h5.43v16.1h-5.43Z"/><path d="M557.47,934.17c-1.3,0-2.51-.21-3.62-.62-1.11-.41-2.07-1-2.89-1.76-.81-.76-1.45-1.65-1.9-2.68-.45-1.03-.68-2.15-.68-3.36s.23-2.35.68-3.37c.45-1.02,1.08-1.91,1.9-2.67.81-.76,1.77-1.34,2.89-1.76,1.11-.41,2.32-.62,3.62-.62s2.53.21,3.63.62c1.1.41,2.06,1,2.88,1.76.81.76,1.45,1.65,1.9,2.67.45,1.02.68,2.14.68,3.37s-.23,2.33-.68,3.36c-.45,1.03-1.08,1.92-1.9,2.68s-1.77,1.35-2.88,1.76c-1.1.41-2.32.62-3.63.62ZM557.47,929.78c.51,0,.98-.09,1.41-.28.44-.18.82-.45,1.15-.79.33-.34.59-.77.77-1.26.18-.5.28-1.06.28-1.69s-.09-1.19-.28-1.69c-.18-.5-.44-.92-.77-1.27-.33-.34-.71-.61-1.15-.79-.44-.18-.91-.28-1.41-.28s-.98.09-1.41.28c-.44.18-.82.45-1.15.79-.33.35-.59.77-.77,1.27s-.28,1.06-.28,1.69.09,1.19.28,1.69.44.92.77,1.26c.33.35.71.61,1.15.79.44.18.91.28,1.41.28Z"/><path d="M576.98,934.17c-1.3,0-2.51-.21-3.62-.62-1.11-.41-2.07-1-2.89-1.76-.81-.76-1.45-1.65-1.9-2.68-.45-1.03-.68-2.15-.68-3.36s.23-2.35.68-3.37c.45-1.02,1.08-1.91,1.9-2.67.81-.76,1.77-1.34,2.89-1.76,1.11-.41,2.32-.62,3.62-.62s2.53.21,3.63.62c1.1.41,2.06,1,2.88,1.76.81.76,1.45,1.65,1.9,2.67.45,1.02.68,2.14.68,3.37s-.23,2.33-.68,3.36c-.45,1.03-1.08,1.92-1.9,2.68s-1.77,1.35-2.88,1.76c-1.1.41-2.32.62-3.63.62ZM576.98,929.78c.51,0,.98-.09,1.41-.28.44-.18.82-.45,1.15-.79.33-.34.59-.77.77-1.26.18-.5.28-1.06.28-1.69s-.09-1.19-.28-1.69c-.18-.5-.44-.92-.77-1.27-.33-.34-.71-.61-1.15-.79-.44-.18-.91-.28-1.41-.28s-.98.09-1.41.28c-.44.18-.82.45-1.15.79-.33.35-.59.77-.77,1.27s-.28,1.06-.28,1.69.09,1.19.28,1.69.44.92.77,1.26c.33.35.71.61,1.15.79.44.18.91.28,1.41.28Z"/><path d="M588.04,933.81v-16.1h7.94c1.79,0,3.37.33,4.74.98,1.36.65,2.43,1.58,3.2,2.77.77,1.2,1.15,2.63,1.15,4.3s-.38,3.09-1.15,4.29c-.77,1.2-1.83,2.13-3.2,2.78-1.37.65-2.94.98-4.74.98h-7.94ZM593.47,929.57h2.28c.77,0,1.44-.15,2.01-.44s1.02-.72,1.35-1.3.48-1.27.48-2.08-.16-1.53-.48-2.09-.77-1-1.35-1.29-1.25-.44-2.01-.44h-2.28v7.64Z"/><path d="M607.04,933.81v-16.1h5.43v16.1h-5.43Z"/><path d="M615.09,933.81v-16.1h13.09v4.09h-7.75v7.91h8.05v4.09h-13.39ZM620.06,927.6v-3.91h7.18v3.91h-7.18Z"/></g><g><path d="M687.49,938.52v-18.44h14.99v4.69h-8.77v13.75h-6.22ZM693.28,932.62v-4.69h8.12v4.69h-8.12Z"/><path d="M704.45,938.52v-18.44h8.62c2.83,0,4.98.62,6.46,1.87,1.48,1.25,2.21,2.94,2.21,5.09,0,1.42-.34,2.65-1.03,3.68-.69,1.03-1.66,1.81-2.91,2.36s-2.74.82-4.47.82h-5.43l2.77-2.56v7.19h-6.22ZM710.67,932.01l-2.77-2.82h5.03c.86,0,1.5-.19,1.91-.58s.62-.91.62-1.58-.21-1.19-.62-1.58c-.41-.39-1.05-.58-1.91-.58h-5.03l2.77-2.82v9.96ZM715.49,938.52l-4.53-6.72h6.59l4.58,6.72h-6.64Z"/><path d="M733.75,938.94c-1.49,0-2.88-.24-4.15-.71-1.27-.47-2.38-1.15-3.31-2.02-.93-.87-1.66-1.89-2.17-3.07-.52-1.18-.78-2.46-.78-3.85s.26-2.69.78-3.86c.52-1.17,1.24-2.19,2.17-3.06.93-.87,2.03-1.54,3.31-2.02,1.27-.47,2.66-.71,4.15-.71s2.9.24,4.16.71c1.27.47,2.36,1.15,3.29,2.02.93.87,1.66,1.89,2.17,3.06.52,1.17.78,2.46.78,3.86s-.26,2.67-.78,3.85-1.24,2.2-2.17,3.07-2.03,1.54-3.29,2.02c-1.26.47-2.65.71-4.16.71ZM733.75,933.91c.58,0,1.12-.11,1.62-.32.5-.21.94-.51,1.32-.91.38-.4.67-.88.88-1.45.21-.57.32-1.22.32-1.94s-.11-1.37-.32-1.94c-.21-.57-.51-1.05-.88-1.45-.38-.4-.82-.7-1.32-.91-.5-.21-1.04-.32-1.62-.32s-1.12.11-1.62.32-.94.51-1.32.91c-.38.4-.67.88-.88,1.45-.21.57-.32,1.22-.32,1.94s.11,1.37.32,1.94c.21.57.5,1.05.88,1.45.38.39.82.7,1.32.91.5.21,1.04.32,1.62.32Z"/><path d="M746.43,938.52v-18.44h5.11l9.38,11.22h-2.37v-11.22h6.06v18.44h-5.11l-9.38-11.22h2.37v11.22h-6.06Z"/><path d="M771.62,938.52v-13.62h-5.4v-4.82h17.02v4.82h-5.4v13.62h-6.22Z"/><path d="M798.55,938.52l-7.8-18.44h6.69l6.35,15.57h-3.98l6.54-15.57h6.11l-7.8,18.44h-6.11Z"/><path d="M813.07,938.52v-18.44h6.22v18.44h-6.22Z"/><path d="M822.29,938.52v-18.44h14.99v4.69h-8.88v9.06h9.22v4.69h-15.33ZM827.98,931.41v-4.48h8.22v4.48h-8.22Z"/><path d="M844.42,938.52l-5.9-18.44h6.4l4.77,15.57h-3.21l5.06-15.57h5.72l4.72,15.57h-3.08l4.98-15.57h5.9l-5.9,18.44h-6.67l-3.85-12.75h1.79l-4.06,12.75h-6.67Z"/></g><g><path d="M653.53,868.82c-1.55,0-3.04-.18-4.48-.53s-2.63-.81-3.56-1.37l2-4.53c.88.51,1.86.92,2.94,1.23s2.13.46,3.15.46c.6,0,1.07-.04,1.41-.12.34-.08.59-.19.75-.34s.24-.33.24-.54c0-.33-.18-.6-.55-.79s-.86-.36-1.46-.49c-.61-.13-1.27-.27-1.99-.42-.72-.15-1.44-.35-2.17-.59-.73-.25-1.4-.57-2-.97-.61-.4-1.09-.94-1.46-1.59-.37-.66-.55-1.48-.55-2.46,0-1.14.32-2.18.96-3.12.64-.94,1.6-1.69,2.87-2.25,1.27-.56,2.86-.84,4.76-.84,1.25,0,2.48.13,3.69.4,1.21.26,2.3.67,3.27,1.21l-1.87,4.51c-.91-.46-1.8-.8-2.65-1.03-.85-.23-1.68-.34-2.49-.34-.6,0-1.07.05-1.42.16-.35.11-.6.25-.75.42-.15.18-.22.37-.22.58,0,.32.18.57.55.75s.86.34,1.46.46c.61.12,1.27.25,2,.4.73.14,1.45.33,2.17.58.72.25,1.38.57,1.99.98.61.4,1.09.93,1.46,1.58.37.65.55,1.46.55,2.42,0,1.12-.32,2.16-.96,3.1-.64.94-1.59,1.7-2.86,2.27-1.26.57-2.85.86-4.77.86Z"/><path d="M661.96,868.39l8.06-18.44h6.11l8.06,18.44h-6.43l-5.96-15.49h2.42l-5.96,15.49h-6.32ZM666.76,865.18l1.58-4.48h8.48l1.58,4.48h-11.65Z"/><path d="M688.28,868.39v-13.62h-5.4v-4.82h17.02v4.82h-5.4v13.62h-6.22Z"/><path d="M709.94,868.82c-2.83,0-5.03-.76-6.61-2.29-1.58-1.53-2.37-3.67-2.37-6.43v-10.14h6.22v9.96c0,1.41.25,2.4.76,2.99.51.59,1.19.88,2.06.88s1.57-.29,2.07-.88c.5-.59.75-1.58.75-2.99v-9.96h6.11v10.14c0,2.76-.79,4.9-2.37,6.43s-3.79,2.29-6.61,2.29Z"/><path d="M725.38,868.39v-13.62h-5.4v-4.82h17.02v4.82h-5.4v13.62h-6.22Z"/><path d="M753.39,868.82c-1.55,0-3.04-.18-4.48-.53s-2.63-.81-3.56-1.37l2-4.53c.88.51,1.86.92,2.94,1.23s2.13.46,3.15.46c.6,0,1.07-.04,1.41-.12.34-.08.59-.19.75-.34s.24-.33.24-.54c0-.33-.18-.6-.55-.79s-.86-.36-1.46-.49c-.61-.13-1.27-.27-1.99-.42-.72-.15-1.44-.35-2.17-.59-.73-.25-1.4-.57-2-.97-.61-.4-1.09-.94-1.46-1.59-.37-.66-.55-1.48-.55-2.46,0-1.14.32-2.18.96-3.12.64-.94,1.6-1.69,2.87-2.25,1.27-.56,2.86-.84,4.76-.84,1.25,0,2.48.13,3.69.4,1.21.26,2.3.67,3.27,1.21l-1.87,4.51c-.91-.46-1.8-.8-2.65-1.03-.85-.23-1.68-.34-2.49-.34-.6,0-1.07.05-1.42.16-.35.11-.6.25-.75.42-.15.18-.22.37-.22.58,0,.32.18.57.55.75s.86.34,1.46.46c.61.12,1.27.25,2,.4.73.14,1.45.33,2.17.58.72.25,1.38.57,1.99.98.61.4,1.09.93,1.46,1.58.37.65.55,1.46.55,2.42,0,1.12-.32,2.16-.96,3.1-.64.94-1.59,1.7-2.86,2.27-1.26.57-2.85.86-4.77.86Z"/><path d="M772.65,868.82c-2.83,0-5.03-.76-6.61-2.29-1.58-1.53-2.37-3.67-2.37-6.43v-10.14h6.22v9.96c0,1.41.25,2.4.76,2.99.51.59,1.19.88,2.06.88s1.57-.29,2.07-.88c.5-.59.75-1.58.75-2.99v-9.96h6.11v10.14c0,2.76-.79,4.9-2.37,6.43s-3.79,2.29-6.61,2.29Z"/><path d="M784.49,868.39v-18.44h8.88c1.72,0,3.21.28,4.47.84,1.26.56,2.23,1.37,2.91,2.41.68,1.04,1.03,2.28,1.03,3.7s-.34,2.65-1.03,3.69c-.69,1.04-1.66,1.84-2.91,2.41-1.26.57-2.74.86-4.47.86h-5.43l2.77-2.66v7.19h-6.22ZM790.7,861.89l-2.77-2.82h5.03c.86,0,1.5-.19,1.91-.58s.62-.91.62-1.58-.21-1.19-.62-1.58c-.41-.39-1.05-.58-1.91-.58h-5.03l2.77-2.82v9.96Z"/><path d="M803.8,868.39v-18.44h8.88c1.72,0,3.21.28,4.47.84,1.26.56,2.23,1.37,2.91,2.41.68,1.04,1.03,2.28,1.03,3.7s-.34,2.65-1.03,3.69c-.69,1.04-1.66,1.84-2.91,2.41-1.26.57-2.74.86-4.47.86h-5.43l2.77-2.66v7.19h-6.22ZM810.02,861.89l-2.77-2.82h5.03c.86,0,1.5-.19,1.91-.58s.62-.91.62-1.58-.21-1.19-.62-1.58c-.41-.39-1.05-.58-1.91-.58h-5.03l2.77-2.82v9.96Z"/><path d="M823.11,868.39v-18.44h6.22v13.62h8.33v4.82h-14.54Z"/><path d="M842.27,868.39v-8.09l1.42,3.71-8.38-14.07h6.56l5.67,9.62h-3.82l5.72-9.62h6.01l-8.33,14.07,1.37-3.71v8.09h-6.22Z"/><path d="M873.68,868.82c-1.48,0-2.84-.23-4.1-.7-1.26-.47-2.35-1.13-3.27-1.99-.92-.86-1.64-1.88-2.15-3.06-.51-1.18-.76-2.48-.76-3.9s.25-2.72.76-3.9c.51-1.18,1.23-2.2,2.15-3.06.92-.86,2.01-1.52,3.27-1.99,1.26-.46,2.62-.7,4.1-.7,1.81,0,3.41.32,4.81.95,1.4.63,2.55,1.55,3.46,2.74l-3.93,3.5c-.54-.69-1.15-1.22-1.8-1.59-.66-.38-1.4-.57-2.23-.57-.65,0-1.24.11-1.77.32-.53.21-.98.52-1.36.92-.38.4-.67.89-.88,1.46-.21.57-.32,1.21-.32,1.91s.11,1.34.32,1.91c.21.57.5,1.06.88,1.46.38.4.83.71,1.36.92.53.21,1.12.32,1.77.32.83,0,1.57-.19,2.23-.57.66-.38,1.26-.91,1.8-1.59l3.93,3.5c-.91,1.18-2.07,2.09-3.46,2.73-1.4.64-3,.96-4.81.96Z"/><path d="M892.57,868.82c-1.49,0-2.88-.24-4.15-.71-1.27-.47-2.38-1.15-3.31-2.02-.93-.87-1.66-1.89-2.17-3.07-.52-1.18-.78-2.46-.78-3.85s.26-2.69.78-3.86c.52-1.17,1.24-2.19,2.17-3.06.93-.87,2.03-1.54,3.31-2.02,1.27-.47,2.66-.71,4.15-.71s2.9.24,4.16.71c1.27.47,2.36,1.15,3.29,2.02.93.87,1.66,1.89,2.17,3.06.52,1.17.78,2.46.78,3.86s-.26,2.67-.78,3.85-1.24,2.2-2.17,3.07-2.03,1.54-3.29,2.02c-1.26.47-2.65.71-4.16.71ZM892.57,863.78c.58,0,1.12-.11,1.62-.32.5-.21.94-.51,1.32-.91.38-.4.67-.88.88-1.45.21-.57.32-1.22.32-1.94s-.11-1.37-.32-1.94c-.21-.57-.51-1.05-.88-1.45-.38-.4-.82-.7-1.32-.91-.5-.21-1.04-.32-1.62-.32s-1.12.11-1.62.32-.94.51-1.32.91c-.38.4-.67.88-.88,1.45-.21.57-.32,1.22-.32,1.94s.11,1.37.32,1.94c.21.57.5,1.05.88,1.45.38.39.82.7,1.32.91.5.21,1.04.32,1.62.32Z"/><path d="M907.22,868.66c-.98,0-1.81-.32-2.48-.96-.67-.64-1-1.46-1-2.46s.33-1.83,1-2.45c.67-.62,1.49-.92,2.48-.92s1.81.31,2.48.92c.67.62,1,1.43,1,2.45s-.33,1.82-1,2.46c-.67.64-1.49.96-2.48.96Z"/></g></g></svg>