<?xml version="1.0" encoding="UTF-8"?><svg xmlns="http://www.w3.org/2000/svg" version="1.1" viewBox="0 0 992.13 992.13"><title>Satuit DWG-302 Women’s Coastal Short</title><desc>Gold+ semantic SVG. Geometry unchanged.</desc><defs><style> .outline, .seam { stroke-width: 1.57px; } .outline, .seam, .stitching, .dimension, .annotation, .grid, .st6, .st7 { stroke: #000; stroke-miterlimit: 10; } .outline, .st8, .stitching, .st7 { fill: #fff; } .seam { stroke-dasharray: 6.29; stroke-linecap: round; } .seam, .dimension, .annotation, .grid, .st6 { fill: none; } .stitching { stroke-width: 1.65px; } .dimension { stroke-width: 2px; } .st9 { fill: #27aae1; } .annotation { stroke-width: 4px; } .grid { stroke-width: 3.91px; } .st6 { stroke-width: 3.98px; } .st10 { opacity: .38; } .st7 { stroke-width: 3.88px; }  .seam,.stitching{fill:none!important;}g[id*="SEAMS"] path,g[id*="SEAMS"] rect,g[id*="SEAMS"] circle,g[id*="SEAMS"] ellipse,g[id*="SEAMS"] polygon,g[id*="SEAMS"] polyline,g[id*="STITCHING"] path,g[id*="STITCHING"] rect,g[id*="STITCHING"] circle,g[id*="STITCHING"] ellipse,g[id*="STITCHING"] polygon,g[id*="STITCHING"] polyline{fill:none!important;}</style></defs><g id="_x31_.GRID_x5F_BG"><g class="st10"><rect class="st9" x="77.84" y="959.57" width="836.45" height="1.02"/><rect class="st9" x="77.84" y="912.83" width="836.45" height="1.02"/><rect class="st9" x="77.84" y="866.1" width="836.45" height="1.02"/><rect class="st9" x="77.84" y="819.36" width="836.45" height="1.02"/><rect class="st9" x="77.84" y="772.62" width="836.45" height="1.02"/><rect class="st9" x="77.84" y="725.88" width="836.45" height="1.02"/><rect class="st9" x="77.84" y="679.15" width="836.45" height="1.02"/><rect class="st9" x="77.84" y="632.41" width="836.45" height="1.02"/><rect class="st9" x="77.84" y="585.67" width="836.45" height="1.02"/><rect class="st9" x="77.84" y="538.94" width="836.45" height="1.02"/><rect class="st9" x="77.84" y="492.2" width="836.45" height="1.02"/><rect class="st9" x="77.84" y="445.46" width="836.45" height="1.02"/><rect class="st9" x="77.84" y="398.72" width="836.45" height="1.02"/><rect class="st9" x="77.84" y="351.99" width="836.45" height="1.02"/><rect class="st9" x="77.84" y="305.25" width="836.45" height="1.02"/><rect class="st9" x="77.84" y="258.51" width="836.45" height="1.02"/><rect class="st9" x="77.84" y="211.78" width="836.45" height="1.02"/><rect class="st9" x="77.84" y="165.04" width="836.45" height="1.02"/><rect class="st9" x="77.84" y="118.3" width="836.45" height="1.02"/><rect class="st9" x="77.84" y="71.56" width="836.45" height="1.02"/><rect class="st9" x="909.76" y="31.87" width=".8" height="927.7"/><rect class="st9" x="860.8" y="31.53" width="1.02" height="928.04"/><rect class="st9" x="811.83" y="31.53" width="1.02" height="928.04"/><rect class="st9" x="762.86" y="31.53" width="1.02" height="928.04"/><rect class="st9" x="713.9" y="31.53" width="1.02" height="928.04"/><rect class="st9" x="664.93" y="31.53" width="1.02" height="928.04"/><rect class="st9" x="615.96" y="31.53" width="1.02" height="928.04"/><rect class="st9" x="566.99" y="31.53" width="1.02" height="928.04"/><rect class="st9" x="518.03" y="31.53" width="1.02" height="928.04"/><rect class="st9" x="469.06" y="31.53" width="1.02" height="928.04"/><rect class="st9" x="420.09" y="31.53" width="1.02" height="928.04"/><rect class="st9" x="371.13" y="31.53" width="1.02" height="928.04"/><rect class="st9" x="322.16" y="31.53" width="1.02" height="928.04"/><rect class="st9" x="273.19" y="31.53" width="1.02" height="928.04"/><rect class="st9" x="224.23" y="31.53" width="1.02" height="928.04"/><rect class="st9" x="175.26" y="31.53" width="1.02" height="928.04"/><rect class="st9" x="126.29" y="31.53" width="1.02" height="928.04"/></g><g><rect class="st6" x="77.58" y="30.35" width="836.97" height="931.42"/><rect class="st7" x="640.91" y="822.57" width="273.64" height="139.21"/><line class="grid" x1="640.91" y1="887.71" x2="914.55" y2="887.71"/></g></g><g id="_x32_.MASK_x5F_FILL"><path class="st8" d="M494.16,597.88l-21.45,114.06c-31.08,3.98-88.38-8.35-157.87-22.79-81.12-16.85-199.34-53.52-199.34-53.52,46.85-287.76,95.18-393.31,95.18-393.31l17.85-60.23h535.06s17.85,60.23,17.85,60.23c0,0,48.33,105.55,95.18,393.31,0,0-118.22,36.68-199.34,53.52-69.49,14.43-126.79,26.77-157.87,22.79l-21.45-114.06c-.4-2.11-3.41-2.11-3.81,0Z"/></g><g id="_x33_.SEAMS_x5F_INT"><path class="dimension" d="M227.36,186.06s274.01,61.11,536.24-3.96"/><path class="dimension" d="M210.69,242.33s302.16,80.74,570.75,0"/><path class="dimension" d="M758.95,248.69s40.94,100.21,84.22,306.89c5.43,25.93,16.41,50.46,32.15,71.98"/><path class="dimension" d="M519.41,711.95s32.4-32.77,108.63-47.78c151.99-29.93,173.87-19.9,187.67-36.61,15.85-19.19,19.02-35.67,28.19-68.66"/><line class="dimension" x1="721.54" y1="257.66" x2="820.2" y2="454.08"/><path class="dimension" d="M235,248.69s-40.94,100.21-84.22,306.89c-5.43,25.93-16.41,50.46-32.15,71.98"/><path class="dimension" d="M474.53,711.95s-32.4-32.77-108.63-47.78c-151.99-29.93-173.87-19.9-187.67-36.61-15.85-19.19-19.02-35.67-28.19-68.66"/><line class="dimension" x1="273.34" y1="255.81" x2="173.75" y2="454.08"/><path d="M592.8,279.48c4.7,9.86,8.25,20.26,10.59,30.93,2.39,10.9,3.42,22,3.33,33.15-.06,6.6-.43,13.19-.8,19.78-.04.64.96.64,1,0,.66-11.68,1.27-23.39.23-35.06-.98-10.93-3.2-21.74-6.62-32.17-1.92-5.85-4.22-11.57-6.86-17.13-.28-.58-1.14-.07-.86.5h0Z"/><path d="M669.53,273.37c4.94,6.46,10.16,12.7,15.66,18.7.67.73,1.34,1.45,2.01,2.17.53.56,1.17,1.57,1.97,1.75,1.65.37,1.54-2.02,1.42-2.95-.48-3.77-1.6-7.41-2.59-11.08-1.12-4.16-2.06-8.42-1.56-12.75.07-.64-.93-.63-1,0-.82,7.12,2.13,13.86,3.6,20.68.17.8.32,1.59.45,2.4.07.47.14.93.18,1.4.03.33.11.85-.1,1.14-.24.34-.47-.03-.69-.27-.33-.34-.65-.69-.97-1.03-.65-.69-1.29-1.39-1.93-2.08-2.56-2.79-5.06-5.64-7.5-8.53-2.77-3.29-5.46-6.64-8.08-10.05-.39-.5-1.25,0-.86.5h0Z"/><path d="M629.38,275.53c1.53,4.99,2.56,10.12,3.06,15.31.06.63,1.06.64,1,0-.51-5.28-1.54-10.5-3.1-15.57-.19-.61-1.15-.35-.96.27h0Z"/><path d="M559.41,282c-1.51,3.93-.92,8.22,0,12.22,1.03,4.45,2.28,8.86,3.57,13.24.74,2.52,1.51,5.02,2.31,7.52.2.61,1.16.35.96-.27-1.38-4.29-2.66-8.62-3.85-12.96-.59-2.16-1.16-4.32-1.7-6.49-.51-2.03-.97-4.09-1.14-6.19-.2-2.32-.02-4.63.82-6.82.23-.6-.74-.86-.96-.27h0Z"/><path d="M397.39,278.97c-4.72,9.91-8.31,20.34-10.67,31.06s-3.47,22.09-3.39,33.28c.05,6.68.43,13.35.8,20.02.04.64,1.04.64,1,0-.65-11.56-1.26-23.16-.26-34.72.95-10.88,3.16-21.64,6.55-32.03,1.91-5.84,4.19-11.56,6.83-17.11.28-.58-.59-1.09-.86-.5h0Z"/><path d="M330.8,272.86c-4.63,6.04-9.51,11.9-14.62,17.54-1.27,1.4-2.55,2.8-3.86,4.17-.22.23-.45.6-.69.27-.17-.23-.14-.65-.12-.92.06-.91.23-1.82.39-2.71.65-3.51,1.74-6.92,2.63-10.37.97-3.79,1.68-7.7,1.23-11.62-.07-.63-1.07-.64-1,0,.89,7.75-2.72,14.99-3.95,22.49-.19,1.14-.82,3.3.37,4.12.61.42,1.23.08,1.69-.38.72-.73,1.41-1.49,2.1-2.25,2.76-2.98,5.46-6.03,8.08-9.13,2.96-3.5,5.83-7.07,8.61-10.71.39-.51-.48-1.01-.86-.5h0Z"/><path d="M370.84,275.26c-1.56,5.07-2.59,10.29-3.1,15.57-.06.64.94.64,1,0,.5-5.19,1.53-10.32,3.06-15.31.19-.62-.78-.88-.96-.27h0Z"/><path d="M440.81,282.26c1.52,3.96.82,8.24-.14,12.24-1.04,4.34-2.24,8.65-3.5,12.93-.72,2.44-1.47,4.87-2.24,7.29-.2.61.77.88.96.27,1.41-4.41,2.73-8.85,3.95-13.32,1.14-4.18,2.48-8.46,2.8-12.81.17-2.32-.03-4.67-.87-6.86-.23-.59-1.2-.34-.96.27h0Z"/><path d="M590.35,267.45c-3.33-6.45-5.86-13.3-7.53-20.36-.83-3.51-1.45-7.06-1.84-10.65-.33-3.04-.5-6.13-.13-9.18.41-3.34,1.55-6.62,3.89-9.1l-.85-.35c.2,3.69.39,7.39.59,11.08s.31,7.24.69,10.84c.67,6.26,2.69,12.15,5.98,17.51,1.8,2.94,3.93,5.68,6.27,8.21.44.47,1.14-.24.71-.71-4.08-4.41-7.51-9.5-9.65-15.14-1.12-2.95-1.85-6.02-2.23-9.16-.41-3.46-.53-6.96-.71-10.43-.22-4.07-.44-8.14-.65-12.21-.02-.41-.54-.68-.85-.35-4.38,4.65-4.74,11.48-4.2,17.51.66,7.35,2.27,14.62,4.72,21.58,1.38,3.91,3.03,7.73,4.93,11.41.3.57,1.16.07.86-.5h0Z"/><path d="M629.1,259.12c.13-5.69,1.32-11.3,1.45-16.99s-.76-11.2-2-16.65c-.71-3.14-1.54-6.24-2.37-9.35l-.91.39c1.89,2.64,3.39,5.54,4.42,8.62,1.1,3.28,1.52,6.69,1.93,10.11s1.04,6.86,2.04,10.22,2.02,6.72,2.83,10.14c.92,3.9,1.66,7.85,2.29,11.81.1.63,1.06.36.96-.27-.57-3.56-1.22-7.11-2.02-10.63s-1.79-6.96-2.83-10.4-1.79-6.84-2.22-10.4c-.41-3.37-.77-6.76-1.76-10.02-1.05-3.47-2.68-6.75-4.78-9.69-.32-.44-1.07-.19-.91.39,1.45,5.43,2.9,10.87,3.72,16.43.41,2.8.64,5.63.63,8.46s-.3,5.55-.62,8.31c-.37,3.17-.76,6.33-.84,9.52-.02.64.98.64,1,0h0Z"/><path d="M664.77,254.29c.06-5.32.16-10.65.16-15.97,0-5.14-.13-10.3-.83-15.4-.39-2.86-.96-5.7-1.77-8.47l-.84.49c7.35,8.75,9.97,20.27,11.16,31.37.37,3.46.62,6.93.88,10.4.05.64,1.05.64,1,0-.86-11.82-1.8-24.03-7.26-34.78-1.4-2.75-3.09-5.34-5.07-7.7-.33-.39-.97.03-.84.49,2.89,9.89,2.62,20.3,2.51,30.5l-.1,9.07c0,.64.99.64,1,0h0Z"/><path d="M695.79,246.12c.88-10.19-2.42-20.05-3.59-30.08-.34-2.86-.49-5.75-.34-8.63l-.93.25c5.94,10.38,9.91,21.84,11.67,33.67.5,3.34.81,6.72.95,10.09.03.64,1.03.64,1,0-.5-12.08-3.28-24.02-8.13-35.1-1.38-3.14-2.92-6.2-4.62-9.17-.26-.45-.91-.23-.93.25-.53,10.21,2.83,20.02,3.82,30.09.28,2.86.36,5.74.11,8.61-.06.64.95.64,1,0h0Z"/><path d="M729.23,240.21c-2.1-5.49-4.2-10.98-6.05-16.56s-3.67-11.06-2.64-16.78c.56-3.09,1.75-6.02,2.94-8.91l-.98-.13c1.56,13.55,5.04,26.85,10.34,39.42,1.49,3.54,3.12,7.01,4.89,10.42.3.57,1.16.07.86-.5-6.21-11.95-10.7-24.78-13.32-37.99-.74-3.75-1.33-7.54-1.77-11.34-.07-.57-.76-.67-.98-.13-1.08,2.65-2.17,5.31-2.78,8.12s-.6,5.52-.17,8.29,1.31,5.66,2.19,8.41,1.9,5.65,2.92,8.45c1.16,3.18,2.37,6.35,3.58,9.51.23.6,1.19.34.96-.27h0Z"/><path d="M540.31,271.6c-.29-2.75.62-5.37,1.54-7.92s1.75-5.24,2.04-8.03c.59-5.66-.49-11.36-1.91-16.82-.4-1.53-.88-3.04-1.26-4.58-.31-1.24-.55-2.76.37-3.8h-.71c2.99,3.36,5.64,7.12,7.29,11.33.84,2.14,1.41,4.39,1.63,6.68.25,2.54.16,5.09.1,7.64-.06,2.83-.06,5.66.44,8.45.11.63,1.08.36.96-.27-.93-5.19,0-10.48-.49-15.7-.43-4.57-2.13-8.87-4.57-12.74-1.37-2.16-2.95-4.18-4.65-6.09-.17-.19-.54-.19-.71,0-1.66,1.87-.7,4.51-.11,6.61.81,2.89,1.56,5.79,2.09,8.75s.81,5.94.66,8.93-.83,5.76-1.83,8.54-2.21,5.88-1.88,9.02c.07.63,1.07.64,1,0h0Z"/><path d="M380.69,268.88c3.43-6.66,6.05-13.74,7.73-21.04.83-3.6,1.44-7.25,1.82-10.92.33-3.13.44-6.3-.02-9.43-.49-3.36-1.73-6.6-4.09-9.1-.31-.33-.83-.06-.85.35-.19,3.57-.38,7.14-.57,10.71s-.31,7.01-.64,10.5c-.6,6.27-2.53,12.16-5.8,17.55-1.78,2.94-3.89,5.66-6.22,8.18-.44.47.27,1.18.71.71,4.16-4.49,7.62-9.66,9.83-15.39,1.14-2.95,1.87-6.01,2.28-9.14.45-3.53.57-7.11.76-10.66.22-4.15.44-8.3.67-12.45l-.85.35c4.27,4.54,4.44,11.33,3.87,17.19-.68,7.13-2.27,14.18-4.65,20.93-1.35,3.83-2.97,7.56-4.83,11.18-.29.57.57,1.08.86.5h0Z"/><path d="M342.08,260.05c-.13-5.65-1.3-11.22-1.45-16.87s.74-11.17,1.98-16.62c.7-3.1,1.52-6.16,2.34-9.23.15-.57-.6-.83-.91-.39-1.87,2.62-3.36,5.5-4.41,8.55-1.11,3.23-1.59,6.59-1.99,9.98-.42,3.55-1.01,7-2.02,10.44s-2.05,6.79-2.87,10.25c-.94,3.94-1.68,7.93-2.32,11.93-.1.63.86.9.96.27,1.13-7.06,2.7-13.96,4.78-20.8,1.02-3.36,1.8-6.7,2.24-10.19s.75-6.84,1.72-10.15c1.03-3.5,2.66-6.8,4.78-9.77l-.91-.39c-1.46,5.46-2.92,10.95-3.73,16.55-.4,2.77-.65,5.57-.65,8.37s.29,5.63.61,8.43c.37,3.21.78,6.41.85,9.64.01.64,1.02.64,1,0h0Z"/><path d="M306.42,255.22c-.06-5.24-.15-10.49-.16-15.73s.11-10.21.78-15.27c.39-2.9.97-5.77,1.79-8.57.13-.46-.51-.88-.84-.49-7.48,8.91-10.2,20.53-11.43,31.83-.39,3.54-.64,7.09-.9,10.64-.05.64.95.64,1,0,.84-11.57,1.73-23.54,7.03-34.08,1.38-2.74,3.04-5.34,5.01-7.69l-.84-.49c-2.91,9.98-2.66,20.48-2.54,30.77.03,3.02.07,6.05.1,9.07,0,.64,1.01.64,1,0h0Z"/><path d="M275.39,247.05c-.88-10.19,2.42-20.06,3.59-30.08.34-2.86.49-5.75.34-8.63-.03-.48-.68-.7-.93-.25-6.02,10.51-10.05,22.15-11.81,34.13-.49,3.36-.81,6.74-.95,10.14-.03.64.97.64,1,0,.5-11.97,3.25-23.84,8.09-34.8,1.35-3.07,2.87-6.06,4.53-8.97l-.93-.25c.53,10.2-2.83,20.03-3.82,30.09-.28,2.86-.36,5.74-.11,8.61.05.64,1.06.64,1,0h0Z"/><path d="M241.91,241.41c2.14-5.6,4.29-11.21,6.16-16.91,1.77-5.39,3.53-11.01,2.56-16.73-.54-3.17-1.76-6.17-2.98-9.14-.22-.53-.92-.44-.98.13-1.54,13.38-4.99,26.53-10.21,38.94-1.48,3.53-3.12,6.99-4.88,10.39-.3.57.57,1.08.86.5,6.28-12.1,10.84-25.08,13.47-38.46.74-3.77,1.32-7.56,1.76-11.38l-.98.13c1.05,2.58,2.12,5.17,2.73,7.89s.62,5.71.12,8.57-1.34,5.49-2.21,8.18-1.88,5.57-2.89,8.33c-1.14,3.11-2.32,6.19-3.5,9.28-.23.6.74.86.96.27h0Z"/><path d="M430.87,272.54c.29-2.76-.58-5.41-1.5-7.98-1-2.76-1.86-5.49-2.13-8.44-.53-5.98.77-11.96,2.35-17.69.65-2.36,2.11-5.6.21-7.75-.17-.19-.54-.19-.71,0-3,3.37-5.63,7.1-7.35,11.29-.85,2.08-1.46,4.25-1.75,6.48-.34,2.61-.29,5.24-.23,7.86.07,2.97.14,5.96-.39,8.9-.11.63.85.9.96.27.9-5.01.13-10.09.46-15.14.31-4.63,1.94-8.97,4.39-12.89,1.35-2.16,2.91-4.17,4.61-6.07h-.71c.81.92.71,2.22.47,3.34-.28,1.31-.71,2.6-1.06,3.89-.76,2.82-1.44,5.66-1.88,8.55s-.62,5.58-.43,8.38.82,5.42,1.75,8.02c1.03,2.89,2.25,5.83,1.92,8.96-.07.64.93.63,1,0h0Z"/><path d="M498.95,263.66c-3.76-7.84-4.31-17.12-1.52-25.36.69-2.02,1.55-4.35,3.59-5.36l-.75-.43c.73,10.21,1.8,20.39,3.21,30.53.4,2.9.84,5.8,1.3,8.69.1.63,1.06.36.96-.27-1.6-10.06-2.86-20.17-3.78-30.31-.26-2.88-.49-5.75-.7-8.63-.03-.39-.4-.6-.75-.43-1.8.88-2.8,2.7-3.52,4.49-.85,2.13-1.46,4.36-1.84,6.62-.76,4.51-.65,9.15.35,13.61.57,2.54,1.44,5.01,2.56,7.35.28.58,1.14.07.86-.5h0Z"/><line class="dimension" x1="496.06" y1="597.88" x2="496.06" y2="279.96"/></g><g id="_x34_.OUTLINE_MAIN"><path class="annotation" d="M494.16,597.88l-21.45,114.06c-31.08,3.98-88.38-8.35-157.87-22.79-81.12-16.85-199.34-53.52-199.34-53.52,46.85-287.76,95.18-393.31,95.18-393.31l17.85-60.23h535.06s17.85,60.23,17.85,60.23c0,0,48.33,105.55,95.18,393.31,0,0-118.22,36.68-199.34,53.52-69.49,14.43-126.79,26.77-157.87,22.79l-21.45-114.06c-.4-2.11-3.41-2.11-3.81,0Z"/></g><g id="_x35_.STITCHING"><path class="seam" d="M216.74,225.91s289.7,81.1,558.3.36"/><path class="seam" d="M225.67,198.65s273.61,81.57,542.21.83"/><path class="seam" d="M513.58,682.23s31.47-33.26,105.49-48.5c147.6-30.38,168.85-20.2,182.25-37.15,15.39-19.47,22.29-56.61,31.19-90.09"/><polyline class="seam" points="713.68 265.52 812.34 461.95 820.2 459.51"/><path class="seam" d="M480.37,682.23s-31.47-33.26-105.49-48.5c-147.6-30.38-168.85-20.2-182.25-37.15-15.39-19.47-22.42-51.36-31.33-84.84"/><line class="seam" x1="283.92" y1="259.62" x2="181.61" y2="461.95"/></g><g id="_x36_.TRIMS__x26__LABELS"><g><path class="outline" d="M518.2,249.73c0-5.94,4.83-10.76,10.76-10.76,5.94,0,10.77,4.83,10.77,10.76,0,5.94-4.83,10.77-10.77,10.77-5.94,0-10.76-4.83-10.76-10.77ZM524.49,249.73c0,2.47,2.01,4.48,4.48,4.48,2.47,0,4.48-2.01,4.48-4.48,0-2.47-2.01-4.48-4.48-4.48s-4.48,2.01-4.48,4.48Z"/><path class="stitching" d="M541.54,511.58l.81.13c1.84.29,3.55-1.13,3.81-3.15l2.52-19.65-7.48-1.16-2.52,19.65c-.26,2.03,1.02,3.9,2.87,4.19Z"/><path class="outline" d="M545.25,490.14c2.37,0,4.41-1.96,4.68-4.61,2.29-22.3-3.88-54.13-10.41-87.81-2.59-13.33-5.26-27.12-7.4-40.39-7.21-44.65.91-103.91,1-104.5.4-2.83-1.37-5.48-3.94-5.92-2.58-.43-4.98,1.51-5.38,4.34-.35,2.49-8.45,61.53-.96,107.9,2.17,13.44,4.86,27.31,7.46,40.73,6.37,32.84,12.38,63.86,10.27,84.49-.29,2.85,1.57,5.41,4.16,5.74.18.02.36.03.53.03Z"/></g><g><path class="outline" d="M460.55,260.5c-5.94,0-10.77-4.83-10.77-10.77s4.83-10.76,10.77-10.76c5.94,0,10.76,4.83,10.76,10.76s-4.83,10.77-10.76,10.77ZM460.55,245.25c-2.47,0-4.48,2.01-4.48,4.48s2.01,4.48,4.48,4.48c2.47,0,4.48-2.01,4.48-4.48s-2.01-4.48-4.48-4.48Z"/><path class="stitching" d="M447.98,511.58l-.81.13c-1.84.29-3.55-1.13-3.81-3.15l-2.52-19.65,7.48-1.16,2.52,19.65c.26,2.03-1.02,3.9-2.87,4.19Z"/><path class="outline" d="M444.26,490.14c-2.37,0-4.41-1.96-4.68-4.61-2.29-22.3,3.88-54.13,10.41-87.81,2.59-13.33,5.26-27.12,7.4-40.39,7.21-44.65-.91-103.91-1-104.5-.4-2.83,1.37-5.48,3.94-5.92,2.58-.43,4.98,1.51,5.38,4.34.35,2.49,8.45,61.53.96,107.9-2.17,13.44-4.86,27.31-7.46,40.73-6.37,32.84-12.38,63.86-10.27,84.49.29,2.85-1.57,5.41-4.16,5.74-.18.02-.36.03-.53.03Z"/></g></g><g id="_x39_.ANNOTATIONS"><g><path d="M653.53,868.82c-1.55,0-3.04-.18-4.48-.53s-2.63-.81-3.56-1.37l2-4.53c.88.51,1.86.92,2.94,1.23s2.13.46,3.15.46c.6,0,1.07-.04,1.41-.12.34-.08.59-.19.75-.34s.24-.33.24-.54c0-.33-.18-.6-.55-.79s-.86-.36-1.46-.49c-.61-.13-1.27-.27-1.99-.42-.72-.15-1.44-.35-2.17-.59-.73-.25-1.4-.57-2-.97-.61-.4-1.09-.94-1.46-1.59-.37-.66-.55-1.48-.55-2.46,0-1.14.32-2.18.96-3.12.64-.94,1.6-1.69,2.87-2.25,1.27-.56,2.86-.84,4.76-.84,1.25,0,2.48.13,3.69.4,1.21.26,2.3.67,3.27,1.21l-1.87,4.51c-.91-.46-1.8-.8-2.65-1.03-.85-.23-1.68-.34-2.49-.34-.6,0-1.07.05-1.42.16-.35.11-.6.25-.75.42-.15.18-.22.37-.22.58,0,.32.18.57.55.75s.86.34,1.46.46c.61.12,1.27.25,2,.4.73.14,1.45.33,2.17.58.72.25,1.38.57,1.99.98.61.4,1.09.93,1.46,1.58.37.65.55,1.46.55,2.42,0,1.12-.32,2.16-.96,3.1-.64.94-1.59,1.7-2.86,2.27-1.26.57-2.85.86-4.77.86Z"/><path d="M661.96,868.39l8.06-18.44h6.11l8.06,18.44h-6.43l-5.96-15.49h2.42l-5.96,15.49h-6.32ZM666.76,865.18l1.58-4.48h8.48l1.58,4.48h-11.65Z"/><path d="M688.28,868.39v-13.62h-5.4v-4.82h17.02v4.82h-5.4v13.62h-6.22Z"/><path d="M709.94,868.82c-2.83,0-5.03-.76-6.61-2.29-1.58-1.53-2.37-3.67-2.37-6.43v-10.14h6.22v9.96c0,1.41.25,2.4.76,2.99.51.59,1.19.88,2.06.88s1.57-.29,2.07-.88c.5-.59.75-1.58.75-2.99v-9.96h6.11v10.14c0,2.76-.79,4.9-2.37,6.43s-3.79,2.29-6.61,2.29Z"/><path d="M725.38,868.39v-13.62h-5.4v-4.82h17.02v4.82h-5.4v13.62h-6.22Z"/><path d="M753.39,868.82c-1.55,0-3.04-.18-4.48-.53s-2.63-.81-3.56-1.37l2-4.53c.88.51,1.86.92,2.94,1.23s2.13.46,3.15.46c.6,0,1.07-.04,1.41-.12.34-.08.59-.19.75-.34s.24-.33.24-.54c0-.33-.18-.6-.55-.79s-.86-.36-1.46-.49c-.61-.13-1.27-.27-1.99-.42-.72-.15-1.44-.35-2.17-.59-.73-.25-1.4-.57-2-.97-.61-.4-1.09-.94-1.46-1.59-.37-.66-.55-1.48-.55-2.46,0-1.14.32-2.18.96-3.12.64-.94,1.6-1.69,2.87-2.25,1.27-.56,2.86-.84,4.76-.84,1.25,0,2.48.13,3.69.4,1.21.26,2.3.67,3.27,1.21l-1.87,4.51c-.91-.46-1.8-.8-2.65-1.03-.85-.23-1.68-.34-2.49-.34-.6,0-1.07.05-1.42.16-.35.11-.6.25-.75.42-.15.18-.22.37-.22.58,0,.32.18.57.55.75s.86.34,1.46.46c.61.12,1.27.25,2,.4.73.14,1.45.33,2.17.58.72.25,1.38.57,1.99.98.61.4,1.09.93,1.46,1.58.37.65.55,1.46.55,2.42,0,1.12-.32,2.16-.96,3.1-.64.94-1.59,1.7-2.86,2.27-1.26.57-2.85.86-4.77.86Z"/><path d="M772.65,868.82c-2.83,0-5.03-.76-6.61-2.29-1.58-1.53-2.37-3.67-2.37-6.43v-10.14h6.22v9.96c0,1.41.25,2.4.76,2.99.51.59,1.19.88,2.06.88s1.57-.29,2.07-.88c.5-.59.75-1.58.75-2.99v-9.96h6.11v10.14c0,2.76-.79,4.9-2.37,6.43s-3.79,2.29-6.61,2.29Z"/><path d="M784.49,868.39v-18.44h8.88c1.72,0,3.21.28,4.47.84,1.26.56,2.23,1.37,2.91,2.41.68,1.04,1.03,2.28,1.03,3.7s-.34,2.65-1.03,3.69c-.69,1.04-1.66,1.84-2.91,2.41-1.26.57-2.74.86-4.47.86h-5.43l2.77-2.66v7.19h-6.22ZM790.7,861.89l-2.77-2.82h5.03c.86,0,1.5-.19,1.91-.58s.62-.91.62-1.58-.21-1.19-.62-1.58c-.41-.39-1.05-.58-1.91-.58h-5.03l2.77-2.82v9.96Z"/><path d="M803.8,868.39v-18.44h8.88c1.72,0,3.21.28,4.47.84,1.26.56,2.23,1.37,2.91,2.41.68,1.04,1.03,2.28,1.03,3.7s-.34,2.65-1.03,3.69c-.69,1.04-1.66,1.84-2.91,2.41-1.26.57-2.74.86-4.47.86h-5.43l2.77-2.66v7.19h-6.22ZM810.02,861.89l-2.77-2.82h5.03c.86,0,1.5-.19,1.91-.58s.62-.91.62-1.58-.21-1.19-.62-1.58c-.41-.39-1.05-.58-1.91-.58h-5.03l2.77-2.82v9.96Z"/><path d="M823.11,868.39v-18.44h6.22v13.62h8.33v4.82h-14.54Z"/><path d="M842.27,868.39v-8.09l1.42,3.71-8.38-14.07h6.56l5.67,9.62h-3.82l5.72-9.62h6.01l-8.33,14.07,1.37-3.71v8.09h-6.22Z"/><path d="M873.68,868.82c-1.48,0-2.84-.23-4.1-.7-1.26-.47-2.35-1.13-3.27-1.99-.92-.86-1.64-1.88-2.15-3.06-.51-1.18-.76-2.48-.76-3.9s.25-2.72.76-3.9c.51-1.18,1.23-2.2,2.15-3.06.92-.86,2.01-1.52,3.27-1.99,1.26-.46,2.62-.7,4.1-.7,1.81,0,3.41.32,4.81.95,1.4.63,2.55,1.55,3.46,2.74l-3.93,3.5c-.54-.69-1.15-1.22-1.8-1.59-.66-.38-1.4-.57-2.23-.57-.65,0-1.24.11-1.77.32-.53.21-.98.52-1.36.92-.38.4-.67.89-.88,1.46-.21.57-.32,1.21-.32,1.91s.11,1.34.32,1.91c.21.57.5,1.06.88,1.46.38.4.83.71,1.36.92.53.21,1.12.32,1.77.32.83,0,1.57-.19,2.23-.57.66-.38,1.26-.91,1.8-1.59l3.93,3.5c-.91,1.18-2.07,2.09-3.46,2.73-1.4.64-3,.96-4.81.96Z"/><path d="M892.57,868.82c-1.49,0-2.88-.24-4.15-.71-1.27-.47-2.38-1.15-3.31-2.02-.93-.87-1.66-1.89-2.17-3.07-.52-1.18-.78-2.46-.78-3.85s.26-2.69.78-3.86c.52-1.17,1.24-2.19,2.17-3.06.93-.87,2.03-1.54,3.31-2.02,1.27-.47,2.66-.71,4.15-.71s2.9.24,4.16.71c1.27.47,2.36,1.15,3.29,2.02.93.87,1.66,1.89,2.17,3.06.52,1.17.78,2.46.78,3.86s-.26,2.67-.78,3.85-1.24,2.2-2.17,3.07-2.03,1.54-3.29,2.02c-1.26.47-2.65.71-4.16.71ZM892.57,863.78c.58,0,1.12-.11,1.62-.32.5-.21.94-.51,1.32-.91.38-.4.67-.88.88-1.45.21-.57.32-1.22.32-1.94s-.11-1.37-.32-1.94c-.21-.57-.51-1.05-.88-1.45-.38-.4-.82-.7-1.32-.91-.5-.21-1.04-.32-1.62-.32s-1.12.11-1.62.32-.94.51-1.32.91c-.38.4-.67.88-.88,1.45-.21.57-.32,1.22-.32,1.94s.11,1.37.32,1.94c.21.57.5,1.05.88,1.45.38.39.82.7,1.32.91.5.21,1.04.32,1.62.32Z"/><path d="M907.22,868.66c-.98,0-1.81-.32-2.48-.96-.67-.64-1-1.46-1-2.46s.33-1.83,1-2.45c.67-.62,1.49-.92,2.48-.92s1.81.31,2.48.92c.67.62,1,1.43,1,2.45s-.33,1.82-1,2.46c-.67.64-1.49.96-2.48.96Z"/></g><g><path d="M85.44,938.72v-16.83h8.3c1.88,0,3.53.34,4.95,1.02,1.43.68,2.54,1.65,3.34,2.9.8,1.25,1.2,2.75,1.2,4.5s-.4,3.23-1.2,4.49c-.8,1.26-1.92,2.23-3.34,2.91-1.43.68-3.08,1.02-4.95,1.02h-8.3ZM91.12,934.3h2.38c.8,0,1.5-.15,2.1-.46.6-.3,1.07-.76,1.41-1.36.34-.6.5-1.33.5-2.18s-.17-1.59-.5-2.19c-.34-.59-.81-1.04-1.41-1.35-.6-.3-1.3-.46-2.1-.46h-2.38v7.99Z"/><path d="M108.96,938.72l-5.39-16.83h5.84l4.35,14.21h-2.93l4.62-14.21h5.22l4.3,14.21h-2.81l4.55-14.21h5.39l-5.39,16.83h-6.08l-3.51-11.64h1.64l-3.7,11.64h-6.08Z"/><path d="M141.84,939.11c-1.36,0-2.62-.21-3.76-.64-1.15-.42-2.14-1.03-2.98-1.82-.84-.79-1.5-1.72-1.96-2.79-.47-1.07-.7-2.26-.7-3.56s.23-2.48.7-3.56c.46-1.07,1.12-2,1.97-2.79.85-.79,1.86-1.39,3.02-1.82,1.16-.42,2.44-.64,3.84-.64,1.67,0,3.15.28,4.46.84,1.31.56,2.38,1.36,3.23,2.41l-3.63,3.2c-.53-.61-1.1-1.07-1.72-1.38-.62-.31-1.3-.47-2.06-.47-.62,0-1.19.1-1.7.29-.51.19-.93.47-1.29.84-.35.37-.63.81-.82,1.32-.19.51-.29,1.1-.29,1.75s.1,1.2.29,1.72c.19.52.46.97.82,1.33.35.37.77.65,1.26.85.49.2,1.04.3,1.65.3.64,0,1.27-.11,1.88-.32.61-.22,1.26-.59,1.95-1.12l3.17,3.9c-1.03.69-2.2,1.22-3.51,1.59-1.31.37-2.59.55-3.82.55ZM149.17,936.97l-4.93-.72v-6.4h4.93v7.12Z"/><path d="M153.89,931.53c-.9,0-1.65-.29-2.26-.88-.61-.59-.91-1.33-.91-2.25s.3-1.68.91-2.24c.61-.56,1.36-.84,2.26-.84s1.65.28,2.26.84c.61.56.91,1.31.91,2.24s-.3,1.66-.91,2.25c-.61.58-1.36.88-2.26.88ZM153.89,938.96c-.9,0-1.65-.29-2.26-.88-.61-.58-.91-1.33-.91-2.25s.3-1.68.91-2.24c.61-.56,1.36-.84,2.26-.84s1.65.28,2.26.84c.61.56.91,1.31.91,2.24s-.3,1.66-.91,2.25c-.61.59-1.36.88-2.26.88Z"/><path d="M171.25,939.11c-1.15,0-2.33-.13-3.51-.38-1.19-.26-2.23-.63-3.13-1.13l1.92-4.19c.72.42,1.48.73,2.27.93.79.2,1.54.3,2.25.3.64,0,1.17-.11,1.58-.32s.61-.54.61-.97c0-.37-.15-.65-.46-.85-.3-.2-.82-.3-1.54-.3h-2.24v-3.49l4.35-4.42.5,1.9h-8.39v-4.28h12.55v3.49l-4.35,4.42-2.72-1.54h1.49c2.12,0,3.73.47,4.83,1.42,1.11.95,1.66,2.17,1.66,3.66,0,.96-.27,1.88-.81,2.77s-1.37,1.6-2.5,2.16c-1.13.56-2.59.84-4.39.84Z"/><path d="M187.84,939.11c-1.49,0-2.81-.34-3.96-1.03-1.15-.69-2.04-1.69-2.69-3.01s-.97-2.9-.97-4.76.32-3.45.97-4.76c.65-1.31,1.55-2.32,2.69-3.01,1.15-.69,2.46-1.03,3.96-1.03s2.81.34,3.96,1.03,2.04,1.69,2.69,3.01c.65,1.32.97,2.9.97,4.76s-.32,3.45-.97,4.76-1.55,2.32-2.69,3.01-2.46,1.03-3.96,1.03ZM187.84,934.56c.37,0,.7-.13.99-.38.29-.26.52-.7.69-1.32s.25-1.47.25-2.55-.08-1.94-.25-2.56-.4-1.05-.69-1.31c-.29-.26-.62-.38-.99-.38s-.7.13-.99.38c-.29.26-.52.69-.69,1.31s-.25,1.47-.25,2.56.08,1.92.25,2.55.4,1.07.69,1.32c.29.26.62.38.99.38Z"/><path d="M196.6,938.72v-3.49l6.08-5.63c.38-.37.67-.69.85-.96.18-.27.31-.52.37-.73.06-.22.1-.42.1-.61,0-.42-.14-.74-.41-.97-.27-.23-.68-.35-1.23-.35-.5,0-.97.13-1.42.4s-.8.65-1.06,1.17l-4.28-2.14c.61-1.15,1.52-2.09,2.74-2.81,1.22-.72,2.73-1.08,4.55-1.08,1.33,0,2.51.22,3.54.65,1.03.43,1.83,1.04,2.41,1.83.58.79.87,1.72.87,2.79,0,.55-.07,1.09-.2,1.64s-.41,1.12-.83,1.72c-.42.6-1.03,1.27-1.85,2.01l-4.57,4.16-.89-1.97h8.73v4.4h-13.49Z"/><path d="M211.63,933.82v-4.09h7.22v4.09h-7.22Z"/><path d="M227.34,939.11c-1.41,0-2.77-.16-4.09-.48-1.31-.32-2.4-.74-3.25-1.25l1.83-4.14c.8.46,1.7.84,2.68,1.12.99.28,1.94.42,2.87.42.54,0,.97-.04,1.29-.11.31-.07.54-.18.69-.31.14-.14.22-.3.22-.49,0-.3-.17-.54-.51-.72-.34-.18-.78-.32-1.33-.44s-1.16-.25-1.82-.38c-.66-.14-1.32-.32-1.98-.54s-1.27-.52-1.83-.89c-.55-.37-1-.85-1.33-1.46-.34-.6-.5-1.35-.5-2.25,0-1.04.29-1.99.88-2.85.58-.86,1.46-1.54,2.62-2.06,1.16-.51,2.61-.77,4.34-.77,1.14,0,2.26.12,3.37.36,1.11.24,2.1.61,2.98,1.11l-1.71,4.11c-.83-.42-1.64-.73-2.42-.94-.78-.21-1.54-.31-2.27-.31-.55,0-.98.05-1.3.14-.32.1-.55.22-.69.38s-.2.34-.2.53c0,.29.17.52.51.69.34.17.78.31,1.33.42.55.11,1.16.23,1.83.36.67.13,1.33.3,1.98.53.66.23,1.26.52,1.82.89s1,.85,1.33,1.44c.34.59.5,1.33.5,2.21,0,1.03-.29,1.97-.88,2.83-.59.86-1.46,1.55-2.61,2.07-1.15.52-2.61.78-4.35.78Z"/><path d="M236.81,933.82v-4.09h7.22v4.09h-7.22Z"/><path d="M257.95,938.72l-5.39-16.83h5.84l4.35,14.21h-2.93l4.62-14.21h5.22l4.3,14.21h-2.81l4.55-14.21h5.39l-5.39,16.83h-6.08l-3.51-11.64h1.64l-3.7,11.64h-6.08Z"/><path d="M290.92,939.11c-1.36,0-2.63-.22-3.79-.65s-2.17-1.05-3.02-1.84c-.85-.79-1.51-1.73-1.98-2.8s-.71-2.24-.71-3.51.24-2.46.71-3.52,1.13-2,1.98-2.79c.85-.79,1.86-1.41,3.02-1.84s2.43-.65,3.79-.65,2.65.22,3.8.65,2.16,1.05,3.01,1.84c.85.79,1.51,1.72,1.98,2.79.47,1.07.71,2.24.71,3.52s-.24,2.44-.71,3.51c-.47,1.07-1.13,2.01-1.98,2.8-.85.79-1.85,1.41-3.01,1.84s-2.42.65-3.8.65ZM290.92,934.51c.53,0,1.02-.1,1.48-.29s.86-.47,1.2-.83c.34-.36.61-.8.81-1.32.19-.52.29-1.11.29-1.77s-.1-1.25-.29-1.77c-.19-.52-.46-.96-.81-1.32-.35-.36-.75-.64-1.2-.83s-.95-.29-1.48-.29-1.02.1-1.48.29-.86.47-1.2.83c-.34.36-.61.8-.81,1.32-.19.52-.29,1.11-.29,1.77s.1,1.25.29,1.77c.19.52.46.96.81,1.32s.75.64,1.2.83.95.29,1.48.29Z"/><path d="M302.49,938.72v-16.83h4.67l6.73,10.99h-2.45l6.54-10.99h4.67l.05,16.83h-5.17l-.05-9.04h.82l-4.47,7.53h-2.5l-4.67-7.53h1.01v9.04h-5.17Z"/><path d="M325.43,938.72v-16.83h13.68v4.28h-8.1v8.27h8.42v4.28h-14ZM330.63,932.23v-4.09h7.5v4.09h-7.5Z"/><path d="M341.62,938.72v-16.83h4.67l8.56,10.25h-2.16v-10.25h5.53v16.83h-4.67l-8.56-10.25h2.16v10.25h-5.53Z"/><path d="M360.43,930.45l2.02-6.76.79,3.03c-.93,0-1.69-.27-2.28-.81-.59-.54-.89-1.27-.89-2.2s.3-1.7.9-2.25c.6-.55,1.36-.83,2.27-.83s1.67.28,2.27.83c.6.55.9,1.3.9,2.25,0,.26-.02.51-.06.77-.04.26-.12.56-.25.93-.13.36-.34.85-.63,1.46l-1.68,3.58h-3.37Z"/><path d="M374.78,939.11c-1.41,0-2.77-.16-4.09-.48-1.31-.32-2.4-.74-3.25-1.25l1.83-4.14c.8.46,1.7.84,2.68,1.12.99.28,1.94.42,2.87.42.54,0,.97-.04,1.29-.11.31-.07.54-.18.69-.31.14-.14.22-.3.22-.49,0-.3-.17-.54-.51-.72-.34-.18-.78-.32-1.33-.44s-1.16-.25-1.82-.38c-.66-.14-1.32-.32-1.98-.54s-1.27-.52-1.83-.89c-.55-.37-1-.85-1.33-1.46-.34-.6-.5-1.35-.5-2.25,0-1.04.29-1.99.88-2.85.58-.86,1.46-1.54,2.62-2.06,1.16-.51,2.61-.77,4.34-.77,1.14,0,2.26.12,3.37.36,1.11.24,2.1.61,2.98,1.11l-1.71,4.11c-.83-.42-1.64-.73-2.42-.94-.78-.21-1.54-.31-2.27-.31-.55,0-.98.05-1.3.14-.32.1-.55.22-.69.38s-.2.34-.2.53c0,.29.17.52.51.69.34.17.78.31,1.33.42.55.11,1.16.23,1.83.36.67.13,1.33.3,1.98.53.66.23,1.26.52,1.82.89s1,.85,1.33,1.44c.34.59.5,1.33.5,2.21,0,1.03-.29,1.97-.88,2.83-.59.86-1.46,1.55-2.61,2.07-1.15.52-2.61.78-4.35.78Z"/><path d="M400.23,939.11c-1.35,0-2.59-.21-3.74-.64-1.15-.42-2.14-1.03-2.98-1.82-.84-.79-1.5-1.72-1.96-2.79-.47-1.07-.7-2.26-.7-3.56s.23-2.48.7-3.56c.46-1.07,1.12-2,1.96-2.79s1.84-1.39,2.98-1.82c1.15-.42,2.39-.64,3.74-.64,1.65,0,3.11.29,4.39.87,1.27.58,2.33,1.41,3.16,2.5l-3.58,3.2c-.5-.62-1.05-1.11-1.65-1.46-.6-.34-1.28-.52-2.03-.52-.59,0-1.13.1-1.61.29s-.89.47-1.24.84c-.34.37-.61.81-.81,1.33-.19.52-.29,1.1-.29,1.74s.1,1.22.29,1.74c.19.52.46.97.81,1.33s.76.65,1.24.84,1.02.29,1.61.29c.75,0,1.43-.17,2.03-.52.6-.34,1.15-.83,1.65-1.46l3.58,3.2c-.83,1.07-1.89,1.9-3.16,2.49-1.27.58-2.74.88-4.39.88Z"/><path d="M417.47,939.11c-1.36,0-2.63-.22-3.79-.65s-2.17-1.05-3.02-1.84c-.85-.79-1.51-1.73-1.98-2.8s-.71-2.24-.71-3.51.24-2.46.71-3.52,1.13-2,1.98-2.79c.85-.79,1.86-1.41,3.02-1.84s2.43-.65,3.79-.65,2.65.22,3.8.65,2.16,1.05,3.01,1.84c.85.79,1.51,1.72,1.98,2.79.47,1.07.71,2.24.71,3.52s-.24,2.44-.71,3.51c-.47,1.07-1.13,2.01-1.98,2.8-.85.79-1.85,1.41-3.01,1.84s-2.42.65-3.8.65ZM417.47,934.51c.53,0,1.02-.1,1.48-.29s.86-.47,1.2-.83c.34-.36.61-.8.81-1.32.19-.52.29-1.11.29-1.77s-.1-1.25-.29-1.77c-.19-.52-.46-.96-.81-1.32-.35-.36-.75-.64-1.2-.83s-.95-.29-1.48-.29-1.02.1-1.48.29-.86.47-1.2.83c-.34.36-.61.8-.81,1.32-.19.52-.29,1.11-.29,1.77s.1,1.25.29,1.77c.19.52.46.96.81,1.32s.75.64,1.2.83.95.29,1.48.29Z"/><path d="M426.97,938.72l7.36-16.83h5.58l7.36,16.83h-5.87l-5.44-14.14h2.21l-5.44,14.14h-5.77ZM431.35,935.79l1.44-4.09h7.74l1.44,4.09h-10.63Z"/><path d="M454.46,939.11c-1.41,0-2.77-.16-4.09-.48-1.31-.32-2.4-.74-3.25-1.25l1.83-4.14c.8.46,1.7.84,2.68,1.12.99.28,1.94.42,2.87.42.54,0,.97-.04,1.29-.11.31-.07.54-.18.69-.31.14-.14.22-.3.22-.49,0-.3-.17-.54-.51-.72-.34-.18-.78-.32-1.33-.44s-1.16-.25-1.82-.38c-.66-.14-1.32-.32-1.98-.54s-1.27-.52-1.83-.89c-.55-.37-1-.85-1.33-1.46-.34-.6-.5-1.35-.5-2.25,0-1.04.29-1.99.88-2.85.58-.86,1.46-1.54,2.62-2.06,1.16-.51,2.61-.77,4.34-.77,1.14,0,2.26.12,3.37.36,1.11.24,2.1.61,2.98,1.11l-1.71,4.11c-.83-.42-1.64-.73-2.42-.94-.78-.21-1.54-.31-2.27-.31-.55,0-.98.05-1.3.14-.32.1-.55.22-.69.38s-.2.34-.2.53c0,.29.17.52.51.69.34.17.78.31,1.33.42.55.11,1.16.23,1.83.36.67.13,1.33.3,1.98.53.66.23,1.26.52,1.82.89s1,.85,1.33,1.44c.34.59.5,1.33.5,2.21,0,1.03-.29,1.97-.88,2.83-.59.86-1.46,1.55-2.61,2.07-1.15.52-2.61.78-4.35.78Z"/><path d="M467.4,938.72v-12.43h-4.93v-4.4h15.54v4.4h-4.93v12.43h-5.68Z"/><path d="M476.8,938.72l7.36-16.83h5.58l7.36,16.83h-5.87l-5.44-14.14h2.21l-5.44,14.14h-5.77ZM481.18,935.79l1.44-4.09h7.74l1.44,4.09h-10.63Z"/><path d="M498.02,938.72v-16.83h5.68v12.43h7.6v4.4h-13.28Z"/><path d="M526.35,939.11c-1.41,0-2.77-.16-4.09-.48-1.32-.32-2.4-.74-3.25-1.25l1.83-4.14c.8.46,1.7.84,2.68,1.12.99.28,1.94.42,2.87.42.54,0,.97-.04,1.29-.11s.54-.18.69-.31c.14-.14.22-.3.22-.49,0-.3-.17-.54-.5-.72-.34-.18-.78-.32-1.33-.44-.55-.12-1.16-.25-1.82-.38-.66-.14-1.32-.32-1.98-.54-.67-.22-1.28-.52-1.83-.89-.55-.37-1-.85-1.33-1.46-.34-.6-.5-1.35-.5-2.25,0-1.04.29-1.99.88-2.85.58-.86,1.46-1.54,2.62-2.06,1.16-.51,2.61-.77,4.34-.77,1.14,0,2.26.12,3.37.36,1.11.24,2.1.61,2.98,1.11l-1.71,4.11c-.83-.42-1.64-.73-2.42-.94-.78-.21-1.54-.31-2.27-.31-.54,0-.98.05-1.3.14-.32.1-.55.22-.68.38-.14.16-.21.34-.21.53,0,.29.17.52.5.69.34.17.78.31,1.33.42.55.11,1.16.23,1.83.36.67.13,1.33.3,1.98.53.66.23,1.26.52,1.82.89s1,.85,1.33,1.44c.34.59.5,1.33.5,2.21,0,1.03-.29,1.97-.88,2.83s-1.46,1.55-2.61,2.07c-1.15.52-2.61.78-4.35.78Z"/><path d="M535.87,938.72v-16.83h5.68v16.83h-5.68ZM541.16,932.52v-4.67h6.01v4.67h-6.01ZM546.79,938.72v-16.83h5.68v16.83h-5.68Z"/><path d="M564.03,939.11c-1.36,0-2.63-.22-3.79-.65s-2.17-1.05-3.02-1.84-1.51-1.73-1.98-2.8c-.47-1.07-.71-2.24-.71-3.51s.24-2.46.71-3.52c.47-1.07,1.13-2,1.98-2.79.85-.79,1.86-1.41,3.02-1.84s2.42-.65,3.79-.65,2.65.22,3.8.65,2.16,1.05,3.01,1.84c.85.79,1.51,1.72,1.98,2.79s.71,2.24.71,3.52-.24,2.44-.71,3.51-1.13,2.01-1.98,2.8c-.85.79-1.85,1.41-3.01,1.84s-2.42.65-3.8.65ZM564.03,934.51c.53,0,1.02-.1,1.48-.29.46-.19.86-.47,1.2-.83s.61-.8.81-1.32c.19-.52.29-1.11.29-1.77s-.1-1.25-.29-1.77c-.19-.52-.46-.96-.81-1.32-.34-.36-.75-.64-1.2-.83-.46-.19-.95-.29-1.48-.29s-1.02.1-1.48.29-.86.47-1.2.83c-.34.36-.61.8-.81,1.32-.19.52-.29,1.11-.29,1.77s.1,1.25.29,1.77c.19.52.46.96.81,1.32s.75.64,1.2.83.95.29,1.48.29Z"/><path d="M575.6,938.72v-16.83h7.86c2.58,0,4.54.57,5.89,1.71,1.35,1.14,2.02,2.69,2.02,4.64,0,1.3-.31,2.42-.94,3.35-.63.94-1.51,1.66-2.66,2.15s-2.5.75-4.08.75h-4.95l2.53-2.33v6.57h-5.68ZM581.28,932.78l-2.53-2.57h4.59c.79,0,1.37-.18,1.74-.53s.57-.83.57-1.44-.19-1.09-.57-1.44-.96-.53-1.74-.53h-4.59l2.53-2.57v9.09ZM585.68,938.72l-4.14-6.13h6.01l4.18,6.13h-6.06Z"/><path d="M596.93,938.72v-12.43h-4.93v-4.4h15.54v4.4h-4.93v12.43h-5.68Z"/></g><g><path d="M687.49,938.52v-18.44h14.99v4.69h-8.77v13.75h-6.22ZM693.28,932.62v-4.69h8.12v4.69h-8.12Z"/><path d="M704.45,938.52v-18.44h8.62c2.83,0,4.98.62,6.46,1.87,1.48,1.25,2.21,2.94,2.21,5.09,0,1.42-.34,2.65-1.03,3.68-.69,1.03-1.66,1.81-2.91,2.36s-2.74.82-4.47.82h-5.43l2.77-2.56v7.19h-6.22ZM710.67,932.01l-2.77-2.82h5.03c.86,0,1.5-.19,1.91-.58s.62-.91.62-1.58-.21-1.19-.62-1.58c-.41-.39-1.05-.58-1.91-.58h-5.03l2.77-2.82v9.96ZM715.49,938.52l-4.53-6.72h6.59l4.58,6.72h-6.64Z"/><path d="M733.75,938.94c-1.49,0-2.88-.24-4.15-.71-1.27-.47-2.38-1.15-3.31-2.02-.93-.87-1.66-1.89-2.17-3.07-.52-1.18-.78-2.46-.78-3.85s.26-2.69.78-3.86c.52-1.17,1.24-2.19,2.17-3.06.93-.87,2.03-1.54,3.31-2.02,1.27-.47,2.66-.71,4.15-.71s2.9.24,4.16.71c1.27.47,2.36,1.15,3.29,2.02.93.87,1.66,1.89,2.17,3.06.52,1.17.78,2.46.78,3.86s-.26,2.67-.78,3.85-1.24,2.2-2.17,3.07-2.03,1.54-3.29,2.02c-1.26.47-2.65.71-4.16.71ZM733.75,933.91c.58,0,1.12-.11,1.62-.32.5-.21.94-.51,1.32-.91.38-.4.67-.88.88-1.45.21-.57.32-1.22.32-1.94s-.11-1.37-.32-1.94c-.21-.57-.51-1.05-.88-1.45-.38-.4-.82-.7-1.32-.91-.5-.21-1.04-.32-1.62-.32s-1.12.11-1.62.32-.94.51-1.32.91c-.38.4-.67.88-.88,1.45-.21.57-.32,1.22-.32,1.94s.11,1.37.32,1.94c.21.57.5,1.05.88,1.45.38.39.82.7,1.32.91.5.21,1.04.32,1.62.32Z"/><path d="M746.43,938.52v-18.44h5.11l9.38,11.22h-2.37v-11.22h6.06v18.44h-5.11l-9.38-11.22h2.37v11.22h-6.06Z"/><path d="M771.62,938.52v-13.62h-5.4v-4.82h17.02v4.82h-5.4v13.62h-6.22Z"/><path d="M798.55,938.52l-7.8-18.44h6.69l6.35,15.57h-3.98l6.54-15.57h6.11l-7.8,18.44h-6.11Z"/><path d="M813.07,938.52v-18.44h6.22v18.44h-6.22Z"/><path d="M822.29,938.52v-18.44h14.99v4.69h-8.88v9.06h9.22v4.69h-15.33ZM827.98,931.41v-4.48h8.22v4.48h-8.22Z"/><path d="M844.42,938.52l-5.9-18.44h6.4l4.77,15.57h-3.21l5.06-15.57h5.72l4.72,15.57h-3.08l4.98-15.57h5.9l-5.9,18.44h-6.67l-3.85-12.75h1.79l-4.06,12.75h-6.67Z"/></g></g></svg>