<?xml version="1.0" encoding="UTF-8"?><svg xmlns="http://www.w3.org/2000/svg" version="1.1" xmlns:xlink="http://www.w3.org/1999/xlink" viewBox="0 0 992.13 992.13"><title>Satuit M-103 Men’s Long-Sleeve Tee (Front)</title><desc>Gold+ semantic SVG. Geometry unchanged.</desc><defs><style> .outline { fill: #fff; } .seam, .stitching, .dimension, .annotation, .grid, .st6, .st7 { fill: none; } .st8 { fill: url(#New_Pattern_22); } .stitching { stroke-dasharray: 3.97; stroke-width: 1.58px; } .stitching, .dimension, .annotation, .grid, .st6, .st7 { stroke: #000; } .stitching, .annotation, .st6 { stroke-linecap: round; stroke-linejoin: round; } .dimension, .annotation { stroke-width: 2px; } .dimension, .grid, .st7 { stroke-miterlimit: 10; } .st9 { fill: #27aae1; } .st10 { fill: url(#New_Pattern_21); } .st11 { fill: url(#New_Pattern_2); } .grid { stroke-width: 4px; } .st6 { stroke-dasharray: 3.77; stroke-width: 1.5px; } .st7 { stroke-width: 3.98px; } .st12 { opacity: .38; } </style><pattern id="New_Pattern_2" data-name="New Pattern 2" x="0" y="0" width="30" height="80.06" patternTransform="translate(30.4 -246.28)" patternUnits="userSpaceOnUse" viewBox="0 0 30 80.06"><g><rect class="seam" width="30" height="80.06"/><rect x="26.03" y="0" width="1.93" height="80.06"/><rect x="20.03" y="0" width="1.93" height="80.06"/><rect x="14.03" y="0" width="1.93" height="80.06"/><rect x="8.03" y="0" width="1.93" height="80.06"/><rect x="2.03" y="0" width="1.93" height="80.06"/></g></pattern><pattern id="New_Pattern_21" data-name="New Pattern 2" patternTransform="translate(38.15 -312.75)" href="#New_Pattern_2" xlink:href="#New_Pattern_2"/><pattern id="New_Pattern_22" data-name="New Pattern 2" patternTransform="translate(-17323.59 -246.28) rotate(-180) scale(1 -1)" href="#New_Pattern_2" xlink:href="#New_Pattern_2"/></defs><g id="_x31_.GRID_x5F_BG"><g class="st12"><rect class="st9" x="77.84" y="959.57" width="836.45" height="1.02"/><rect class="st9" x="77.84" y="912.83" width="836.45" height="1.02"/><rect class="st9" x="77.84" y="866.1" width="836.45" height="1.02"/><rect class="st9" x="77.84" y="819.36" width="836.45" height="1.02"/><rect class="st9" x="77.84" y="772.62" width="836.45" height="1.02"/><rect class="st9" x="77.84" y="725.88" width="836.45" height="1.02"/><rect class="st9" x="77.84" y="679.15" width="836.45" height="1.02"/><rect class="st9" x="77.84" y="632.41" width="836.45" height="1.02"/><rect class="st9" x="77.84" y="585.67" width="836.45" height="1.02"/><rect class="st9" x="77.84" y="538.94" width="836.45" height="1.02"/><rect class="st9" x="77.84" y="492.2" width="836.45" height="1.02"/><rect class="st9" x="77.84" y="445.46" width="836.45" height="1.02"/><rect class="st9" x="77.84" y="398.72" width="836.45" height="1.02"/><rect class="st9" x="77.84" y="351.99" width="836.45" height="1.02"/><rect class="st9" x="77.84" y="305.25" width="836.45" height="1.02"/><rect class="st9" x="77.84" y="258.51" width="836.45" height="1.02"/><rect class="st9" x="77.84" y="211.78" width="836.45" height="1.02"/><rect class="st9" x="77.84" y="165.04" width="836.45" height="1.02"/><rect class="st9" x="77.84" y="118.3" width="836.45" height="1.02"/><rect class="st9" x="77.84" y="71.56" width="836.45" height="1.02"/><rect class="st9" x="909.76" y="31.87" width=".8" height="927.7"/><rect class="st9" x="860.8" y="31.53" width="1.02" height="928.04"/><rect class="st9" x="811.83" y="31.53" width="1.02" height="928.04"/><rect class="st9" x="762.86" y="31.53" width="1.02" height="928.04"/><rect class="st9" x="713.9" y="31.53" width="1.02" height="928.04"/><rect class="st9" x="664.93" y="31.53" width="1.02" height="928.04"/><rect class="st9" x="615.96" y="31.53" width="1.02" height="928.04"/><rect class="st9" x="566.99" y="31.53" width="1.02" height="928.04"/><rect class="st9" x="518.03" y="31.53" width="1.02" height="928.04"/><rect class="st9" x="469.06" y="31.53" width="1.02" height="928.04"/><rect class="st9" x="420.09" y="31.53" width="1.02" height="928.04"/><rect class="st9" x="371.13" y="31.53" width="1.02" height="928.04"/><rect class="st9" x="322.16" y="31.53" width="1.02" height="928.04"/><rect class="st9" x="273.19" y="31.53" width="1.02" height="928.04"/><rect class="st9" x="224.23" y="31.53" width="1.02" height="928.04"/><rect class="st9" x="175.26" y="31.53" width="1.02" height="928.04"/><rect class="st9" x="126.29" y="31.53" width="1.02" height="928.04"/></g><rect class="st7" x="77.58" y="30.35" width="836.97" height="931.42"/></g><g id="_x32_.MASK_x5F_FILL"><path class="outline" d="M684.58,765.14v-336.62s10.7,27.1,17.12,53.49c6.42,26.39,10.7,126.23,9.98,165.46-.71,39.22,7.13,47.07,7.13,47.07,9.27,16.4,6.42,72.03,6.42,72.03l79.51,2.48c-.32-29.94,12.81-67.66,12.81-67.66,12.03-47.18,2.87-235.33-2.56-264.97-5.22-28.51-24.49-98.41-24.49-98.41-49.44-161-76.46-180.31-76.46-180.31l-114.5-54.39-25.76-11.45c-83.69,37.65-170.1,0-170.1,0l-25.76,11.45-114.5,54.39s-27.02,19.31-76.46,180.31c0,0-19.27,69.9-24.49,98.41-5.43,29.64-14.58,217.79-2.56,264.97,0,0,9.62,38.13,12.23,67.67l80.08-2.49s-2.85-55.63,6.42-72.03c0,0,7.84-7.84,7.13-47.07-.71-39.22,3.57-139.07,9.98-165.46,6.42-26.39,17.12-53.49,17.12-53.49v336.62s33.3.56,66.27,6.41c32.96,5.86,143.75,12.36,255.95-.8,0,0,34.72-3.56,69.5-5.62Z"/></g><g id="_x33_.SEAMS_x5F_INT"><path class="annotation" d="M372.15,107.44s117.03,52.95,234.06,0"/><path class="st11" d="M255.96,699.31s-33.09,0-95.18,3c0,0,9.85,42.67,11.19,65.1l78.64-3.26s-3.75-38.27,5.35-64.84Z"/><path class="st10" d="M404.56,91.86s89.52,33.33,170.48,1.89l8.67,2.13,18.84,11.55s-102.5,50.26-229.66-1.74c0,0,21.77-11,31.67-13.83Z"/><line class="dimension" x1="159.89" y1="701.39" x2="255.96" y2="699.31"/><path class="st8" d="M720.85,699.31s33.09,0,95.18,3c0,0-9.85,42.67-11.19,65.1l-78.64-3.26s3.75-38.27-5.35-64.84Z"/><line class="dimension" x1="816.91" y1="701.39" x2="720.85" y2="699.31"/><path class="dimension" d="M263.4,157.7s50.44,77.36,29.46,272.93"/><path d="M290.99,203.89c3.92,21.27,6.99,42.69,9,64.23,1.86,21.43,3.55,43.63-1.96,64.68,0,0-.19-.05-.19-.05l.64-4c.26-2.01.67-6.02.83-8.03,2.08-38.99-3.1-78.65-8.31-116.84h0Z"/><path class="dimension" d="M714.07,157.7s-50.44,77.36-29.46,272.93"/><path d="M686.69,203.93c-5.72,37.27-9.93,75.02-8.73,112.77.08,1.99.38,6.06.59,8.05,0,0,.47,4.01.47,4.01l.64,4-.19.05c-5.51-21.05-3.81-43.25-1.96-64.68,2.18-21.37,4.78-43.55,9.2-64.19h0Z"/></g><g id="_x34_.OUTLINE_MAIN"><path class="grid" d="M684.58,765.14v-336.62s10.7,27.1,17.12,53.49c6.42,26.39,10.7,126.23,9.98,165.46-.71,39.22,7.13,47.07,7.13,47.07,9.27,16.4,6.42,72.03,6.42,72.03l79.51,2.48c-.32-29.94,12.81-67.66,12.81-67.66,12.03-47.18,2.87-235.33-2.56-264.97-5.22-28.51-24.49-98.41-24.49-98.41-49.44-161-76.46-180.31-76.46-180.31l-114.5-54.39-25.76-11.45c-83.69,37.65-170.1,0-170.1,0l-25.76,11.45-114.5,54.39s-27.02,19.31-76.46,180.31c0,0-19.27,69.9-24.49,98.41-5.43,29.64-14.58,217.79-2.56,264.97,0,0,9.62,38.13,12.23,67.67l80.08-2.49s-2.85-55.63,6.42-72.03c0,0,7.84-7.84,7.13-47.07-.71-39.22,3.57-139.07,9.98-165.46,6.42-26.39,17.12-53.49,17.12-53.49v336.62c33.4.56,33.6.61,66.27,6.41s143.49,12.39,255.95-.8q34.57-3.55,69.5-5.62Z"/></g><g id="_x35_.STITCHING"><path class="st6" d="M368.59,110.48s122.06,54.77,242.62.09"/><path class="stitching" d="M292.86,743.14c33.4.56,33.6.61,66.27,6.41s143.49,12.39,255.95-.8q34.57-3.55,69.5-5.62"/><path class="stitching" d="M292.86,735.14c33.4.56,33.6.61,66.27,6.41s143.49,12.39,255.95-.8q34.57-3.55,69.5-5.62"/></g><g id="_x39_.ANNOTATIONS"><g><path d="M85.38,943.27v-16.1h4.46l6.44,10.51h-2.35l6.26-10.51h4.46l.05,16.1h-4.95l-.04-8.65h.78l-4.28,7.2h-2.39l-4.46-7.2h.97v8.65h-4.95Z"/><path d="M107.05,938.58v-3.91h6.9v3.91h-6.9Z"/><path d="M117.28,943.27v-14.21l2.32,2.21h-5.08v-4.09h8.19v16.1h-5.43Z"/><path d="M131.98,943.64c-1.43,0-2.69-.33-3.78-.99-1.1-.66-1.95-1.62-2.58-2.88-.62-1.26-.93-2.78-.93-4.55s.31-3.3.93-4.55c.62-1.26,1.48-2.22,2.58-2.88,1.1-.66,2.36-.99,3.78-.99s2.69.33,3.78.99c1.1.66,1.95,1.62,2.58,2.88.62,1.26.93,2.78.93,4.55s-.31,3.3-.93,4.55c-.62,1.26-1.48,2.22-2.58,2.88-1.1.66-2.36.99-3.78.99ZM131.98,939.29c.35,0,.67-.12.94-.37.28-.25.5-.67.66-1.27.16-.6.24-1.41.24-2.44s-.08-1.86-.24-2.45c-.16-.59-.38-1.01-.66-1.25-.28-.25-.59-.37-.94-.37s-.67.12-.94.37c-.28.25-.5.66-.66,1.25-.16.59-.24,1.41-.24,2.45s.08,1.84.24,2.44c.16.6.38,1.02.66,1.27.28.25.59.37.94.37Z"/><path d="M145.92,943.64c-1.1,0-2.22-.12-3.36-.37s-2.13-.61-2.99-1.08l1.84-4c.69.4,1.42.69,2.17.89.76.19,1.48.29,2.15.29.61,0,1.12-.1,1.51-.31.39-.21.59-.52.59-.93,0-.35-.15-.62-.44-.82-.29-.19-.78-.29-1.47-.29h-2.14v-3.33l4.16-4.23.48,1.82h-8.03v-4.09h12.01v3.33l-4.16,4.23-2.6-1.47h1.43c2.02,0,3.57.45,4.62,1.36,1.06.91,1.59,2.07,1.59,3.5,0,.92-.26,1.8-.77,2.65-.51.84-1.31,1.53-2.39,2.07-1.08.54-2.48.8-4.2.8Z"/><path d="M154.86,938.58v-3.91h6.9v3.91h-6.9Z"/><path d="M169.88,943.64c-1.35,0-2.65-.15-3.91-.46-1.26-.31-2.29-.71-3.1-1.2l1.75-3.96c.77.45,1.62.8,2.56,1.07.94.27,1.86.4,2.75.4.52,0,.93-.03,1.23-.1.3-.07.52-.17.66-.3.14-.13.21-.29.21-.47,0-.29-.16-.52-.48-.69s-.75-.31-1.28-.43c-.53-.12-1.11-.24-1.74-.37-.63-.13-1.26-.3-1.9-.52-.64-.21-1.22-.5-1.75-.85s-.96-.82-1.28-1.39c-.32-.58-.48-1.29-.48-2.15,0-1,.28-1.91.84-2.73.56-.82,1.39-1.48,2.51-1.97,1.11-.49,2.5-.74,4.15-.74,1.09,0,2.16.12,3.22.34,1.06.23,2.01.58,2.85,1.06l-1.63,3.93c-.8-.4-1.57-.7-2.31-.9-.74-.2-1.47-.3-2.17-.3-.52,0-.94.05-1.24.14-.31.09-.53.22-.66.37-.13.15-.2.32-.2.51,0,.28.16.5.48.66s.75.29,1.28.4,1.11.22,1.75.34c.64.12,1.27.29,1.9.51.63.21,1.21.5,1.74.85.53.35.95.81,1.28,1.38s.48,1.27.48,2.12c0,.98-.28,1.88-.84,2.7s-1.39,1.48-2.5,1.98c-1.1.5-2.49.75-4.16.75Z"/><path d="M178.94,938.58v-3.91h6.9v3.91h-6.9Z"/><path d="M188.19,943.27v-16.1h4.46l6.44,10.51h-2.35l6.26-10.51h4.46l.05,16.1h-4.94l-.05-8.65h.78l-4.28,7.2h-2.39l-4.46-7.2h.97v8.65h-4.94Z"/><path d="M210.13,943.27v-16.1h13.09v4.09h-7.75v7.91h8.05v4.09h-13.39ZM215.1,937.06v-3.91h7.18v3.91h-7.18Z"/><path d="M225.61,943.27v-16.1h4.46l8.19,9.8h-2.07v-9.8h5.29v16.1h-4.46l-8.19-9.8h2.07v9.8h-5.29Z"/><path d="M243.6,935.36l1.93-6.46.76,2.9c-.89,0-1.62-.26-2.19-.77-.57-.51-.85-1.22-.85-2.1s.29-1.62.86-2.15c.57-.53,1.3-.79,2.17-.79s1.6.26,2.17.79c.58.53.86,1.25.86,2.15,0,.25-.02.49-.06.74-.04.25-.12.54-.24.89s-.32.81-.6,1.39l-1.61,3.43h-3.22Z"/><path d="M257.33,943.64c-1.35,0-2.65-.15-3.91-.46-1.26-.31-2.29-.71-3.11-1.2l1.75-3.96c.77.45,1.62.8,2.56,1.07.94.27,1.86.4,2.75.4.52,0,.93-.03,1.23-.1.3-.07.52-.17.66-.3.14-.13.21-.29.21-.47,0-.29-.16-.52-.48-.69-.32-.17-.75-.31-1.28-.43s-1.11-.24-1.74-.37c-.63-.13-1.26-.3-1.9-.52-.64-.21-1.22-.5-1.75-.85s-.95-.82-1.28-1.39-.48-1.29-.48-2.15c0-1,.28-1.91.84-2.73s1.4-1.48,2.51-1.97c1.11-.49,2.5-.74,4.15-.74,1.09,0,2.16.12,3.22.34,1.06.23,2.01.58,2.85,1.06l-1.63,3.93c-.8-.4-1.57-.7-2.31-.9-.74-.2-1.47-.3-2.17-.3-.52,0-.94.05-1.24.14-.31.09-.53.22-.66.37-.13.15-.2.32-.2.51,0,.28.16.5.48.66.32.16.75.29,1.28.4.53.11,1.11.22,1.75.34.64.12,1.27.29,1.9.51.63.21,1.21.5,1.74.85s.95.81,1.28,1.38c.32.57.48,1.27.48,2.12,0,.98-.28,1.88-.84,2.7-.56.82-1.39,1.48-2.5,1.98-1.1.5-2.49.75-4.16.75Z"/><path d="M273.34,943.27v-16.1h5.43v11.89h7.27v4.21h-12.7Z"/><path d="M295.74,943.64c-1.3,0-2.51-.21-3.62-.62-1.11-.41-2.07-1-2.89-1.76s-1.45-1.65-1.9-2.68c-.45-1.03-.68-2.15-.68-3.36s.23-2.35.68-3.37c.45-1.02,1.08-1.91,1.9-2.67.81-.76,1.77-1.34,2.89-1.76,1.11-.41,2.32-.62,3.62-.62s2.53.21,3.63.62c1.1.41,2.06,1,2.88,1.76.81.76,1.45,1.65,1.9,2.67.45,1.02.68,2.14.68,3.37s-.23,2.33-.68,3.36c-.45,1.03-1.09,1.92-1.9,2.68s-1.77,1.35-2.88,1.76c-1.1.41-2.32.62-3.63.62ZM295.74,939.25c.51,0,.98-.09,1.42-.28.44-.18.82-.45,1.15-.79.33-.34.59-.77.77-1.26s.28-1.06.28-1.69-.09-1.19-.28-1.69-.44-.92-.77-1.27c-.33-.34-.71-.61-1.15-.79-.44-.18-.91-.28-1.42-.28s-.98.09-1.42.28c-.44.18-.82.45-1.15.79-.33.35-.59.77-.77,1.27s-.28,1.06-.28,1.69.09,1.19.28,1.69.44.92.77,1.26c.33.35.71.61,1.15.79.44.18.91.28,1.42.28Z"/><path d="M306.8,943.27v-16.1h4.46l8.19,9.8h-2.07v-9.8h5.29v16.1h-4.46l-8.19-9.8h2.07v9.8h-5.29Z"/><path d="M333.64,943.64c-1.3,0-2.5-.2-3.6-.61-1.1-.41-2.05-.99-2.85-1.74-.8-.75-1.43-1.64-1.88-2.67-.44-1.03-.67-2.16-.67-3.4s.22-2.38.67-3.4c.45-1.03,1.07-1.92,1.89-2.67.81-.75,1.77-1.33,2.89-1.74,1.11-.41,2.33-.61,3.67-.61,1.59,0,3.02.27,4.27.8,1.25.54,2.28,1.3,3.09,2.3l-3.47,3.06c-.51-.58-1.05-1.02-1.64-1.32-.59-.3-1.25-.45-1.97-.45-.6,0-1.14.09-1.62.28-.48.18-.89.45-1.23.8-.34.35-.6.77-.78,1.27-.18.49-.28,1.05-.28,1.68s.09,1.15.28,1.64c.18.5.44.92.78,1.28s.74.62,1.21.82c.47.19.99.29,1.58.29.61,0,1.21-.1,1.79-.31s1.2-.56,1.86-1.07l3.04,3.73c-.98.66-2.1,1.17-3.36,1.52s-2.48.53-3.66.53ZM340.66,941.59l-4.71-.69v-6.12h4.71v6.81Z"/><path d="M342.7,938.58v-3.91h6.9v3.91h-6.9Z"/><path d="M357.72,943.64c-1.35,0-2.65-.15-3.91-.46s-2.29-.71-3.1-1.2l1.75-3.96c.77.45,1.62.8,2.56,1.07.94.27,1.86.4,2.75.4.52,0,.93-.03,1.23-.1.3-.07.52-.17.66-.3.14-.13.21-.29.21-.47,0-.29-.16-.52-.48-.69-.32-.17-.75-.31-1.28-.43s-1.11-.24-1.74-.37c-.63-.13-1.26-.3-1.9-.52-.64-.21-1.22-.5-1.75-.85-.53-.35-.95-.82-1.28-1.39-.32-.58-.48-1.29-.48-2.15,0-1,.28-1.91.84-2.73.56-.82,1.4-1.48,2.51-1.97,1.11-.49,2.5-.74,4.15-.74,1.09,0,2.16.12,3.22.34,1.06.23,2.01.58,2.85,1.06l-1.63,3.93c-.8-.4-1.57-.7-2.31-.9-.74-.2-1.47-.3-2.17-.3-.52,0-.94.05-1.24.14-.31.09-.53.22-.66.37-.13.15-.2.32-.2.51,0,.28.16.5.48.66.32.16.75.29,1.28.4s1.11.22,1.75.34c.64.12,1.27.29,1.9.51.63.21,1.21.5,1.74.85.53.35.95.81,1.28,1.38s.48,1.27.48,2.12c0,.98-.28,1.88-.84,2.7-.56.82-1.39,1.48-2.5,1.98s-2.49.75-4.16.75Z"/><path d="M366.83,943.27v-16.1h5.43v11.89h7.27v4.21h-12.7Z"/><path d="M381.02,943.27v-16.1h13.09v4.09h-7.75v7.91h8.05v4.09h-13.39ZM385.99,937.06v-3.91h7.18v3.91h-7.18Z"/><path d="M396.5,943.27v-16.1h13.09v4.09h-7.75v7.91h8.05v4.09h-13.38ZM401.47,937.06v-3.91h7.18v3.91h-7.18Z"/><path d="M416.81,943.27l-6.81-16.1h5.84l5.54,13.59h-3.47l5.7-13.59h5.34l-6.81,16.1h-5.34Z"/><path d="M429.48,943.27v-16.1h13.09v4.09h-7.75v7.91h8.05v4.09h-13.39ZM434.45,937.06v-3.91h7.18v3.91h-7.18Z"/><path d="M455.35,943.27v-11.89h-4.71v-4.21h14.86v4.21h-4.71v11.89h-5.43Z"/><path d="M466.9,943.27v-16.1h13.09v4.09h-7.75v7.91h8.05v4.09h-13.39ZM471.87,937.06v-3.91h7.18v3.91h-7.18Z"/><path d="M482.38,943.27v-16.1h13.09v4.09h-7.75v7.91h8.05v4.09h-13.39ZM487.35,937.06v-3.91h7.18v3.91h-7.18Z"/><path d="M504.76,943.27v-16.1h8.6c2.22,0,3.86.39,4.92,1.18,1.06.79,1.59,1.8,1.59,3.02,0,.81-.23,1.54-.68,2.17-.45.64-1.11,1.14-1.97,1.51s-1.92.55-3.17.55l.46-1.24c1.26,0,2.34.18,3.25.53s1.62.86,2.12,1.53.75,1.47.75,2.4c0,1.4-.58,2.48-1.74,3.27-1.16.78-2.85,1.17-5.07,1.17h-9.06ZM510.09,939.48h3.27c.6,0,1.05-.11,1.35-.32s.45-.53.45-.94-.15-.73-.45-.94-.75-.32-1.35-.32h-3.63v-3.59h2.9c.61,0,1.06-.1,1.35-.31.28-.21.43-.5.43-.89s-.14-.7-.43-.9c-.29-.2-.73-.3-1.35-.3h-2.53v8.51Z"/><path d="M520.79,943.27l7.04-16.1h5.34l7.04,16.1h-5.61l-5.2-13.52h2.12l-5.2,13.52h-5.52ZM524.97,940.47l1.38-3.91h7.41l1.38,3.91h-10.17Z"/><path d="M549.17,943.64c-1.29,0-2.48-.2-3.58-.61-1.1-.41-2.05-.99-2.85-1.74-.81-.75-1.43-1.64-1.88-2.67-.45-1.03-.67-2.16-.67-3.4s.22-2.38.67-3.4c.44-1.03,1.07-1.92,1.88-2.67.8-.75,1.75-1.33,2.85-1.74,1.1-.41,2.29-.61,3.58-.61,1.58,0,2.98.28,4.2.83,1.22.55,2.23,1.35,3.03,2.39l-3.43,3.06c-.47-.6-1-1.06-1.58-1.39-.57-.33-1.22-.5-1.94-.5-.57,0-1.08.09-1.54.28-.46.18-.86.45-1.18.8-.33.35-.59.78-.77,1.28-.18.5-.28,1.05-.28,1.67s.09,1.17.28,1.67c.18.5.44.92.77,1.28.33.35.72.62,1.18.81.46.18.97.28,1.54.28.72,0,1.37-.16,1.94-.49.58-.33,1.1-.79,1.58-1.39l3.43,3.06c-.8,1.03-1.81,1.82-3.03,2.38s-2.62.84-4.2.84Z"/><path d="M557.8,943.27v-16.1h5.34v16.1h-5.34ZM562.65,939.82l-.3-5.96,6.07-6.69h5.91l-6.81,7.5-3.01,3.08-1.86,2.07ZM568.38,943.27l-4.74-6.26,3.52-3.73,7.5,9.98h-6.28Z"/></g></g></svg>