<?xml version="1.0" encoding="UTF-8"?><svg xmlns="http://www.w3.org/2000/svg" version="1.1" viewBox="0 0 992.13 992.13"><title>Satuit DWG-301 Tailored Swim Short</title><desc>Gold+ semantic SVG. Geometry unchanged.</desc><defs><style> .outline { stroke-dasharray: 6.2; stroke-linecap: round; } .outline, .seam, .stitching, .dimension, .annotation, .grid, .st6, .st7 { stroke: #000; stroke-miterlimit: 10; } .outline, .stitching, .dimension, .annotation, .grid { fill: none; } .outline, .st6 { stroke-width: 1.55px; } .st8, .seam, .st6, .st7 { fill: #fff; } .seam, .stitching { stroke-width: 2px; } .st9 { fill: #27aae1; } .dimension { stroke-width: 4px; } .annotation { stroke-width: 3.91px; } .grid { stroke-width: 3.98px; } .st10 { opacity: .38; } .st7 { stroke-width: 3.88px; }  .seam,.stitching{fill:none!important;}g[id*="SEAMS"] path,g[id*="SEAMS"] rect,g[id*="SEAMS"] circle,g[id*="SEAMS"] ellipse,g[id*="SEAMS"] polygon,g[id*="SEAMS"] polyline,g[id*="STITCHING"] path,g[id*="STITCHING"] rect,g[id*="STITCHING"] circle,g[id*="STITCHING"] ellipse,g[id*="STITCHING"] polygon,g[id*="STITCHING"] polyline{fill:none!important;}</style></defs><g id="_x31_.GRID_x5F_BG"><g class="st10"><rect class="st9" x="77.84" y="959.57" width="836.45" height="1.02"/><rect class="st9" x="77.84" y="912.83" width="836.45" height="1.02"/><rect class="st9" x="77.84" y="866.1" width="836.45" height="1.02"/><rect class="st9" x="77.84" y="819.36" width="836.45" height="1.02"/><rect class="st9" x="77.84" y="772.62" width="836.45" height="1.02"/><rect class="st9" x="77.84" y="725.88" width="836.45" height="1.02"/><rect class="st9" x="77.84" y="679.15" width="836.45" height="1.02"/><rect class="st9" x="77.84" y="632.41" width="836.45" height="1.02"/><rect class="st9" x="77.84" y="585.67" width="836.45" height="1.02"/><rect class="st9" x="77.84" y="538.94" width="836.45" height="1.02"/><rect class="st9" x="77.84" y="492.2" width="836.45" height="1.02"/><rect class="st9" x="77.84" y="445.46" width="836.45" height="1.02"/><rect class="st9" x="77.84" y="398.72" width="836.45" height="1.02"/><rect class="st9" x="77.84" y="351.99" width="836.45" height="1.02"/><rect class="st9" x="77.84" y="305.25" width="836.45" height="1.02"/><rect class="st9" x="77.84" y="258.51" width="836.45" height="1.02"/><rect class="st9" x="77.84" y="211.78" width="836.45" height="1.02"/><rect class="st9" x="77.84" y="165.04" width="836.45" height="1.02"/><rect class="st9" x="77.84" y="118.3" width="836.45" height="1.02"/><rect class="st9" x="77.84" y="71.56" width="836.45" height="1.02"/><rect class="st9" x="909.76" y="31.87" width=".8" height="927.7"/><rect class="st9" x="860.8" y="31.53" width="1.02" height="928.04"/><rect class="st9" x="811.83" y="31.53" width="1.02" height="928.04"/><rect class="st9" x="762.86" y="31.53" width="1.02" height="928.04"/><rect class="st9" x="713.9" y="31.53" width="1.02" height="928.04"/><rect class="st9" x="664.93" y="31.53" width="1.02" height="928.04"/><rect class="st9" x="615.96" y="31.53" width="1.02" height="928.04"/><rect class="st9" x="566.99" y="31.53" width="1.02" height="928.04"/><rect class="st9" x="518.03" y="31.53" width="1.02" height="928.04"/><rect class="st9" x="469.06" y="31.53" width="1.02" height="928.04"/><rect class="st9" x="420.09" y="31.53" width="1.02" height="928.04"/><rect class="st9" x="371.13" y="31.53" width="1.02" height="928.04"/><rect class="st9" x="322.16" y="31.53" width="1.02" height="928.04"/><rect class="st9" x="273.19" y="31.53" width="1.02" height="928.04"/><rect class="st9" x="224.23" y="31.53" width="1.02" height="928.04"/><rect class="st9" x="175.26" y="31.53" width="1.02" height="928.04"/><rect class="st9" x="126.29" y="31.53" width="1.02" height="928.04"/></g><g><rect class="grid" x="77.58" y="30.35" width="836.97" height="931.42"/><rect class="st7" x="640.91" y="822.57" width="273.64" height="139.21"/><line class="annotation" x1="640.91" y1="887.71" x2="914.55" y2="887.71"/></g></g><g id="_x32_.MASK_x5F_FILL"><path class="st8" d="M751.72,174.44s6.97-1.03,7.41,24.95c.36,21.14,3.27,23.71,3.49,29.16.15,3.71.88,7.38,2.13,10.87,6.83,19.14,26.55,83.79,42.89,229.34l27.8,229.78s-100.72,34.72-323.88,32.92l-19.84-174.99c-.17-1.52-1.46-2.67-2.99-2.67h0c-1.53,0-2.81,1.15-2.99,2.67l-19.84,174.99c-223.16,1.79-323.88-32.92-323.88-32.92l27.8-229.78c16.34-145.54,36.07-210.2,42.89-229.34,1.25-3.49,1.98-7.16,2.13-10.87.22-5.45,3.13-8.02,3.49-29.16.44-25.98,7.41-24.95,7.41-24.95h525.94Z"/></g><g id="_x33_.SEAMS_x5F_INT"><path class="stitching" d="M813.67,702.19l-27.8-229.78c-16.34-145.54-36.07-215.18-42.89-234.32"/><path class="stitching" d="M224.99,176.95s263.76,59.56,529.36-1.05"/><path class="stitching" d="M214.6,234.62s273.06,61.66,548.02-1.08"/><path class="stitching" d="M163.18,702.19l27.8-229.78c16.34-145.54,36.07-215.18,42.89-234.32"/><line class="stitching" x1="488.61" y1="261.7" x2="488.61" y2="556.98"/><path class="stitching" d="M488.61,521.02s26.77,3.51,44.93,210.51"/><path class="stitching" d="M487.88,521.02s-30.23,3.51-48.39,210.51"/></g><g id="_x34_.OUTLINE_MAIN"><path class="dimension" d="M751.72,174.44s6.97-1.03,7.41,24.95c.36,21.14,3.27,23.71,3.49,29.16.15,3.71.88,7.38,2.13,10.87,6.83,19.14,26.55,83.79,42.89,229.34l27.8,229.78s-100.72,34.72-323.88,32.92l-19.84-174.99c-.17-1.52-1.46-2.67-2.99-2.67h0c-1.53,0-2.81,1.15-2.99,2.67l-19.84,174.99c-223.16,1.79-323.88-32.92-323.88-32.92l27.8-229.78c16.34-145.54,36.07-210.2,42.89-229.34,1.25-3.49,1.98-7.16,2.13-10.87.22-5.45,3.13-8.02,3.49-29.16.44-25.98,7.41-24.95,7.41-24.95h525.94Z"/></g><g id="_x35_.STITCHING"><path class="outline" d="M830.8,660.07s-96.06,39.1-319.23,37.31"/><path class="outline" d="M218.47,215.99s268.99,61.66,539.85-1.08"/><path class="outline" d="M218.47,195.76s268.99,61.66,539.85-1.08"/><path class="outline" d="M746.51,249.03l-13.25,4.3s25.05,124.03,36.87,191.58l11.93-4.62"/><path class="outline" d="M230.34,249.03l13.25,4.3s-25.05,124.03-36.87,191.58l-11.93-4.62"/><path class="outline" d="M465.93,700.48c-223.16,1.79-319.81-35.57-319.81-35.57"/></g><g id="_x36_.TRIMS__x26__LABELS"><g><path class="stitching" d="M456.9,244.15c-5.85,0-10.61-4.76-10.61-10.61s4.76-10.61,10.61-10.61,10.61,4.76,10.61,10.61-4.76,10.61-10.61,10.61ZM456.9,229.12c-2.44,0-4.42,1.98-4.42,4.41s1.98,4.42,4.42,4.42,4.41-1.98,4.41-4.42-1.98-4.41-4.41-4.41Z"/><path class="st6" d="M438,447.82h7.45v17.78c0,1.83-1.49,3.32-3.32,3.32h-.8c-1.83,0-3.32-1.49-3.32-3.32v-17.78h0Z" transform="translate(-59.73 66.24) rotate(-8.03)"/><path class="seam" d="M439.94,449.56c-2.33,0-4.35-1.75-4.61-4.13-2.25-19.98,3.83-48.49,10.27-78.67,2.55-11.94,5.18-24.29,7.3-36.18,7.11-40-.9-93.09-.98-93.62-.39-2.54,1.35-4.91,3.89-5.3,2.54-.38,4.91,1.35,5.3,3.89.34,2.23,8.33,55.12.95,96.66-2.14,12.04-4.79,24.47-7.36,36.49-6.28,29.42-12.21,57.21-10.12,75.69.29,2.55-1.55,4.85-4.1,5.14-.18.02-.35.03-.53.03Z"/><path class="stitching" d="M510.85,233.53c0-5.85,4.76-10.61,10.61-10.61,5.85,0,10.61,4.76,10.61,10.61,0,5.85-4.76,10.61-10.61,10.61-5.85,0-10.61-4.76-10.61-10.61ZM517.05,233.53c0,2.44,1.98,4.42,4.41,4.42,2.44,0,4.42-1.98,4.42-4.42,0-2.43-1.98-4.41-4.42-4.41-2.43,0-4.41,1.98-4.41,4.41Z"/><path class="st6" d="M536.23,447.82h.8c1.83,0,3.32,1.49,3.32,3.32v17.78h-7.45v-17.78c0-1.83,1.49-3.32,3.32-3.32Z" transform="translate(1003.94 987.24) rotate(-171.97)"/><path class="seam" d="M538.42,449.56c2.33,0,4.35-1.75,4.61-4.13,2.25-19.98-3.83-48.49-10.27-78.67-2.55-11.94-5.18-24.29-7.3-36.18-7.11-40,.9-93.09.98-93.62.39-2.54-1.35-4.91-3.89-5.3-2.54-.38-4.91,1.35-5.3,3.89-.34,2.23-8.33,55.12-.95,96.66,2.14,12.04,4.79,24.47,7.36,36.49,6.28,29.42,12.21,57.21,10.12,75.69-.29,2.55,1.55,4.85,4.1,5.14.18.02.35.03.53.03Z"/></g></g><g id="_x39_.ANNOTATIONS"><g><path d="M653.53,868.82c-1.55,0-3.04-.18-4.48-.53s-2.63-.81-3.56-1.37l2-4.53c.88.51,1.86.92,2.94,1.23s2.13.46,3.15.46c.6,0,1.07-.04,1.41-.12.34-.08.59-.19.75-.34s.24-.33.24-.54c0-.33-.18-.6-.55-.79s-.86-.36-1.46-.49c-.61-.13-1.27-.27-1.99-.42-.72-.15-1.44-.35-2.17-.59-.73-.25-1.4-.57-2-.97-.61-.4-1.09-.94-1.46-1.59-.37-.66-.55-1.48-.55-2.46,0-1.14.32-2.18.96-3.12.64-.94,1.6-1.69,2.87-2.25,1.27-.56,2.86-.84,4.76-.84,1.25,0,2.48.13,3.69.4,1.21.26,2.3.67,3.27,1.21l-1.87,4.51c-.91-.46-1.8-.8-2.65-1.03-.85-.23-1.68-.34-2.49-.34-.6,0-1.07.05-1.42.16-.35.11-.6.25-.75.42-.15.18-.22.37-.22.58,0,.32.18.57.55.75s.86.34,1.46.46c.61.12,1.27.25,2,.4.73.14,1.45.33,2.17.58.72.25,1.38.57,1.99.98.61.4,1.09.93,1.46,1.58.37.65.55,1.46.55,2.42,0,1.12-.32,2.16-.96,3.1-.64.94-1.59,1.7-2.86,2.27-1.26.57-2.85.86-4.77.86Z"/><path d="M661.96,868.39l8.06-18.44h6.11l8.06,18.44h-6.43l-5.96-15.49h2.42l-5.96,15.49h-6.32ZM666.76,865.18l1.58-4.48h8.48l1.58,4.48h-11.65Z"/><path d="M688.28,868.39v-13.62h-5.4v-4.82h17.02v4.82h-5.4v13.62h-6.22Z"/><path d="M709.94,868.82c-2.83,0-5.03-.76-6.61-2.29-1.58-1.53-2.37-3.67-2.37-6.43v-10.14h6.22v9.96c0,1.41.25,2.4.76,2.99.51.59,1.19.88,2.06.88s1.57-.29,2.07-.88c.5-.59.75-1.58.75-2.99v-9.96h6.11v10.14c0,2.76-.79,4.9-2.37,6.43s-3.79,2.29-6.61,2.29Z"/><path d="M725.38,868.39v-13.62h-5.4v-4.82h17.02v4.82h-5.4v13.62h-6.22Z"/><path d="M753.39,868.82c-1.55,0-3.04-.18-4.48-.53s-2.63-.81-3.56-1.37l2-4.53c.88.51,1.86.92,2.94,1.23s2.13.46,3.15.46c.6,0,1.07-.04,1.41-.12.34-.08.59-.19.75-.34s.24-.33.24-.54c0-.33-.18-.6-.55-.79s-.86-.36-1.46-.49c-.61-.13-1.27-.27-1.99-.42-.72-.15-1.44-.35-2.17-.59-.73-.25-1.4-.57-2-.97-.61-.4-1.09-.94-1.46-1.59-.37-.66-.55-1.48-.55-2.46,0-1.14.32-2.18.96-3.12.64-.94,1.6-1.69,2.87-2.25,1.27-.56,2.86-.84,4.76-.84,1.25,0,2.48.13,3.69.4,1.21.26,2.3.67,3.27,1.21l-1.87,4.51c-.91-.46-1.8-.8-2.65-1.03-.85-.23-1.68-.34-2.49-.34-.6,0-1.07.05-1.42.16-.35.11-.6.25-.75.42-.15.18-.22.37-.22.58,0,.32.18.57.55.75s.86.34,1.46.46c.61.12,1.27.25,2,.4.73.14,1.45.33,2.17.58.72.25,1.38.57,1.99.98.61.4,1.09.93,1.46,1.58.37.65.55,1.46.55,2.42,0,1.12-.32,2.16-.96,3.1-.64.94-1.59,1.7-2.86,2.27-1.26.57-2.85.86-4.77.86Z"/><path d="M772.65,868.82c-2.83,0-5.03-.76-6.61-2.29-1.58-1.53-2.37-3.67-2.37-6.43v-10.14h6.22v9.96c0,1.41.25,2.4.76,2.99.51.59,1.19.88,2.06.88s1.57-.29,2.07-.88c.5-.59.75-1.58.75-2.99v-9.96h6.11v10.14c0,2.76-.79,4.9-2.37,6.43s-3.79,2.29-6.61,2.29Z"/><path d="M784.49,868.39v-18.44h8.88c1.72,0,3.21.28,4.47.84,1.26.56,2.23,1.37,2.91,2.41.68,1.04,1.03,2.28,1.03,3.7s-.34,2.65-1.03,3.69c-.69,1.04-1.66,1.84-2.91,2.41-1.26.57-2.74.86-4.47.86h-5.43l2.77-2.66v7.19h-6.22ZM790.7,861.89l-2.77-2.82h5.03c.86,0,1.5-.19,1.91-.58s.62-.91.62-1.58-.21-1.19-.62-1.58c-.41-.39-1.05-.58-1.91-.58h-5.03l2.77-2.82v9.96Z"/><path d="M803.8,868.39v-18.44h8.88c1.72,0,3.21.28,4.47.84,1.26.56,2.23,1.37,2.91,2.41.68,1.04,1.03,2.28,1.03,3.7s-.34,2.65-1.03,3.69c-.69,1.04-1.66,1.84-2.91,2.41-1.26.57-2.74.86-4.47.86h-5.43l2.77-2.66v7.19h-6.22ZM810.02,861.89l-2.77-2.82h5.03c.86,0,1.5-.19,1.91-.58s.62-.91.62-1.58-.21-1.19-.62-1.58c-.41-.39-1.05-.58-1.91-.58h-5.03l2.77-2.82v9.96Z"/><path d="M823.11,868.39v-18.44h6.22v13.62h8.33v4.82h-14.54Z"/><path d="M842.27,868.39v-8.09l1.42,3.71-8.38-14.07h6.56l5.67,9.62h-3.82l5.72-9.62h6.01l-8.33,14.07,1.37-3.71v8.09h-6.22Z"/><path d="M873.68,868.82c-1.48,0-2.84-.23-4.1-.7-1.26-.47-2.35-1.13-3.27-1.99-.92-.86-1.64-1.88-2.15-3.06-.51-1.18-.76-2.48-.76-3.9s.25-2.72.76-3.9c.51-1.18,1.23-2.2,2.15-3.06.92-.86,2.01-1.52,3.27-1.99,1.26-.46,2.62-.7,4.1-.7,1.81,0,3.41.32,4.81.95,1.4.63,2.55,1.55,3.46,2.74l-3.93,3.5c-.54-.69-1.15-1.22-1.8-1.59-.66-.38-1.4-.57-2.23-.57-.65,0-1.24.11-1.77.32-.53.21-.98.52-1.36.92-.38.4-.67.89-.88,1.46-.21.57-.32,1.21-.32,1.91s.11,1.34.32,1.91c.21.57.5,1.06.88,1.46.38.4.83.71,1.36.92.53.21,1.12.32,1.77.32.83,0,1.57-.19,2.23-.57.66-.38,1.26-.91,1.8-1.59l3.93,3.5c-.91,1.18-2.07,2.09-3.46,2.73-1.4.64-3,.96-4.81.96Z"/><path d="M892.57,868.82c-1.49,0-2.88-.24-4.15-.71-1.27-.47-2.38-1.15-3.31-2.02-.93-.87-1.66-1.89-2.17-3.07-.52-1.18-.78-2.46-.78-3.85s.26-2.69.78-3.86c.52-1.17,1.24-2.19,2.17-3.06.93-.87,2.03-1.54,3.31-2.02,1.27-.47,2.66-.71,4.15-.71s2.9.24,4.16.71c1.27.47,2.36,1.15,3.29,2.02.93.87,1.66,1.89,2.17,3.06.52,1.17.78,2.46.78,3.86s-.26,2.67-.78,3.85-1.24,2.2-2.17,3.07-2.03,1.54-3.29,2.02c-1.26.47-2.65.71-4.16.71ZM892.57,863.78c.58,0,1.12-.11,1.62-.32.5-.21.94-.51,1.32-.91.38-.4.67-.88.88-1.45.21-.57.32-1.22.32-1.94s-.11-1.37-.32-1.94c-.21-.57-.51-1.05-.88-1.45-.38-.4-.82-.7-1.32-.91-.5-.21-1.04-.32-1.62-.32s-1.12.11-1.62.32-.94.51-1.32.91c-.38.4-.67.88-.88,1.45-.21.57-.32,1.22-.32,1.94s.11,1.37.32,1.94c.21.57.5,1.05.88,1.45.38.39.82.7,1.32.91.5.21,1.04.32,1.62.32Z"/><path d="M907.22,868.66c-.98,0-1.81-.32-2.48-.96-.67-.64-1-1.46-1-2.46s.33-1.83,1-2.45c.67-.62,1.49-.92,2.48-.92s1.81.31,2.48.92c.67.62,1,1.43,1,2.45s-.33,1.82-1,2.46c-.67.64-1.49.96-2.48.96Z"/></g><g><path d="M85.44,938.72v-16.83h8.3c1.88,0,3.53.34,4.95,1.02,1.43.68,2.54,1.65,3.34,2.9.8,1.25,1.2,2.75,1.2,4.5s-.4,3.23-1.2,4.49c-.8,1.26-1.92,2.23-3.34,2.91-1.43.68-3.08,1.02-4.95,1.02h-8.3ZM91.12,934.3h2.38c.8,0,1.5-.15,2.1-.46.6-.3,1.07-.76,1.41-1.36.34-.6.5-1.33.5-2.18s-.17-1.59-.5-2.19c-.34-.59-.81-1.04-1.41-1.35-.6-.3-1.3-.46-2.1-.46h-2.38v7.99Z"/><path d="M108.96,938.72l-5.39-16.83h5.84l4.35,14.21h-2.93l4.62-14.21h5.22l4.3,14.21h-2.81l4.55-14.21h5.39l-5.39,16.83h-6.08l-3.51-11.64h1.64l-3.7,11.64h-6.08Z"/><path d="M141.84,939.11c-1.36,0-2.62-.21-3.76-.64-1.15-.42-2.14-1.03-2.98-1.82-.84-.79-1.5-1.72-1.96-2.79-.47-1.07-.7-2.26-.7-3.56s.23-2.48.7-3.56c.46-1.07,1.12-2,1.97-2.79.85-.79,1.86-1.39,3.02-1.82,1.16-.42,2.44-.64,3.84-.64,1.67,0,3.15.28,4.46.84,1.31.56,2.38,1.36,3.23,2.41l-3.63,3.2c-.53-.61-1.1-1.07-1.72-1.38-.62-.31-1.3-.47-2.06-.47-.62,0-1.19.1-1.7.29-.51.19-.93.47-1.29.84-.35.37-.63.81-.82,1.32-.19.51-.29,1.1-.29,1.75s.1,1.2.29,1.72c.19.52.46.97.82,1.33.35.37.77.65,1.26.85.49.2,1.04.3,1.65.3.64,0,1.27-.11,1.88-.32.61-.22,1.26-.59,1.95-1.12l3.17,3.9c-1.03.69-2.2,1.22-3.51,1.59-1.31.37-2.59.55-3.82.55ZM149.17,936.97l-4.93-.72v-6.4h4.93v7.12Z"/><path d="M158.82,938.72v-16.83h4.67l8.56,10.25h-2.16v-10.25h5.53v16.83h-4.67l-8.56-10.25h2.16v10.25h-5.53Z"/><path d="M186.98,939.11c-1.36,0-2.63-.22-3.79-.65s-2.17-1.05-3.02-1.84c-.85-.79-1.51-1.73-1.98-2.8s-.71-2.24-.71-3.51.24-2.46.71-3.52,1.13-2,1.98-2.79c.85-.79,1.86-1.41,3.02-1.84s2.43-.65,3.79-.65,2.65.22,3.8.65,2.16,1.05,3.01,1.84c.85.79,1.51,1.72,1.98,2.79.47,1.07.71,2.24.71,3.52s-.24,2.44-.71,3.51c-.47,1.07-1.13,2.01-1.98,2.8-.85.79-1.85,1.41-3.01,1.84s-2.42.65-3.8.65ZM186.98,934.51c.53,0,1.02-.1,1.48-.29s.86-.47,1.2-.83c.34-.36.61-.8.81-1.32.19-.52.29-1.11.29-1.77s-.1-1.25-.29-1.77c-.19-.52-.46-.96-.81-1.32-.35-.36-.75-.64-1.2-.83s-.95-.29-1.48-.29-1.02.1-1.48.29-.86.47-1.2.83c-.34.36-.61.8-.81,1.32-.19.52-.29,1.11-.29,1.77s.1,1.25.29,1.77c.19.52.46.96.81,1.32s.75.64,1.2.83.95.29,1.48.29Z"/><path d="M200.83,931.53c-.9,0-1.65-.29-2.26-.88-.61-.59-.91-1.33-.91-2.25s.3-1.68.91-2.24c.61-.56,1.36-.84,2.26-.84s1.65.28,2.26.84c.61.56.91,1.31.91,2.24s-.3,1.66-.91,2.25c-.61.58-1.36.88-2.26.88ZM200.83,938.96c-.9,0-1.65-.29-2.26-.88-.61-.58-.91-1.33-.91-2.25s.3-1.68.91-2.24c.61-.56,1.36-.84,2.26-.84s1.65.28,2.26.84c.61.56.91,1.31.91,2.24s-.3,1.66-.91,2.25c-.61.59-1.36.88-2.26.88Z"/><path d="M219.35,939.11c-1.41,0-2.77-.16-4.09-.48-1.31-.32-2.4-.74-3.25-1.25l1.83-4.14c.8.46,1.7.84,2.68,1.12.99.28,1.94.42,2.87.42.54,0,.97-.04,1.29-.11.31-.07.54-.18.69-.31.14-.14.22-.3.22-.49,0-.3-.17-.54-.51-.72-.34-.18-.78-.32-1.33-.44s-1.16-.25-1.82-.38c-.66-.14-1.32-.32-1.98-.54s-1.27-.52-1.83-.89c-.55-.37-1-.85-1.33-1.46-.34-.6-.5-1.35-.5-2.25,0-1.04.29-1.99.88-2.85.58-.86,1.46-1.54,2.62-2.06,1.16-.51,2.61-.77,4.34-.77,1.14,0,2.26.12,3.37.36,1.11.24,2.1.61,2.98,1.11l-1.71,4.11c-.83-.42-1.64-.73-2.42-.94-.78-.21-1.54-.31-2.27-.31-.55,0-.98.05-1.3.14-.32.1-.55.22-.69.38s-.2.34-.2.53c0,.29.17.52.51.69.34.17.78.31,1.33.42.55.11,1.16.23,1.83.36.67.13,1.33.3,1.98.53.66.23,1.26.52,1.82.89s1,.85,1.33,1.44c.34.59.5,1.33.5,2.21,0,1.03-.29,1.97-.88,2.83-.59.86-1.46,1.55-2.61,2.07-1.15.52-2.61.78-4.35.78Z"/><path d="M228.83,933.82v-4.09h7.22v4.09h-7.22Z"/><path d="M243.14,939.11c-1.15,0-2.33-.13-3.51-.38-1.19-.26-2.23-.63-3.13-1.13l1.92-4.19c.72.42,1.48.73,2.27.93.79.2,1.54.3,2.25.3.64,0,1.17-.11,1.58-.32s.61-.54.61-.97c0-.37-.15-.65-.46-.85-.3-.2-.82-.3-1.54-.3h-2.24v-3.49l4.35-4.42.5,1.9h-8.39v-4.28h12.55v3.49l-4.35,4.42-2.72-1.54h1.49c2.12,0,3.73.47,4.83,1.42,1.11.95,1.66,2.17,1.66,3.66,0,.96-.27,1.88-.81,2.77s-1.37,1.6-2.5,2.16c-1.13.56-2.59.84-4.39.84Z"/><path d="M259.73,939.11c-1.49,0-2.81-.34-3.96-1.03-1.15-.69-2.04-1.69-2.69-3.01s-.97-2.9-.97-4.76.32-3.45.97-4.76c.65-1.31,1.55-2.32,2.69-3.01,1.15-.69,2.46-1.03,3.96-1.03s2.81.34,3.96,1.03,2.04,1.69,2.69,3.01c.65,1.32.97,2.9.97,4.76s-.32,3.45-.97,4.76-1.55,2.32-2.69,3.01-2.46,1.03-3.96,1.03ZM259.73,934.56c.37,0,.7-.13.99-.38.29-.26.52-.7.69-1.32s.25-1.47.25-2.55-.08-1.94-.25-2.56-.4-1.05-.69-1.31c-.29-.26-.62-.38-.99-.38s-.7.13-.99.38c-.29.26-.52.69-.69,1.31s-.25,1.47-.25,2.56.08,1.92.25,2.55.4,1.07.69,1.32c.29.26.62.38.99.38Z"/><path d="M270.82,938.72v-14.86l2.43,2.31h-5.32v-4.28h8.56v16.83h-5.68Z"/><path d="M278.95,933.82v-4.09h7.22v4.09h-7.22Z"/><path d="M294.65,939.11c-1.41,0-2.77-.16-4.09-.48-1.31-.32-2.4-.74-3.25-1.25l1.83-4.14c.8.46,1.7.84,2.68,1.12.99.28,1.94.42,2.87.42.54,0,.97-.04,1.29-.11.31-.07.54-.18.69-.31.14-.14.22-.3.22-.49,0-.3-.17-.54-.51-.72-.34-.18-.78-.32-1.33-.44s-1.16-.25-1.82-.38c-.66-.14-1.32-.32-1.98-.54s-1.27-.52-1.83-.89c-.55-.37-1-.85-1.33-1.46-.34-.6-.5-1.35-.5-2.25,0-1.04.29-1.99.88-2.85.58-.86,1.46-1.54,2.62-2.06,1.16-.51,2.61-.77,4.34-.77,1.14,0,2.26.12,3.37.36,1.11.24,2.1.61,2.98,1.11l-1.71,4.11c-.83-.42-1.64-.73-2.42-.94-.78-.21-1.54-.31-2.27-.31-.55,0-.98.05-1.3.14-.32.1-.55.22-.69.38s-.2.34-.2.53c0,.29.17.52.51.69.34.17.78.31,1.33.42.55.11,1.16.23,1.83.36.67.13,1.33.3,1.98.53.66.23,1.26.52,1.82.89s1,.85,1.33,1.44c.34.59.5,1.33.5,2.21,0,1.03-.29,1.97-.88,2.83-.59.86-1.46,1.55-2.61,2.07-1.15.52-2.61.78-4.35.78Z"/><path d="M304.13,933.82v-4.09h7.22v4.09h-7.22Z"/><path d="M324.66,938.72v-12.43h-4.93v-4.4h15.54v4.4h-4.93v12.43h-5.68Z"/><path d="M334.07,938.72l7.36-16.83h5.58l7.36,16.83h-5.87l-5.44-14.14h2.21l-5.44,14.14h-5.77ZM338.44,935.79l1.44-4.09h7.74l1.44,4.09h-10.63Z"/><path d="M355.28,938.72v-16.83h5.68v16.83h-5.68Z"/><path d="M363.7,938.72v-16.83h5.68v12.43h7.6v4.4h-13.28Z"/><path d="M387.12,939.11c-1.36,0-2.63-.22-3.79-.65s-2.17-1.05-3.02-1.84c-.85-.79-1.51-1.73-1.98-2.8s-.71-2.24-.71-3.51.24-2.46.71-3.52,1.13-2,1.98-2.79c.85-.79,1.86-1.41,3.02-1.84s2.43-.65,3.79-.65,2.65.22,3.8.65,2.16,1.05,3.01,1.84c.85.79,1.51,1.72,1.98,2.79.47,1.07.71,2.24.71,3.52s-.24,2.44-.71,3.51c-.47,1.07-1.13,2.01-1.98,2.8-.85.79-1.85,1.41-3.01,1.84s-2.42.65-3.8.65ZM387.12,934.51c.53,0,1.02-.1,1.48-.29s.86-.47,1.2-.83c.34-.36.61-.8.81-1.32.19-.52.29-1.11.29-1.77s-.1-1.25-.29-1.77c-.19-.52-.46-.96-.81-1.32-.35-.36-.75-.64-1.2-.83s-.95-.29-1.48-.29-1.02.1-1.48.29-.86.47-1.2.83c-.34.36-.61.8-.81,1.32-.19.52-.29,1.11-.29,1.77s.1,1.25.29,1.77c.19.52.46.96.81,1.32s.75.64,1.2.83.95.29,1.48.29Z"/><path d="M398.69,938.72v-16.83h7.86c2.58,0,4.55.57,5.89,1.71,1.35,1.14,2.02,2.69,2.02,4.64,0,1.3-.31,2.42-.94,3.35-.63.94-1.51,1.66-2.66,2.15-1.15.5-2.51.75-4.08.75h-4.95l2.53-2.33v6.57h-5.68ZM404.37,932.78l-2.53-2.57h4.59c.79,0,1.37-.18,1.74-.53.38-.35.57-.83.57-1.44s-.19-1.09-.57-1.44c-.38-.35-.96-.53-1.74-.53h-4.59l2.53-2.57v9.09ZM408.77,938.72l-4.14-6.13h6.01l4.18,6.13h-6.06Z"/><path d="M416.61,938.72v-16.83h13.68v4.28h-8.1v8.27h8.42v4.28h-14ZM421.8,932.23v-4.09h7.5v4.09h-7.5Z"/><path d="M432.79,938.72v-16.83h8.3c1.88,0,3.53.34,4.95,1.02,1.43.68,2.54,1.65,3.34,2.9.8,1.25,1.2,2.75,1.2,4.5s-.4,3.23-1.2,4.49c-.8,1.26-1.92,2.23-3.34,2.91-1.43.68-3.08,1.02-4.95,1.02h-8.3ZM438.47,934.3h2.38c.8,0,1.5-.15,2.1-.46.6-.3,1.07-.76,1.41-1.36.34-.6.5-1.33.5-2.18s-.17-1.59-.5-2.19c-.34-.59-.81-1.04-1.41-1.35-.6-.3-1.3-.46-2.1-.46h-2.38v7.99Z"/><path d="M466.15,939.11c-1.41,0-2.77-.16-4.09-.48-1.31-.32-2.4-.74-3.25-1.25l1.83-4.14c.8.46,1.7.84,2.68,1.12.99.28,1.94.42,2.87.42.54,0,.97-.04,1.29-.11.31-.07.54-.18.69-.31.14-.14.22-.3.22-.49,0-.3-.17-.54-.51-.72-.34-.18-.78-.32-1.33-.44s-1.16-.25-1.82-.38c-.66-.14-1.32-.32-1.98-.54s-1.27-.52-1.83-.89c-.55-.37-1-.85-1.33-1.46-.34-.6-.5-1.35-.5-2.25,0-1.04.29-1.99.88-2.85.58-.86,1.46-1.54,2.62-2.06,1.16-.51,2.61-.77,4.34-.77,1.14,0,2.26.12,3.37.36,1.11.24,2.1.61,2.98,1.11l-1.71,4.11c-.83-.42-1.64-.73-2.42-.94-.78-.21-1.54-.31-2.27-.31-.55,0-.98.05-1.3.14-.32.1-.55.22-.69.38s-.2.34-.2.53c0,.29.17.52.51.69.34.17.78.31,1.33.42.55.11,1.16.23,1.83.36.67.13,1.33.3,1.98.53.66.23,1.26.52,1.82.89s1,.85,1.33,1.44c.34.59.5,1.33.5,2.21,0,1.03-.29,1.97-.88,2.83-.59.86-1.46,1.55-2.61,2.07-1.15.52-2.61.78-4.35.78Z"/><path d="M479.93,938.72l-5.39-16.83h5.84l4.35,14.21h-2.93l4.62-14.21h5.22l4.3,14.21h-2.81l4.55-14.21h5.39l-5.39,16.83h-6.08l-3.51-11.64h1.64l-3.7,11.64h-6.08Z"/><path d="M504.32,938.72v-16.83h5.68v16.83h-5.68Z"/><path d="M512.73,938.72v-16.83h4.67l6.73,10.99h-2.45l6.54-10.99h4.67l.05,16.83h-5.17l-.05-9.04h.82l-4.47,7.53h-2.5l-4.67-7.53h1.01v9.04h-5.17Z"/><path d="M549.17,939.11c-1.41,0-2.77-.16-4.09-.48-1.32-.32-2.4-.74-3.25-1.25l1.83-4.14c.8.46,1.7.84,2.68,1.12.99.28,1.94.42,2.87.42.54,0,.97-.04,1.29-.11s.54-.18.69-.31c.14-.14.22-.3.22-.49,0-.3-.17-.54-.5-.72-.34-.18-.78-.32-1.33-.44-.55-.12-1.16-.25-1.82-.38-.66-.14-1.32-.32-1.98-.54-.67-.22-1.28-.52-1.83-.89-.55-.37-1-.85-1.33-1.46-.34-.6-.5-1.35-.5-2.25,0-1.04.29-1.99.88-2.85.58-.86,1.46-1.54,2.62-2.06,1.16-.51,2.61-.77,4.34-.77,1.14,0,2.26.12,3.37.36,1.11.24,2.1.61,2.98,1.11l-1.71,4.11c-.83-.42-1.64-.73-2.42-.94-.78-.21-1.54-.31-2.27-.31-.54,0-.98.05-1.3.14-.32.1-.55.22-.68.38-.14.16-.21.34-.21.53,0,.29.17.52.5.69.34.17.78.31,1.33.42.55.11,1.16.23,1.83.36.67.13,1.33.3,1.98.53.66.23,1.26.52,1.82.89s1,.85,1.33,1.44c.34.59.5,1.33.5,2.21,0,1.03-.29,1.97-.88,2.83s-1.46,1.55-2.61,2.07c-1.15.52-2.61.78-4.35.78Z"/><path d="M558.69,938.72v-16.83h5.68v16.83h-5.68ZM563.98,932.52v-4.67h6.01v4.67h-6.01ZM569.61,938.72v-16.83h5.68v16.83h-5.68Z"/><path d="M586.86,939.11c-1.36,0-2.63-.22-3.79-.65s-2.17-1.05-3.02-1.84-1.51-1.73-1.98-2.8c-.47-1.07-.71-2.24-.71-3.51s.24-2.46.71-3.52c.47-1.07,1.13-2,1.98-2.79.85-.79,1.86-1.41,3.02-1.84s2.42-.65,3.79-.65,2.65.22,3.8.65,2.16,1.05,3.01,1.84c.85.79,1.51,1.72,1.98,2.79s.71,2.24.71,3.52-.24,2.44-.71,3.51-1.13,2.01-1.98,2.8c-.85.79-1.85,1.41-3.01,1.84s-2.42.65-3.8.65ZM586.86,934.51c.53,0,1.02-.1,1.48-.29.46-.19.86-.47,1.2-.83s.61-.8.81-1.32c.19-.52.29-1.11.29-1.77s-.1-1.25-.29-1.77c-.19-.52-.46-.96-.81-1.32-.34-.36-.75-.64-1.2-.83-.46-.19-.95-.29-1.48-.29s-1.02.1-1.48.29-.86.47-1.2.83c-.34.36-.61.8-.81,1.32-.19.52-.29,1.11-.29,1.77s.1,1.25.29,1.77c.19.52.46.96.81,1.32s.75.64,1.2.83.95.29,1.48.29Z"/><path d="M598.42,938.72v-16.83h7.86c2.58,0,4.54.57,5.89,1.71,1.35,1.14,2.02,2.69,2.02,4.64,0,1.3-.31,2.42-.94,3.35-.63.94-1.51,1.66-2.66,2.15s-2.5.75-4.08.75h-4.95l2.53-2.33v6.57h-5.68ZM604.1,932.78l-2.53-2.57h4.59c.79,0,1.37-.18,1.74-.53s.57-.83.57-1.44-.19-1.09-.57-1.44-.96-.53-1.74-.53h-4.59l2.53-2.57v9.09ZM608.5,938.72l-4.14-6.13h6.01l4.18,6.13h-6.06Z"/><path d="M619.76,938.72v-12.43h-4.93v-4.4h15.54v4.4h-4.93v12.43h-5.68Z"/></g><g><path d="M687.49,938.52v-18.44h14.99v4.69h-8.77v13.75h-6.22ZM693.28,932.62v-4.69h8.12v4.69h-8.12Z"/><path d="M704.45,938.52v-18.44h8.62c2.83,0,4.98.62,6.46,1.87,1.48,1.25,2.21,2.94,2.21,5.09,0,1.42-.34,2.65-1.03,3.68-.69,1.03-1.66,1.81-2.91,2.36s-2.74.82-4.47.82h-5.43l2.77-2.56v7.19h-6.22ZM710.67,932.01l-2.77-2.82h5.03c.86,0,1.5-.19,1.91-.58s.62-.91.62-1.58-.21-1.19-.62-1.58c-.41-.39-1.05-.58-1.91-.58h-5.03l2.77-2.82v9.96ZM715.49,938.52l-4.53-6.72h6.59l4.58,6.72h-6.64Z"/><path d="M733.75,938.94c-1.49,0-2.88-.24-4.15-.71-1.27-.47-2.38-1.15-3.31-2.02-.93-.87-1.66-1.89-2.17-3.07-.52-1.18-.78-2.46-.78-3.85s.26-2.69.78-3.86c.52-1.17,1.24-2.19,2.17-3.06.93-.87,2.03-1.54,3.31-2.02,1.27-.47,2.66-.71,4.15-.71s2.9.24,4.16.71c1.27.47,2.36,1.15,3.29,2.02.93.87,1.66,1.89,2.17,3.06.52,1.17.78,2.46.78,3.86s-.26,2.67-.78,3.85-1.24,2.2-2.17,3.07-2.03,1.54-3.29,2.02c-1.26.47-2.65.71-4.16.71ZM733.75,933.91c.58,0,1.12-.11,1.62-.32.5-.21.94-.51,1.32-.91.38-.4.67-.88.88-1.45.21-.57.32-1.22.32-1.94s-.11-1.37-.32-1.94c-.21-.57-.51-1.05-.88-1.45-.38-.4-.82-.7-1.32-.91-.5-.21-1.04-.32-1.62-.32s-1.12.11-1.62.32-.94.51-1.32.91c-.38.4-.67.88-.88,1.45-.21.57-.32,1.22-.32,1.94s.11,1.37.32,1.94c.21.57.5,1.05.88,1.45.38.39.82.7,1.32.91.5.21,1.04.32,1.62.32Z"/><path d="M746.43,938.52v-18.44h5.11l9.38,11.22h-2.37v-11.22h6.06v18.44h-5.11l-9.38-11.22h2.37v11.22h-6.06Z"/><path d="M771.62,938.52v-13.62h-5.4v-4.82h17.02v4.82h-5.4v13.62h-6.22Z"/><path d="M798.55,938.52l-7.8-18.44h6.69l6.35,15.57h-3.98l6.54-15.57h6.11l-7.8,18.44h-6.11Z"/><path d="M813.07,938.52v-18.44h6.22v18.44h-6.22Z"/><path d="M822.29,938.52v-18.44h14.99v4.69h-8.88v9.06h9.22v4.69h-15.33ZM827.98,931.41v-4.48h8.22v4.48h-8.22Z"/><path d="M844.42,938.52l-5.9-18.44h6.4l4.77,15.57h-3.21l5.06-15.57h5.72l4.72,15.57h-3.08l4.98-15.57h5.9l-5.9,18.44h-6.67l-3.85-12.75h1.79l-4.06,12.75h-6.67Z"/></g></g></svg>