<?xml version="1.0" encoding="UTF-8"?><svg xmlns="http://www.w3.org/2000/svg" version="1.1" viewBox="0 0 992.13 992.13"><title>Satuit DWG-401 Material Hoodie</title><desc>Gold+ semantic SVG. Geometry unchanged.</desc><defs><style> .outline, .seam { fill: #fff; } .stitching { stroke-width: 2px; } .stitching, .dimension, .annotation, .grid { fill: none; } .stitching, .dimension, .annotation, .grid, .seam { stroke: #000; stroke-miterlimit: 10; } .st6 { fill: #27aae1; } .dimension { stroke-width: 4px; } .annotation { stroke-width: 3.91px; } .grid { stroke-width: 3.98px; } .st7 { opacity: .38; } .seam { stroke-width: 3.88px; } </style></defs><g id="_x31_.GRID_x5F_BG"><g class="st7"><rect class="st6" x="77.84" y="959.57" width="836.45" height="1.02"/><rect class="st6" x="77.84" y="912.83" width="836.45" height="1.02"/><rect class="st6" x="77.84" y="866.1" width="836.45" height="1.02"/><rect class="st6" x="77.84" y="819.36" width="836.45" height="1.02"/><rect class="st6" x="77.84" y="772.62" width="836.45" height="1.02"/><rect class="st6" x="77.84" y="725.88" width="836.45" height="1.02"/><rect class="st6" x="77.84" y="679.15" width="836.45" height="1.02"/><rect class="st6" x="77.84" y="632.41" width="836.45" height="1.02"/><rect class="st6" x="77.84" y="585.67" width="836.45" height="1.02"/><rect class="st6" x="77.84" y="538.94" width="836.45" height="1.02"/><rect class="st6" x="77.84" y="492.2" width="836.45" height="1.02"/><rect class="st6" x="77.84" y="445.46" width="836.45" height="1.02"/><rect class="st6" x="77.84" y="398.72" width="836.45" height="1.02"/><rect class="st6" x="77.84" y="351.99" width="836.45" height="1.02"/><rect class="st6" x="77.84" y="305.25" width="836.45" height="1.02"/><rect class="st6" x="77.84" y="258.51" width="836.45" height="1.02"/><rect class="st6" x="77.84" y="211.78" width="836.45" height="1.02"/><rect class="st6" x="77.84" y="165.04" width="836.45" height="1.02"/><rect class="st6" x="77.84" y="118.3" width="836.45" height="1.02"/><rect class="st6" x="77.84" y="71.56" width="836.45" height="1.02"/><rect class="st6" x="909.76" y="31.87" width=".8" height="927.7"/><rect class="st6" x="860.8" y="31.53" width="1.02" height="928.04"/><rect class="st6" x="811.83" y="31.53" width="1.02" height="928.04"/><rect class="st6" x="762.86" y="31.53" width="1.02" height="928.04"/><rect class="st6" x="713.9" y="31.53" width="1.02" height="928.04"/><rect class="st6" x="664.93" y="31.53" width="1.02" height="928.04"/><rect class="st6" x="615.96" y="31.53" width="1.02" height="928.04"/><rect class="st6" x="566.99" y="31.53" width="1.02" height="928.04"/><rect class="st6" x="518.03" y="31.53" width="1.02" height="928.04"/><rect class="st6" x="469.06" y="31.53" width="1.02" height="928.04"/><rect class="st6" x="420.09" y="31.53" width="1.02" height="928.04"/><rect class="st6" x="371.13" y="31.53" width="1.02" height="928.04"/><rect class="st6" x="322.16" y="31.53" width="1.02" height="928.04"/><rect class="st6" x="273.19" y="31.53" width="1.02" height="928.04"/><rect class="st6" x="224.23" y="31.53" width="1.02" height="928.04"/><rect class="st6" x="175.26" y="31.53" width="1.02" height="928.04"/><rect class="st6" x="126.29" y="31.53" width="1.02" height="928.04"/></g><g><rect class="grid" x="77.58" y="30.35" width="836.97" height="931.42"/><rect class="seam" x="640.91" y="822.57" width="273.64" height="139.21"/><line class="annotation" x1="640.91" y1="887.71" x2="914.55" y2="887.71"/></g></g><g id="_x32_.MASK_x5F_FILL"><path class="outline" d="M674.13,773.88c1.36-35.1,7.52-49.04,7.52-49.04,0,0,4.77-8.56,6.86-18.62,5.75-27.74-2.02-86.1-2.02-86.1,23.24,86.62,47.14,109.17,47.14,109.17,16.6,13.42,26.01,49.4,26.01,49.4l62.89-15.81c-6.2-22.4-7.51-51.92-7.51-51.92,4.81-6.8,3.74-19.72,3.74-19.72-7.29-96.78-91.35-339.87-117.4-373.7-20.72-26.91-68.68-42.07-85.5-46.71-3.95-1.09-7.48-3.32-10.14-6.44l-6.69-7.82c-3.12-3.65-3.94-8.83-1.82-13.14,9.27-18.78,39.48-36.53,25.13-73.21-18.48-47.25-54.26-92.03-101.72-102.1-2.23-.47-4.52-.65-6.8-.65h0c-2.28,0-4.57.18-6.8.65-47.47,10.07-83.24,54.85-101.72,102.1-14.35,36.68,15.87,54.44,25.13,73.21,2.12,4.31,1.3,9.49-1.82,13.14l-6.69,7.82c-2.66,3.11-6.19,5.35-10.14,6.44-16.81,4.64-64.78,19.8-85.5,46.71-26.05,33.83-110.11,276.92-117.4,373.7,0,0-1.58,9.5,1.74,19.87,0,0,.69,29.38-5.52,51.77l62.81,15.79s9.49-35.96,26.09-49.38c0,0,23.9-22.55,47.14-109.17,0,0-7.77,58.36-2.02,86.1,2.09,10.06,6.86,18.62,6.86,18.62,0,0,6.16,13.94,7.52,49.04h320.61Z"/></g><g id="_x33_.SEAMS_x5F_INT"><path class="stitching" d="M326.28,317.53s41.3,79.84,13.44,147.39v165.19"/><path class="stitching" d="M701.33,317.53s-41.3,79.84-13.44,147.39v165.19"/><line class="stitching" x1="513.15" y1="67.71" x2="513.15" y2="276.53"/><path class="stitching" d="M210.63,709.87s50.91,2.59,79.3,23.43"/><path class="stitching" d="M815.02,709.87s-50.91,2.59-79.3,23.43"/><line class="stitching" x1="342.17" y1="716.42" x2="684.61" y2="716.42"/><path class="stitching" d="M426.95,258.51s22.04,17.5,86.87,18.02,85.21-19.96,85.21-19.96"/></g><g id="_x34_.OUTLINE_MAIN"><path class="dimension" d="M674.13,773.88c1.36-35.1,7.52-49.04,7.52-49.04,0,0,4.77-8.56,6.86-18.62,5.75-27.74-.62-86.1-.62-86.1,23.24,86.62,45.74,109.17,45.74,109.17,16.6,13.42,26.01,49.4,26.01,49.4l62.89-15.81c-6.2-22.4-7.51-51.92-7.51-51.92,4.81-6.8,3.74-19.72,3.74-19.72-7.29-96.78-91.35-339.87-117.4-373.7-20.72-26.91-68.68-42.07-85.5-46.71-3.95-1.09-7.48-3.32-10.14-6.44l-6.69-7.82c-3.12-3.65-3.94-8.83-1.82-13.14,9.27-18.78,39.48-36.53,25.13-73.21-18.48-47.25-54.26-92.03-101.72-102.1-2.23-.47-4.52-.65-6.8-.65h0c-2.28,0-4.57.18-6.8.65-47.47,10.07-83.24,54.85-101.72,102.1-14.35,36.68,15.87,54.44,25.13,73.21,2.12,4.31,1.3,9.49-1.82,13.14l-6.69,7.82c-2.66,3.11-6.19,5.35-10.14,6.44-16.81,4.64-64.78,19.8-85.5,46.71-26.05,33.83-110.11,276.92-117.4,373.7,0,0-1.58,9.5,1.74,19.87,0,0,.69,29.38-5.52,51.77l62.81,15.79s9.49-35.96,26.09-49.38c0,0,22.47-22.26,45.71-108.88,0,0-6.34,58.07-.59,85.81,2.09,10.06,6.86,18.62,6.86,18.62,0,0,6.16,13.94,7.52,49.04h320.61Z"/></g><g id="_x39_.ANNOTATIONS"><g><path d="M687.49,938.52v-18.44h9.86c2.55,0,4.43.45,5.64,1.36,1.21.91,1.82,2.06,1.82,3.46,0,.93-.26,1.76-.78,2.49-.52.73-1.27,1.3-2.25,1.73-.98.42-2.2.63-3.63.63l.53-1.42c1.44,0,2.68.2,3.73.61s1.85.99,2.43,1.75c.57.76.86,1.68.86,2.75,0,1.6-.66,2.85-1.99,3.74s-3.26,1.34-5.81,1.34h-10.38ZM693.6,934.17h3.74c.69,0,1.2-.12,1.54-.37.34-.25.51-.61.51-1.08s-.17-.83-.51-1.08-.86-.37-1.54-.37h-4.16v-4.11h3.32c.7,0,1.22-.12,1.54-.36.33-.24.49-.58.49-1.01s-.16-.8-.49-1.03c-.32-.23-.84-.34-1.54-.34h-2.9v9.75Z"/><path d="M705.85,938.52l8.06-18.44h6.11l8.06,18.44h-6.43l-5.96-15.49h2.42l-5.96,15.49h-6.32ZM710.65,935.31l1.58-4.48h8.48l1.58,4.48h-11.65Z"/><path d="M738.37,938.94c-1.47,0-2.84-.23-4.1-.7-1.26-.47-2.35-1.13-3.27-1.99-.92-.86-1.64-1.88-2.15-3.06s-.76-2.48-.76-3.9.25-2.72.76-3.9,1.23-2.2,2.15-3.06c.92-.86,2.01-1.52,3.27-1.99,1.26-.46,2.62-.7,4.1-.7,1.81,0,3.41.32,4.81.95,1.4.63,2.55,1.55,3.46,2.74l-3.93,3.5c-.54-.69-1.14-1.22-1.8-1.59-.66-.38-1.4-.57-2.23-.57-.65,0-1.24.11-1.77.32-.53.21-.98.52-1.36.92-.38.4-.67.89-.88,1.46-.21.57-.32,1.21-.32,1.91s.11,1.34.32,1.91c.21.57.5,1.06.88,1.46.38.4.83.71,1.36.92.53.21,1.12.32,1.77.32.83,0,1.57-.19,2.23-.57.66-.38,1.26-.91,1.8-1.59l3.93,3.5c-.91,1.18-2.07,2.09-3.46,2.73-1.4.64-3,.96-4.81.96Z"/><path d="M748.25,938.52v-18.44h6.11v18.44h-6.11ZM753.81,934.57l-.34-6.83,6.96-7.67h6.77l-7.8,8.59-3.45,3.53-2.13,2.37ZM760.37,938.52l-5.43-7.17,4.03-4.27,8.59,11.44h-7.19Z"/><path d="M782.11,938.52l-7.8-18.44h6.69l6.35,15.57h-3.98l6.54-15.57h6.11l-7.8,18.44h-6.11Z"/><path d="M796.63,938.52v-18.44h6.22v18.44h-6.22Z"/><path d="M805.85,938.52v-18.44h14.99v4.69h-8.88v9.06h9.22v4.69h-15.34ZM811.54,931.41v-4.48h8.22v4.48h-8.22Z"/><path d="M827.98,938.52l-5.9-18.44h6.4l4.77,15.57h-3.21l5.06-15.57h5.72l4.72,15.57h-3.08l4.98-15.57h5.9l-5.9,18.44h-6.67l-3.85-12.75h1.79l-4.06,12.75h-6.67Z"/></g><g><path d="M653.53,868.82c-1.55,0-3.04-.18-4.48-.53s-2.63-.81-3.56-1.37l2-4.53c.88.51,1.86.92,2.94,1.23s2.13.46,3.15.46c.6,0,1.07-.04,1.41-.12.34-.08.59-.19.75-.34s.24-.33.24-.54c0-.33-.18-.6-.55-.79s-.86-.36-1.46-.49c-.61-.13-1.27-.27-1.99-.42-.72-.15-1.44-.35-2.17-.59-.73-.25-1.4-.57-2-.97-.61-.4-1.09-.94-1.46-1.59-.37-.66-.55-1.48-.55-2.46,0-1.14.32-2.18.96-3.12.64-.94,1.6-1.69,2.87-2.25,1.27-.56,2.86-.84,4.76-.84,1.25,0,2.48.13,3.69.4,1.21.26,2.3.67,3.27,1.21l-1.87,4.51c-.91-.46-1.8-.8-2.65-1.03-.85-.23-1.68-.34-2.49-.34-.6,0-1.07.05-1.42.16-.35.11-.6.25-.75.42-.15.18-.22.37-.22.58,0,.32.18.57.55.75s.86.34,1.46.46c.61.12,1.27.25,2,.4.73.14,1.45.33,2.17.58.72.25,1.38.57,1.99.98.61.4,1.09.93,1.46,1.58.37.65.55,1.46.55,2.42,0,1.12-.32,2.16-.96,3.1-.64.94-1.59,1.7-2.86,2.27-1.26.57-2.85.86-4.77.86Z"/><path d="M661.96,868.39l8.06-18.44h6.11l8.06,18.44h-6.43l-5.96-15.49h2.42l-5.96,15.49h-6.32ZM666.76,865.18l1.58-4.48h8.48l1.58,4.48h-11.65Z"/><path d="M688.28,868.39v-13.62h-5.4v-4.82h17.02v4.82h-5.4v13.62h-6.22Z"/><path d="M709.94,868.82c-2.83,0-5.03-.76-6.61-2.29-1.58-1.53-2.37-3.67-2.37-6.43v-10.14h6.22v9.96c0,1.41.25,2.4.76,2.99.51.59,1.19.88,2.06.88s1.57-.29,2.07-.88c.5-.59.75-1.58.75-2.99v-9.96h6.11v10.14c0,2.76-.79,4.9-2.37,6.43s-3.79,2.29-6.61,2.29Z"/><path d="M725.38,868.39v-13.62h-5.4v-4.82h17.02v4.82h-5.4v13.62h-6.22Z"/><path d="M753.39,868.82c-1.55,0-3.04-.18-4.48-.53s-2.63-.81-3.56-1.37l2-4.53c.88.51,1.86.92,2.94,1.23s2.13.46,3.15.46c.6,0,1.07-.04,1.41-.12.34-.08.59-.19.75-.34s.24-.33.24-.54c0-.33-.18-.6-.55-.79s-.86-.36-1.46-.49c-.61-.13-1.27-.27-1.99-.42-.72-.15-1.44-.35-2.17-.59-.73-.25-1.4-.57-2-.97-.61-.4-1.09-.94-1.46-1.59-.37-.66-.55-1.48-.55-2.46,0-1.14.32-2.18.96-3.12.64-.94,1.6-1.69,2.87-2.25,1.27-.56,2.86-.84,4.76-.84,1.25,0,2.48.13,3.69.4,1.21.26,2.3.67,3.27,1.21l-1.87,4.51c-.91-.46-1.8-.8-2.65-1.03-.85-.23-1.68-.34-2.49-.34-.6,0-1.07.05-1.42.16-.35.11-.6.25-.75.42-.15.18-.22.37-.22.58,0,.32.18.57.55.75s.86.34,1.46.46c.61.12,1.27.25,2,.4.73.14,1.45.33,2.17.58.72.25,1.38.57,1.99.98.61.4,1.09.93,1.46,1.58.37.65.55,1.46.55,2.42,0,1.12-.32,2.16-.96,3.1-.64.94-1.59,1.7-2.86,2.27-1.26.57-2.85.86-4.77.86Z"/><path d="M772.65,868.82c-2.83,0-5.03-.76-6.61-2.29-1.58-1.53-2.37-3.67-2.37-6.43v-10.14h6.22v9.96c0,1.41.25,2.4.76,2.99.51.59,1.19.88,2.06.88s1.57-.29,2.07-.88c.5-.59.75-1.58.75-2.99v-9.96h6.11v10.14c0,2.76-.79,4.9-2.37,6.43s-3.79,2.29-6.61,2.29Z"/><path d="M784.49,868.39v-18.44h8.88c1.72,0,3.21.28,4.47.84,1.26.56,2.23,1.37,2.91,2.41.68,1.04,1.03,2.28,1.03,3.7s-.34,2.65-1.03,3.69c-.69,1.04-1.66,1.84-2.91,2.41-1.26.57-2.74.86-4.47.86h-5.43l2.77-2.66v7.19h-6.22ZM790.7,861.89l-2.77-2.82h5.03c.86,0,1.5-.19,1.91-.58s.62-.91.62-1.58-.21-1.19-.62-1.58c-.41-.39-1.05-.58-1.91-.58h-5.03l2.77-2.82v9.96Z"/><path d="M803.8,868.39v-18.44h8.88c1.72,0,3.21.28,4.47.84,1.26.56,2.23,1.37,2.91,2.41.68,1.04,1.03,2.28,1.03,3.7s-.34,2.65-1.03,3.69c-.69,1.04-1.66,1.84-2.91,2.41-1.26.57-2.74.86-4.47.86h-5.43l2.77-2.66v7.19h-6.22ZM810.02,861.89l-2.77-2.82h5.03c.86,0,1.5-.19,1.91-.58s.62-.91.62-1.58-.21-1.19-.62-1.58c-.41-.39-1.05-.58-1.91-.58h-5.03l2.77-2.82v9.96Z"/><path d="M823.11,868.39v-18.44h6.22v13.62h8.33v4.82h-14.54Z"/><path d="M842.27,868.39v-8.09l1.42,3.71-8.38-14.07h6.56l5.67,9.62h-3.82l5.72-9.62h6.01l-8.33,14.07,1.37-3.71v8.09h-6.22Z"/><path d="M873.68,868.82c-1.48,0-2.84-.23-4.1-.7-1.26-.47-2.35-1.13-3.27-1.99-.92-.86-1.64-1.88-2.15-3.06-.51-1.18-.76-2.48-.76-3.9s.25-2.72.76-3.9c.51-1.18,1.23-2.2,2.15-3.06.92-.86,2.01-1.52,3.27-1.99,1.26-.46,2.62-.7,4.1-.7,1.81,0,3.41.32,4.81.95,1.4.63,2.55,1.55,3.46,2.74l-3.93,3.5c-.54-.69-1.15-1.22-1.8-1.59-.66-.38-1.4-.57-2.23-.57-.65,0-1.24.11-1.77.32-.53.21-.98.52-1.36.92-.38.4-.67.89-.88,1.46-.21.57-.32,1.21-.32,1.91s.11,1.34.32,1.91c.21.57.5,1.06.88,1.46.38.4.83.71,1.36.92.53.21,1.12.32,1.77.32.83,0,1.57-.19,2.23-.57.66-.38,1.26-.91,1.8-1.59l3.93,3.5c-.91,1.18-2.07,2.09-3.46,2.73-1.4.64-3,.96-4.81.96Z"/><path d="M892.57,868.82c-1.49,0-2.88-.24-4.15-.71-1.27-.47-2.38-1.15-3.31-2.02-.93-.87-1.66-1.89-2.17-3.07-.52-1.18-.78-2.46-.78-3.85s.26-2.69.78-3.86c.52-1.17,1.24-2.19,2.17-3.06.93-.87,2.03-1.54,3.31-2.02,1.27-.47,2.66-.71,4.15-.71s2.9.24,4.16.71c1.27.47,2.36,1.15,3.29,2.02.93.87,1.66,1.89,2.17,3.06.52,1.17.78,2.46.78,3.86s-.26,2.67-.78,3.85-1.24,2.2-2.17,3.07-2.03,1.54-3.29,2.02c-1.26.47-2.65.71-4.16.71ZM892.57,863.78c.58,0,1.12-.11,1.62-.32.5-.21.94-.51,1.32-.91.38-.4.67-.88.88-1.45.21-.57.32-1.22.32-1.94s-.11-1.37-.32-1.94c-.21-.57-.51-1.05-.88-1.45-.38-.4-.82-.7-1.32-.91-.5-.21-1.04-.32-1.62-.32s-1.12.11-1.62.32-.94.51-1.32.91c-.38.4-.67.88-.88,1.45-.21.57-.32,1.22-.32,1.94s.11,1.37.32,1.94c.21.57.5,1.05.88,1.45.38.39.82.7,1.32.91.5.21,1.04.32,1.62.32Z"/><path d="M907.22,868.66c-.98,0-1.81-.32-2.48-.96-.67-.64-1-1.46-1-2.46s.33-1.83,1-2.45c.67-.62,1.49-.92,2.48-.92s1.81.31,2.48.92c.67.62,1,1.43,1,2.45s-.33,1.82-1,2.46c-.67.64-1.49.96-2.48.96Z"/></g><g><path d="M85.59,932.14v-18.68h9.21c2.08,0,3.91.38,5.5,1.13,1.58.76,2.82,1.83,3.71,3.22.89,1.39,1.33,3.05,1.33,4.99s-.45,3.58-1.33,4.98c-.89,1.4-2.13,2.47-3.71,3.23-1.58.76-3.42,1.13-5.5,1.13h-9.21ZM91.89,927.23h2.64c.89,0,1.67-.17,2.34-.51.67-.34,1.19-.84,1.56-1.51.37-.67.56-1.47.56-2.42s-.19-1.77-.56-2.43c-.37-.66-.89-1.16-1.56-1.49-.67-.34-1.45-.51-2.34-.51h-2.64v8.86Z"/><path d="M111.69,932.14l-5.98-18.68h6.49l4.83,15.77h-3.26l5.12-15.77h5.79l4.78,15.77h-3.12l5.04-15.77h5.98l-5.98,18.68h-6.75l-3.9-12.92h1.81l-4.11,12.92h-6.75Z"/><path d="M148.17,932.56c-1.51,0-2.91-.24-4.18-.71-1.27-.47-2.38-1.14-3.31-2.01s-1.66-1.9-2.17-3.1c-.52-1.19-.77-2.51-.77-3.95s.26-2.76.77-3.95c.52-1.19,1.25-2.22,2.19-3.1s2.06-1.54,3.35-2.02c1.29-.47,2.71-.71,4.26-.71,1.85,0,3.5.31,4.95.93,1.45.62,2.65,1.51,3.59,2.67l-4.03,3.55c-.59-.68-1.22-1.19-1.91-1.53-.68-.35-1.45-.52-2.28-.52-.69,0-1.32.11-1.88.32-.56.21-1.04.52-1.43.93-.39.41-.69.9-.91,1.47-.21.57-.32,1.22-.32,1.95s.11,1.33.32,1.91c.21.58.52,1.07.91,1.48.39.41.86.72,1.4.95s1.15.33,1.83.33c.71,0,1.41-.12,2.08-.36s1.4-.65,2.16-1.24l3.52,4.32c-1.14.77-2.44,1.35-3.9,1.76-1.46.41-2.87.61-4.24.61ZM156.31,930.19l-5.47-.8v-7.1h5.47v7.9Z"/><path d="M167.01,932.14v-18.68h5.18l9.5,11.37h-2.4v-11.37h6.14v18.68h-5.18l-9.5-11.37h2.4v11.37h-6.14Z"/><path d="M198.26,932.56c-1.51,0-2.91-.24-4.2-.72s-2.41-1.16-3.35-2.04-1.68-1.92-2.2-3.11c-.52-1.19-.79-2.49-.79-3.9s.26-2.73.79-3.91c.53-1.18,1.26-2.22,2.2-3.1.94-.88,2.06-1.56,3.35-2.04s2.69-.72,4.2-.72,2.94.24,4.22.72c1.28.48,2.39,1.16,3.34,2.04.94.88,1.68,1.91,2.2,3.1.52,1.18.79,2.49.79,3.91s-.26,2.71-.79,3.9c-.53,1.19-1.26,2.23-2.2,3.11-.94.88-2.06,1.56-3.34,2.04-1.28.48-2.69.72-4.22.72ZM198.26,927.47c.59,0,1.13-.11,1.64-.32.51-.21.95-.52,1.33-.92s.68-.89.89-1.47c.21-.58.32-1.23.32-1.96s-.11-1.38-.32-1.96c-.21-.58-.51-1.07-.89-1.47s-.83-.71-1.33-.92c-.51-.21-1.05-.32-1.64-.32s-1.13.11-1.64.32c-.51.21-.95.52-1.33.92s-.68.89-.89,1.47c-.21.58-.32,1.23-.32,1.96s.11,1.38.32,1.96c.21.58.51,1.07.89,1.47s.83.71,1.33.92c.51.21,1.05.32,1.64.32Z"/><path d="M213.64,924.16c-1,0-1.83-.32-2.51-.97-.68-.65-1.01-1.48-1.01-2.5s.34-1.86,1.01-2.48c.68-.62,1.51-.93,2.51-.93s1.83.31,2.51.93c.68.62,1.01,1.45,1.01,2.48s-.34,1.85-1.01,2.5c-.68.65-1.51.97-2.51.97ZM213.64,932.4c-1,0-1.83-.32-2.51-.97-.68-.65-1.01-1.48-1.01-2.5s.34-1.86,1.01-2.48c.68-.62,1.51-.93,2.51-.93s1.83.31,2.51.93c.68.62,1.01,1.45,1.01,2.48s-.34,1.85-1.01,2.5c-.68.65-1.51.97-2.51.97Z"/><path d="M227.22,932.14v-18.68h6.3v18.68h-6.3ZM233.09,925.25v-5.18h6.67v5.18h-6.67ZM239.34,932.14v-18.68h6.3v18.68h-6.3Z"/><path d="M248.35,926.69v-4.54h8.01v4.54h-8.01Z"/><path d="M258.18,928.93v-4l7.93-11.48h6.46l-7.63,11.48-2.94-.88h14.46v4.88h-18.28ZM267.86,932.14v-3.2l.19-4.88v-2.86h5.92v10.94h-6.11Z"/><path d="M285.8,932.56c-1.66,0-3.12-.38-4.39-1.15-1.27-.76-2.27-1.88-2.99-3.34-.72-1.46-1.08-3.22-1.08-5.28s.36-3.83,1.08-5.28c.72-1.46,1.72-2.57,2.99-3.34,1.27-.76,2.73-1.15,4.39-1.15s3.12.38,4.39,1.15c1.27.77,2.27,1.88,2.99,3.34.72,1.46,1.08,3.22,1.08,5.28s-.36,3.83-1.08,5.28c-.72,1.46-1.72,2.57-2.99,3.34s-2.73,1.15-4.39,1.15ZM285.8,927.52c.41,0,.77-.14,1.09-.43.32-.28.57-.77.76-1.47.19-.69.28-1.64.28-2.83s-.09-2.16-.28-2.84c-.19-.68-.44-1.17-.76-1.46-.32-.28-.69-.43-1.09-.43s-.77.14-1.09.43c-.32.29-.57.77-.76,1.46-.19.68-.28,1.63-.28,2.84s.09,2.13.28,2.83c.19.69.44,1.18.76,1.47.32.29.69.43,1.09.43Z"/><path d="M298.1,932.14v-16.49l2.7,2.56h-5.9v-4.75h9.5v18.68h-6.3Z"/><path d="M307.12,926.69v-4.54h8.01v4.54h-8.01Z"/><path d="M324.55,932.56c-1.57,0-3.08-.18-4.54-.53-1.46-.36-2.66-.82-3.6-1.39l2.03-4.59c.89.52,1.88.93,2.98,1.24s2.16.47,3.19.47c.6,0,1.08-.04,1.43-.12.35-.08.6-.2.76-.35s.24-.33.24-.55c0-.34-.19-.6-.56-.8-.37-.2-.87-.36-1.48-.49-.61-.13-1.29-.28-2.01-.43-.73-.15-1.46-.35-2.2-.6-.74-.25-1.41-.58-2.03-.99-.61-.41-1.11-.95-1.48-1.61s-.56-1.5-.56-2.5c0-1.16.32-2.21.97-3.16.65-.95,1.62-1.71,2.91-2.28s2.9-.85,4.82-.85c1.26,0,2.51.13,3.74.4,1.23.27,2.33.68,3.31,1.23l-1.89,4.56c-.93-.46-1.82-.81-2.68-1.04-.86-.23-1.7-.35-2.52-.35-.6,0-1.08.05-1.44.16-.36.11-.61.25-.76.43-.15.18-.23.37-.23.59,0,.32.19.57.56.76.37.19.87.34,1.48.47s1.29.26,2.03.4,1.47.34,2.2.59,1.4.58,2.02.99c.61.41,1.11.94,1.48,1.6.37.66.56,1.48.56,2.46,0,1.14-.32,2.18-.97,3.14-.65.95-1.61,1.72-2.89,2.29s-2.89.87-4.83.87Z"/><path d="M335.06,926.69v-4.54h8.01v4.54h-8.01Z"/><path d="M345.79,932.14v-18.68h5.18l7.47,12.2h-2.72l7.26-12.2h5.18l.05,18.68h-5.74l-.05-10.03h.91l-4.96,8.35h-2.78l-5.18-8.35h1.12v10.03h-5.74Z"/><path d="M369.22,932.14l8.17-18.68h6.19l8.17,18.68h-6.51l-6.03-15.69h2.46l-6.03,15.69h-6.4ZM374.08,928.88l1.6-4.54h8.59l1.6,4.54h-11.79Z"/><path d="M395.88,932.14v-13.8h-5.47v-4.88h17.24v4.88h-5.47v13.8h-6.3Z"/><path d="M409.28,932.14v-18.68h15.19v4.75h-8.99v9.18h9.34v4.75h-15.53ZM415.04,924.93v-4.54h8.33v4.54h-8.33Z"/><path d="M427.24,932.14v-18.68h8.73c2.87,0,5.04.63,6.54,1.9s2.24,2.98,2.24,5.15c0,1.44-.35,2.68-1.04,3.72-.69,1.04-1.68,1.84-2.95,2.39-1.27.55-2.78.83-4.52.83h-5.5l2.8-2.59v7.29h-6.3ZM433.54,925.54l-2.8-2.86h5.1c.87,0,1.52-.2,1.93-.59s.63-.92.63-1.6-.21-1.21-.63-1.6c-.42-.39-1.06-.59-1.93-.59h-5.1l2.8-2.86v10.09ZM438.42,932.14l-4.59-6.81h6.67l4.64,6.81h-6.73Z"/><path d="M447.12,932.14v-18.68h6.3v18.68h-6.3Z"/><path d="M454.43,932.14l8.17-18.68h6.19l8.17,18.68h-6.51l-6.03-15.69h2.46l-6.03,15.69h-6.41ZM459.29,928.88l1.6-4.54h8.59l1.6,4.54h-11.8Z"/><path d="M477.97,932.14v-18.68h6.3v13.8h8.43v4.88h-14.73Z"/><path d="M502.44,932.14v-18.68h6.3v18.68h-6.3ZM508.32,925.25v-5.18h6.67v5.18h-6.67ZM514.56,932.14v-18.68h6.3v18.68h-6.3Z"/><path d="M533.69,932.56c-1.51,0-2.91-.24-4.2-.72s-2.41-1.16-3.35-2.04-1.68-1.92-2.2-3.11c-.53-1.19-.79-2.49-.79-3.9s.26-2.73.79-3.91c.52-1.18,1.26-2.22,2.2-3.1.94-.88,2.06-1.56,3.35-2.04s2.69-.72,4.2-.72,2.94.24,4.22.72,2.39,1.16,3.34,2.04c.94.88,1.68,1.91,2.2,3.1.53,1.18.79,2.49.79,3.91s-.26,2.71-.79,3.9c-.52,1.19-1.26,2.23-2.2,3.11-.94.88-2.05,1.56-3.34,2.04s-2.69.72-4.22.72ZM533.69,927.47c.59,0,1.13-.11,1.64-.32.51-.21.95-.52,1.33-.92s.68-.89.89-1.47c.21-.58.32-1.23.32-1.96s-.11-1.38-.32-1.96c-.21-.58-.51-1.07-.89-1.47s-.83-.71-1.33-.92c-.51-.21-1.05-.32-1.64-.32s-1.13.11-1.64.32c-.51.21-.95.52-1.33.92s-.68.89-.89,1.47c-.21.58-.32,1.23-.32,1.96s.11,1.38.32,1.96c.21.58.51,1.07.89,1.47s.83.71,1.33.92c.51.21,1.05.32,1.64.32Z"/><path d="M556.33,932.56c-1.51,0-2.91-.24-4.2-.72s-2.41-1.16-3.35-2.04-1.68-1.92-2.2-3.11c-.53-1.19-.79-2.49-.79-3.9s.26-2.73.79-3.91c.52-1.18,1.26-2.22,2.2-3.1.94-.88,2.06-1.56,3.35-2.04s2.69-.72,4.2-.72,2.94.24,4.22.72,2.39,1.16,3.34,2.04c.94.88,1.68,1.91,2.2,3.1.53,1.18.79,2.49.79,3.91s-.26,2.71-.79,3.9c-.52,1.19-1.26,2.23-2.2,3.11-.94.88-2.05,1.56-3.34,2.04s-2.69.72-4.22.72ZM556.33,927.47c.59,0,1.13-.11,1.64-.32.51-.21.95-.52,1.33-.92s.68-.89.89-1.47c.21-.58.32-1.23.32-1.96s-.11-1.38-.32-1.96c-.21-.58-.51-1.07-.89-1.47s-.83-.71-1.33-.92c-.51-.21-1.05-.32-1.64-.32s-1.13.11-1.64.32c-.51.21-.95.52-1.33.92s-.68.89-.89,1.47c-.21.58-.32,1.23-.32,1.96s.11,1.38.32,1.96c.21.58.51,1.07.89,1.47s.83.71,1.33.92c.51.21,1.05.32,1.64.32Z"/><path d="M569.16,932.14v-18.68h9.21c2.08,0,3.91.38,5.5,1.13,1.58.76,2.82,1.83,3.71,3.22s1.33,3.05,1.33,4.99-.44,3.58-1.33,4.98-2.13,2.47-3.71,3.23c-1.58.76-3.42,1.13-5.5,1.13h-9.21ZM575.46,927.23h2.64c.89,0,1.67-.17,2.33-.51.67-.34,1.19-.84,1.56-1.51.37-.67.56-1.47.56-2.42s-.19-1.77-.56-2.43c-.37-.66-.89-1.16-1.56-1.49s-1.45-.51-2.33-.51h-2.64v8.86Z"/><path d="M591.21,932.14v-18.68h6.3v18.68h-6.3Z"/><path d="M600.55,932.14v-18.68h15.18v4.75h-8.99v9.18h9.34v4.75h-15.53ZM606.31,924.93v-4.54h8.33v4.54h-8.33Z"/></g></g></svg>